<?xml version="1.0" encoding="UTF-8" standalone="no"?>
<svg
   version="1.1"
   viewBox="-10 0 1809 1000"
   id="svg1"
   sodipodi:docname="lessNegMoralegreater.svg"
   xmlns:inkscape="http://www.inkscape.org/namespaces/inkscape"
   xmlns:sodipodi="http://sodipodi.sourceforge.net/DTD/sodipodi-0.dtd"
   xmlns="http://www.w3.org/2000/svg"
   xmlns:svg="http://www.w3.org/2000/svg">
  <defs
     id="defs1" />
  <sodipodi:namedview
     id="namedview1"
     pagecolor="#ffffff"
     bordercolor="#000000"
     borderopacity="0.25"
     inkscape:showpageshadow="2"
     inkscape:pageopacity="0.0"
     inkscape:pagecheckerboard="0"
     inkscape:deskcolor="#d1d1d1" />
  <path
     fill="currentColor"
     d="M1633 200q10 79 26 150.5t29 111.5t25 100.5t13.5 116.5t-4.5 160q-5 56 -12 100t-21 95t-39 91t-60 66q-18 14 -35.5 7.5t-7.5 -32.5q55 -146 51 -231q-2 -55 -16 -80q0 52 -21 120t-53 98q-14 13 -29.5 10t-9.5 -27l8.5 -31.5t13 -52t8.5 -57t2 -69.5q-3 -44 -7 -63 q-25 123 -69 161q-12 12 -25 10t-10 -22q1 -2 8 -31t10.5 -51t0.5 -61t-16 -75q-19 95 -40 122q-10 14 -23.5 13.5t-11.5 -21.5v-4q0 -17 0.5 -33.5t-6 -35.5t-18 -37t-35 -37t-57.5 -37q-78 -39 -117 -85q-9 73 -9 102q2 58 54.5 135t117.5 124q10 7 -9 10q-41 7 -96 -20 q23 60 61 123q7 11 -6 11q-33 -2 -87 -47q-25 -21 -47 -46q19 68 47 133q5 12 -5 11q-24 -2 -70 -49q-31 -31 -55 -69q1 41 20.5 90t20.5 55q2 8 -6 8q-22 -2 -57 -41q-14 -16 -25 -35q6 89 -35 124q-40 -35 -34 -124q-31 51 -70 71q-20 9 -19 -3q2 -6 21 -55t20 -90 q-45 73 -101 108q-31 19 -31 6q0 -3 2 -7q29 -65 47 -133q-57 68 -117 89q-26 9 -25 -2q0 -2 2 -5q39 -64 61 -123q-57 28 -98 20q-16 -3 -7 -10q65 -47 118 -124t55 -135q0 -27 -10 -102q-38 46 -116 85q-34 18 -58 37t-35 37t-17.5 37t-6 35.5t-0.5 33.5q0 1 0.5 2t0.5 2 q1 21 -12.5 21.5t-23.5 -13.5q-21 -27 -39 -122q-14 36 -17 75t0.5 61t11 51t7.5 31q4 20 -9.5 22t-25.5 -10q-43 -38 -68 -161q-5 19 -8 63q-1 33 3 69.5t8 57t12.5 52l8.5 31.5q6 24 -9 27t-29 -10q-32 -30 -53.5 -98t-21.5 -120q-14 26 -16 80q-3 85 51 231 q10 26 -7 32.5t-35 -7.5q-35 -26 -60.5 -66t-39.5 -90.5t-21 -95t-12 -100.5q-6 -104 -4.5 -160t14 -116.5t25 -100.5t28.5 -111.5t26 -150.5q7 -56 34 -101t61.5 -70t76 -41t73 -21.5t56.5 -5.5t42 4t25.5 11t13.5 16.5t5 20.5t1 22t1 22q0 6 0.5 19.5t1.5 18t3 15 t5.5 17.5t10.5 18t17 23q19 23 41.5 34.5t40 10.5t32.5 -8q24 -12 56 -41.5t38 -42.5q7 -17 7 -41q0 -11 -2.5 -21t-5.5 -14l-2 -5q-7 0 -19.5 -7t-25.5 -4q-8 1 -16 8t-14 15.5t-11 16.5t-8 14l-2 5q-38 -87 -39 -104q0 -25 97 -50q-4 -17 22.5 -33t60.5 -23.5t51 -2.5 q23 8 42 34q16 24 30.5 62.5t19.5 65.5q1 7 3 25.5t4 34.5t6 24q6 13 38 42.5t56 41.5q15 7 32.5 8t40 -10.5t41.5 -34.5q10 -12 17 -23t10.5 -18t5.5 -17.5t3 -15t1.5 -18t0.5 -19.5q0 -11 1 -22t1 -22t5 -20.5t13.5 -16.5t25.5 -11t42 -4t56.5 5.5t73 21.5t76 41t61.5 70 t34 101z"
     id="path1" />
</svg>
