<?xml version="1.0" encoding="UTF-8" standalone="no"?>
<svg
   version="1.1"
   viewBox="-10 0 1619 1000"
   id="svg1"
   sodipodi:docname="lessParalgreater.svg"
   xmlns:inkscape="http://www.inkscape.org/namespaces/inkscape"
   xmlns:sodipodi="http://sodipodi.sourceforge.net/DTD/sodipodi-0.dtd"
   xmlns="http://www.w3.org/2000/svg"
   xmlns:svg="http://www.w3.org/2000/svg">
  <defs
     id="defs1" />
  <sodipodi:namedview
     id="namedview1"
     pagecolor="#ffffff"
     bordercolor="#000000"
     borderopacity="0.25"
     inkscape:showpageshadow="2"
     inkscape:pageopacity="0.0"
     inkscape:pagecheckerboard="0"
     inkscape:deskcolor="#d1d1d1" />
  <path
     fill="currentColor"
     d="M1521 474h1q22 55 18.5 125t-37.5 130q-12 21 -28 41.5t-43 46.5t-65.5 42.5t-81.5 17.5q-20 1 -41.5 -2t-51.5 -11.5t-57.5 -30.5t-44.5 -54q-21 -37 -24 -81t14 -86t52 -68q61 -45 147 -25q12 30 5 61q-9 37 -39 61q-23 -5 -38 7q-15 13 -14 41q2 37 31 54q14 8 34 8 q28 -1 61 -15.5t58 -46.5q20 -25 28.5 -56t7 -55t-7.5 -47q-21 -71 -82 -106q-52 -31 -123 -18.5t-130 66.5l-6 7q-30 27 -40 61q-6 20 -5 41q1 23 -3 62.5t-2 63.5q1 13 -2 57q-2 21 -8 38q-7 17 -21 36q-26 34 -36 52q-3 7 -8.5 19.5t-7.5 16.5q-14 30 -23 42 q-9 13 -28 28.5t-25 21.5q-19 20 -39 30q-4 2 -12 4q-7 -2 -12 -5q-20 -9 -39 -29q-6 -6 -25 -21.5t-28.5 -28.5t-22.5 -43q-2 -4 -7.5 -16t-8.5 -19q-9 -17 -36 -53q-14 -17 -21 -36q-6 -17 -8 -37q-2 -44 -2 -57q2 -24 -2 -63.5t-3 -62.5t-5 -41q-10 -34 -40 -61l-6 -7 q-59 -54 -130 -66.5t-123 18.5q-61 34 -82 106q-7 23 -8 47t7.5 54.5t28.5 56.5q25 32 58 46.5t61 15.5q19 0 34 -8q29 -17 31 -54q1 -29 -14 -41t-38 -7q-30 -24 -39 -61q-7 -31 5 -61q86 -20 147 25q35 26 51.5 67.5t13.5 86t-23 81.5q-17 32 -44.5 54t-57.5 30.5 t-51.5 11.5t-41.5 2q-43 -1 -81.5 -17.5t-65.5 -42.5t-43 -46.5t-28 -41.5q-34 -60 -37.5 -130t18.5 -125q20 -55 59.5 -99.5t91.5 -70.5q63 -27 131.5 -28.5t142 30.5t133.5 92q4 1 13 4.5t14 5.5q14 4 28 6q-15 -19 -32 -38q-41 -47 -53 -68q-38 -64 -39 -130 q0 -78 54 -157q66 -97 182 -130q53 -15 97 -11q42 3 87.5 22t79.5 56q46 49 65 75q13 19 30 23q22 6 51 -12q18 -11 29 -29q-1 -6 -5 -26q-2 -9 -5 -22t-4.5 -20.5t-3 -16.5t-1 -16t2.5 -12q5 -11 24 -23.5t38 -20.5t36.5 -15t18.5 -8q20 -11 29 -18q7 -5 16 -14t16.5 -14 t15.5 -7q19 -5 39 1.5t32 20.5q6 7 9.5 15.5t5 15.5t0.5 20.5t-2.5 21t-4.5 27t-5 29.5q-3 18 -6.5 50t-6 44.5t-10 28t-19.5 23.5q-39 25 -103 2q-46 56 -103.5 85.5t-110.5 16.5q-51 -12 -100 -68q-3 -3 -12.5 -16t-20.5 -26t-21 -22q-29 -26 -54 -34q-56 -20 -124 12 q-35 16 -65 48q-21 23 -30 43q-21 47 -5 98q9 28 44 65q7 7 21.5 20t21.5 21q20 23 35 51l2 -3q10 -14 16 -23q18 -24 22 -32q10 -25 6 -43.5t-20.5 -33t-41.5 -20.5q1 -40 17 -75q12 -24 29 -45q70 21 110 78q6 8 11.5 17.5t13 26t11 31t4.5 34t-6 34.5q0 2 -12 23t-12 29 q0 3 1 4q87 -78 194.5 -97t191.5 24q52 26 91.5 70.5t59.5 99.5zM717 742h1q25 -2 50 -11q-34 -53 -81 -93q-28 -24 -61 -42q-5 32 -3 63q2 34 12 67q40 18 82 16zM970 728q10 -33 12 -67q2 -32 -3 -64q-33 19 -61 42q-47 40 -81 93q25 9 50 11q43 2 83 -15zM202 -65 q0 -7 0.5 -23t0.5 -25q0 -5 -0.5 -19t-0.5 -18.5t1.5 -12.5t5.5 -14q19 -29 78 -29q29 23 50 41q11 9 27 22q5 4 36 26q56 40 64 63q15 44 -22 98q6 5 14 10q23 16 52 22q-7 27 -11 55q-4 36 -2 70q-76 -8 -133 -56q-25 -20 -45 -48q-72 15 -101 -18q-3 -4 -5 -7.5t-3.5 -9 t-2 -10t-1 -12.5t-0.5 -12.5t-0.5 -15.5t-0.5 -16q0 -1 -0.5 -26t-0.5 -35zM580 1083v-1q9 18 14 25q4 6 11 15t11 15.5t5 13.5q3 19 -8 39.5t-29 26.5q-5 2 -11.5 2t-10 -0.5t-14 -3.5t-15.5 -4q-7 -2 -22 -3.5t-20 -2.5q-86 -15 -103 -37q-28 -35 -14 -94l1 -2 q-46 -28 -78 -72q-22 -31 -35 -67q30 12 61 13q33 1 66 -10q7 18 19 33q11 13 26 23q75 -32 103 -8q7 5 13 20t10 30l4 15q5 13 16 34zM1219 936v1q32 11 66 9q31 -1 61 -12q-13 36 -36 67q-25 36 -88 81q26 70 0 99q-4 5 -11.5 8t-14 4.5t-21.5 4t-22.5 4t-23 5t-23.5 4.5 q-6 1 -19 3t-20 3q-6 1 -17 3.5t-15.5 3.5t-11 1t-12.5 -3q-18 -7 -29.5 -27t-7.5 -39q2 -7 5.5 -12.5t10.5 -13.5t11 -13q4 -6 15 -28q8 -16 15 -31q3 -8 10 -24.5t10.5 -23t9 -14.5t11.5 -12q33 -18 91 14l1 1q17 -12 31 -28t24 -35z"
     id="path1" />
</svg>
