<?xml version="1.0" encoding="UTF-8" standalone="no"?>
<svg
   version="1.1"
   viewBox="-10 0 1686 1000"
   id="svg1"
   sodipodi:docname="lessReDiegreater.svg"
   xmlns:inkscape="http://www.inkscape.org/namespaces/inkscape"
   xmlns:sodipodi="http://sodipodi.sourceforge.net/DTD/sodipodi-0.dtd"
   xmlns="http://www.w3.org/2000/svg"
   xmlns:svg="http://www.w3.org/2000/svg">
  <defs
     id="defs1" />
  <sodipodi:namedview
     id="namedview1"
     pagecolor="#ffffff"
     bordercolor="#000000"
     borderopacity="0.25"
     inkscape:showpageshadow="2"
     inkscape:pageopacity="0.0"
     inkscape:pagecheckerboard="0"
     inkscape:deskcolor="#d1d1d1" />
  <path
     fill="currentColor"
     d="M1499 138q105 156 105 346q0 44 -10 97t-24 86h-16q-1 -10 -4 -26.5t-17.5 -65.5t-35 -95.5t-59.5 -108t-89 -110.5l-81 66l-18 -18l-324 324l500 501l-96 91l-498 -498l-326 326l-147 197q-38 -16 -83 -61q-20 -20 -35 -40.5t-20 -31.5l-6 -11l198 -147l743 -743 l-17 -18l66 -81q-49 -50 -109.5 -89t-110.5 -60t-93.5 -34.5t-67.5 -17.5l-25 -4v-17q33 -13 86 -23t96 -10q191 0 347 105l43 -53l181 181zM547 442l-177 177l-219 -219q-26 -26 -37.5 -40t-25.5 -42t-19.5 -67t-5.5 -96q0 -70 12.5 -130t25.5 -86l12 -25q9 -5 27.5 -13.5 t80.5 -22.5t132 -14q58 0 96.5 5.5t66.5 20t42.5 26t39.5 36.5l220 219l-177 177l153 154l-94 94z"
     id="path1" />
</svg>
