<?xml version="1.0" encoding="UTF-8" standalone="no"?>
<svg
   version="1.1"
   viewBox="-10 0 1598 1000"
   id="svg1"
   sodipodi:docname="lessRangedgreater.svg"
   xmlns:inkscape="http://www.inkscape.org/namespaces/inkscape"
   xmlns:sodipodi="http://sodipodi.sourceforge.net/DTD/sodipodi-0.dtd"
   xmlns="http://www.w3.org/2000/svg"
   xmlns:svg="http://www.w3.org/2000/svg">
  <defs
     id="defs1" />
  <sodipodi:namedview
     id="namedview1"
     pagecolor="#ffffff"
     bordercolor="#000000"
     borderopacity="0.25"
     inkscape:showpageshadow="2"
     inkscape:pageopacity="0.0"
     inkscape:pagecheckerboard="0"
     inkscape:deskcolor="#d1d1d1" />
  <path
     fill="currentColor"
     d="M1211 173q69 62 126.5 130t103 141.5t66.5 150t11.5 143t-37.5 117.5q-22 38 -57 76t-82 60l-10 5t-11.5 6t-11 6t-12 7.5t-10 9t-9.5 11.5t-6 12q-15 36 5 73q22 38 81 47q45 7 87 -17q-16 43 -51 62q-48 26 -124 -5q-76 -32 -114 -117q-80 -12 -241 -36.5t-241 -36.5 q-57 74 -75 97q-14 -25 -41.5 -73.5t-40.5 -71.5q-39 -11 -161 -43q13 -16 38 -48.5t38 -48.5q-30 -68 -94 -218.5t-98 -229.5q-91 -15 -141 -81t-36 -118q10 -39 48 -66q-14 47 4 89q24 55 67 66q40 11 71 -12q7 -6 12.5 -13t8.5 -12t6.5 -16t4.5 -14t3 -15.5l2 -12.5 q19 -93 98 -168q42 -40 104 -66q50 -21 112 -24t125.5 10t131.5 38.5t130.5 58.5t123.5 73l46 -59q-12 -22 -34.5 -66t-33.5 -66q124 -54 373 -163l-65 402q-24 -5 -72.5 -16t-72.5 -17zM649 719v1q82 -107 170 -221q80 -103 177 -228q-146 -114 -282 -157t-228 0 q-54 28 -78 63q-16 23 -28 65t-25 65q-15 24 -34 44q29 70 87 205.5t85 200.5l42 -50l57 6zM1354 786h-1q22 -96 -55.5 -219t-224.5 -236q-74 96 -176 228q-96 125 -171 220l40 108l-38 52l438 66q15 -24 34 -44q19 -19 56.5 -41t55.5 -43q28 -32 42 -91z"
     id="path1" />
</svg>
