<?xml version="1.0" encoding="UTF-8" standalone="no"?>
<!-- Created with Inkscape (http://www.inkscape.org/) -->

<svg
   width="90.000839mm"
   height="90.000641mm"
   viewBox="0 0 90.000839 90.000641"
   version="1.1"
   id="svg1"
   inkscape:version="1.4.2 (ebf0e940d0, 2025-05-08)"
   sodipodi:docname="green_tick.svg"
   xmlns:inkscape="http://www.inkscape.org/namespaces/inkscape"
   xmlns:sodipodi="http://sodipodi.sourceforge.net/DTD/sodipodi-0.dtd"
   xmlns="http://www.w3.org/2000/svg"
   xmlns:svg="http://www.w3.org/2000/svg">
  <sodipodi:namedview
     id="namedview1"
     pagecolor="#ffffff"
     bordercolor="#000000"
     borderopacity="0.25"
     inkscape:showpageshadow="2"
     inkscape:pageopacity="0.0"
     inkscape:pagecheckerboard="0"
     inkscape:deskcolor="#d1d1d1"
     inkscape:document-units="mm"
     inkscape:zoom="0.54787458"
     inkscape:cx="172.48473"
     inkscape:cy="213.55253"
     inkscape:window-width="1440"
     inkscape:window-height="831"
     inkscape:window-x="0"
     inkscape:window-y="0"
     inkscape:window-maximized="1"
     inkscape:current-layer="layer1" />
  <defs
     id="defs1" />
  <g
     inkscape:label="Layer 1"
     inkscape:groupmode="layer"
     id="layer1"
     transform="translate(-59.27875,-92.058606)">
    <path
       d="m 149.27959,137.05893 c 0,-24.85392 -20.1466,-45.000324 -45.00036,-45.000324 -24.85392,0 -45.00048,20.146404 -45.00048,45.000324 0,24.85392 20.14656,45.00032 45.00048,45.00032 24.85376,0 45.00036,-20.1464 45.00036,-45.00032 m -17.1112,-27.58448 c -3.98356,3.98784 -5.88864,5.77856 -15.72688,19.59184 -9.60544,13.82608 -16.51424,24.71856 -20.73056,32.68144 -0.93604,2.10816 -2.1082,3.39504 -3.51376,3.86496 -0.7024,0.7024 -2.22672,0.9312 -4.56768,0.7024 -1.63828,0.2288 -2.80672,0 -3.50944,-0.7024 -0.7024,-0.4704 -1.4048,-1.4096 -2.10816,-2.81088 -2.34528,-5.62192 -4.10212,-10.42256 -5.27056,-14.40608 0,-0.936 -0.128,-1.76112 -0.352,-2.45952 0,-2.10816 1.4048,-3.98368 4.21648,-5.62192 1.87104,-0.936 3.27648,-1.4048 4.21632,-1.4048 1.168,0.2368 1.98544,0.9392 2.45952,2.10816 1.4016,3.2808 2.3368,5.50752 2.80672,6.676 0.4704,0.9392 0.936,1.4048 1.4048,1.4048 0.4704,0 0.936,-0.352 1.40636,-1.0544 7.4464,-12.99216 9.74512,-16.48464 16.43376,-25.56928 4.91908,-5.85472 7.95856,-9.24992 9.13552,-10.1896 3.74224,-2.81104 8.19568,-4.33072 13.34768,-4.56784"
       fill="#3fa535"
       id="path507"
       style="stroke-width:0.416;stroke-dasharray:none;fill:#387831;fill-opacity:1" />
  </g>
</svg>
