<?xml version="1.0" encoding="UTF-8" standalone="no"?>
<!-- Created with Inkscape (http://www.inkscape.org/) -->

<svg
   width="90.000641mm"
   height="90.004799mm"
   viewBox="0 0 90.000641 90.004799"
   version="1.1"
   id="svg1"
   inkscape:version="1.4.2 (ebf0e940d0, 2025-05-08)"
   sodipodi:docname="red_cross.svg"
   xmlns:inkscape="http://www.inkscape.org/namespaces/inkscape"
   xmlns:sodipodi="http://sodipodi.sourceforge.net/DTD/sodipodi-0.dtd"
   xmlns="http://www.w3.org/2000/svg"
   xmlns:svg="http://www.w3.org/2000/svg">
  <sodipodi:namedview
     id="namedview1"
     pagecolor="#ffffff"
     bordercolor="#000000"
     borderopacity="0.25"
     inkscape:showpageshadow="2"
     inkscape:pageopacity="0.0"
     inkscape:pagecheckerboard="0"
     inkscape:deskcolor="#d1d1d1"
     inkscape:document-units="mm"
     inkscape:zoom="0.54787458"
     inkscape:cx="130.50432"
     inkscape:cy="229.97964"
     inkscape:window-width="1440"
     inkscape:window-height="831"
     inkscape:window-x="0"
     inkscape:window-y="0"
     inkscape:window-maximized="1"
     inkscape:current-layer="layer1" />
  <defs
     id="defs1" />
  <g
     inkscape:label="Layer 1"
     inkscape:groupmode="layer"
     id="layer1"
     transform="translate(-69.99552,-87.72068)">
    <path
       d="m 159.99616,132.72516 c 0,-24.85808 -20.1464,-45.00448 -45.00032,-45.00448 -24.85392,0 -45.00032,20.1464 -45.00032,45.00448 0,24.85392 20.1464,45.00032 45.00032,45.00032 24.85392,0 45.00032,-20.1464 45.00032,-45.00032 m -21.75088,-27.14832 c 0,0.6352 -0.112,1.0672 -0.3216,1.2784 -4.48736,5.56256 -9.72816,12.40352 -15.71408,20.5232 4.05968,8.128 7.16272,14.3256 9.30064,18.59696 -0.216,0.4368 -0.64,0.7584 -1.2832,0.9648 v 0.6432 c -0.216,0.432 -0.7488,0.8544 -1.60448,1.2784 0.6432,1.0752 0.6432,1.71872 0,1.92608 -0.64,0.432 -1.0704,0.7488 -1.2832,0.9616 -0.8544,0.432 -1.71024,0.112 -2.56528,-0.9616 -3.20464,-4.27136 -6.30768,-9.08464 -9.29648,-14.4272 -5.56256,8.33552 -10.47744,16.03168 -14.75312,23.08432 -1.0704,1.7104 -1.81616,2.67136 -2.24368,2.8872 -0.64,0.424 -1.60448,0.5296 -2.8872,0.3168 -1.0704,0.2112 -1.71024,0 -1.92192,-0.64 -0.216,-0.4272 -0.5376,-1.0752 -0.9616,-1.92192 -0.432,-0.432 -0.6432,-0.9616 -0.6432,-1.60448 0.2112,-0.64 0.4272,-1.3888 0.6432,-2.24368 l -0.9648,-1.60432 c 2.56528,-4.9192 8.97888,-13.99968 19.24048,-27.2584 -2.99728,-6.1976 -5.56256,-12.50528 -7.69616,-18.91456 0,-0.6432 0.5328,-1.3888 1.60432,-2.25216 0.6384,-0.6352 1.1728,-0.7408 1.60448,-0.3168 0.208,0.432 0.6384,0.5376 1.2832,0.3168 0.64,-0.2032 1.0672,-0.5296 1.2832,-0.9616 0.208,-0.2112 0.5296,-0.3168 0.9616,-0.3168 0.64,0.2112 1.0672,0.5376 1.2832,0.9616 1.0672,2.5696 3.20464,6.84096 6.41344,12.8312 4.27136,-4.92336 8.54704,-10.04992 12.82704,-15.39248 0.2112,-0.432 0.5296,-0.6432 0.9616,-0.6432 0.6432,0 1.2832,0.3168 1.92608,0.9616 0.64,0.6432 1.0672,0.7536 1.2832,0.3216 0.424,-0.2112 0.7456,-0.4272 0.9616,-0.64 0.424,-0.432 0.64,-0.5376 0.64,-0.3264 0.2112,0.4368 0.6432,0.8592 1.2832,1.2864 0.4272,0.216 0.6432,0.64 0.6432,1.2832"
       fill="#e63323"
       id="path489"
       style="stroke-width:0.423332;fill:#932318;fill-opacity:1" />
  </g>
</svg>
