<?xml version="1.0" encoding="UTF-8" standalone="no"?>
<svg
   version="1.1"
   id="Layer_1"
   x="0px"
   y="0px"
   width="1000"
   viewBox="0 0 1000 475"
   enable-background="new 0 0 475 571"
   xml:space="preserve"
   sodipodi:docname="movement_tokens.svg"
   inkscape:version="1.3.2 (091e20e, 2023-11-25, custom)"
   height="475"
   xmlns:inkscape="http://www.inkscape.org/namespaces/inkscape"
   xmlns:sodipodi="http://sodipodi.sourceforge.net/DTD/sodipodi-0.dtd"
   xmlns="http://www.w3.org/2000/svg"
   xmlns:svg="http://www.w3.org/2000/svg"><defs
   id="defs4" /><sodipodi:namedview
   id="namedview4"
   pagecolor="#ffffff"
   bordercolor="#000000"
   borderopacity="0.25"
   inkscape:showpageshadow="2"
   inkscape:pageopacity="1.0"
   inkscape:pagecheckerboard="true"
   inkscape:deskcolor="#d1d1d1"
   inkscape:zoom="1.0166982"
   inkscape:cx="585.71953"
   inkscape:cy="272.94235"
   inkscape:window-width="1920"
   inkscape:window-height="1017"
   inkscape:window-x="-8"
   inkscape:window-y="-8"
   inkscape:window-maximized="1"
   inkscape:current-layer="Layer_1" />

<path
   fill="#b1d498"
   opacity="1"
   stroke="none"
   d="m 23.886043,339.26973 c -5.79779,0 -11.096007,0 -16.6940297,0 0,-64.67257 0,-128.92117 0,-193.99998 1.968871,0 4.0467517,0 6.1246337,0 63.985171,-2e-5 127.970313,7.3e-4 191.955483,-10e-4 7.33725,-2.1e-4 7.60952,-0.27292 7.61077,-7.59541 0.003,-19.16222 0.001,-38.324436 0.001,-57.486666 0,-15.93399 0,-31.86798 0,-47.801974 0.69022,-0.39212 1.38044,-0.784244 2.07065,-1.176365 89.94071,70.099725 179.88307,140.197315 270.08244,210.982455 -89.79304,70.08985 -179.38516,140.02286 -270.25239,210.9512 -0.72211,-3.63644 -1.81256,-6.60192 -1.8237,-9.57144 -0.1225,-32.65863 -0.077,-65.3179 -0.077,-97.97699 0,-1.95092 0,-3.90185 0,-6.32373 -63.19543,0 -125.846922,0 -188.997987,0 M 396.93283,219.79225 c -4.36528,-3.50163 -8.69418,-7.0498 -13.10277,-10.49606 -12.67964,-9.91185 -25.41008,-19.75879 -38.0856,-29.6759 -13.32828,-10.42784 -26.60626,-20.91992 -39.92439,-31.36078 -12.93283,-10.13883 -25.87454,-20.2665 -38.84131,-30.36186 -5.37555,-4.18518 -10.82642,-8.27362 -17.30881,-13.21913 0,26.73674 0,52.08088 0,77.79762 -68.90231,0 -137.16812,0 -205.499666,0 0,40.09186 0,79.79579 0,120.06373 68.768746,0 137.150636,0 205.824586,0 0,25.66858 0,50.77247 0,76.95685 59.05606,-46.11538 117.40256,-91.67673 175.98066,-137.41888 -9.76929,-7.51282 -19.10663,-14.69347 -29.0427,-22.28559 z"
   id="path2" />
<path
   fill="#224820"
   opacity="1"
   stroke="none"
   d="m 397.23219,219.998 c 9.63671,7.38637 18.97405,14.56702 28.74334,22.07984 -58.5781,45.74215 -116.9246,91.3035 -175.98066,137.41888 0,-26.18438 0,-51.28827 0,-76.95685 -68.67395,0 -137.05584,0 -205.824586,0 0,-40.26794 0,-79.97187 0,-120.06373 68.331546,0 136.597356,0 205.499666,0 0,-25.71674 0,-51.06088 0,-77.79762 6.48239,4.94551 11.93326,9.03395 17.30881,13.21913 12.96677,10.09536 25.90848,20.22303 38.84131,30.36186 13.31813,10.44086 26.59611,20.93294 39.92439,31.36078 12.67552,9.91711 25.40596,19.76405 38.0856,29.6759 4.40859,3.44626 8.73749,6.99443 13.40213,10.70181 m -191.84816,68.15866 c 17.32822,0.001 34.6565,-0.0196 51.98465,0.0157 6.11414,0.0125 6.59684,0.48752 6.61151,6.5325 0.0389,15.99542 -0.003,31.99109 0.0433,47.98648 0.005,1.85126 0.36624,3.70145 0.63577,6.24588 1.74811,-1.17148 2.72846,-1.74374 3.61551,-2.4356 13.13104,-10.24219 26.24924,-20.50086 39.37141,-30.75443 29.5215,-23.06796 59.06279,-46.11069 88.54821,-69.22467 5.53087,-4.33571 5.38743,-4.78973 -0.39435,-9.29906 -38.99962,-30.41656 -77.98393,-60.85273 -116.98508,-91.26732 -4.39606,-3.42819 -8.86636,-6.76112 -14.27466,-10.87852 -0.24792,3.19844 -0.51907,5.10155 -0.52346,7.00529 -0.0353,15.32897 -0.0141,30.65805 -0.0232,45.98709 -0.005,8.23076 -0.0164,8.24378 -8.39331,8.24434 -63.48224,0.004 -126.96445,-9e-4 -190.446692,0.009 -7.10559,0.001 -7.25921,0.16214 -7.26288,7.30494 -0.013,25.49285 -0.009,50.98573 -0.003,76.47859 0.002,8.02911 0.0147,8.04644 8.03531,8.04742 46.153762,0.006 92.307512,0.002 139.461252,0.003 z"
   id="path3" />
<path
   fill="#387831"
   opacity="1"
   stroke="none"
   d="m 204.88403,288.15633 c -46.65374,0 -92.80749,0.003 -138.961242,-0.002 -8.02063,-9.8e-4 -8.03339,-0.0183 -8.03531,-8.04742 -0.006,-25.49286 -0.01,-50.98574 0.003,-76.47859 0.004,-7.1428 0.15729,-7.30385 7.26288,-7.30494 52.299382,-0.01 -119.130635,-0.005 190.446682,-0.009 8.37695,-1.1e-4 8.38846,-0.0136 8.39331,-8.24434 0.009,-15.32904 -0.0121,-30.65812 0.0232,-45.98709 0.004,-1.90374 0.27554,-3.80685 0.52346,-7.00529 5.4083,4.1174 9.8786,7.45033 14.27466,10.87852 39.00115,30.41459 77.98546,60.85076 116.98508,91.26732 5.78178,4.50933 5.92522,4.96335 0.39435,9.29906 -29.48542,23.11398 -59.02671,46.15671 -88.54821,69.22467 -13.12217,10.25357 -26.24037,20.51224 -39.37141,30.75443 -0.88705,0.69186 -1.8674,1.26412 -3.61551,2.4356 -0.26953,-2.54443 -0.6304,-4.39462 -0.63577,-6.24588 -0.0465,-15.99539 -0.004,-31.99106 -0.0433,-47.98648 -0.0147,-6.04498 -0.49737,-6.52005 -6.61151,-6.5325 -17.32815,-0.0353 -34.65643,-0.0144 -52.48465,-0.016 z"
   id="path4"
   sodipodi:nodetypes="cccccsscccsssscccscc" /><path
   fill="#b1d498"
   opacity="1"
   stroke="none"
   d="m 531.75786,344.23495 c -5.79779,0 -11.096,0 -16.69403,0 0,-64.67257 0,-128.92117 0,-193.99998 1.96887,0 4.04676,0 6.12464,0 63.98517,-2e-5 127.97031,7.3e-4 191.95548,-0.001 7.33725,-2.1e-4 7.60952,-0.27292 7.61077,-7.59541 0.003,-19.16222 10e-4,-38.32444 10e-4,-57.486672 0,-15.93399 0,-31.86798 0,-47.80197 0.69022,-0.39212 1.38044,-0.78424 2.07065,-1.17637 89.94071,70.099732 179.88307,140.197322 270.08244,210.982462 -89.79304,70.08985 -179.38516,140.02286 -270.25239,210.9512 -0.72211,-3.63644 -1.81256,-6.60192 -1.8237,-9.57144 -0.1225,-32.65863 -0.077,-65.3179 -0.077,-97.97699 0,-1.95092 0,-3.90185 0,-6.32373 -63.19543,0 -125.84692,0 -188.99799,0 M 904.80465,224.75747 c -4.36528,-3.50163 -8.69418,-7.0498 -13.10277,-10.49606 -12.67964,-9.91185 -25.41008,-19.75879 -38.0856,-29.6759 -13.32828,-10.42784 -26.60626,-20.91992 -39.92439,-31.36078 -12.93283,-10.13883 -25.87454,-20.2665 -38.84131,-30.36186 -5.37555,-4.18518 -10.82642,-8.27362 -17.30881,-13.21913 0,26.73674 0,52.08088 0,77.79762 -68.90231,0 -137.16812,0 -205.49967,0 0,40.09186 0,79.79579 0,120.06373 68.76875,0 137.15064,0 205.82459,0 0,25.66858 0,50.77247 0,76.95685 59.05606,-46.11538 117.40256,-91.67673 175.98066,-137.41888 -9.76929,-7.51282 -19.10663,-14.69347 -29.0427,-22.28559 z"
   id="path2-1"
   style="fill:#f3c7b1;fill-opacity:1" /><path
   fill="#224820"
   opacity="1"
   stroke="none"
   d="m 905.10401,224.96322 c 9.63671,7.38637 18.97405,14.56702 28.74334,22.07984 -58.5781,45.74215 -116.9246,91.3035 -175.98066,137.41888 0,-26.18438 0,-51.28827 0,-76.95685 -68.67395,0 -137.05584,0 -205.82459,0 0,-40.26794 0,-79.97187 0,-120.06373 68.33155,0 136.59736,0 205.49967,0 0,-25.71674 0,-51.06088 0,-77.79762 6.48239,4.94551 11.93326,9.03395 17.30881,13.21913 12.96677,10.09536 25.90848,20.22303 38.84131,30.36186 13.31813,10.44086 26.59611,20.93294 39.92439,31.36078 12.67552,9.91711 25.40596,19.76405 38.0856,29.6759 4.40859,3.44626 8.73749,6.99443 13.40213,10.70181 m -191.84816,68.15866 c 17.32822,0.001 34.6565,-0.0196 51.98465,0.0157 6.11414,0.0125 6.59684,0.48752 6.61151,6.5325 0.0389,15.99542 -0.003,31.99109 0.0433,47.98648 0.005,1.85126 0.36624,3.70145 0.63577,6.24588 1.74811,-1.17148 2.72846,-1.74374 3.61551,-2.4356 13.13104,-10.24219 26.24924,-20.50086 39.37141,-30.75443 29.5215,-23.06796 59.06279,-46.11069 88.54821,-69.22467 5.53087,-4.33571 5.38743,-4.78973 -0.39435,-9.29906 -38.99962,-30.41656 -77.98393,-60.85273 -116.98508,-91.26732 -4.39606,-3.42819 -8.86636,-6.76112 -14.27466,-10.87852 -0.24792,3.19844 -0.51907,5.10155 -0.52346,7.00529 -0.0353,15.32897 -0.0141,30.65805 -0.0232,45.98709 -0.005,8.23076 -0.0164,8.24378 -8.39331,8.24434 -63.48224,0.004 -126.96445,-9e-4 -190.44669,0.009 -7.10559,0.001 -7.25921,0.16214 -7.26288,7.30494 -0.013,25.49285 -0.009,50.98573 -0.003,76.47859 0.002,8.02911 0.0147,8.04644 8.03531,8.04742 46.15376,0.006 92.30751,0.002 139.46125,0.003 z"
   id="path3-9"
   style="fill:#341b10;fill-opacity:1" /><path
   fill="#387831"
   opacity="1"
   stroke="none"
   d="m 712.75585,293.12155 c -46.65374,0 -92.80749,0.003 -138.96124,-0.002 -8.02063,-9.8e-4 -8.03339,-0.0183 -8.03531,-8.04742 -0.006,-25.49286 -0.01,-50.98574 0.003,-76.47859 0.004,-7.1428 0.15729,-7.30385 7.26288,-7.30494 52.29938,-0.01 -119.13064,-0.005 190.44668,-0.009 8.37695,-1.1e-4 8.38846,-0.0136 8.39331,-8.24434 0.009,-15.32904 -0.0121,-30.65812 0.0232,-45.98709 0.004,-1.90374 0.27554,-3.80685 0.52346,-7.00529 5.4083,4.1174 9.8786,7.45033 14.27466,10.87852 39.00115,30.41459 77.98546,60.85076 116.98508,91.26732 5.78178,4.50933 5.92522,4.96335 0.39435,9.29906 -29.48542,23.11398 -59.02671,46.15671 -88.54821,69.22467 -13.12217,10.25357 -26.24037,20.51224 -39.37141,30.75443 -0.88705,0.69186 -1.8674,1.26412 -3.61551,2.4356 -0.26953,-2.54443 -0.6304,-4.39462 -0.63577,-6.24588 -0.0465,-15.99539 -0.004,-31.99106 -0.0433,-47.98648 -0.0147,-6.04498 -0.49737,-6.52005 -6.61151,-6.5325 -17.32815,-0.0353 -34.65643,-0.0144 -52.48465,-0.016 z"
   id="path4-6"
   sodipodi:nodetypes="cccccsscccsssscccscc"
   style="fill:#522a19;fill-opacity:1" />
</svg>
