<?xml version="1.0" encoding="UTF-8" standalone="no"?>
<svg
   version="1.1"
   viewBox="-10 0 1931 1000"
   id="svg1"
   sodipodi:docname="lesstwoTreDiegreater.svg"
   xmlns:inkscape="http://www.inkscape.org/namespaces/inkscape"
   xmlns:sodipodi="http://sodipodi.sourceforge.net/DTD/sodipodi-0.dtd"
   xmlns="http://www.w3.org/2000/svg"
   xmlns:svg="http://www.w3.org/2000/svg">
  <defs
     id="defs1" />
  <sodipodi:namedview
     id="namedview1"
     pagecolor="#ffffff"
     bordercolor="#000000"
     borderopacity="0.25"
     inkscape:showpageshadow="2"
     inkscape:pageopacity="0.0"
     inkscape:pagecheckerboard="0"
     inkscape:deskcolor="#d1d1d1" />
  <path
     fill="currentColor"
     d="M1774 23q79 120 79 265q1 33 -7 73.5t-18 66.5h-13q0 -8 -2.5 -20.5t-13.5 -50t-26.5 -73.5t-45.5 -82.5t-68 -84.5l-62 51l-14 -14l-248 248l383 383l-74 69l-381 -380l-248 249l-113 151q-29 -13 -64 -47q-15 -15 -26.5 -31t-15.5 -24l-4 -8l151 -113l569 -569l-14 -13 l51 -62q-38 -38 -84 -68t-84.5 -46t-71.5 -26.5t-52 -13.5l-19 -3v-13q26 -10 66.5 -17.5t73.5 -7.5q145 0 265 80l33 -40l138 138zM1046 256l-136 135l-167 -168q-20 -19 -28.5 -30t-19.5 -32.5t-15.5 -51t-4.5 -73.5q0 -54 9.5 -100t19.5 -65l10 -19q7 -4 20.5 -10.5 t61.5 -17t101 -10.5q44 0 74 4t51.5 15t32.5 20t30 28l168 168l-136 135l118 117l-72 72zM543 1061q14 -12 35 -49h23l-48 213h-511v-12q235 -238 285 -320t50 -161q0 -57 -41 -95q-42 -37 -102 -37q-99 0 -153 83l-24 -7q35 -104 105.5 -154t162.5 -50q66 0 120 26t85 71 q31 46 31 86q0 72 -47 147q-65 100 -283 281h188q69 0 90 -5t34 -17z"
     id="path1" />
</svg>
