<?xml version="1.0" encoding="UTF-8" standalone="no"?>
<svg
   version="1.1"
   viewBox="-10 0 930 1000"
   id="svg1"
   sodipodi:docname="lessArtifactgreater.svg"
   xmlns:inkscape="http://www.inkscape.org/namespaces/inkscape"
   xmlns:sodipodi="http://sodipodi.sourceforge.net/DTD/sodipodi-0.dtd"
   xmlns="http://www.w3.org/2000/svg"
   xmlns:svg="http://www.w3.org/2000/svg">
  <defs
     id="defs1" />
  <sodipodi:namedview
     id="namedview1"
     pagecolor="#ffffff"
     bordercolor="#000000"
     borderopacity="0.25"
     inkscape:showpageshadow="2"
     inkscape:pageopacity="0.0"
     inkscape:pagecheckerboard="0"
     inkscape:deskcolor="#d1d1d1" />
  <path
     fill="currentColor"
     d="M758 542q39 -36 47 -92h45v351h-45q-8 -57 -47 -92q-25 -23 -74 -35q-61 -14 -128 -3q1 39 3.5 110.5t4.5 125.5t2 79q0 48 21 91q19 39 48 55q16 9 35 12v56h-420v-56q19 -3 35 -12q29 -16 48 -55q21 -43 21 -91q0 -25 2 -79t4.5 -125.5t3.5 -111.5q-66 -11 -128 4 q-49 11 -75 35q-38 35 -46 92h-45v-351h45q8 56 46 92q26 24 75 36q51 14 104 4q-50 -55 -64 -82q-6 -13 -9 -22q-3 -11 -3 -23v-175q0 -8 2 -18q8 -48 53 -88q37 -33 87 -43v-40q-142 -17 -248.5 -113t-138.5 -234h97q30 99 109 168t183 84q4 -17 18 -28t32 -11t32 11 t18 28q105 -14 185 -83t110 -169h98q-33 139 -140.5 235t-250.5 112v39l2 1q51 10 89 43q45 41 54 89q1 9 1 17v176q0 11 -3 22t-9 22q-14 27 -64 82q54 10 104 -3q49 -13 74 -37zM566 466q3 -11 3 -21v-145q0 -15 -4 -27q-7 -19 -25 -36q-14 -11 -30 -18v28q-2 20 -17 33.5 t-35 13.5t-35 -13.5t-17 -33.5v-26q-15 6 -26 16q-18 16 -25 35q-4 11 -4 28q0 5 -1 145q1 11 4 21q4 14 16 28q3 4 10.5 13.5t11.5 14t10 11.5t12 12.5t13 10.5q13 11 29 19h8q17 -9 30 -19q8 -6 16.5 -14.5t12.5 -13t14.5 -18t13.5 -16.5q11 -14 15 -28z"
     id="path1" />
</svg>
