<?xml version="1.0" encoding="UTF-8" standalone="no"?>
<svg
   version="1.1"
   viewBox="-118 0 1697 1000"
   id="svg1"
   sodipodi:docname="lessDamagegreater.svg"
   xmlns:inkscape="http://www.inkscape.org/namespaces/inkscape"
   xmlns:sodipodi="http://sodipodi.sourceforge.net/DTD/sodipodi-0.dtd"
   xmlns="http://www.w3.org/2000/svg"
   xmlns:svg="http://www.w3.org/2000/svg">
  <defs
     id="defs1" />
  <sodipodi:namedview
     id="namedview1"
     pagecolor="#ffffff"
     bordercolor="#000000"
     borderopacity="0.25"
     inkscape:showpageshadow="2"
     inkscape:pageopacity="0.0"
     inkscape:pagecheckerboard="0"
     inkscape:deskcolor="#d1d1d1" />
  <path
     fill="currentColor"
     d="M1203 -99q17 35 41.5 86.5t76 168.5t91 217.5t71 207t31.5 162.5q0 104 -42 192t-114 139t-157.5 51t-157.5 -51t-114 -139t-42 -192q0 -67 39.5 -193.5t101 -269.5t98.5 -225t68 -146q-41 42 -178.5 187t-283.5 296t-251 255q-64 63 -131 132q13 19 30 37q27 28 62 48 q0 -12 6 -22q11 -20 35 -24q28 -4 50 20q13 15 15 37t-8 38q-14 27 -58 34q-31 6 -70 -9q-36 -14 -77 -47q-34 -27 -62 -58q-6 6 -18 19q-9 10 -21 21q-20 21 -49 48q-58 54 -124 106q4 40 -25 68q-25 25 -60 25.5t-60 -24.5q-24 -25 -24 -60t25 -60q29 -28 68 -25 q51 -64 106 -124q27 -29 48 -49l21 -21q6 -6 19 -18q-31 -29 -58 -62q-33 -41 -47 -77q-15 -38 -9 -69q8 -43 34 -59q17 -9 38.5 -7.5t37.5 15.5q24 22 19 49q-3 24 -24 36q-9 5 -22 5q20 35 48 62q17 16 38 30q58 -57 132 -131q150 -151 449 -436.5t326 -312.5 q35 -36 77 -58q46 -25 102 -34l1 -1v1h2v1h1l-2 1q-8 56 -33 103q-22 42 -58 77q-10 10 -28 29z"
     id="path1" />
</svg>
