<?xml version="1.0" encoding="UTF-8" standalone="no"?>
<svg
   version="1.1"
   width="296px"
   height="328px"
   style="shape-rendering:geometricPrecision; text-rendering:geometricPrecision; image-rendering:optimizeQuality; fill-rule:evenodd; clip-rule:evenodd"
   id="svg117"
   sodipodi:docname="defense.svg"
   inkscape:version="1.3.2 (091e20e, 2023-11-25, custom)"
   xmlns:inkscape="http://www.inkscape.org/namespaces/inkscape"
   xmlns:sodipodi="http://sodipodi.sourceforge.net/DTD/sodipodi-0.dtd"
   xmlns="http://www.w3.org/2000/svg"
   xmlns:svg="http://www.w3.org/2000/svg">
  <defs
     id="defs117" />
  <sodipodi:namedview
     id="namedview117"
     pagecolor="#ffffff"
     bordercolor="#000000"
     borderopacity="0.25"
     inkscape:showpageshadow="2"
     inkscape:pageopacity="0.0"
     inkscape:pagecheckerboard="0"
     inkscape:deskcolor="#d1d1d1"
     inkscape:zoom="2.5030488"
     inkscape:cx="147.81973"
     inkscape:cy="164"
     inkscape:window-width="1920"
     inkscape:window-height="1017"
     inkscape:window-x="-8"
     inkscape:window-y="-8"
     inkscape:window-maximized="1"
     inkscape:current-layer="svg117" />
  <g
     id="g4">
    <path
       style="opacity:1"
       fill="#898c92"
       d="M 147.5,10.5 C 153.146,12.6566 158.48,15.3232 163.5,18.5C 162.494,18.9377 162.494,19.6043 163.5,20.5C 156.545,17.6893 149.879,14.356 143.5,10.5C 136.306,17.7101 128.306,23.7101 119.5,28.5C 113.838,31.6114 107.838,33.9447 101.5,35.5C 100.791,34.596 99.791,34.2627 98.5,34.5C 99.8333,33.8333 101.167,33.1667 102.5,32.5C 104.927,32.477 107.26,31.977 109.5,31C 119.35,25.8194 128.683,19.8194 137.5,13C 140.37,10.9207 142.704,8.42072 144.5,5.5C 145.291,6.06564 145.291,6.89898 144.5,8C 145.13,9.31021 146.13,10.1435 147.5,10.5 Z"
       id="path4" />
  </g>
  <g
     id="g5">
    <path
       style="opacity:1"
       fill="#cbced2"
       d="M 163.5,20.5 C 171.749,24.792 180.082,28.792 188.5,32.5C 189.167,33.1667 189.833,33.8333 190.5,34.5C 188.801,34.6602 187.134,34.4935 185.5,34C 180.371,31.0643 175.204,28.8976 170,27.5C 165.475,29.6793 165.641,31.846 170.5,34C 178.08,36.1292 185.413,38.7959 192.5,42C 197.023,42.3202 201.523,42.8202 206,43.5C 207.376,43.3158 208.209,42.6491 208.5,41.5C 208.833,41.5 209.167,41.5 209.5,41.5C 209.5,42.5 209.5,43.5 209.5,44.5C 204.637,44.1805 199.97,44.5139 195.5,45.5C 183.82,42.1762 172.154,38.5095 160.5,34.5C 158.689,35.7357 156.856,35.7357 155,34.5C 153.316,34.6834 153.15,35.3501 154.5,36.5C 152.326,36.2503 150.659,35.2503 149.5,33.5C 148.058,32.1805 147.392,30.5138 147.5,28.5C 139.111,28.453 130.778,29.1196 122.5,30.5C 120.97,30.3601 119.97,29.6935 119.5,28.5C 128.306,23.7101 136.306,17.7101 143.5,10.5C 149.879,14.356 156.545,17.6893 163.5,20.5 Z"
       id="path5" />
  </g>
  <g
     id="g6">
    <path
       style="opacity:1"
       fill="#6c7282"
       d="M 163.5,18.5 C 173.013,22.0984 182.013,26.4317 190.5,31.5C 189.508,31.3284 188.842,31.6618 188.5,32.5C 180.082,28.792 171.749,24.792 163.5,20.5C 162.494,19.6043 162.494,18.9377 163.5,18.5 Z"
       id="path6" />
  </g>
  <g
     id="g8">
    <path
       style="opacity:1"
       fill="#dddfe1"
       d="M 190.5,34.5 C 196.576,36.8545 202.576,39.1878 208.5,41.5C 208.209,42.6491 207.376,43.3158 206,43.5C 201.523,42.8202 197.023,42.3202 192.5,42C 185.413,38.7959 178.08,36.1292 170.5,34C 165.641,31.846 165.475,29.6793 170,27.5C 175.204,28.8976 180.371,31.0643 185.5,34C 187.134,34.4935 188.801,34.6602 190.5,34.5 Z"
       id="path8" />
  </g>
  <g
     id="g9">
    <path
       style="opacity:1"
       fill="#5d5e70"
       d="M 190.5,31.5 C 197.764,33.805 204.764,36.4717 211.5,39.5C 210.167,39.5 209.5,40.1667 209.5,41.5C 209.167,41.5 208.833,41.5 208.5,41.5C 202.576,39.1878 196.576,36.8545 190.5,34.5C 189.833,33.8333 189.167,33.1667 188.5,32.5C 188.842,31.6618 189.508,31.3284 190.5,31.5 Z"
       id="path9" />
  </g>
  <g
     id="g10">
    <path
       style="opacity:1"
       fill="#676367"
       d="M 98.5,34.5 C 99.791,34.2627 100.791,34.596 101.5,35.5C 93.3113,37.4123 84.9779,38.7457 76.5,39.5C 75.8333,39.5 75.5,39.1667 75.5,38.5C 82.8521,36.0878 90.5188,34.7545 98.5,34.5 Z"
       id="path10" />
  </g>
  <g
     id="g11">
    <path
       style="opacity:1"
       fill="#afb3b7"
       d="M 146.5,35.5 C 146.5,36.1667 146.5,36.8333 146.5,37.5C 138.781,38.9504 131.447,41.2838 124.5,44.5C 120.787,45.0051 117.287,45.3384 114,45.5C 110.925,44.5309 109.925,42.5309 111,39.5C 111.718,40.4506 112.551,40.6172 113.5,40C 114.833,39.3333 114.833,38.6667 113.5,38C 114.833,37.3333 115.833,36.3333 116.5,35C 126.151,34.5531 135.817,33.3865 145.5,31.5C 146.429,32.6888 146.762,34.0222 146.5,35.5 Z"
       id="path11" />
  </g>
  <g
     id="g12">
    <path
       style="opacity:1"
       fill="#aaa2a1"
       d="M 272.5,35.5 C 269.696,38.645 266.363,40.9783 262.5,42.5C 264.45,38.2206 267.783,35.8873 272.5,35.5 Z"
       id="path12" />
  </g>
  <g
     id="g13">
    <path
       style="opacity:1"
       fill="#6d6564"
       d="M 29.5,39.5 C 28.1667,39.5 26.8333,39.5 25.5,39.5C 25.5,41.1667 25.5,42.8333 25.5,44.5C 24.3709,42.3718 24.2042,40.0385 25,37.5C 26.6225,38.0989 28.1225,38.7656 29.5,39.5 Z"
       id="path13" />
  </g>
  <g
     id="g14">
    <path
       style="opacity:1"
       fill="#9fa2a6"
       d="M 119.5,28.5 C 119.97,29.6935 120.97,30.3601 122.5,30.5C 130.778,29.1196 139.111,28.453 147.5,28.5C 147.392,30.5138 148.058,32.1805 149.5,33.5C 148.222,33.7822 147.222,34.4489 146.5,35.5C 146.762,34.0222 146.429,32.6888 145.5,31.5C 135.817,33.3865 126.151,34.5531 116.5,35C 115.833,36.3333 114.833,37.3333 113.5,38C 114.833,38.6667 114.833,39.3333 113.5,40C 112.551,40.6172 111.718,40.4506 111,39.5C 109.925,42.5309 110.925,44.5309 114,45.5C 117.287,45.3384 120.787,45.0051 124.5,44.5C 122.5,45.5 120.5,46.5 118.5,47.5C 112.94,47.3647 107.606,48.1981 102.5,50C 96.5092,50.4995 90.5092,50.6662 84.5,50.5C 81.6047,49.6001 78.9381,48.2667 76.5,46.5C 76.67,45.1779 76.3366,44.0113 75.5,43C 79.1851,42.0855 78.8518,41.4189 74.5,41C 75.4158,40.7216 76.0825,40.2216 76.5,39.5C 84.9779,38.7457 93.3113,37.4123 101.5,35.5C 107.838,33.9447 113.838,31.6114 119.5,28.5 Z"
       id="path14" />
  </g>
  <g
     id="g15">
    <path
       style="opacity:1"
       fill="#38363c"
       d="M 29.5,39.5 C 29.8333,40.5 30.5,41.1667 31.5,41.5C 33.1152,44.7772 35.1152,47.7772 37.5,50.5C 37.2291,52.3797 37.8958,53.713 39.5,54.5C 39.6984,56.5753 39.8651,58.5753 40,60.5C 38.9887,59.6634 37.8221,59.33 36.5,59.5C 35.7499,55.0794 33.4165,51.7461 29.5,49.5C 28.5481,47.9547 28.2148,46.288 28.5,44.5C 27.5,44.5 26.5,44.5 25.5,44.5C 25.5,42.8333 25.5,41.1667 25.5,39.5C 26.8333,39.5 28.1667,39.5 29.5,39.5 Z"
       id="path15" />
  </g>
  <g
     id="g16">
    <path
       style="opacity:1"
       fill="#77797f"
       d="M 45.5,41.5 C 53.1682,41.9048 60.8348,42.4048 68.5,43C 68.493,44.5827 68.8263,46.2494 69.5,48C 74.4313,49.3171 79.4313,50.1504 84.5,50.5C 90.5092,50.6662 96.5092,50.4995 102.5,50C 107.606,48.1981 112.94,47.3647 118.5,47.5C 118.063,49.0744 117.063,50.2411 115.5,51C 110.511,51.4993 105.511,51.6659 100.5,51.5C 91.5,51.5 82.5,51.5 73.5,51.5C 62.9865,51.1724 52.6532,51.5058 42.5,52.5C 40.334,49.9599 39.334,50.6266 39.5,54.5C 37.8958,53.713 37.2291,52.3797 37.5,50.5C 42.5553,49.7716 45.222,46.7716 45.5,41.5 Z"
       id="path16" />
  </g>
  <g
     id="g17">
    <path
       style="opacity:1"
       fill="#fefefe"
       d="M 146.5,44.5 C 146.5,79.8333 146.5,115.167 146.5,150.5C 139.5,150.5 132.5,150.5 125.5,150.5C 114.5,150.5 103.5,150.5 92.5,150.5C 85.8469,149.946 79.1802,149.612 72.5,149.5C 71.5,149.5 70.5,149.5 69.5,149.5C 68.5769,147.233 67.7436,144.9 67,142.5C 66.8272,136.652 66.3272,130.985 65.5,125.5C 65.0246,112.148 63.858,98.8146 62,85.5C 61.4842,82.4531 59.9842,80.1198 57.5,78.5C 57.81,75.2869 57.4767,72.2869 56.5,69.5C 56.5,68.5 56.5,67.5 56.5,66.5C 58.1238,66.3601 59.2904,67.0267 60,68.5C 61.016,67.3659 61.6827,67.6992 62,69.5C 62.4652,68.0692 63.2986,66.9025 64.5,66C 69.6835,65.8261 74.6835,65.3261 79.5,64.5C 88.5376,63.5173 97.5376,62.0173 106.5,60C 115.958,55.6797 125.625,51.8464 135.5,48.5C 138.838,46.3341 142.505,45.0007 146.5,44.5 Z"
       id="path17" />
  </g>
  <g
     id="g18">
    <path
       style="opacity:1"
       fill="#8f8f94"
       d="M 75.5,38.5 C 75.5,39.1667 75.8333,39.5 76.5,39.5C 76.0825,40.2216 75.4158,40.7216 74.5,41C 78.8518,41.4189 79.1851,42.0855 75.5,43C 76.3366,44.0113 76.67,45.1779 76.5,46.5C 78.9381,48.2667 81.6047,49.6001 84.5,50.5C 79.4313,50.1504 74.4313,49.3171 69.5,48C 68.8263,46.2494 68.493,44.5827 68.5,43C 60.8348,42.4048 53.1682,41.9048 45.5,41.5C 40.8333,41.5 36.1667,41.5 31.5,41.5C 30.5,41.1667 29.8333,40.5 29.5,39.5C 31.7638,40.2186 34.0971,40.552 36.5,40.5C 49.5071,39.9579 62.5071,39.2912 75.5,38.5 Z"
       id="path18" />
  </g>
  <g
     id="g19">
    <path
       style="opacity:1"
       fill="#262338"
       d="M 149.5,33.5 C 150.659,35.2503 152.326,36.2503 154.5,36.5C 158.46,38.1377 162.126,40.1377 165.5,42.5C 165.719,43.675 165.386,44.675 164.5,45.5C 162.214,44.5804 159.881,44.5804 157.5,45.5C 157.146,47.5412 157.146,49.3745 157.5,51C 155.437,51.7179 153.104,52.5512 150.5,53.5C 149.5,52.8333 148.5,52.1667 147.5,51.5C 147.802,48.9407 147.468,46.6074 146.5,44.5C 146.5,42.1667 146.5,39.8333 146.5,37.5C 146.5,36.8333 146.5,36.1667 146.5,35.5C 147.222,34.4489 148.222,33.7822 149.5,33.5 Z"
       id="path19" />
  </g>
  <g
     id="g20">
    <path
       style="opacity:1"
       fill="#e1e3e3"
       d="M 195.5,45.5 C 199.769,46.6992 204.103,47.6992 208.5,48.5C 208.421,49.9305 208.754,51.2638 209.5,52.5C 207.604,53.4656 205.604,53.7989 203.5,53.5C 200.012,53.4601 196.679,52.7934 193.5,51.5C 190.495,49.7234 187.162,48.7234 183.5,48.5C 177.438,46.7015 171.438,44.7015 165.5,42.5C 162.126,40.1377 158.46,38.1377 154.5,36.5C 153.15,35.3501 153.316,34.6834 155,34.5C 156.856,35.7357 158.689,35.7357 160.5,34.5C 172.154,38.5095 183.82,42.1762 195.5,45.5 Z"
       id="path20" />
  </g>
  <g
     id="g21">
    <path
       style="opacity:1"
       fill="#b3b4b8"
       d="M 195.5,45.5 C 199.97,44.5139 204.637,44.1805 209.5,44.5C 210.482,47.7635 211.149,51.0968 211.5,54.5C 209.833,54.5 208.167,54.5 206.5,54.5C 205.209,54.7373 204.209,54.404 203.5,53.5C 205.604,53.7989 207.604,53.4656 209.5,52.5C 208.754,51.2638 208.421,49.9305 208.5,48.5C 204.103,47.6992 199.769,46.6992 195.5,45.5 Z"
       id="path21" />
  </g>
  <g
     id="g22">
    <path
       style="opacity:1"
       fill="#292630"
       d="M 258.5,44.5 C 259.833,44.5 261.167,44.5 262.5,44.5C 262.719,45.675 262.386,46.675 261.5,47.5C 259.1,48.0183 257.1,49.185 255.5,51C 252.77,51.7284 250.103,51.5617 247.5,50.5C 246.15,51.9501 244.484,52.6168 242.5,52.5C 242.037,55.221 241.371,57.8877 240.5,60.5C 238.801,60.6602 237.134,60.4935 235.5,60C 233.811,56.036 230.811,54.536 226.5,55.5C 224.396,55.7989 222.396,55.4656 220.5,54.5C 220.624,53.8933 220.957,53.56 221.5,53.5C 224.16,51.8556 226.827,50.1889 229.5,48.5C 233.584,50.2734 237.251,49.7734 240.5,47C 246.673,46.355 252.673,45.5217 258.5,44.5 Z"
       id="path22" />
  </g>
  <g
     id="g23">
    <path
       style="opacity:1"
       fill="#57575f"
       d="M 31.5,41.5 C 36.1667,41.5 40.8333,41.5 45.5,41.5C 45.222,46.7716 42.5553,49.7716 37.5,50.5C 35.1152,47.7772 33.1152,44.7772 31.5,41.5 Z"
       id="path23" />
  </g>
  <g
     id="g24">
    <path
       style="opacity:1"
       fill="#45424c"
       d="M 211.5,39.5 C 226.789,44.0391 242.456,45.7058 258.5,44.5C 252.673,45.5217 246.673,46.355 240.5,47C 237.251,49.7734 233.584,50.2734 229.5,48.5C 226.827,50.1889 224.16,51.8556 221.5,53.5C 224.668,49.4967 223.668,47.1634 218.5,46.5C 218.167,46.5 217.833,46.5 217.5,46.5C 217.5,45.8333 217.167,45.5 216.5,45.5C 214.209,44.235 211.875,42.9017 209.5,41.5C 209.5,40.1667 210.167,39.5 211.5,39.5 Z"
       id="path24" />
  </g>
  <g
     id="g25">
    <path
       style="opacity:1"
       fill="#a4a3aa"
       d="M 183.5,48.5 C 187.162,48.7234 190.495,49.7234 193.5,51.5C 189.838,51.2766 186.505,50.2766 183.5,48.5 Z"
       id="path25" />
  </g>
  <g
     id="g26">
    <path
       style="opacity:1"
       fill="#3b363d"
       d="M 272.5,35.5 C 273.833,35.5 274.5,36.1667 274.5,37.5C 272.159,44.8438 269.826,52.1771 267.5,59.5C 266.91,57.0095 266.743,54.3429 267,51.5C 262.84,53.837 258.34,55.0036 253.5,55C 251.798,56.5916 250.132,58.0916 248.5,59.5C 246.248,62.0953 243.915,64.762 241.5,67.5C 241.833,68.1667 242.167,68.8333 242.5,69.5C 241.469,70.7003 240.635,72.0337 240,73.5C 238.992,73.9817 237.825,74.1484 236.5,74C 235.601,75.6516 234.601,77.1516 233.5,78.5C 233.5,76.8333 233.5,75.1667 233.5,73.5C 234.314,71.369 234.814,69.0356 235,66.5C 236.441,65.13 238.108,64.13 240,63.5C 240.483,62.552 240.649,61.552 240.5,60.5C 241.371,57.8877 242.037,55.221 242.5,52.5C 244.484,52.6168 246.15,51.9501 247.5,50.5C 250.103,51.5617 252.77,51.7284 255.5,51C 257.1,49.185 259.1,48.0183 261.5,47.5C 262.386,46.675 262.719,45.675 262.5,44.5C 261.167,44.5 259.833,44.5 258.5,44.5C 259.833,43.8333 261.167,43.1667 262.5,42.5C 266.363,40.9783 269.696,38.645 272.5,35.5 Z"
       id="path26" />
  </g>
  <g
     id="g27">
    <path
       style="opacity:1"
       fill="#68686e"
       d="M 146.5,37.5 C 146.5,39.8333 146.5,42.1667 146.5,44.5C 142.505,45.0007 138.838,46.3341 135.5,48.5C 134.228,47.5657 132.728,46.899 131,46.5C 127.999,47.9179 124.832,48.7512 121.5,49C 119.228,49.9411 117.228,51.2745 115.5,53C 101.779,57.0489 87.7791,58.3822 73.5,57C 80.4486,55.878 87.4486,55.2113 94.5,55C 96.8791,54.2838 98.8791,53.1172 100.5,51.5C 105.511,51.6659 110.511,51.4993 115.5,51C 117.063,50.2411 118.063,49.0744 118.5,47.5C 120.5,46.5 122.5,45.5 124.5,44.5C 131.447,41.2838 138.781,38.9504 146.5,37.5 Z"
       id="path27" />
  </g>
  <g
     id="g28">
    <path
       style="opacity:1"
       fill="#9ca0a2"
       d="M 42.5,52.5 C 43.2485,54.3325 44.2485,55.9991 45.5,57.5C 47.129,59.1959 46.7957,60.1959 44.5,60.5C 42.823,58.4602 41.1563,56.4602 39.5,54.5C 39.334,50.6266 40.334,49.9599 42.5,52.5 Z"
       id="path28" />
  </g>
  <g
     id="g29">
    <path
       style="opacity:1"
       fill="#4a4b50"
       d="M 73.5,51.5 C 80.3213,52.3285 87.3213,52.8285 94.5,53C 78.5328,54.3453 62.5328,54.8453 46.5,54.5C 46.7373,55.791 46.404,56.791 45.5,57.5C 44.2485,55.9991 43.2485,54.3325 42.5,52.5C 52.6532,51.5058 62.9865,51.1724 73.5,51.5 Z"
       id="path29" />
  </g>
  <g
     id="g30">
    <path
       style="opacity:1"
       fill="#a7a8aa"
       d="M 216.5,45.5 C 217.167,45.5 217.5,45.8333 217.5,46.5C 216.5,46.5 215.5,46.5 214.5,46.5C 214.5,47.8333 214.5,49.1667 214.5,50.5C 216.591,50.3184 218.591,50.6518 220.5,51.5C 220.833,51.1667 221.167,50.8333 221.5,50.5C 220.09,49.4305 219.09,48.0972 218.5,46.5C 223.668,47.1634 224.668,49.4967 221.5,53.5C 220.957,53.56 220.624,53.8933 220.5,54.5C 222.396,55.4656 224.396,55.7989 226.5,55.5C 227.952,56.3019 229.618,56.8019 231.5,57C 225.388,57.4848 219.388,56.9848 213.5,55.5C 213.5,52.1667 213.5,48.8333 213.5,45.5C 214.5,45.5 215.5,45.5 216.5,45.5 Z"
       id="path30" />
  </g>
  <g
     id="g31">
    <path
       style="opacity:1"
       fill="#f0f1f1"
       d="M 217.5,46.5 C 217.833,46.5 218.167,46.5 218.5,46.5C 219.09,48.0972 220.09,49.4305 221.5,50.5C 221.167,50.8333 220.833,51.1667 220.5,51.5C 218.591,50.6518 216.591,50.3184 214.5,50.5C 214.5,49.1667 214.5,47.8333 214.5,46.5C 215.5,46.5 216.5,46.5 217.5,46.5 Z"
       id="path31" />
  </g>
  <g
     id="g32">
    <path
       style="opacity:1"
       fill="#29263f"
       d="M 165.5,42.5 C 171.438,44.7015 177.438,46.7015 183.5,48.5C 186.505,50.2766 189.838,51.2766 193.5,51.5C 196.679,52.7934 200.012,53.4601 203.5,53.5C 204.209,54.404 205.209,54.7373 206.5,54.5C 208.607,55.4682 210.941,55.8016 213.5,55.5C 219.388,56.9848 225.388,57.4848 231.5,57C 229.618,56.8019 227.952,56.3019 226.5,55.5C 230.811,54.536 233.811,56.036 235.5,60C 237.134,60.4935 238.801,60.6602 240.5,60.5C 240.649,61.552 240.483,62.552 240,63.5C 238.108,64.13 236.441,65.13 235,66.5C 234.814,69.0356 234.314,71.369 233.5,73.5C 233.167,73.5 232.833,73.5 232.5,73.5C 231.577,74.3029 230.577,74.4696 229.5,74C 228.91,72.4905 228.244,70.9905 227.5,69.5C 226.833,70.5 226.167,71.5 225.5,72.5C 224.511,68.0905 222.011,66.7571 218,68.5C 217,66.5 216,64.5 215,62.5C 214.51,63.7932 214.343,65.1266 214.5,66.5C 211.398,64.9452 207.398,63.9452 202.5,63.5C 202.192,62.6919 201.692,62.0253 201,61.5C 199.667,62.8333 198.333,62.8333 197,61.5C 196.667,62.1667 196.333,62.8333 196,63.5C 192.107,61.2625 188.774,61.5958 186,64.5C 185.667,62.9532 186.167,61.6199 187.5,60.5C 186.264,59.6433 184.931,58.9766 183.5,58.5C 181.568,59.5202 179.568,59.6869 177.5,59C 178.28,57.927 178.113,56.7604 177,55.5C 174.482,54.2086 172.149,54.5419 170,56.5C 164.995,54.2212 160.329,54.8879 156,58.5C 154.629,57.4188 153.129,56.5855 151.5,56C 150.748,55.3292 150.414,54.4959 150.5,53.5C 153.104,52.5512 155.437,51.7179 157.5,51C 157.146,49.3745 157.146,47.5412 157.5,45.5C 159.881,44.5804 162.214,44.5804 164.5,45.5C 165.386,44.675 165.719,43.675 165.5,42.5 Z"
       id="path32" />
  </g>
  <g
     id="g33">
    <path
       style="opacity:1"
       fill="#6b6b76"
       d="M 209.5,41.5 C 211.875,42.9017 214.209,44.235 216.5,45.5C 215.5,45.5 214.5,45.5 213.5,45.5C 213.5,48.8333 213.5,52.1667 213.5,55.5C 210.941,55.8016 208.607,55.4682 206.5,54.5C 208.167,54.5 209.833,54.5 211.5,54.5C 211.149,51.0968 210.482,47.7635 209.5,44.5C 209.5,43.5 209.5,42.5 209.5,41.5 Z"
       id="path33" />
  </g>
  <g
     id="g34">
    <path
       style="opacity:1"
       fill="#59585c"
       d="M 135.5,48.5 C 125.625,51.8464 115.958,55.6797 106.5,60C 97.5376,62.0173 88.5376,63.5173 79.5,64.5C 71.4792,64.4425 63.4792,64.7758 55.5,65.5C 56.5676,64.5655 57.901,64.2322 59.5,64.5C 59.5,63.5 59.5,62.5 59.5,61.5C 57.6096,61.7035 56.1096,61.0368 55,59.5C 53.3421,61.3229 51.5088,62.9895 49.5,64.5C 48.293,62.4589 46.6263,61.1255 44.5,60.5C 46.7957,60.1959 47.129,59.1959 45.5,57.5C 46.404,56.791 46.7373,55.791 46.5,54.5C 62.5328,54.8453 78.5328,54.3453 94.5,53C 87.3213,52.8285 80.3213,52.3285 73.5,51.5C 82.5,51.5 91.5,51.5 100.5,51.5C 98.8791,53.1172 96.8791,54.2838 94.5,55C 87.4486,55.2113 80.4486,55.878 73.5,57C 87.7791,58.3822 101.779,57.0489 115.5,53C 117.228,51.2745 119.228,49.9411 121.5,49C 124.832,48.7512 127.999,47.9179 131,46.5C 132.728,46.899 134.228,47.5657 135.5,48.5 Z"
       id="path34" />
  </g>
  <g
     id="g35">
    <path
       style="opacity:1"
       fill="#514d52"
       d="M 267.5,59.5 C 267.483,61.5648 267.15,63.5648 266.5,65.5C 265.054,68.2542 264.054,71.2542 263.5,74.5C 262.883,74.6107 262.383,74.944 262,75.5C 258.021,71.3855 256.521,66.3855 257.5,60.5C 255.5,60.8333 253.5,61.1667 251.5,61.5C 250.884,70.8376 250.218,80.1709 249.5,89.5C 244.756,89.0384 243.756,90.5384 246.5,94C 245.829,94.9862 245.829,96.1529 246.5,97.5C 242.725,99.107 240.392,97.7737 239.5,93.5C 237.994,92.2528 236.494,92.2528 235,93.5C 235.379,91.925 235.212,90.425 234.5,89C 235.126,88.2496 235.626,87.4162 236,86.5C 236.249,87.624 236.749,88.624 237.5,89.5C 237.833,89.3333 238.167,89.1667 238.5,89C 239.103,87.1746 239.77,85.3413 240.5,83.5C 241.478,83.9767 242.311,84.6433 243,85.5C 244.458,82.9681 245.458,80.6348 246,78.5C 246.853,80.1247 247.853,80.4581 249,79.5C 248.947,72.8503 248.78,66.1836 248.5,59.5C 250.132,58.0916 251.798,56.5916 253.5,55C 258.34,55.0036 262.84,53.837 267,51.5C 266.743,54.3429 266.91,57.0095 267.5,59.5 Z"
       id="path35" />
  </g>
  <g
     id="g36">
    <path
       style="opacity:1"
       fill="#a19a95"
       d="M 26.5,54.5 C 28.0719,57.2154 29.0719,60.2154 29.5,63.5C 29.5,64.1667 29.5,64.8333 29.5,65.5C 28.5,63.5 27.5,61.5 26.5,59.5C 26.5,57.8333 26.5,56.1667 26.5,54.5 Z"
       id="path36" />
  </g>
  <g
     id="g37">
    <path
       style="opacity:1"
       fill="#332f4b"
       d="M 147.5,51.5 C 148.5,52.1667 149.5,52.8333 150.5,53.5C 150.414,54.4959 150.748,55.3292 151.5,56C 153.129,56.5855 154.629,57.4188 156,58.5C 160.329,54.8879 164.995,54.2212 170,56.5C 172.149,54.5419 174.482,54.2086 177,55.5C 178.113,56.7604 178.28,57.927 177.5,59C 179.568,59.6869 181.568,59.5202 183.5,58.5C 184.931,58.9766 186.264,59.6433 187.5,60.5C 186.167,61.6199 185.667,62.9532 186,64.5C 188.774,61.5958 192.107,61.2625 196,63.5C 196.333,62.8333 196.667,62.1667 197,61.5C 198.333,62.8333 199.667,62.8333 201,61.5C 201.692,62.0253 202.192,62.6919 202.5,63.5C 207.398,63.9452 211.398,64.9452 214.5,66.5C 214.343,65.1266 214.51,63.7932 215,62.5C 216,64.5 217,66.5 218,68.5C 222.011,66.7571 224.511,68.0905 225.5,72.5C 226.167,71.5 226.833,70.5 227.5,69.5C 228.244,70.9905 228.91,72.4905 229.5,74C 230.577,74.4696 231.577,74.3029 232.5,73.5C 232.824,77.5546 232.491,81.5546 231.5,85.5C 229.833,84.8333 228.167,84.1667 226.5,83.5C 225.319,85.1353 225.319,86.802 226.5,88.5C 226,88.8333 225.5,89.1667 225,89.5C 223.457,87.1363 221.457,84.4696 219,81.5C 215.82,82.731 212.653,82.731 209.5,81.5C 208.618,80.2402 207.618,79.0736 206.5,78C 205.256,77.5439 204.423,78.0439 204,79.5C 203.278,76.1185 201.445,75.1185 198.5,76.5C 197.304,76.1543 197.304,75.6543 198.5,75C 196.238,74.3581 194.071,73.5248 192,72.5C 190.582,74.3632 188.749,74.8632 186.5,74C 187.956,73.5774 188.456,72.7441 188,71.5C 187.029,72.1984 185.863,72.1984 184.5,71.5C 183.328,71.9186 182.328,72.5853 181.5,73.5C 180.719,72.2713 180.219,70.938 180,69.5C 178.933,70.1905 177.766,70.6905 176.5,71C 177.672,71.4186 178.672,72.0853 179.5,73C 178.065,72.6888 176.732,72.8555 175.5,73.5C 174.41,72.6086 174.41,71.6086 175.5,70.5C 173.807,69.7717 172.307,68.7717 171,67.5C 170.581,68.6721 169.915,69.6721 169,70.5C 168.259,69.3595 167.425,69.3595 166.5,70.5C 165.833,69.1667 165.167,67.8333 164.5,66.5C 163.52,67.9814 162.353,69.3147 161,70.5C 160.333,69.8333 159.667,69.1667 159,68.5C 156.949,72.355 158.115,75.1883 162.5,77C 161.81,79.696 160.31,81.8626 158,83.5C 158.077,82.2624 157.911,81.2624 157.5,80.5C 156.28,80.8869 155.613,81.7202 155.5,83C 156.695,84.5325 156.695,86.0325 155.5,87.5C 156.025,88.1924 156.692,88.6924 157.5,89C 156.692,89.3076 156.025,89.8076 155.5,90.5C 156.612,91.2652 157.279,92.2652 157.5,93.5C 155.983,95.9358 156.316,98.1024 158.5,100C 158.101,102.602 158.101,105.102 158.5,107.5C 156.052,109.926 156.052,112.426 158.5,115C 155.833,116 155.833,117 158.5,118C 157.167,119.637 155.834,120.471 154.5,120.5C 156.016,122.391 157.35,124.391 158.5,126.5C 157.619,127.971 156.286,128.804 154.5,129C 158.5,129.667 158.5,130.333 154.5,131C 155.138,132.707 155.138,134.54 154.5,136.5C 153.504,136.586 152.671,136.252 152,135.5C 151.015,137.175 150.181,138.842 149.5,140.5C 149.666,131.161 149.5,121.827 149,112.5C 148.831,125.34 148.331,138.007 147.5,150.5C 147.5,117.5 147.5,84.5 147.5,51.5 Z"
       id="path37" />
  </g>
  <g
     id="g38">
    <path
       style="opacity:1"
       fill="#dcdcdd"
       d="M 79.5,64.5 C 74.6835,65.3261 69.6835,65.8261 64.5,66C 63.2986,66.9025 62.4652,68.0692 62,69.5C 61.6827,67.6992 61.016,67.3659 60,68.5C 59.2904,67.0267 58.1238,66.3601 56.5,66.5C 56.5,67.5 56.5,68.5 56.5,69.5C 55.5655,68.4324 55.2322,67.099 55.5,65.5C 63.4792,64.7758 71.4792,64.4425 79.5,64.5 Z"
       id="path38" />
  </g>
  <g
     id="g39">
    <path
       style="opacity:1"
       fill="#35354f"
       d="M 232.5,73.5 C 232.833,73.5 233.167,73.5 233.5,73.5C 233.5,75.1667 233.5,76.8333 233.5,78.5C 231.643,96.1289 229.643,113.796 227.5,131.5C 226.897,133.19 225.897,134.69 224.5,136C 225.003,139.817 225.337,143.65 225.5,147.5C 223.993,151.355 223.326,151.021 223.5,146.5C 219.416,147.055 218.749,146.055 221.5,143.5C 219.994,142.253 218.494,142.253 217,143.5C 216.5,142.333 215.667,141.5 214.5,141C 215.167,140.667 215.833,140.333 216.5,140C 213.127,139.452 210.127,138.118 207.5,136C 208.676,134.086 209.676,134.252 210.5,136.5C 211.631,134.926 211.798,133.259 211,131.5C 208.103,133.054 205.603,132.554 203.5,130C 205.167,129 206.833,128 208.5,127C 206.764,125.061 205.764,122.728 205.5,120C 205.645,119.228 205.978,118.561 206.5,118C 203.268,115.063 203.268,112.563 206.5,110.5C 208.737,107.698 208.737,105.031 206.5,102.5C 202.951,105.405 201.451,104.739 202,100.5C 201.282,101.451 200.449,101.617 199.5,101C 200.88,99.0748 202.38,97.2415 204,95.5C 204.617,94.5509 204.451,93.7175 203.5,93C 200.942,92.7247 198.608,93.2247 196.5,94.5C 194.926,92.8984 194.259,90.8984 194.5,88.5C 198.419,89.2536 199.753,87.9203 198.5,84.5C 197.167,85.5 195.833,86.5 194.5,87.5C 192.054,84.8585 190.054,82.5252 188.5,80.5C 186.627,80.4823 186.294,80.9823 187.5,82C 186.182,82.6942 185.349,83.5275 185,84.5C 183.174,83.9896 183.007,83.1562 184.5,82C 183.069,81.5348 181.903,80.7014 181,79.5C 180.667,80.8333 180.333,82.1667 180,83.5C 179.751,82.376 179.251,81.376 178.5,80.5C 177.294,83.029 176.627,85.3623 176.5,87.5C 175.155,86.6533 174.155,85.4866 173.5,84C 172.5,83.6667 171.5,83.3333 170.5,83C 172.158,82.2747 172.658,81.108 172,79.5C 171.333,80.8333 170.667,80.8333 170,79.5C 169.075,80.0465 168.242,80.7132 167.5,81.5C 168.167,81.8333 168.833,82.1667 169.5,82.5C 168.349,83.731 167.183,83.731 166,82.5C 165.383,83.4491 165.549,84.2825 166.5,85C 165.216,85.6838 164.049,85.5171 163,84.5C 161.676,85.8802 160.343,86.2135 159,85.5C 158.817,88.3647 158.317,91.0314 157.5,93.5C 157.279,92.2652 156.612,91.2652 155.5,90.5C 156.025,89.8076 156.692,89.3076 157.5,89C 156.692,88.6924 156.025,88.1924 155.5,87.5C 156.695,86.0325 156.695,84.5325 155.5,83C 155.613,81.7202 156.28,80.8869 157.5,80.5C 157.911,81.2624 158.077,82.2624 158,83.5C 160.31,81.8626 161.81,79.696 162.5,77C 158.115,75.1883 156.949,72.355 159,68.5C 159.667,69.1667 160.333,69.8333 161,70.5C 162.353,69.3147 163.52,67.9814 164.5,66.5C 165.167,67.8333 165.833,69.1667 166.5,70.5C 167.425,69.3595 168.259,69.3595 169,70.5C 169.915,69.6721 170.581,68.6721 171,67.5C 172.307,68.7717 173.807,69.7717 175.5,70.5C 174.41,71.6086 174.41,72.6086 175.5,73.5C 176.732,72.8555 178.065,72.6888 179.5,73C 178.672,72.0853 177.672,71.4186 176.5,71C 177.766,70.6905 178.933,70.1905 180,69.5C 180.219,70.938 180.719,72.2713 181.5,73.5C 182.328,72.5853 183.328,71.9186 184.5,71.5C 185.863,72.1984 187.029,72.1984 188,71.5C 188.456,72.7441 187.956,73.5774 186.5,74C 188.749,74.8632 190.582,74.3632 192,72.5C 194.071,73.5248 196.238,74.3581 198.5,75C 197.304,75.6543 197.304,76.1543 198.5,76.5C 201.445,75.1185 203.278,76.1185 204,79.5C 204.423,78.0439 205.256,77.5439 206.5,78C 207.618,79.0736 208.618,80.2402 209.5,81.5C 212.653,82.731 215.82,82.731 219,81.5C 221.457,84.4696 223.457,87.1363 225,89.5C 225.5,89.1667 226,88.8333 226.5,88.5C 225.319,86.802 225.319,85.1353 226.5,83.5C 228.167,84.1667 229.833,84.8333 231.5,85.5C 232.491,81.5546 232.824,77.5546 232.5,73.5 Z"
       id="path39" />
  </g>
  <g
     id="g41">
    <path
       style="opacity:1"
       fill="#666364"
       d="M 38.5,93.5 C 36.571,84.1062 33.571,75.1062 29.5,66.5C 29.5,66.1667 29.5,65.8333 29.5,65.5C 29.5,64.8333 29.5,64.1667 29.5,63.5C 30.397,64.5981 31.2303,64.5981 32,63.5C 32.4541,61.2294 33.1207,58.8961 34,56.5C 35.6078,59.772 37.6078,62.772 40,65.5C 40.5984,68.7095 39.765,71.5428 37.5,74C 37.2182,80.4653 37.5516,86.9653 38.5,93.5 Z"
       id="path41" />
  </g>
  <g
     id="g42">
    <path
       style="opacity:1"
       fill="#cac2ba"
       d="M 266.5,65.5 C 266.607,72.1647 264.941,78.1647 261.5,83.5C 261.756,80.4021 262.422,77.4021 263.5,74.5C 264.054,71.2542 265.054,68.2542 266.5,65.5 Z"
       id="path42" />
  </g>
  <g
     id="g43">
    <path
       style="opacity:1"
       fill="#383755"
       d="M 196.5,94.5 C 197.872,96.3495 197.372,97.6828 195,98.5C 194.5,98 194,97.5 193.5,97C 191.343,96.9219 189.343,96.7552 187.5,96.5C 186.5,97.5 185.5,98.5 184.5,99.5C 184.709,100.086 185.043,100.586 185.5,101C 184.069,101.465 182.903,102.299 182,103.5C 181.667,103.167 181.333,102.833 181,102.5C 180.409,103.483 180.743,104.15 182,104.5C 184.441,104.644 186.941,104.644 189.5,104.5C 192.148,106.257 191.814,107.59 188.5,108.5C 187.549,107.674 186.549,107.508 185.5,108C 189.311,110.753 188.645,111.753 183.5,111C 183.833,110.667 184.167,110.333 184.5,110C 181.695,106.498 179.195,106.665 177,110.5C 176.667,110.167 176.333,109.833 176,109.5C 175.333,110.833 175.333,112.167 176,113.5C 177.814,112.24 179.647,112.24 181.5,113.5C 180.965,115.271 180.131,115.604 179,114.5C 178.667,115.833 178.333,117.167 178,118.5C 175.687,116.963 173.187,116.463 170.5,117C 171.328,117.915 172.328,118.581 173.5,119C 172.572,119.388 171.905,120.055 171.5,121C 171.892,122.011 172.559,122.511 173.5,122.5C 172.965,124.271 172.131,124.604 171,123.5C 170.383,124.449 170.549,125.282 171.5,126C 170.299,126.903 169.465,128.069 169,129.5C 168.453,124.266 167.62,124.266 166.5,129.5C 171.558,131.505 175.558,134.672 178.5,139C 176.842,139.725 176.342,140.892 177,142.5C 179.316,138.874 181.983,135.541 185,132.5C 187.683,133.675 190.017,135.342 192,137.5C 193.073,136.72 194.24,136.887 195.5,138C 192.842,138.886 189.842,139.886 186.5,141C 188.926,140.952 191.259,141.119 193.5,141.5C 194.848,139.539 196.181,139.372 197.5,141C 195.355,141.743 195.189,142.576 197,143.5C 198.091,141.654 199.424,140.987 201,141.5C 203.507,145.31 206.84,146.976 211,146.5C 211.945,146.905 212.612,147.572 213,148.5C 216.385,145.891 219.551,146.225 222.5,149.5C 220.922,150.298 219.256,150.798 217.5,151C 216.939,152.566 217.606,153.899 219.5,155C 196.836,155.5 174.169,155.667 151.5,155.5C 151.167,155.5 150.833,155.5 150.5,155.5C 150.167,155.5 149.833,155.5 149.5,155.5C 170.004,154.833 190.671,154.167 211.5,153.5C 208.285,152.552 207.952,151.219 210.5,149.5C 209.224,148.355 207.891,148.355 206.5,149.5C 204.729,148.965 204.396,148.131 205.5,147C 201.991,147.021 198.825,146.188 196,144.5C 195.261,145.574 194.261,146.241 193,146.5C 190.474,146.37 187.807,145.703 185,144.5C 182.831,144.289 180.497,144.622 178,145.5C 175.416,143.096 172.749,143.096 170,145.5C 166.978,143.995 163.978,143.328 161,143.5C 158.778,145.278 156.612,145.445 154.5,144C 154.833,143.667 155.167,143.333 155.5,143C 152.564,140.813 152.231,138.647 154.5,136.5C 155.138,134.54 155.138,132.707 154.5,131C 158.5,130.333 158.5,129.667 154.5,129C 156.286,128.804 157.619,127.971 158.5,126.5C 157.35,124.391 156.016,122.391 154.5,120.5C 155.834,120.471 157.167,119.637 158.5,118C 155.833,117 155.833,116 158.5,115C 156.052,112.426 156.052,109.926 158.5,107.5C 158.101,105.102 158.101,102.602 158.5,100C 156.316,98.1024 155.983,95.9358 157.5,93.5C 158.317,91.0314 158.817,88.3647 159,85.5C 160.343,86.2135 161.676,85.8802 163,84.5C 164.049,85.5171 165.216,85.6838 166.5,85C 165.549,84.2825 165.383,83.4491 166,82.5C 167.183,83.731 168.349,83.731 169.5,82.5C 168.833,82.1667 168.167,81.8333 167.5,81.5C 168.242,80.7132 169.075,80.0465 170,79.5C 170.667,80.8333 171.333,80.8333 172,79.5C 172.658,81.108 172.158,82.2747 170.5,83C 171.5,83.3333 172.5,83.6667 173.5,84C 174.155,85.4866 175.155,86.6533 176.5,87.5C 176.627,85.3623 177.294,83.029 178.5,80.5C 179.251,81.376 179.751,82.376 180,83.5C 180.333,82.1667 180.667,80.8333 181,79.5C 181.903,80.7014 183.069,81.5348 184.5,82C 183.007,83.1562 183.174,83.9896 185,84.5C 185.349,83.5275 186.182,82.6942 187.5,82C 186.294,80.9823 186.627,80.4823 188.5,80.5C 190.054,82.5252 192.054,84.8585 194.5,87.5C 195.833,86.5 197.167,85.5 198.5,84.5C 199.753,87.9203 198.419,89.2536 194.5,88.5C 194.259,90.8984 194.926,92.8984 196.5,94.5 Z"
       id="path43" />
  </g>
  <g
     id="g44">
    <path
       style="opacity:1"
       fill="#504f55"
       d="M 25.5,44.5 C 26.5,44.5 27.5,44.5 28.5,44.5C 28.2148,46.288 28.5481,47.9547 29.5,49.5C 33.4165,51.7461 35.7499,55.0794 36.5,59.5C 37.8221,59.33 38.9887,59.6634 40,60.5C 39.8651,58.5753 39.6984,56.5753 39.5,54.5C 41.1563,56.4602 42.823,58.4602 44.5,60.5C 46.6263,61.1255 48.293,62.4589 49.5,64.5C 51.5088,62.9895 53.3421,61.3229 55,59.5C 56.1096,61.0368 57.6096,61.7035 59.5,61.5C 59.5,62.5 59.5,63.5 59.5,64.5C 57.901,64.2322 56.5676,64.5655 55.5,65.5C 55.2322,67.099 55.5655,68.4324 56.5,69.5C 57.4767,72.2869 57.81,75.2869 57.5,78.5C 58.9327,84.5811 58.5994,90.5811 56.5,96.5C 55.2638,95.7542 53.9305,95.4208 52.5,95.5C 51.7731,99.2243 53.1064,101.891 56.5,103.5C 58.3648,113.803 58.6982,124.136 57.5,134.5C 56.6698,144.325 56.1698,154.325 56,164.5C 55.3333,161.833 54.6667,159.167 54,156.5C 53.8796,142.78 54.0463,129.113 54.5,115.5C 53.5,115.5 52.5,115.5 51.5,115.5C 51.321,113.394 50.321,111.728 48.5,110.5C 47.2836,109.998 46.1169,109.665 45,109.5C 44.8184,106.774 44.3184,104.107 43.5,101.5C 41.8299,98.8015 40.1632,96.1348 38.5,93.5C 37.5516,86.9653 37.2182,80.4653 37.5,74C 39.765,71.5428 40.5984,68.7095 40,65.5C 37.6078,62.772 35.6078,59.772 34,56.5C 33.1207,58.8961 32.4541,61.2294 32,63.5C 31.2303,64.5981 30.397,64.5981 29.5,63.5C 29.0719,60.2154 28.0719,57.2154 26.5,54.5C 25.9492,51.1933 25.6159,47.8599 25.5,44.5 Z"
       id="path44" />
  </g>
  <g
     id="g46">
    <path
       style="opacity:1"
       fill="#b6afa5"
       d="M 29.5,66.5 C 33.571,75.1062 36.571,84.1062 38.5,93.5C 39.8878,100.44 40.8878,107.44 41.5,114.5C 42.1939,126.154 42.5272,137.82 42.5,149.5C 41.6618,149.158 41.3284,148.492 41.5,147.5C 41.11,132.806 40.2767,118.139 39,103.5C 37.4634,96.1932 35.2967,89.1932 32.5,82.5C 31.269,77.3377 30.269,72.0043 29.5,66.5 Z"
       id="path46" />
  </g>
  <g
     id="g47">
    <path
       style="opacity:1"
       fill="#4a4a54"
       d="M 248.5,59.5 C 248.78,66.1836 248.947,72.8503 249,79.5C 247.853,80.4581 246.853,80.1247 246,78.5C 245.458,80.6348 244.458,82.9681 243,85.5C 242.311,84.6433 241.478,83.9767 240.5,83.5C 239.77,85.3413 239.103,87.1746 238.5,89C 238.167,89.1667 237.833,89.3333 237.5,89.5C 236.749,88.624 236.249,87.624 236,86.5C 235.626,87.4162 235.126,88.2496 234.5,89C 235.212,90.425 235.379,91.925 235,93.5C 236.494,92.2528 237.994,92.2528 239.5,93.5C 240.392,97.7737 242.725,99.107 246.5,97.5C 242.999,99.5057 240.833,102.506 240,106.5C 238.847,103.289 238.18,99.9555 238,96.5C 236.984,97.6341 236.317,97.3008 236,95.5C 234.46,97.6431 234.294,99.8098 235.5,102C 235.277,105.773 234.277,109.273 232.5,112.5C 235.028,113.517 235.028,114.684 232.5,116C 232.488,120.031 232.488,124.031 232.5,128C 232.037,130.389 231.37,132.723 230.5,135C 230.735,135.873 231.069,136.707 231.5,137.5C 228.64,142.506 229.306,147.006 233.5,151C 231.561,152.432 230.228,154.265 229.5,156.5C 227.972,157.309 226.306,157.976 224.5,158.5C 224.5,157.833 224.167,157.5 223.5,157.5C 222.508,157.672 221.842,157.338 221.5,156.5C 222.833,156.5 224.167,156.5 225.5,156.5C 226.208,148.173 226.875,139.84 227.5,131.5C 229.643,113.796 231.643,96.1289 233.5,78.5C 234.601,77.1516 235.601,75.6516 236.5,74C 237.825,74.1484 238.992,73.9817 240,73.5C 240.635,72.0337 241.469,70.7003 242.5,69.5C 242.167,68.8333 241.833,68.1667 241.5,67.5C 243.915,64.762 246.248,62.0953 248.5,59.5 Z"
       id="path47" />
  </g>
  <g
     id="g48">
    <path
       style="opacity:1"
       fill="#d2c7bd"
       d="M 261.5,84.5 C 261.375,91.0978 260.375,97.4312 258.5,103.5C 258.467,99.1311 258.8,94.7978 259.5,90.5C 259.875,88.3024 260.542,86.3024 261.5,84.5 Z"
       id="path48" />
  </g>
  <g
     id="g49">
    <path
       style="opacity:1"
       fill="#3a3b55"
       d="M 227.5,131.5 C 226.875,139.84 226.208,148.173 225.5,156.5C 224.167,156.5 222.833,156.5 221.5,156.5C 197.994,156.831 174.661,156.498 151.5,155.5C 174.169,155.667 196.836,155.5 219.5,155C 217.606,153.899 216.939,152.566 217.5,151C 219.256,150.798 220.922,150.298 222.5,149.5C 219.551,146.225 216.385,145.891 213,148.5C 212.612,147.572 211.945,146.905 211,146.5C 206.84,146.976 203.507,145.31 201,141.5C 199.424,140.987 198.091,141.654 197,143.5C 195.189,142.576 195.355,141.743 197.5,141C 196.181,139.372 194.848,139.539 193.5,141.5C 191.259,141.119 188.926,140.952 186.5,141C 189.842,139.886 192.842,138.886 195.5,138C 194.24,136.887 193.073,136.72 192,137.5C 190.017,135.342 187.683,133.675 185,132.5C 181.983,135.541 179.316,138.874 177,142.5C 176.342,140.892 176.842,139.725 178.5,139C 175.558,134.672 171.558,131.505 166.5,129.5C 167.62,124.266 168.453,124.266 169,129.5C 169.465,128.069 170.299,126.903 171.5,126C 170.549,125.282 170.383,124.449 171,123.5C 172.131,124.604 172.965,124.271 173.5,122.5C 172.559,122.511 171.892,122.011 171.5,121C 171.905,120.055 172.572,119.388 173.5,119C 172.328,118.581 171.328,117.915 170.5,117C 173.187,116.463 175.687,116.963 178,118.5C 178.333,117.167 178.667,115.833 179,114.5C 180.131,115.604 180.965,115.271 181.5,113.5C 179.647,112.24 177.814,112.24 176,113.5C 175.333,112.167 175.333,110.833 176,109.5C 176.333,109.833 176.667,110.167 177,110.5C 179.195,106.665 181.695,106.498 184.5,110C 184.167,110.333 183.833,110.667 183.5,111C 188.645,111.753 189.311,110.753 185.5,108C 186.549,107.508 187.549,107.674 188.5,108.5C 191.814,107.59 192.148,106.257 189.5,104.5C 186.941,104.644 184.441,104.644 182,104.5C 180.743,104.15 180.409,103.483 181,102.5C 181.333,102.833 181.667,103.167 182,103.5C 182.903,102.299 184.069,101.465 185.5,101C 185.043,100.586 184.709,100.086 184.5,99.5C 185.5,98.5 186.5,97.5 187.5,96.5C 189.343,96.7552 191.343,96.9219 193.5,97C 194,97.5 194.5,98 195,98.5C 197.372,97.6828 197.872,96.3495 196.5,94.5C 198.608,93.2247 200.942,92.7247 203.5,93C 204.451,93.7175 204.617,94.5509 204,95.5C 202.38,97.2415 200.88,99.0748 199.5,101C 200.449,101.617 201.282,101.451 202,100.5C 201.451,104.739 202.951,105.405 206.5,102.5C 208.737,105.031 208.737,107.698 206.5,110.5C 203.268,112.563 203.268,115.063 206.5,118C 205.978,118.561 205.645,119.228 205.5,120C 205.764,122.728 206.764,125.061 208.5,127C 206.833,128 205.167,129 203.5,130C 205.603,132.554 208.103,133.054 211,131.5C 211.798,133.259 211.631,134.926 210.5,136.5C 209.676,134.252 208.676,134.086 207.5,136C 210.127,138.118 213.127,139.452 216.5,140C 215.833,140.333 215.167,140.667 214.5,141C 215.667,141.5 216.5,142.333 217,143.5C 218.494,142.253 219.994,142.253 221.5,143.5C 218.749,146.055 219.416,147.055 223.5,146.5C 223.326,151.021 223.993,151.355 225.5,147.5C 225.337,143.65 225.003,139.817 224.5,136C 225.897,134.69 226.897,133.19 227.5,131.5 Z"
       id="path49" />
  </g>
  <g
     id="g50">
    <path
       style="opacity:1"
       fill="#56555e"
       d="M 263.5,74.5 C 262.422,77.4021 261.756,80.4021 261.5,83.5C 261.5,83.8333 261.5,84.1667 261.5,84.5C 260.542,86.3024 259.875,88.3024 259.5,90.5C 258.655,91.6715 257.989,93.0048 257.5,94.5C 254.608,96.2319 252.608,98.7319 251.5,102C 251.833,102.333 252.167,102.667 252.5,103C 250.697,104.262 249.364,105.929 248.5,108C 248.833,108.333 249.167,108.667 249.5,109C 247.479,109.513 245.979,110.68 245,112.5C 243.037,117.351 241.537,122.351 240.5,127.5C 238.59,130.394 236.59,133.228 234.5,136C 233.518,142.136 233.518,148.636 234.5,155.5C 234.5,156.167 234.167,156.5 233.5,156.5C 232.167,156.5 230.833,156.5 229.5,156.5C 230.228,154.265 231.561,152.432 233.5,151C 229.306,147.006 228.64,142.506 231.5,137.5C 231.069,136.707 230.735,135.873 230.5,135C 231.37,132.723 232.037,130.389 232.5,128C 232.488,124.031 232.488,120.031 232.5,116C 235.028,114.684 235.028,113.517 232.5,112.5C 234.277,109.273 235.277,105.773 235.5,102C 234.294,99.8098 234.46,97.6431 236,95.5C 236.317,97.3008 236.984,97.6341 238,96.5C 238.18,99.9555 238.847,103.289 240,106.5C 240.833,102.506 242.999,99.5057 246.5,97.5C 245.829,96.1529 245.829,94.9862 246.5,94C 243.756,90.5384 244.756,89.0384 249.5,89.5C 250.218,80.1709 250.884,70.8376 251.5,61.5C 253.5,61.1667 255.5,60.8333 257.5,60.5C 256.521,66.3855 258.021,71.3855 262,75.5C 262.383,74.944 262.883,74.6107 263.5,74.5 Z"
       id="path50" />
  </g>
  <g
     id="g51">
    <path
       style="opacity:1"
       fill="#67676d"
       d="M 57.5,78.5 C 59.9842,80.1198 61.4842,82.4531 62,85.5C 63.858,98.8146 65.0246,112.148 65.5,125.5C 65.7399,128.579 65.4066,131.579 64.5,134.5C 62.604,135.466 60.604,135.799 58.5,135.5C 58.8016,138.059 58.4682,140.393 57.5,142.5C 57.5,139.833 57.5,137.167 57.5,134.5C 58.6982,124.136 58.3648,113.803 56.5,103.5C 53.1064,101.891 51.7731,99.2243 52.5,95.5C 53.9305,95.4208 55.2638,95.7542 56.5,96.5C 58.5994,90.5811 58.9327,84.5811 57.5,78.5 Z"
       id="path51" />
  </g>
  <g
     id="g52">
    <path
       style="opacity:1"
       fill="#605f65"
       d="M 257.5,94.5 C 255.283,97.6621 254.117,101.329 254,105.5C 250.768,109.298 248.601,113.631 247.5,118.5C 244.541,123.365 242.541,128.699 241.5,134.5C 240.053,138.83 238.386,143.163 236.5,147.5C 235.833,150.167 235.167,152.833 234.5,155.5C 233.518,148.636 233.518,142.136 234.5,136C 236.59,133.228 238.59,130.394 240.5,127.5C 241.537,122.351 243.037,117.351 245,112.5C 245.979,110.68 247.479,109.513 249.5,109C 249.167,108.667 248.833,108.333 248.5,108C 249.364,105.929 250.697,104.262 252.5,103C 252.167,102.667 251.833,102.333 251.5,102C 252.608,98.7319 254.608,96.2319 257.5,94.5 Z"
       id="path52" />
  </g>
  <g
     id="g54">
    <path
       style="opacity:1"
       fill="#362047"
       d="M 149.5,140.5 C 149.663,145.547 149.329,150.547 148.5,155.5C 146.368,155.446 145.035,154.446 144.5,152.5C 145.167,152.5 145.5,152.167 145.5,151.5C 146.492,151.672 147.158,151.338 147.5,150.5C 148.331,138.007 148.831,125.34 149,112.5C 149.5,121.827 149.666,131.161 149.5,140.5 Z"
       id="path54" />
  </g>
  <g
     id="g57">
    <path
       style="opacity:1"
       fill="#e0dce4"
       d="M 146.5,44.5 C 147.468,46.6074 147.802,48.9407 147.5,51.5C 147.5,84.5 147.5,117.5 147.5,150.5C 147.158,151.338 146.492,151.672 145.5,151.5C 138.646,151.824 131.979,151.491 125.5,150.5C 132.5,150.5 139.5,150.5 146.5,150.5C 146.5,115.167 146.5,79.8333 146.5,44.5 Z"
       id="path57" />
  </g>
  <g
     id="g58">
    <path
       style="opacity:1"
       fill="#9a9894"
       d="M 250.5,134.5 C 250.843,136.483 250.176,137.817 248.5,138.5C 248.813,135.753 248.48,133.086 247.5,130.5C 246.264,129.754 244.93,129.421 243.5,129.5C 243.598,131.553 242.931,133.22 241.5,134.5C 242.541,128.699 244.541,123.365 247.5,118.5C 249.802,117.14 251.468,117.807 252.5,120.5C 251.184,125.066 250.517,129.732 250.5,134.5 Z"
       id="path58" />
  </g>
  <g
     id="g59">
    <path
       style="opacity:1"
       fill="#77777c"
       d="M 65.5,125.5 C 66.3272,130.985 66.8272,136.652 67,142.5C 67.7436,144.9 68.5769,147.233 69.5,149.5C 68.8826,149.611 68.3826,149.944 68,150.5C 67.5026,153.146 67.3359,155.813 67.5,158.5C 67.5792,168.211 68.2458,177.878 69.5,187.5C 69.5,189.167 69.5,190.833 69.5,192.5C 68.7784,192.082 68.2784,191.416 68,190.5C 67.2645,176.11 66.0978,161.777 64.5,147.5C 62.2776,147.822 60.4443,147.155 59,145.5C 58.5003,153.493 58.3336,161.493 58.5,169.5C 57.5067,160.682 57.1734,151.682 57.5,142.5C 58.4682,140.393 58.8016,138.059 58.5,135.5C 60.604,135.799 62.604,135.466 64.5,134.5C 65.4066,131.579 65.7399,128.579 65.5,125.5 Z"
       id="path59" />
  </g>
  <g
     id="g60">
    <path
       style="opacity:1"
       fill="#716e6a"
       d="M 254.5,134.5 C 253.947,139.482 253.613,144.482 253.5,149.5C 252.766,156.637 251.766,163.637 250.5,170.5C 249.833,171.167 249.167,171.833 248.5,172.5C 248.66,170.801 248.494,169.134 248,167.5C 247.667,167.833 247.333,168.167 247,168.5C 246.768,167.263 246.268,166.263 245.5,165.5C 246.162,161.534 246.495,157.534 246.5,153.5C 246.5,152.833 246.5,152.167 246.5,151.5C 248.054,147.433 248.72,143.1 248.5,138.5C 250.176,137.817 250.843,136.483 250.5,134.5C 251.859,133.993 252.859,132.993 253.5,131.5C 254.386,132.325 254.719,133.325 254.5,134.5 Z"
       id="path60" />
  </g>
  <g
     id="g61">
    <path
       style="opacity:1"
       fill="#b7b4ad"
       d="M 248.5,138.5 C 248.72,143.1 248.054,147.433 246.5,151.5C 246.728,149.645 246.061,148.812 244.5,149C 241.509,151.99 239.343,155.49 238,159.5C 236.989,160.337 235.822,160.67 234.5,160.5C 234.517,162.565 234.85,164.565 235.5,166.5C 234.094,166.027 233.427,165.027 233.5,163.5C 233.167,162.167 232.833,160.833 232.5,159.5C 234.144,159.714 235.644,159.38 237,158.5C 237.279,154.83 237.112,151.163 236.5,147.5C 238.386,143.163 240.053,138.83 241.5,134.5C 242.931,133.22 243.598,131.553 243.5,129.5C 244.93,129.421 246.264,129.754 247.5,130.5C 248.48,133.086 248.813,135.753 248.5,138.5 Z"
       id="path61" />
  </g>
  <g
     id="g62">
    <path
       style="opacity:1"
       fill="#716f6f"
       d="M 43.5,131.5 C 44.4163,133.815 45.7496,135.982 47.5,138C 45.8603,140.776 46.527,142.776 49.5,144C 48.1667,145 48.1667,146 49.5,147C 48.3128,148.019 47.3128,149.186 46.5,150.5C 47.0253,151.192 47.6919,151.692 48.5,152C 47.7402,153.441 47.0736,154.941 46.5,156.5C 47.7946,159.366 47.7946,162.199 46.5,165C 48.3203,165.979 49.487,167.479 50,169.5C 50.6667,168.833 51.3333,168.167 52,167.5C 55.5727,176.925 55.0727,186.092 50.5,195C 50.9054,195.945 51.572,196.612 52.5,197C 51.6634,198.011 51.33,199.178 51.5,200.5C 51.1667,200.5 50.8333,200.5 50.5,200.5C 49.8333,197.5 49.1667,194.5 48.5,191.5C 48.5,188.5 48.5,185.5 48.5,182.5C 49.9305,182.421 51.2638,182.754 52.5,183.5C 53.9887,178.944 52.322,175.944 47.5,174.5C 45.3567,167.383 45.0234,160.217 46.5,153C 45.1356,145.923 44.1356,138.756 43.5,131.5 Z"
       id="path62" />
  </g>
  <g
     id="g63">
    <path
       style="opacity:1"
       fill="#3e3d60"
       d="M 154.5,136.5 C 152.231,138.647 152.564,140.813 155.5,143C 155.167,143.333 154.833,143.667 154.5,144C 156.612,145.445 158.778,145.278 161,143.5C 163.978,143.328 166.978,143.995 170,145.5C 172.749,143.096 175.416,143.096 178,145.5C 180.497,144.622 182.831,144.289 185,144.5C 187.807,145.703 190.474,146.37 193,146.5C 194.261,146.241 195.261,145.574 196,144.5C 198.825,146.188 201.991,147.021 205.5,147C 204.396,148.131 204.729,148.965 206.5,149.5C 207.891,148.355 209.224,148.355 210.5,149.5C 207.952,151.219 208.285,152.552 211.5,153.5C 190.671,154.167 170.004,154.833 149.5,155.5C 149.167,155.5 148.833,155.5 148.5,155.5C 149.329,150.547 149.663,145.547 149.5,140.5C 150.181,138.842 151.015,137.175 152,135.5C 152.671,136.252 153.504,136.586 154.5,136.5 Z"
       id="path63" />
  </g>
  <g
     id="g64">
    <path
       style="opacity:1"
       fill="#434070"
       d="M 92.5,150.5 C 103.5,150.5 114.5,150.5 125.5,150.5C 131.979,151.491 138.646,151.824 145.5,151.5C 145.5,152.167 145.167,152.5 144.5,152.5C 141.482,152.335 138.482,152.502 135.5,153C 136.833,153.333 138.167,153.667 139.5,154C 138.833,154.333 138.167,154.667 137.5,155C 138.337,156.011 138.67,157.178 138.5,158.5C 135.676,159.763 132.843,159.763 130,158.5C 127.522,159.245 125.022,159.911 122.5,160.5C 116.553,158.387 110.719,158.387 105,160.5C 101.346,158.795 97.5128,157.795 93.5,157.5C 93.5,156.5 93.5,155.5 93.5,154.5C 90.4017,154.587 90.0684,154.087 92.5,153C 90.1667,152.667 87.8333,152.333 85.5,152C 88.0356,151.814 90.369,151.314 92.5,150.5 Z"
       id="path64" />
  </g>
  <g
     id="g65">
    <path
       style="opacity:1"
       fill="#3c3862"
       d="M 72.5,149.5 C 79.1802,149.612 85.8469,149.946 92.5,150.5C 90.369,151.314 88.0356,151.814 85.5,152C 87.8333,152.333 90.1667,152.667 92.5,153C 90.0684,154.087 90.4017,154.587 93.5,154.5C 93.5,155.5 93.5,156.5 93.5,157.5C 97.5128,157.795 101.346,158.795 105,160.5C 110.719,158.387 116.553,158.387 122.5,160.5C 125.022,159.911 127.522,159.245 130,158.5C 132.843,159.763 135.676,159.763 138.5,158.5C 139.822,158.33 140.989,158.663 142,159.5C 142.43,162.383 142.93,165.383 143.5,168.5C 139.814,162.099 134.647,160.766 128,164.5C 125.805,163.2 123.472,162.2 121,161.5C 114.17,162.298 107.337,162.631 100.5,162.5C 95.6628,159.936 90.6628,159.436 85.5,161C 86.5266,161.513 87.5266,162.013 88.5,162.5C 86.365,162.305 84.0316,162.639 81.5,163.5C 79.0243,161.47 76.191,159.803 73,158.5C 72.502,155.518 72.3354,152.518 72.5,149.5 Z"
       id="path65" />
  </g>
  <g
     id="g66">
    <path
       style="opacity:1"
       fill="#a5a19e"
       d="M 236.5,147.5 C 237.112,151.163 237.279,154.83 237,158.5C 235.644,159.38 234.144,159.714 232.5,159.5C 232.557,158.391 232.89,157.391 233.5,156.5C 234.167,156.5 234.5,156.167 234.5,155.5C 235.167,152.833 235.833,150.167 236.5,147.5 Z"
       id="path66" />
  </g>
  <g
     id="g67">
    <path
       style="opacity:1"
       fill="#626164"
       d="M 38.5,93.5 C 40.1632,96.1348 41.8299,98.8015 43.5,101.5C 44.3184,104.107 44.8184,106.774 45,109.5C 46.1169,109.665 47.2836,109.998 48.5,110.5C 50.321,111.728 51.321,113.394 51.5,115.5C 52.5,115.5 53.5,115.5 54.5,115.5C 54.0463,129.113 53.8796,142.78 54,156.5C 54.6667,159.167 55.3333,161.833 56,164.5C 56.1698,154.325 56.6698,144.325 57.5,134.5C 57.5,137.167 57.5,139.833 57.5,142.5C 57.1734,151.682 57.5067,160.682 58.5,169.5C 58.2155,171.415 58.5489,173.081 59.5,174.5C 60.1587,177.455 60.4921,180.455 60.5,183.5C 59.6414,180.788 58.4748,178.122 57,175.5C 56.5004,182.492 56.3337,189.492 56.5,196.5C 54.9729,197.931 53.3062,199.265 51.5,200.5C 51.33,199.178 51.6634,198.011 52.5,197C 51.572,196.612 50.9054,195.945 50.5,195C 55.0727,186.092 55.5727,176.925 52,167.5C 51.3333,168.167 50.6667,168.833 50,169.5C 49.487,167.479 48.3203,165.979 46.5,165C 47.7946,162.199 47.7946,159.366 46.5,156.5C 47.0736,154.941 47.7402,153.441 48.5,152C 47.6919,151.692 47.0253,151.192 46.5,150.5C 47.3128,149.186 48.3128,148.019 49.5,147C 48.1667,146 48.1667,145 49.5,144C 46.527,142.776 45.8603,140.776 47.5,138C 45.7496,135.982 44.4163,133.815 43.5,131.5C 43.5503,125.611 42.8836,119.944 41.5,114.5C 40.8878,107.44 39.8878,100.44 38.5,93.5 Z"
       id="path67" />
  </g>
  <g
     id="g68">
    <path
       style="opacity:1"
       fill="#fdfdfd"
       d="M 150.5,155.5 C 150.833,155.5 151.167,155.5 151.5,155.5C 174.661,156.498 197.994,156.831 221.5,156.5C 221.842,157.338 222.508,157.672 223.5,157.5C 222.135,163.631 220.468,169.631 218.5,175.5C 216.742,178.854 215.742,182.521 215.5,186.5C 214.199,189.791 213.199,193.291 212.5,197C 208.136,203.554 204.136,210.387 200.5,217.5C 194.159,226.504 186.826,234.504 178.5,241.5C 169.774,242.959 161.774,245.959 154.5,250.5C 154.253,247.146 153.253,244.146 151.5,241.5C 150.55,212.852 150.217,184.185 150.5,155.5 Z"
       id="path68" />
  </g>
  <g
     id="g69">
    <path
       style="opacity:1"
       fill="#302d4d"
       d="M 69.5,149.5 C 70.5,149.5 71.5,149.5 72.5,149.5C 72.3354,152.518 72.502,155.518 73,158.5C 76.191,159.803 79.0243,161.47 81.5,163.5C 81.4257,165.411 80.4257,166.578 78.5,167C 80.1124,167.72 81.6124,167.554 83,166.5C 83.1667,167 83.3333,167.5 83.5,168C 81.9467,167.939 80.6134,168.939 79.5,171C 80.2135,172.343 79.8802,173.676 78.5,175C 80.0368,176.11 80.7035,177.61 80.5,179.5C 79.209,179.263 78.209,179.596 77.5,180.5C 76.6906,179.531 75.6906,178.698 74.5,178C 75.6023,175.599 75.769,173.099 75,170.5C 73.8372,172.285 73.1705,174.285 73,176.5C 72.6258,175.584 72.1258,174.75 71.5,174C 72.1667,172 72.8333,170 73.5,168C 72.5,167.5 71.5,167 70.5,166.5C 70.0024,167.603 69.6691,168.603 69.5,169.5C 68.8329,165.687 68.1663,162.021 67.5,158.5C 67.3359,155.813 67.5026,153.146 68,150.5C 68.3826,149.944 68.8826,149.611 69.5,149.5 Z"
       id="path69" />
  </g>
  <g
     id="g70">
    <path
       style="opacity:1"
       fill="#e1ddd6"
       d="M 246.5,151.5 C 246.5,152.167 246.5,152.833 246.5,153.5C 245.419,156.627 244.753,159.96 244.5,163.5C 240.705,162.959 238.705,164.625 238.5,168.5C 237.583,167.873 236.583,167.539 235.5,167.5C 235.5,167.167 235.5,166.833 235.5,166.5C 234.85,164.565 234.517,162.565 234.5,160.5C 235.822,160.67 236.989,160.337 238,159.5C 239.343,155.49 241.509,151.99 244.5,149C 246.061,148.812 246.728,149.645 246.5,151.5 Z"
       id="path70" />
  </g>
  <g
     id="g71">
    <path
       style="opacity:1"
       fill="#999996"
       d="M 69.5,192.5 C 71.0739,194.102 71.7406,196.102 71.5,198.5C 68.2211,193.05 67.2211,193.55 68.5,200C 67.9265,201.607 67.2598,203.107 66.5,204.5C 64.6174,203.05 63.6174,201.05 63.5,198.5C 62.0173,193.975 61.3506,189.309 61.5,184.5C 62.4959,184.414 63.3292,184.748 64,185.5C 63.7374,186.951 63.9041,188.284 64.5,189.5C 64.8333,188.667 65.1667,187.833 65.5,187C 64.1233,179.228 63.29,171.394 63,163.5C 62.5581,161.321 61.5581,160.655 60,161.5C 59.501,165.821 59.3343,170.154 59.5,174.5C 58.5489,173.081 58.2155,171.415 58.5,169.5C 58.3336,161.493 58.5003,153.493 59,145.5C 60.4443,147.155 62.2776,147.822 64.5,147.5C 66.0978,161.777 67.2645,176.11 68,190.5C 68.2784,191.416 68.7784,192.082 69.5,192.5 Z"
       id="path71" />
  </g>
  <g
     id="g72">
    <path
       style="opacity:1"
       fill="#bbbab5"
       d="M 61.5,184.5 C 61.5,183.833 61.1667,183.5 60.5,183.5C 60.4921,180.455 60.1587,177.455 59.5,174.5C 59.3343,170.154 59.501,165.821 60,161.5C 61.5581,160.655 62.5581,161.321 63,163.5C 63.29,171.394 64.1233,179.228 65.5,187C 65.1667,187.833 64.8333,188.667 64.5,189.5C 63.9041,188.284 63.7374,186.951 64,185.5C 63.3292,184.748 62.4959,184.414 61.5,184.5 Z"
       id="path72" />
  </g>
  <g
     id="g73">
    <path
       style="opacity:1"
       fill="#989692"
       d="M 246.5,153.5 C 246.495,157.534 246.162,161.534 245.5,165.5C 241.124,163.869 239.457,165.536 240.5,170.5C 238.067,170.727 236.401,169.727 235.5,167.5C 236.583,167.539 237.583,167.873 238.5,168.5C 238.705,164.625 240.705,162.959 244.5,163.5C 244.753,159.96 245.419,156.627 246.5,153.5 Z"
       id="path73" />
  </g>
  <g
     id="g74">
    <path
       style="opacity:1"
       fill="#393759"
       d="M 143.5,168.5 C 141.651,170.974 141.651,173.14 143.5,175C 143.596,180.222 143.263,185.556 142.5,191C 144.034,195.97 145.034,201.137 145.5,206.5C 146.086,206.709 146.586,207.043 147,207.5C 147.333,213.167 147.667,218.833 148,224.5C 148.232,225.737 148.732,226.737 149.5,227.5C 149.502,234.52 149.835,241.52 150.5,248.5C 149.953,246.482 148.953,244.649 147.5,243C 147.957,242.586 148.291,242.086 148.5,241.5C 147.702,236.271 146.702,231.104 145.5,226C 145.833,225.667 146.167,225.333 146.5,225C 145.368,222.566 144.368,220.066 143.5,217.5C 144.496,214.203 144.663,210.869 144,207.5C 143.667,208.5 143.333,209.5 143,210.5C 143.003,206.258 142.17,202.258 140.5,198.5C 141.347,196.939 141.014,195.439 139.5,194C 140.357,193.311 141.023,192.478 141.5,191.5C 138.866,190.529 138.866,188.695 141.5,186C 138.723,183.965 137.556,181.465 138,178.5C 137.586,178.957 137.086,179.291 136.5,179.5C 135.5,178.167 134.5,176.833 133.5,175.5C 132.575,174.359 131.741,174.359 131,175.5C 129.887,174.24 129.72,173.073 130.5,172C 129.747,170.513 128.914,170.346 128,171.5C 127.667,170.5 127.333,169.5 127,168.5C 123.055,170.369 119.222,170.369 115.5,168.5C 114.833,168.833 114.167,169.167 113.5,169.5C 114.016,168.242 113.35,167.242 111.5,166.5C 111.089,167.262 110.923,168.262 111,169.5C 108.833,168 106.667,166.5 104.5,165C 103.101,164.405 101.768,164.572 100.5,165.5C 99.8076,164.975 99.3076,164.308 99,163.5C 98.6667,164.833 98.3333,166.167 98,167.5C 95.5506,167.063 93.2173,167.063 91,167.5C 90.2506,166.365 90.4173,165.365 91.5,164.5C 92.6753,165.855 93.6753,165.688 94.5,164C 94,163.5 93.5,163 93,162.5C 91.5098,163.728 90.0098,163.728 88.5,162.5C 87.5266,162.013 86.5266,161.513 85.5,161C 90.6628,159.436 95.6628,159.936 100.5,162.5C 107.337,162.631 114.17,162.298 121,161.5C 123.472,162.2 125.805,163.2 128,164.5C 134.647,160.766 139.814,162.099 143.5,168.5 Z"
       id="path74" />
  </g>
  <g
     id="g75">
    <path
       style="opacity:1"
       fill="#757575"
       d="M 229.5,156.5 C 230.833,156.5 232.167,156.5 233.5,156.5C 232.89,157.391 232.557,158.391 232.5,159.5C 232.833,160.833 233.167,162.167 233.5,163.5C 232.518,162.859 231.518,162.193 230.5,161.5C 229.815,164.159 230.149,166.825 231.5,169.5C 237.395,173.29 240.062,178.623 239.5,185.5C 238.766,192.233 236.266,198.233 232,203.5C 231.424,208.315 229.924,212.649 227.5,216.5C 228.823,211.578 230.156,206.578 231.5,201.5C 230.998,200.479 230.332,200.312 229.5,201C 226.07,205.694 223.57,210.861 222,216.5C 218.721,222.079 215.221,227.412 211.5,232.5C 210.414,232.38 209.747,231.713 209.5,230.5C 209.887,228.726 210.553,227.059 211.5,225.5C 210.975,224.808 210.308,224.308 209.5,224C 211.976,220.548 213.476,216.715 214,212.5C 215.512,211.743 216.846,210.743 218,209.5C 218.606,206.57 219.44,203.737 220.5,201C 219.14,199.062 219.473,197.396 221.5,196C 220.567,193.152 219.067,192.986 217,195.5C 216.621,193.43 217.455,191.93 219.5,191C 220.079,189.575 220.079,187.908 219.5,186C 220.167,185.667 220.833,185.333 221.5,185C 220.643,184.311 219.977,183.478 219.5,182.5C 222.947,175.014 224.614,167.014 224.5,158.5C 226.306,157.976 227.972,157.309 229.5,156.5 Z"
       id="path75" />
  </g>
  <g
     id="g76">
    <path
       style="opacity:1"
       fill="#383653"
       d="M 88.5,162.5 C 90.0098,163.728 91.5098,163.728 93,162.5C 93.5,163 94,163.5 94.5,164C 93.6753,165.688 92.6753,165.855 91.5,164.5C 90.4173,165.365 90.2506,166.365 91,167.5C 93.2173,167.063 95.5506,167.063 98,167.5C 98.3333,166.167 98.6667,164.833 99,163.5C 99.3076,164.308 99.8076,164.975 100.5,165.5C 101.768,164.572 103.101,164.405 104.5,165C 106.667,166.5 108.833,168 111,169.5C 110.923,168.262 111.089,167.262 111.5,166.5C 113.35,167.242 114.016,168.242 113.5,169.5C 114.167,169.167 114.833,168.833 115.5,168.5C 119.222,170.369 123.055,170.369 127,168.5C 127.333,169.5 127.667,170.5 128,171.5C 128.914,170.346 129.747,170.513 130.5,172C 129.72,173.073 129.887,174.24 131,175.5C 131.741,174.359 132.575,174.359 133.5,175.5C 134.5,176.833 135.5,178.167 136.5,179.5C 137.086,179.291 137.586,178.957 138,178.5C 137.556,181.465 138.723,183.965 141.5,186C 138.866,188.695 138.866,190.529 141.5,191.5C 141.023,192.478 140.357,193.311 139.5,194C 141.014,195.439 141.347,196.939 140.5,198.5C 142.17,202.258 143.003,206.258 143,210.5C 143.333,209.5 143.667,208.5 144,207.5C 144.663,210.869 144.496,214.203 143.5,217.5C 144.368,220.066 145.368,222.566 146.5,225C 146.167,225.333 145.833,225.667 145.5,226C 146.702,231.104 147.702,236.271 148.5,241.5C 148.291,242.086 147.957,242.586 147.5,243C 148.953,244.649 149.953,246.482 150.5,248.5C 150.328,249.492 150.662,250.158 151.5,250.5C 151.5,251.167 151.5,251.833 151.5,252.5C 148.513,252.052 147.513,250.552 148.5,248C 147.284,245.069 145.95,242.236 144.5,239.5C 144.5,238.167 144.5,236.833 144.5,235.5C 142.549,235.773 141.049,235.107 140,233.5C 139.331,236.028 138.498,236.028 137.5,233.5C 137.942,232.261 138.609,231.261 139.5,230.5C 140.008,232.233 140.841,232.566 142,231.5C 142.58,227.514 142.08,224.014 140.5,221C 143.064,218.724 142.73,216.724 139.5,215C 139.577,212.889 139.911,210.889 140.5,209C 140,208.5 139.5,208 139,207.5C 138.581,208.672 137.915,209.672 137,210.5C 134.771,209.93 132.938,208.263 131.5,205.5C 130.468,207.04 129.135,207.54 127.5,207C 125.381,205.036 123.881,202.869 123,200.5C 122.259,201.641 121.425,201.641 120.5,200.5C 119.808,201.025 119.308,201.692 119,202.5C 117.887,201.24 117.72,200.073 118.5,199C 114.571,197.312 113.738,198.479 116,202.5C 117.205,203.071 118.372,203.738 119.5,204.5C 118.833,204.833 118.167,205.167 117.5,205.5C 117.709,206.086 118.043,206.586 118.5,207C 116.866,207.494 115.199,207.66 113.5,207.5C 112.709,204.583 112.709,201.75 113.5,199C 112.167,198.667 110.833,198.333 109.5,198C 109.833,197.667 110.167,197.333 110.5,197C 108.256,194.697 106.59,195.03 105.5,198C 104.167,198.667 102.833,198.667 101.5,198C 101.833,197.667 102.167,197.333 102.5,197C 99.1911,194.594 99.1911,192.594 102.5,191C 101.24,189.887 100.073,189.72 99,190.5C 97.887,189.24 97.7203,188.073 98.5,187C 97.5,186.333 96.5,186.333 95.5,187C 97.0499,189.095 97.3832,191.262 96.5,193.5C 95.3044,193.154 95.3044,192.654 96.5,192C 93.6877,192.829 91.8544,191.662 91,188.5C 90.7508,189.624 90.2508,190.624 89.5,191.5C 88.2798,190.289 87.1131,190.289 86,191.5C 84.3964,190.932 83.7297,189.932 84,188.5C 84.414,188.957 84.914,189.291 85.5,189.5C 87.0461,188.316 88.7127,187.316 90.5,186.5C 89.5,183.833 88.5,183.833 87.5,186.5C 85.3952,185.101 83.5619,183.434 82,181.5C 81.2588,182.641 80.4255,182.641 79.5,181.5C 76.7253,186.796 76.0586,186.462 77.5,180.5C 78.209,179.596 79.209,179.263 80.5,179.5C 80.7035,177.61 80.0368,176.11 78.5,175C 79.8802,173.676 80.2135,172.343 79.5,171C 80.6134,168.939 81.9467,167.939 83.5,168C 83.3333,167.5 83.1667,167 83,166.5C 81.6124,167.554 80.1124,167.72 78.5,167C 80.4257,166.578 81.4257,165.411 81.5,163.5C 84.0316,162.639 86.365,162.305 88.5,162.5 Z"
       id="path76" />
  </g>
  <g
     id="g77">
    <path
       style="opacity:1"
       fill="#626062"
       d="M 233.5,163.5 C 233.427,165.027 234.094,166.027 235.5,166.5C 235.5,166.833 235.5,167.167 235.5,167.5C 236.401,169.727 238.067,170.727 240.5,170.5C 239.457,165.536 241.124,163.869 245.5,165.5C 246.268,166.263 246.768,167.263 247,168.5C 247.333,168.167 247.667,167.833 248,167.5C 248.494,169.134 248.66,170.801 248.5,172.5C 248.384,175.86 248.051,179.193 247.5,182.5C 247.5,182.833 247.5,183.167 247.5,183.5C 246.374,186.465 245.374,189.465 244.5,192.5C 244.5,186.5 244.5,180.5 244.5,174.5C 242.876,174.36 241.71,175.027 241,176.5C 240.819,179.695 240.319,182.695 239.5,185.5C 240.062,178.623 237.395,173.29 231.5,169.5C 230.149,166.825 229.815,164.159 230.5,161.5C 231.518,162.193 232.518,162.859 233.5,163.5 Z"
       id="path77" />
  </g>
  <g
     id="g78">
    <path
       style="opacity:1"
       fill="#8e8a84"
       d="M 41.5,114.5 C 42.8836,119.944 43.5503,125.611 43.5,131.5C 44.1356,138.756 45.1356,145.923 46.5,153C 45.0234,160.217 45.3567,167.383 47.5,174.5C 52.322,175.944 53.9887,178.944 52.5,183.5C 51.2638,182.754 49.9305,182.421 48.5,182.5C 48.5,185.5 48.5,188.5 48.5,191.5C 47.1589,181.142 45.3256,170.809 43,160.5C 42.5014,156.848 42.3347,153.182 42.5,149.5C 42.5272,137.82 42.1939,126.154 41.5,114.5 Z"
       id="path78" />
  </g>
  <g
     id="g79">
    <path
       style="opacity:1"
       fill="#b2aba4"
       d="M 250.5,170.5 C 250.342,174.841 249.342,178.841 247.5,182.5C 248.051,179.193 248.384,175.86 248.5,172.5C 249.167,171.833 249.833,171.167 250.5,170.5 Z"
       id="path79" />
  </g>
  <g
     id="g80">
    <path
       style="opacity:1"
       fill="#35344e"
       d="M 67.5,158.5 C 68.1663,162.021 68.8329,165.687 69.5,169.5C 69.6691,168.603 70.0024,167.603 70.5,166.5C 71.5,167 72.5,167.5 73.5,168C 72.8333,170 72.1667,172 71.5,174C 72.1258,174.75 72.6258,175.584 73,176.5C 73.1705,174.285 73.8372,172.285 75,170.5C 75.769,173.099 75.6023,175.599 74.5,178C 75.6906,178.698 76.6906,179.531 77.5,180.5C 76.0586,186.462 76.7253,186.796 79.5,181.5C 80.4255,182.641 81.2588,182.641 82,181.5C 83.5619,183.434 85.3952,185.101 87.5,186.5C 88.5,183.833 89.5,183.833 90.5,186.5C 88.7127,187.316 87.0461,188.316 85.5,189.5C 84.914,189.291 84.414,188.957 84,188.5C 83.7297,189.932 84.3964,190.932 86,191.5C 87.1131,190.289 88.2798,190.289 89.5,191.5C 90.2508,190.624 90.7508,189.624 91,188.5C 91.8544,191.662 93.6877,192.829 96.5,192C 95.3044,192.654 95.3044,193.154 96.5,193.5C 97.3832,191.262 97.0499,189.095 95.5,187C 96.5,186.333 97.5,186.333 98.5,187C 97.7203,188.073 97.887,189.24 99,190.5C 100.073,189.72 101.24,189.887 102.5,191C 99.1911,192.594 99.1911,194.594 102.5,197C 102.167,197.333 101.833,197.667 101.5,198C 102.833,198.667 104.167,198.667 105.5,198C 106.59,195.03 108.256,194.697 110.5,197C 110.167,197.333 109.833,197.667 109.5,198C 110.833,198.333 112.167,198.667 113.5,199C 112.709,201.75 112.709,204.583 113.5,207.5C 115.199,207.66 116.866,207.494 118.5,207C 118.043,206.586 117.709,206.086 117.5,205.5C 118.167,205.167 118.833,204.833 119.5,204.5C 118.372,203.738 117.205,203.071 116,202.5C 113.738,198.479 114.571,197.312 118.5,199C 117.72,200.073 117.887,201.24 119,202.5C 119.308,201.692 119.808,201.025 120.5,200.5C 121.425,201.641 122.259,201.641 123,200.5C 123.881,202.869 125.381,205.036 127.5,207C 129.135,207.54 130.468,207.04 131.5,205.5C 132.938,208.263 134.771,209.93 137,210.5C 137.915,209.672 138.581,208.672 139,207.5C 139.5,208 140,208.5 140.5,209C 139.911,210.889 139.577,212.889 139.5,215C 142.73,216.724 143.064,218.724 140.5,221C 142.08,224.014 142.58,227.514 142,231.5C 140.841,232.566 140.008,232.233 139.5,230.5C 138.85,228.565 138.517,226.565 138.5,224.5C 136.409,224.682 134.409,224.348 132.5,223.5C 132.167,224.833 131.833,226.167 131.5,227.5C 128.885,225.789 126.218,224.122 123.5,222.5C 122.707,223.355 123.04,224.189 124.5,225C 123.175,224.852 122.008,225.018 121,225.5C 120.383,224.551 120.549,223.718 121.5,223C 119.083,221.7 116.583,221.866 114,223.5C 114.933,218.999 114.266,218.666 112,222.5C 110.383,221.464 110.216,220.297 111.5,219C 110.584,218.626 109.75,218.126 109,217.5C 108.135,219.225 107.469,220.892 107,222.5C 105.306,221.2 103.306,219.533 101,217.5C 100.25,218.126 99.4162,218.626 98.5,219C 101.629,219.117 102.795,220.617 102,223.5C 99.2615,221.496 96.5948,219.496 94,217.5C 93.6667,217.833 93.3333,218.167 93,218.5C 90.9662,217.257 90.1329,215.757 90.5,214C 88.2746,213.439 86.2746,212.439 84.5,211C 84.8333,210.667 85.1667,210.333 85.5,210C 84.2559,209.544 83.4226,210.044 83,211.5C 81.1031,208.873 79.6031,206.039 78.5,203C 79.5,202.667 80.5,202.333 81.5,202C 79.6364,198.442 77.6364,194.942 75.5,191.5C 75.1667,191.667 74.8333,191.833 74.5,192C 74.9963,193.996 75.9963,195.663 77.5,197C 76.5,197.667 75.5,197.667 74.5,197C 73.3136,194.093 72.8136,191.26 73,188.5C 72.6667,188.833 72.3333,189.167 72,189.5C 71.2917,188.619 70.4584,187.953 69.5,187.5C 68.2458,177.878 67.5792,168.211 67.5,158.5 Z"
       id="path80" />
  </g>
  <g
     id="g81">
    <path
       style="opacity:1"
       fill="#b8bab9"
       d="M 218.5,175.5 C 218.483,179.534 217.483,183.201 215.5,186.5C 215.742,182.521 216.742,178.854 218.5,175.5 Z"
       id="path81" />
  </g>
  <g
     id="g82">
    <path
       style="opacity:1"
       fill="#403669"
       d="M 144.5,152.5 C 145.035,154.446 146.368,155.446 148.5,155.5C 148.833,155.5 149.167,155.5 149.5,155.5C 149.5,179.5 149.5,203.5 149.5,227.5C 148.732,226.737 148.232,225.737 148,224.5C 147.667,218.833 147.333,213.167 147,207.5C 146.586,207.043 146.086,206.709 145.5,206.5C 145.034,201.137 144.034,195.97 142.5,191C 143.263,185.556 143.596,180.222 143.5,175C 141.651,173.14 141.651,170.974 143.5,168.5C 142.93,165.383 142.43,162.383 142,159.5C 140.989,158.663 139.822,158.33 138.5,158.5C 138.67,157.178 138.337,156.011 137.5,155C 138.167,154.667 138.833,154.333 139.5,154C 138.167,153.667 136.833,153.333 135.5,153C 138.482,152.502 141.482,152.335 144.5,152.5 Z"
       id="path82" />
  </g>
  <g
     id="g83">
    <path
       style="opacity:1"
       fill="#bab3a8"
       d="M 247.5,183.5 C 247.071,189.939 246.071,196.273 244.5,202.5C 243.833,203.5 243.167,204.5 242.5,205.5C 243.327,201.193 243.993,196.86 244.5,192.5C 245.374,189.465 246.374,186.465 247.5,183.5 Z"
       id="path83" />
  </g>
  <g
     id="g84">
    <path
       style="opacity:1"
       fill="#868787"
       d="M 223.5,157.5 C 224.167,157.5 224.5,157.833 224.5,158.5C 224.614,167.014 222.947,175.014 219.5,182.5C 219.977,183.478 220.643,184.311 221.5,185C 220.833,185.333 220.167,185.667 219.5,186C 220.079,187.908 220.079,189.575 219.5,191C 217.455,191.93 216.621,193.43 217,195.5C 219.067,192.986 220.567,193.152 221.5,196C 219.473,197.396 219.14,199.062 220.5,201C 219.44,203.737 218.606,206.57 218,209.5C 216.846,210.743 215.512,211.743 214,212.5C 213.476,216.715 211.976,220.548 209.5,224C 210.308,224.308 210.975,224.808 211.5,225.5C 210.553,227.059 209.887,228.726 209.5,230.5C 209.747,231.713 210.414,232.38 211.5,232.5C 209.322,235.734 206.822,236.067 204,233.5C 202.417,235.993 200.917,235.826 199.5,233C 200.449,232.383 201.282,232.549 202,233.5C 203.02,232.109 203.853,230.609 204.5,229C 202.771,227.211 202.104,225.044 202.5,222.5C 203.552,222.649 204.552,222.483 205.5,222C 202.099,222.266 200.433,220.766 200.5,217.5C 204.136,210.387 208.136,203.554 212.5,197C 213.199,193.291 214.199,189.791 215.5,186.5C 217.483,183.201 218.483,179.534 218.5,175.5C 220.468,169.631 222.135,163.631 223.5,157.5 Z"
       id="path84" />
  </g>
  <g
     id="g85">
    <path
       style="opacity:1"
       fill="#a7a9a4"
       d="M 71.5,198.5 C 72.1174,198.611 72.6174,198.944 73,199.5C 73.4396,201.866 73.9396,204.199 74.5,206.5C 73.8826,206.389 73.3826,206.056 73,205.5C 72.8333,206.667 72.6667,207.833 72.5,209C 73.786,214.137 75.1193,219.304 76.5,224.5C 71.0921,218.988 67.7588,212.321 66.5,204.5C 67.2598,203.107 67.9265,201.607 68.5,200C 67.2211,193.55 68.2211,193.05 71.5,198.5 Z"
       id="path85" />
  </g>
  <g
     id="g87">
    <path
       style="opacity:1"
       fill="#707072"
       d="M 56.5,196.5 C 59.17,201.526 61.17,206.86 62.5,212.5C 63.1346,215.493 63.3013,218.493 63,221.5C 61.0356,217.667 59.369,213.667 58,209.5C 56.1598,207.51 54.9931,207.51 54.5,209.5C 52.883,206.811 51.883,203.811 51.5,200.5C 53.3062,199.265 54.9729,197.931 56.5,196.5 Z"
       id="path87" />
  </g>
  <g
     id="g88">
    <path
       style="opacity:1"
       fill="#c0c3bd"
       d="M 74.5,206.5 C 76.5365,210.189 78.5365,213.855 80.5,217.5C 81.3007,219.042 81.634,220.708 81.5,222.5C 82.1465,224.156 82.8131,225.823 83.5,227.5C 83.2528,228.713 82.5862,229.38 81.5,229.5C 79.5,228.167 77.8333,226.5 76.5,224.5C 75.1193,219.304 73.786,214.137 72.5,209C 72.6667,207.833 72.8333,206.667 73,205.5C 73.3826,206.056 73.8826,206.389 74.5,206.5 Z"
       id="path88" />
  </g>
  <g
     id="g89">
    <path
       style="opacity:1"
       fill="#8b81aa"
       d="M 149.5,155.5 C 149.833,155.5 150.167,155.5 150.5,155.5C 150.217,184.185 150.55,212.852 151.5,241.5C 151.5,244.5 151.5,247.5 151.5,250.5C 150.662,250.158 150.328,249.492 150.5,248.5C 149.835,241.52 149.502,234.52 149.5,227.5C 149.5,203.5 149.5,179.5 149.5,155.5 Z"
       id="path89" />
  </g>
  <g
     id="g90">
    <path
       style="opacity:1"
       fill="#545255"
       d="M 244.5,192.5 C 243.993,196.86 243.327,201.193 242.5,205.5C 240.68,209.782 239.014,214.115 237.5,218.5C 236.184,220.716 234.517,222.716 232.5,224.5C 231.548,226.045 231.215,227.712 231.5,229.5C 229.61,229.297 228.11,229.963 227,231.5C 226.439,233.725 225.439,235.725 224,237.5C 224.221,234.769 224.055,232.102 223.5,229.5C 225.826,225.856 227.159,221.856 227.5,217.5C 227.5,217.167 227.5,216.833 227.5,216.5C 229.924,212.649 231.424,208.315 232,203.5C 236.266,198.233 238.766,192.233 239.5,185.5C 240.319,182.695 240.819,179.695 241,176.5C 241.71,175.027 242.876,174.36 244.5,174.5C 244.5,180.5 244.5,186.5 244.5,192.5 Z"
       id="path90" />
  </g>
  <g
     id="g91">
    <path
       style="opacity:1"
       fill="#606062"
       d="M 62.5,212.5 C 64.2691,216.296 65.7691,220.296 67,224.5C 69.926,227.355 72.0927,230.689 73.5,234.5C 72.9984,235.521 72.3317,235.688 71.5,235C 67.7519,231.44 65.0852,227.273 63.5,222.5C 62.209,222.263 61.209,222.596 60.5,223.5C 57.1808,219.587 55.1808,214.921 54.5,209.5C 54.9931,207.51 56.1598,207.51 58,209.5C 59.369,213.667 61.0356,217.667 63,221.5C 63.3013,218.493 63.1346,215.493 62.5,212.5 Z"
       id="path91" />
  </g>
  <g
     id="g92">
    <path
       style="opacity:1"
       fill="#323047"
       d="M 69.5,187.5 C 70.4584,187.953 71.2917,188.619 72,189.5C 72.3333,189.167 72.6667,188.833 73,188.5C 72.8136,191.26 73.3136,194.093 74.5,197C 75.5,197.667 76.5,197.667 77.5,197C 75.9963,195.663 74.9963,193.996 74.5,192C 74.8333,191.833 75.1667,191.667 75.5,191.5C 77.6364,194.942 79.6364,198.442 81.5,202C 80.5,202.333 79.5,202.667 78.5,203C 79.6031,206.039 81.1031,208.873 83,211.5C 83.4226,210.044 84.2559,209.544 85.5,210C 85.1667,210.333 84.8333,210.667 84.5,211C 86.2746,212.439 88.2746,213.439 90.5,214C 90.1329,215.757 90.9662,217.257 93,218.5C 93.3333,218.167 93.6667,217.833 94,217.5C 96.5948,219.496 99.2615,221.496 102,223.5C 102.795,220.617 101.629,219.117 98.5,219C 99.4162,218.626 100.25,218.126 101,217.5C 103.306,219.533 105.306,221.2 107,222.5C 107.469,220.892 108.135,219.225 109,217.5C 109.75,218.126 110.584,218.626 111.5,219C 110.216,220.297 110.383,221.464 112,222.5C 114.266,218.666 114.933,218.999 114,223.5C 116.583,221.866 119.083,221.7 121.5,223C 120.549,223.718 120.383,224.551 121,225.5C 122.008,225.018 123.175,224.852 124.5,225C 123.04,224.189 122.707,223.355 123.5,222.5C 126.218,224.122 128.885,225.789 131.5,227.5C 131.833,226.167 132.167,224.833 132.5,223.5C 134.409,224.348 136.409,224.682 138.5,224.5C 138.517,226.565 138.85,228.565 139.5,230.5C 138.609,231.261 137.942,232.261 137.5,233.5C 138.498,236.028 139.331,236.028 140,233.5C 141.049,235.107 142.549,235.773 144.5,235.5C 144.5,236.833 144.5,238.167 144.5,239.5C 143.317,240.504 141.984,241.338 140.5,242C 141.308,242.308 141.975,242.808 142.5,243.5C 141.349,244.731 140.183,244.731 139,243.5C 138.493,244.996 138.993,246.163 140.5,247C 137.356,247.952 134.856,247.119 133,244.5C 132.867,247.403 132.534,250.403 132,253.5C 132.333,253.167 132.667,252.833 133,252.5C 133.976,254.887 135.809,256.054 138.5,256C 142.821,256.499 147.154,256.666 151.5,256.5C 148.713,257.477 145.713,257.81 142.5,257.5C 139.833,257.5 137.167,257.5 134.5,257.5C 131.115,256.394 127.782,255.227 124.5,254C 124.833,253.667 125.167,253.333 125.5,253C 124.167,252.333 123.167,251.333 122.5,250C 124.769,250.374 127.102,250.374 129.5,250C 125.759,248.262 122.592,245.762 120,242.5C 116.705,243.531 114.039,242.531 112,239.5C 111.282,240.451 110.449,240.617 109.5,240C 106.763,238.386 104.597,236.219 103,233.5C 102.586,233.957 102.086,234.291 101.5,234.5C 100.833,233.167 100.167,231.833 99.5,230.5C 99.0894,231.262 98.9227,232.262 99,233.5C 97.2567,231.679 95.7567,229.679 94.5,227.5C 93.0353,228.609 92.0353,228.109 91.5,226C 91.9574,225.586 92.2907,225.086 92.5,224.5C 90.4148,223.459 88.7481,221.959 87.5,220C 87.8333,219.667 88.1667,219.333 88.5,219C 87.1011,218.405 85.7678,218.572 84.5,219.5C 83.3777,218.37 82.0443,217.703 80.5,217.5C 78.5365,213.855 76.5365,210.189 74.5,206.5C 73.9396,204.199 73.4396,201.866 73,199.5C 72.6174,198.944 72.1174,198.611 71.5,198.5C 71.7406,196.102 71.0739,194.102 69.5,192.5C 69.5,190.833 69.5,189.167 69.5,187.5 Z"
       id="path92" />
  </g>
  <g
     id="g94">
    <path
       style="opacity:1"
       fill="#48494d"
       d="M 60.5,183.5 C 61.1667,183.5 61.5,183.833 61.5,184.5C 61.3506,189.309 62.0173,193.975 63.5,198.5C 63.6174,201.05 64.6174,203.05 66.5,204.5C 67.7588,212.321 71.0921,218.988 76.5,224.5C 77.8333,226.5 79.5,228.167 81.5,229.5C 83.1884,233.188 85.855,235.855 89.5,237.5C 90.1667,238.5 90.8333,239.5 91.5,240.5C 90.0222,240.762 88.6888,240.429 87.5,239.5C 84.7476,236.296 81.4142,234.463 77.5,234C 77.8333,234.333 78.1667,234.667 78.5,235C 77.6919,235.308 77.0253,235.808 76.5,236.5C 81.3424,244.019 87.009,250.852 93.5,257C 94.7932,257.49 96.1266,257.657 97.5,257.5C 97.5,258.833 97.5,260.167 97.5,261.5C 102.901,261.435 105.734,263.768 106,268.5C 108.521,269 110.354,270.333 111.5,272.5C 108.946,271.394 106.279,270.561 103.5,270C 100.65,267.076 97.3164,264.909 93.5,263.5C 84.466,255.467 76.1326,246.8 68.5,237.5C 68.5,236.833 68.1667,236.5 67.5,236.5C 64.7645,232.419 62.4312,228.085 60.5,223.5C 61.209,222.596 62.209,222.263 63.5,222.5C 65.0852,227.273 67.7519,231.44 71.5,235C 72.3317,235.688 72.9984,235.521 73.5,234.5C 72.0927,230.689 69.926,227.355 67,224.5C 65.7691,220.296 64.2691,216.296 62.5,212.5C 61.17,206.86 59.17,201.526 56.5,196.5C 56.3337,189.492 56.5004,182.492 57,175.5C 58.4748,178.122 59.6414,180.788 60.5,183.5 Z"
       id="path94" />
  </g>
  <g
     id="g95">
    <path
       style="opacity:1"
       fill="#323142"
       d="M 80.5,217.5 C 82.0443,217.703 83.3777,218.37 84.5,219.5C 85.7678,218.572 87.1011,218.405 88.5,219C 88.1667,219.333 87.8333,219.667 87.5,220C 88.7481,221.959 90.4148,223.459 92.5,224.5C 92.2907,225.086 91.9574,225.586 91.5,226C 92.0353,228.109 93.0353,228.609 94.5,227.5C 95.7567,229.679 97.2567,231.679 99,233.5C 98.9227,232.262 99.0894,231.262 99.5,230.5C 100.167,231.833 100.833,233.167 101.5,234.5C 102.086,234.291 102.586,233.957 103,233.5C 104.597,236.219 106.763,238.386 109.5,240C 110.449,240.617 111.282,240.451 112,239.5C 114.039,242.531 116.705,243.531 120,242.5C 122.592,245.762 125.759,248.262 129.5,250C 127.102,250.374 124.769,250.374 122.5,250C 123.167,251.333 124.167,252.333 125.5,253C 125.167,253.333 124.833,253.667 124.5,254C 127.782,255.227 131.115,256.394 134.5,257.5C 134.918,258.222 135.584,258.722 136.5,259C 134.203,259.018 131.869,258.851 129.5,258.5C 123.005,255.087 116.338,251.92 109.5,249C 102.78,245.119 96.7804,240.286 91.5,234.5C 88.1563,230.46 84.823,226.46 81.5,222.5C 81.634,220.708 81.3007,219.042 80.5,217.5 Z"
       id="path95" />
  </g>
  <g
     id="g96">
    <path
       style="opacity:1"
       fill="#9a9b95"
       d="M 81.5,222.5 C 84.823,226.46 88.1563,230.46 91.5,234.5C 91.7148,236.179 91.0481,237.179 89.5,237.5C 85.855,235.855 83.1884,233.188 81.5,229.5C 82.5862,229.38 83.2528,228.713 83.5,227.5C 82.8131,225.823 82.1465,224.156 81.5,222.5 Z"
       id="path96" />
  </g>
  <g
     id="g97">
    <path
       style="opacity:1"
       fill="#6a6767"
       d="M 227.5,217.5 C 227.159,221.856 225.826,225.856 223.5,229.5C 224.055,232.102 224.221,234.769 224,237.5C 225.439,235.725 226.439,233.725 227,231.5C 228.11,229.963 229.61,229.297 231.5,229.5C 231.215,227.712 231.548,226.045 232.5,224.5C 234.517,222.716 236.184,220.716 237.5,218.5C 235.568,222.703 233.901,227.036 232.5,231.5C 228.905,234.563 226.238,238.23 224.5,242.5C 223.833,242.833 223.167,243.167 222.5,243.5C 222.852,240.927 222.352,238.594 221,236.5C 219.065,238.194 217.231,239.861 215.5,241.5C 219.519,233.461 223.519,225.461 227.5,217.5 Z"
       id="path97" />
  </g>
  <g
     id="g98">
    <path
       style="opacity:1"
       fill="#929292"
       d="M 227.5,216.5 C 227.5,216.833 227.5,217.167 227.5,217.5C 223.519,225.461 219.519,233.461 215.5,241.5C 207.809,252.031 198.809,261.531 188.5,270C 181.377,273.867 174.043,277.034 166.5,279.5C 160.863,280.166 155.196,280.833 149.5,281.5C 147.814,280.143 146.148,278.81 144.5,277.5C 144.5,277.167 144.5,276.833 144.5,276.5C 150.572,278.718 156.906,279.551 163.5,279C 166.804,278.098 167.138,276.764 164.5,275C 165.022,274.05 165.689,273.216 166.5,272.5C 164.997,271.948 163.331,271.948 161.5,272.5C 161.281,271.325 161.614,270.325 162.5,269.5C 168.583,266.121 173.916,261.954 178.5,257C 177.902,255.699 176.902,254.865 175.5,254.5C 171.889,255.262 168.222,255.762 164.5,256C 163.956,256.717 163.289,257.217 162.5,257.5C 162.53,256.503 162.03,255.836 161,255.5C 158.276,256.687 155.443,257.353 152.5,257.5C 152.5,255.833 152.5,254.167 152.5,252.5C 153.261,253.391 154.261,254.058 155.5,254.5C 158.544,253.822 161.544,252.989 164.5,252C 169.723,249.224 174.39,245.724 178.5,241.5C 186.826,234.504 194.159,226.504 200.5,217.5C 200.433,220.766 202.099,222.266 205.5,222C 204.552,222.483 203.552,222.649 202.5,222.5C 202.104,225.044 202.771,227.211 204.5,229C 203.853,230.609 203.02,232.109 202,233.5C 201.282,232.549 200.449,232.383 199.5,233C 200.917,235.826 202.417,235.993 204,233.5C 206.822,236.067 209.322,235.734 211.5,232.5C 215.221,227.412 218.721,222.079 222,216.5C 223.57,210.861 226.07,205.694 229.5,201C 230.332,200.312 230.998,200.479 231.5,201.5C 230.156,206.578 228.823,211.578 227.5,216.5 Z"
       id="path98" />
  </g>
  <g
     id="g101">
    <path
       style="opacity:1"
       fill="#8e8a84"
       d="M 123.5,280.5 C 127.612,280.943 131.279,282.443 134.5,285C 144.996,286.716 155.329,286.549 165.5,284.5C 167.599,283.388 169.933,282.721 172.5,282.5C 174.435,281.85 176.435,281.517 178.5,281.5C 177.694,282.728 176.694,283.728 175.5,284.5C 173.784,284.629 172.117,284.962 170.5,285.5C 155.935,289.846 141.601,289.346 127.5,284C 125.676,283.34 124.343,282.173 123.5,280.5 Z"
       id="path101" />
  </g>
  <g
     id="g103">
    <path
       style="opacity:1"
       fill="#4c4d52"
       d="M 144.5,277.5 C 146.148,278.81 147.814,280.143 149.5,281.5C 155.196,280.833 160.863,280.166 166.5,279.5C 168.5,279.5 170.5,279.5 172.5,279.5C 172.5,280.5 172.5,281.5 172.5,282.5C 169.933,282.721 167.599,283.388 165.5,284.5C 154.648,285.143 143.981,284.143 133.5,281.5C 131.665,280.572 131.332,279.406 132.5,278C 131.892,277.13 131.059,276.63 130,276.5C 127.065,278.192 123.898,278.858 120.5,278.5C 117.55,276.885 114.884,274.885 112.5,272.5C 114.792,272.756 116.959,272.423 119,271.5C 120,272.5 121,273.5 122,274.5C 127.503,272.514 132.003,273.847 135.5,278.5C 139.033,279.375 142.366,280.708 145.5,282.5C 145.833,282.167 146.167,281.833 146.5,281.5C 145.147,280.476 144.48,279.143 144.5,277.5 Z"
       id="path103" />
  </g>
  <g
     id="g104">
    <path
       style="opacity:1"
       fill="#807e7b"
       d="M 93.5,263.5 C 97.3164,264.909 100.65,267.076 103.5,270C 106.279,270.561 108.946,271.394 111.5,272.5C 111.833,272.5 112.167,272.5 112.5,272.5C 114.884,274.885 117.55,276.885 120.5,278.5C 121.5,279.167 122.5,279.833 123.5,280.5C 122.127,280.657 120.793,280.49 119.5,280C 111.485,274.764 103.151,270.264 94.5,266.5C 93.8902,265.609 93.5569,264.609 93.5,263.5 Z"
       id="path104" />
  </g>
  <g
     id="g105">
    <path
       style="opacity:1"
       fill="#626264"
       d="M 165.5,284.5 C 155.329,286.549 144.996,286.716 134.5,285C 131.279,282.443 127.612,280.943 123.5,280.5C 122.5,279.833 121.5,279.167 120.5,278.5C 123.898,278.858 127.065,278.192 130,276.5C 131.059,276.63 131.892,277.13 132.5,278C 131.332,279.406 131.665,280.572 133.5,281.5C 143.981,284.143 154.648,285.143 165.5,284.5 Z"
       id="path105" />
  </g>
  <g
     id="g107">
    <path
       style="opacity:1"
       fill="#a1a2a2"
       d="M 144.5,276.5 C 144.5,275.833 144.167,275.5 143.5,275.5C 143.927,272.212 143.26,269.212 141.5,266.5C 144.977,265.833 148.311,265.166 151.5,264.5C 153.167,263.5 154.5,262.167 155.5,260.5C 158.022,259.989 160.355,258.989 162.5,257.5C 163.289,257.217 163.956,256.717 164.5,256C 168.222,255.762 171.889,255.262 175.5,254.5C 176.902,254.865 177.902,255.699 178.5,257C 173.916,261.954 168.583,266.121 162.5,269.5C 161.614,270.325 161.281,271.325 161.5,272.5C 163.331,271.948 164.997,271.948 166.5,272.5C 165.689,273.216 165.022,274.05 164.5,275C 167.138,276.764 166.804,278.098 163.5,279C 156.906,279.551 150.572,278.718 144.5,276.5 Z"
       id="path107" />
  </g>
  <g
     id="g109">
    <path
       style="opacity:1"
       fill="#747573"
       d="M 91.5,234.5 C 96.7804,240.286 102.78,245.119 109.5,249C 116.338,251.92 123.005,255.087 129.5,258.5C 136.132,262.66 143.465,264.66 151.5,264.5C 148.311,265.166 144.977,265.833 141.5,266.5C 143.26,269.212 143.927,272.212 143.5,275.5C 129.554,270.445 116.721,263.445 105,254.5C 105.229,251.19 103.729,249.356 100.5,249C 97.657,245.99 94.657,243.157 91.5,240.5C 90.8333,239.5 90.1667,238.5 89.5,237.5C 91.0481,237.179 91.7148,236.179 91.5,234.5 Z"
       id="path109" />
  </g>
  <g
     id="g110">
    <path
       style="opacity:1"
       fill="#3f3c47"
       d="M 134.5,257.5 C 137.167,257.5 139.833,257.5 142.5,257.5C 142.082,258.222 141.416,258.722 140.5,259C 144.857,259.631 149.191,259.465 153.5,258.5C 155.976,258.233 156.643,258.899 155.5,260.5C 154.5,262.167 153.167,263.5 151.5,264.5C 143.465,264.66 136.132,262.66 129.5,258.5C 131.869,258.851 134.203,259.018 136.5,259C 135.584,258.722 134.918,258.222 134.5,257.5 Z"
       id="path110" />
  </g>
  <g
     id="g111">
    <path
       style="opacity:1"
       fill="#706c74"
       d="M 151.5,252.5 C 151.833,252.5 152.167,252.5 152.5,252.5C 152.5,254.167 152.5,255.833 152.5,257.5C 155.443,257.353 158.276,256.687 161,255.5C 162.03,255.836 162.53,256.503 162.5,257.5C 160.355,258.989 158.022,259.989 155.5,260.5C 156.643,258.899 155.976,258.233 153.5,258.5C 149.191,259.465 144.857,259.631 140.5,259C 141.416,258.722 142.082,258.222 142.5,257.5C 145.713,257.81 148.713,257.477 151.5,256.5C 151.5,255.167 151.5,253.833 151.5,252.5 Z"
       id="path111" />
  </g>
  <g
     id="g112">
    <path
       style="opacity:1"
       fill="#89837b"
       d="M 222.5,243.5 C 221.265,246.301 219.765,248.968 218,251.5C 211.967,257.036 205.8,262.37 199.5,267.5C 207.243,259.426 214.91,251.426 222.5,243.5 Z"
       id="path112" />
  </g>
  <g
     id="g113">
    <path
       style="opacity:1"
       fill="#3e4045"
       d="M 91.5,240.5 C 94.657,243.157 97.657,245.99 100.5,249C 103.729,249.356 105.229,251.19 105,254.5C 116.721,263.445 129.554,270.445 143.5,275.5C 144.167,275.5 144.5,275.833 144.5,276.5C 144.5,276.833 144.5,277.167 144.5,277.5C 144.48,279.143 145.147,280.476 146.5,281.5C 146.167,281.833 145.833,282.167 145.5,282.5C 142.366,280.708 139.033,279.375 135.5,278.5C 132.003,273.847 127.503,272.514 122,274.5C 121,273.5 120,272.5 119,271.5C 116.959,272.423 114.792,272.756 112.5,272.5C 112.167,272.5 111.833,272.5 111.5,272.5C 110.354,270.333 108.521,269 106,268.5C 105.734,263.768 102.901,261.435 97.5,261.5C 97.5,260.167 97.5,258.833 97.5,257.5C 96.1266,257.657 94.7932,257.49 93.5,257C 87.009,250.852 81.3424,244.019 76.5,236.5C 77.0253,235.808 77.6919,235.308 78.5,235C 78.1667,234.667 77.8333,234.333 77.5,234C 81.4142,234.463 84.7476,236.296 87.5,239.5C 88.6888,240.429 90.0222,240.762 91.5,240.5 Z"
       id="path113" />
  </g>
  <g
     id="g114">
    <path
       style="opacity:1"
       fill="#5a5759"
       d="M 222.5,243.5 C 214.91,251.426 207.243,259.426 199.5,267.5C 192.749,272.592 185.749,277.259 178.5,281.5C 176.435,281.517 174.435,281.85 172.5,282.5C 172.5,281.5 172.5,280.5 172.5,279.5C 170.5,279.5 168.5,279.5 166.5,279.5C 174.043,277.034 181.377,273.867 188.5,270C 198.809,261.531 207.809,252.031 215.5,241.5C 217.231,239.861 219.065,238.194 221,236.5C 222.352,238.594 222.852,240.927 222.5,243.5 Z"
       id="path114" />
  </g>
  <g
     id="g115">
    <path
       style="opacity:1"
       fill="#eeeef0"
       d="M 151.5,241.5 C 153.253,244.146 154.253,247.146 154.5,250.5C 161.774,245.959 169.774,242.959 178.5,241.5C 174.39,245.724 169.723,249.224 164.5,252C 161.544,252.989 158.544,253.822 155.5,254.5C 154.261,254.058 153.261,253.391 152.5,252.5C 152.167,252.5 151.833,252.5 151.5,252.5C 151.5,251.833 151.5,251.167 151.5,250.5C 151.5,247.5 151.5,244.5 151.5,241.5 Z"
       id="path115" />
  </g>
  <g
     id="g116">
    <path
       style="opacity:1"
       fill="#2b2741"
       d="M 144.5,239.5 C 145.95,242.236 147.284,245.069 148.5,248C 147.513,250.552 148.513,252.052 151.5,252.5C 151.5,253.833 151.5,255.167 151.5,256.5C 147.154,256.666 142.821,256.499 138.5,256C 135.809,256.054 133.976,254.887 133,252.5C 132.667,252.833 132.333,253.167 132,253.5C 132.534,250.403 132.867,247.403 133,244.5C 134.856,247.119 137.356,247.952 140.5,247C 138.993,246.163 138.493,244.996 139,243.5C 140.183,244.731 141.349,244.731 142.5,243.5C 141.975,242.808 141.308,242.308 140.5,242C 141.984,241.338 143.317,240.504 144.5,239.5 Z"
       id="path116" />
  </g>
</svg>
