<?xml version="1.0" encoding="UTF-8" standalone="no"?>
<svg
   version="1.1"
   viewBox="-10 0 2233 1000"
   id="svg1"
   sodipodi:docname="lessSpellPowergreater.svg"
   xmlns:inkscape="http://www.inkscape.org/namespaces/inkscape"
   xmlns:sodipodi="http://sodipodi.sourceforge.net/DTD/sodipodi-0.dtd"
   xmlns="http://www.w3.org/2000/svg"
   xmlns:svg="http://www.w3.org/2000/svg">
  <defs
     id="defs1" />
  <sodipodi:namedview
     id="namedview1"
     pagecolor="#ffffff"
     bordercolor="#000000"
     borderopacity="0.25"
     inkscape:showpageshadow="2"
     inkscape:pageopacity="0.0"
     inkscape:pagecheckerboard="0"
     inkscape:deskcolor="#d1d1d1" />
  <path
     fill="currentColor"
     d="M1627 -288h1q-40 138 -60.5 278t-22 241t2.5 183t12 123l7 42q-85 33 -156.5 72t-117 75t-81 72t-53.5 65t-29.5 51.5t-14.5 34.5l-3 13q-1 -5 -3 -13.5t-14.5 -34.5t-30 -52t-53 -63.5t-81 -72.5t-117 -74.5t-156.5 -72.5q3 -16 7.5 -44t10.5 -119t3.5 -186.5 t-22.5 -237.5t-60 -280q72 18 152 60t142 89.5t114 92.5t80 75l28 29q10 -11 29 -30.5t77.5 -71.5t116.5 -95.5t139 -87t153 -61.5zM1324 609q-49 -157 -59 -188q70 -62 149 -131q-36 -2 -102.5 -6t-96.5 -5q-21 -30 -59.5 -84.5t-43.5 -61.5q-18 25 -52.5 73.5t-51.5 72.5 q-136 7 -198 11q78 69 148 131q-9 29 -58 188l212 -97q63 29 212 97zM783 803q-172 -77 -358 -59q-2 -21 -6 -58.5t-18 -141.5t-30 -194.5t-43.5 -192t-58.5 -160.5q156 -18 253 -4q34 190 31 376q-1 65 -6 124.5t-10 86.5l-5 27l-13 64l60 27q117 51 204 105zM387 870 q32 -3 62 -3q189 0 356 110q-88 -30 -200.5 -32.5t-218.5 16.5t-196 54q-1 -16 -2.5 -44.5t-10 -121.5t-20.5 -190.5t-36 -241.5t-55 -284q58 -6 108 -4q46 121 79 320.5t46 347.5l7 81zM1441 803q86 -54 203 -105l61 -27l-14 -64q-19 -95 -21 -238q-2 -186 31 -376 q98 -14 253 4q-30 59 -57.5 158t-44.5 197.5t-29.5 189t-18.5 146.5l-5 56q-186 -18 -358 59zM2049 129v-1q48 -1 108 5q-31 140 -55 282t-36.5 245.5t-20.5 186.5t-10 125l-2 43q-90 -35 -196 -54t-219 -16.5t-200 32.5q167 -110 355 -110q31 0 63 3l81 8l7 -81 q13 -147 46 -347t79 -321z"
     id="path1" />
</svg>
