<?xml version="1.0" encoding="UTF-8" standalone="no"?>
<svg
   version="1.1"
   viewBox="-10 0 1584 1000"
   id="svg1"
   sodipodi:docname="lessLimitgreater.svg"
   xmlns:inkscape="http://www.inkscape.org/namespaces/inkscape"
   xmlns:sodipodi="http://sodipodi.sourceforge.net/DTD/sodipodi-0.dtd"
   xmlns="http://www.w3.org/2000/svg"
   xmlns:svg="http://www.w3.org/2000/svg">
  <defs
     id="defs1" />
  <sodipodi:namedview
     id="namedview1"
     pagecolor="#ffffff"
     bordercolor="#000000"
     borderopacity="0.25"
     inkscape:showpageshadow="2"
     inkscape:pageopacity="0.0"
     inkscape:pagecheckerboard="0"
     inkscape:deskcolor="#d1d1d1" />
  <path
     fill="currentColor"
     d="M768 869l-537 21q-51 2 -88.5 -32.5t-39.5 -85.5l-33 -836q-2 -51 32.5 -88.5t85.5 -39.5l538 -21q51 -2 88.5 32.5t39.5 85.5l33 836q2 51 -33 88.5t-86 39.5zM998 1080q-30 2 -57 -6q-47 -12 -480 -98q220 -14 272 -13q25 1 51 -3q28 -3 46 -9q52 -16 88 -53 q28 -29 45 -70q13 -33 15 -71q-11 -285 -28 -787q207 43 228 47q24 4 43 14q18 10 31 23q17 18 26 40q5 15 7 32q2 26 -5 50q-150 766 -166 813q-5 13 -11 24q-7 12 -15 23q-21 25 -46 35q-18 7 -44 9zM1492 299q13 23 15 52q2 27 -6 52q-276 728 -301 784q-8 18 -20 32 q-15 19 -32 29q-19 12 -45 16q-12 1 -24 1q-9 -1 -18 -3q-84 -31 -242.5 -90t-157.5 -61q0 -1 61 11.5t137 28t100 19.5q44 7 81 -1q42 -9 76 -33q21 -15 40 -37q23 -26 37 -56q10 -19 16 -40q22 -111 75 -375t82 -406q24 8 46 15q22 8 37 18q29 19 43 44z"
     id="path1" />
</svg>
