<?xml version="1.0" encoding="UTF-8" standalone="no"?>
<svg
   version="1.1"
   viewBox="-10 0 1219 1000"
   id="svg1"
   sodipodi:docname="lessMapgreater.svg"
   xmlns:inkscape="http://www.inkscape.org/namespaces/inkscape"
   xmlns:sodipodi="http://sodipodi.sourceforge.net/DTD/sodipodi-0.dtd"
   xmlns="http://www.w3.org/2000/svg"
   xmlns:svg="http://www.w3.org/2000/svg">
  <defs
     id="defs1" />
  <sodipodi:namedview
     id="namedview1"
     pagecolor="#ffffff"
     bordercolor="#000000"
     borderopacity="0.25"
     inkscape:showpageshadow="2"
     inkscape:pageopacity="0.0"
     inkscape:pagecheckerboard="0"
     inkscape:deskcolor="#d1d1d1" />
  <path
     fill="currentColor"
     d="M295 527h1q-46 -79 -57 -169.5t11 -173t76.5 -155.5t134.5 -119t170 -57t173 11t155.5 77t118.5 134.5t57 170t-11 173t-77 155.5t-134.5 119t-170 56.5t-173 -11.5t-155.5 -76.5t-119 -134.5zM642 975v-60q-150 -11 -280.5 -91t-208.5 -215q-61 -107 -76.5 -228.5 t13.5 -233t101 -210.5t177 -163l11 -6l18 -10l30 -17l37 65l-29 17l21 37l-36 21l-21 -37q-120 76 -187 199t-66 264t73 265q53 92 137.5 156.5t181 92t201.5 18t200 -59.5l-21 -36l36 -21l21 37l30 -17l37 65l-29 17l-18 11l-11 6q-125 69 -267 75v59h-75zM588 1035h183 q37 29 113 51.5t134 30.5l58 8v75h-793v-75q9 -1 24.5 -3t58.5 -10t80 -17t78 -25.5t64 -34.5z"
     id="path1" />
</svg>
