<?xml version="1.0" encoding="UTF-8" standalone="no"?>
<svg
   version="1.1"
   viewBox="-10 0 1474 1000"
   id="svg1"
   sodipodi:docname="lessOngoinggreater.svg"
   xmlns:inkscape="http://www.inkscape.org/namespaces/inkscape"
   xmlns:sodipodi="http://sodipodi.sourceforge.net/DTD/sodipodi-0.dtd"
   xmlns="http://www.w3.org/2000/svg"
   xmlns:svg="http://www.w3.org/2000/svg">
  <defs
     id="defs1" />
  <sodipodi:namedview
     id="namedview1"
     pagecolor="#ffffff"
     bordercolor="#000000"
     borderopacity="0.25"
     inkscape:showpageshadow="2"
     inkscape:pageopacity="0.0"
     inkscape:pagecheckerboard="0"
     inkscape:deskcolor="#d1d1d1" />
  <path
     fill="currentColor"
     d="M732 1115q-134 0 -256 -52t-210 -139.5t-140 -208.5t-52 -254q0 -186 97 -343l-159 -177l624 -129l-200 602l-131 -146q-42 92 -42 193q0 95 37 181t100 148.5t149.5 99.5t182 37t182.5 -37t149.5 -99.5t100 -148.5t37.5 -181q0 -101 -41 -190.5t-113 -154.5l96 -166 q115 92 181 225t66 286q0 133 -52 254t-140.5 208.5t-210 139.5t-255.5 52z"
     id="path1" />
</svg>
