<?xml version="1.0" encoding="UTF-8" standalone="no"?>
<svg
   version="1.1"
   viewBox="-10 0 2139 1000"
   id="svg1"
   sodipodi:docname="lessRecruitgreater.svg"
   xmlns:inkscape="http://www.inkscape.org/namespaces/inkscape"
   xmlns:sodipodi="http://sodipodi.sourceforge.net/DTD/sodipodi-0.dtd"
   xmlns="http://www.w3.org/2000/svg"
   xmlns:svg="http://www.w3.org/2000/svg">
  <defs
     id="defs1" />
  <sodipodi:namedview
     id="namedview1"
     pagecolor="#ffffff"
     bordercolor="#000000"
     borderopacity="0.25"
     inkscape:showpageshadow="2"
     inkscape:pageopacity="0.0"
     inkscape:pagecheckerboard="0"
     inkscape:deskcolor="#d1d1d1" />
  <path
     fill="currentColor"
     d="M2053 356h1q20 113 -27 222q-290 73 -565 188q-254 107 -491 249q-107 -22 -215 -54q-104 -31 -201 -71.5t-155 -76.5q-203 -125 -343 -329l25.5 -25.5l30 -30l25.5 -25.5q111 111 248 182q80 41 164 63.5t132 23.5q132 3 255 -53q-102 4 -201 -7q-158 -18 -310 -74v-108 q135 4 269 -13t262 -54q53 -23 108 -53.5t108 -67.5q67 -8 127 -13q142 -14 283 -20q50 -18 151 -54t151 -54q67 45 110.5 111.5t57.5 143.5zM454 336q-18 -60 -26 -121q-7 -44 -7 -87q16 -3 46 -7.5t41 -6.5q21 71 47 135q18 43 41 87h-142zM656 330q-18 -39 -34 -74 q-22 -54 -40 -108q12 -3 34 -10t33 -10q33 45 61 94q26 46 47 94q-17 3 -51 7.5t-50 6.5zM748 188h67q6 7 74 100l-81 14q-18 -26 -33 -54q-16 -29 -27 -60zM880 102q-81 0 -138.5 -57.5t-57.5 -138.5t57.5 -138t138.5 -57t138.5 57t57.5 138t-57.5 138.5t-138.5 57.5z"
     id="path1" />
</svg>
