<?xml version="1.0" encoding="UTF-8" standalone="no"?>
<svg
   version="1.1"
   viewBox="-10 0 1740 1000"
   id="svg1"
   sodipodi:docname="lessAttackPlusonegreater.svg"
   xmlns:inkscape="http://www.inkscape.org/namespaces/inkscape"
   xmlns:sodipodi="http://sodipodi.sourceforge.net/DTD/sodipodi-0.dtd"
   xmlns="http://www.w3.org/2000/svg"
   xmlns:svg="http://www.w3.org/2000/svg">
  <defs
     id="defs1" />
  <sodipodi:namedview
     id="namedview1"
     pagecolor="#ffffff"
     bordercolor="#000000"
     borderopacity="0.25"
     inkscape:showpageshadow="2"
     inkscape:pageopacity="0.0"
     inkscape:pagecheckerboard="0"
     inkscape:deskcolor="#d1d1d1" />
  <path
     fill="currentColor"
     d="M511 177v318h319v131h-319v314h-130v-314h-319v-131h319v-318h130zM1689 1019h31v31h-710v-31h35q87 0 124 -17t49.5 -46.5t12.5 -138.5v-594q0 -80 -8 -99q-10 -21 -34 -34q-24 -14 -56 -14q-51 0 -123 27l-18 -31l496 -192h33v937q0 106 11 135t46 48q34 19 111 19z "
     id="path1" />
</svg>
