<?xml version="1.0" encoding="UTF-8" standalone="no"?>
<svg
   version="1.1"
   viewBox="-10 0 2585 1000"
   id="svg1"
   sodipodi:docname="positive.svg"
   xmlns:inkscape="http://www.inkscape.org/namespaces/inkscape"
   xmlns:sodipodi="http://sodipodi.sourceforge.net/DTD/sodipodi-0.dtd"
   xmlns="http://www.w3.org/2000/svg"
   xmlns:svg="http://www.w3.org/2000/svg">
  <defs
     id="defs1" />
  <sodipodi:namedview
     id="namedview1"
     pagecolor="#ffffff"
     bordercolor="#000000"
     borderopacity="0.25"
     inkscape:showpageshadow="2"
     inkscape:pageopacity="0.0"
     inkscape:pagecheckerboard="0"
     inkscape:deskcolor="#d1d1d1" />
  <path
     fill="currentColor"
     d="M2165 145v-1q132 -10 302 -57q59 -17 63 -8q2 3 0 8q-35 123 -225 189q-94 32 -220 52q112 19 266 3q57 -6 62 3q2 5 -2 14q-11 22 -33.5 40t-57.5 30t-69.5 20.5t-85 14t-88 8.5t-94.5 7q38 10 69.5 17t51 10.5t41 5.5t28.5 2h25h20q24 0 10 22q-26 40 -125 82 q-182 78 -454 78q-46 0 -81 -14t-53 -35t-29 -41.5t-16 -36t-8 -15.5q-1 12 -4.5 39t-4.5 40.5t-2 34.5t2 37.5t9 31.5q19 51 66 81.5t126 49.5q13 3 -7 13q-40 19 -100 14q40 45 98 88q13 9 -10 13q-52 7 -130 -26l-24 -12q38 53 87 101q12 13 -10 13q-48 0 -118 -41 q-18 -10 -34 -21q19 43 48 89q7 10 -7 9q-34 -3 -90 -48q-18 -14 -35 -32q1 19 2 28q6 75 -37 105q-43 -30 -36 -105q1 -9 2 -28q-59 61 -113 77q-23 7 -21 -3q0 -1 2 -3q29 -47 47 -89q-72 52 -139 61q-28 3 -26 -6q0 -2 4 -6q49 -48 87 -101q-82 42 -147 38q-21 -1 -21 -8 q0 -2 4 -5q58 -43 98 -88q-66 6 -104 -16q-14 -8 -4 -11q79 -19 126.5 -49.5t66.5 -81.5q6 -15 8.5 -31.5t2 -37.5t-2 -34.5l-4.5 -40.5t-5 -39q-2 0 -7.5 15.5t-16 36t-29 41.5t-53 35t-80.5 14q-303 0 -489 -94q-79 -39 -93 -71q-7 -17 13 -17h19.5h25t29 -2t40.5 -5.5 t51 -10.5t69 -17q-56 -4 -93.5 -7t-88 -8.5t-85.5 -14t-69.5 -20.5t-57 -30t-33.5 -40q-9 -19 15 -20q12 0 50 4q148 15 261 -4q-126 -20 -221 -52q-189 -66 -225 -189q-3 -13 12 -12q7 0 100 25q130 35 254 45q-98 -33 -157 -59t-75.5 -38t-34.5 -31l-5 -5 q-44 -44 -72 -91.5t-36.5 -85.5t-7 -66t11.5 -41q13 -15 24 -10.5t56 41.5q79 65 153 118q30 22 65.5 41t68 32t72.5 24t70.5 17.5t72 11.5t66 7.5t63 3.5t53.5 1h47h34q23 0 39 4.5t23.5 10t11.5 16.5t4.5 18.5t0 22t0.5 20.5q0 5 0.5 17.5t0.5 16.5t2 14t5.5 16.5t9.5 17 t15 21.5q16 22 40 31.5t43.5 8t34.5 -9.5q22 -11 51.5 -38.5t34.5 -40.5q8 -16 8 -56v-41q-7 -2 -16.5 -11t-21.5 -9.5t-27 9.5t-24 21l-9 11q-2 -10 -4 -25t-5 -43t-2 -34q5 -24 99 -24q0 -15 27.5 -23.5t60 -7.5t46.5 10q19 12 29 40q6 16 10 47.5t5 55.5l1 23q0 41 7 58 q5 12 35 39.5t52 38.5q15 8 34.5 9.5t43 -8t40.5 -31.5q9 -11 15 -21t9.5 -17t5 -16.5t2 -14t1 -17t0.5 -17.5v-20.5v-22t4 -18.5t12 -16.5t24 -10t38 -4.5h34.5h46.5t54 -1t63.5 -3.5t66 -7.5t71.5 -11.5t71 -17.5t72.5 -24t68 -31.5t65.5 -40.5q74 -55 153 -119 q45 -37 56 -41.5t24 10.5q10 13 11 41t-7.5 66t-36 85.5t-71.5 91.5q-2 1 -5 5q-18 19 -34.5 31t-75 38t-157.5 59z"
     id="path1" />
</svg>
