<?xml version="1.0" encoding="UTF-8" standalone="no"?>
<svg
   version="1.1"
   viewBox="-10 0 1957 1000"
   id="svg1"
   sodipodi:docname="lessSkillgreater.svg"
   xmlns:inkscape="http://www.inkscape.org/namespaces/inkscape"
   xmlns:sodipodi="http://sodipodi.sourceforge.net/DTD/sodipodi-0.dtd"
   xmlns="http://www.w3.org/2000/svg"
   xmlns:svg="http://www.w3.org/2000/svg">
  <defs
     id="defs1" />
  <sodipodi:namedview
     id="namedview1"
     pagecolor="#ffffff"
     bordercolor="#000000"
     borderopacity="0.25"
     inkscape:showpageshadow="2"
     inkscape:pageopacity="0.0"
     inkscape:pagecheckerboard="0"
     inkscape:deskcolor="#d1d1d1" />
  <path
     fill="currentColor"
     d="M1824 579q22 123 74 417q-47 50 -117 54q-66 3 -118 -38q11 -55 31 -158.5t35 -177t20 -97.5q10 -44 -2 -78q-8 -25 -33 -52q-39 -41 -99 -63q-112 -35 -331 -103t-325 -101l-55 51q83 26 249.5 78.5t249.5 78.5q-73 37 -220 110.5t-220 110.5q-276 -139 -916 -460 q312 -118 916 -346q148 55 455 170.5t465 175.5q-50 25 -148 74.5t-147 74.5q49 9 94 31q40 20 75 48q37 41 55 94q17 52 12 106zM963 689q62 -29 248 -116.5t286 -134.5q9 51 26 153t26 153q-104 136 -256 212.5t-322 78.5q-176 3 -333.5 -74t-264.5 -217l55 -310 q92 44 270.5 129t264.5 126z"
     id="path1" />
</svg>
