<?xml version="1.0" encoding="UTF-8" standalone="no"?>
<svg
   version="1.1"
   viewBox="-10 0 1626 1000"
   id="svg1"
   sodipodi:docname="lessTreDiegreater.svg"
   xmlns:inkscape="http://www.inkscape.org/namespaces/inkscape"
   xmlns:sodipodi="http://sodipodi.sourceforge.net/DTD/sodipodi-0.dtd"
   xmlns="http://www.w3.org/2000/svg"
   xmlns:svg="http://www.w3.org/2000/svg">
  <defs
     id="defs1" />
  <sodipodi:namedview
     id="namedview1"
     pagecolor="#ffffff"
     bordercolor="#000000"
     borderopacity="0.25"
     inkscape:showpageshadow="2"
     inkscape:pageopacity="0.0"
     inkscape:pagecheckerboard="0"
     inkscape:deskcolor="#d1d1d1" />
  <path
     fill="currentColor"
     d="M1476 305l-61 20q-1 0 -8 -41q-23 -135 -107 -254t-199 -181l-36 -19l26 -8q30 -10 56 -10q43 -1 98 23q47 22 96 65q70 60 121 148.5t68 176.5q1 5 2 13q7 34 1.5 42t-44.5 21q-8 2 -13 4zM1194 2q135 148 156 321l2 24l-151 52q-152 51 -232 79q-82 28 -88 27 q-7 0 -15 -42q-13 -74 -44 -143q-40 -93 -108.5 -169.5t-149.5 -119.5l-33 -19l21 -8q49 -18 218.5 -73t182.5 -57h5h4q33 -1 81.5 19t88.5 50q30 24 62 59zM682 573h-1q-7 0 -14 -45q-24 -133 -109.5 -254t-194.5 -175q-34 -17 -34 -19q0 -5 39.5 -15.5t55.5 -10.5 q84 0 177.5 77.5t153.5 197.5q47 95 53 169l3 33l-62 21q-59 20 -67 21zM321 147q81 37 155.5 127.5t109.5 192.5q25 75 25 106q0 7 -8 4q-5 -1 -21 -8q-129 -54 -255 -108q-207 -86 -238 -100l-12 -6l3 -33q18 -195 136 -200q47 -2 105 25zM1533 353q4 0 4 286v285l-58 20 q-59 20 -63 17q-2 -3 -1 -286l1 -284l57 -19q57 -19 60 -19zM1308 428q34 -11 38 -13q2 0 3 12t1.5 44.5t0.5 88v141.5l-2 287l-231 81q-232 81 -234.5 81t-4 -12.5t-2.5 -48.5t-1.5 -93.5t-0.5 -153.5v-267l42 -14l43 -14v107q0 100 3 182l3 75l156 -51l155 -51v-370z M88 429q12 5 264 111l259 110v288q0 287 -2 287q-6 0 -360 -151l-167 -71v-288q0 -88 0.5 -142t1 -87.5t1.5 -45.5t3 -11zM1213 764l-95 32q-22 7 -46.5 15.5t-36.5 12.5t-13 4t-1 -151v-150l93 -32q78 -27 94 -30h2q3 3 3 151v148zM1085 643q7 6 7 49v44h56l2 -43 q1 -43 11 -56q23 -31 7.5 -62t-50.5 -29q-3 0 -10 1q-19 3 -31 16.5t-12 31.5q0 32 20 48zM808 601q2 3 5 287l2 286l-70 24l-70 25l-1 -289q-1 -288 1 -289q3 -3 67.5 -24t65.5 -20z"
     id="path1" />
</svg>
