<?xml version="1.0" encoding="UTF-8" standalone="no"?>
<svg
   version="1.1"
   id="Layer_1"
   x="0px"
   y="0px"
   width="100%"
   viewBox="0 0 92 82"
   enable-background="new 0 0 92 82"
   xml:space="preserve"
   sodipodi:docname="unit_flying.svg"
   inkscape:version="1.3.2 (091e20e, 2023-11-25, custom)"
   xmlns:inkscape="http://www.inkscape.org/namespaces/inkscape"
   xmlns:sodipodi="http://sodipodi.sourceforge.net/DTD/sodipodi-0.dtd"
   xmlns="http://www.w3.org/2000/svg"
   xmlns:svg="http://www.w3.org/2000/svg"><defs
   id="defs19" /><sodipodi:namedview
   id="namedview19"
   pagecolor="#ffffff"
   bordercolor="#000000"
   borderopacity="0.25"
   inkscape:showpageshadow="2"
   inkscape:pageopacity="0.0"
   inkscape:pagecheckerboard="0"
   inkscape:deskcolor="#d1d1d1"
   inkscape:zoom="10.012195"
   inkscape:cx="46.043849"
   inkscape:cy="41"
   inkscape:window-width="1920"
   inkscape:window-height="1017"
   inkscape:window-x="-8"
   inkscape:window-y="-8"
   inkscape:window-maximized="1"
   inkscape:current-layer="Layer_1" />


<path
   fill="#21211F"
   opacity="1.000000"
   stroke="none"
   d=" M70.928635,12.558636   C74.513084,9.545496 77.922195,6.814734 82.009338,3.540857   C82.395325,5.977347 82.727119,8.071741 83.270187,10.986544   C82.276939,15.791481 81.072418,19.776009 79.573532,23.928993   C74.268867,30.136499 67.635696,33.263023 60.150253,35.036545   C58.512619,35.424549 57.090340,36.721497 55.568882,37.599846   C55.819687,38.087055 56.070496,38.574265 56.321304,39.061478   C64.080482,38.971249 71.689087,38.313545 78.040108,32.916470   C79.251801,33.070354 80.463486,33.224236 82.021698,33.422131   C81.542809,34.866894 81.159203,36.024204 80.434563,37.770973   C79.362923,40.182388 78.632301,42.004341 77.530281,43.871422   C76.662277,43.955723 76.027061,43.809334 75.689537,44.061466   C68.926109,49.113823 61.595749,50.165787 53.547478,47.685299   C52.516369,47.367512 50.979034,48.692249 48.327976,49.839561   C52.259094,52.154243 54.637459,53.554646 57.307831,55.179131   C61.085072,56.262684 64.570312,57.122158 68.055550,57.981636   C67.166595,59.144360 66.277641,60.307083 64.836235,61.815216   C56.274612,67.153198 48.899292,65.446236 41.437298,59.328293   C40.337044,61.162899 38.930271,62.628765 38.716904,64.251549   C38.616688,65.013748 40.814331,66.078072 41.970657,67.005486   C42.989738,68.775162 44.008820,70.544838 44.658806,72.710777   C42.854584,73.382118 41.419460,73.657204 39.646828,73.783928   C36.717918,72.647903 34.144939,71.607246 31.526573,70.697174   C30.387140,70.301147 29.083546,69.788612 27.976883,69.992676   C23.946192,70.735893 19.967171,71.759346 15.593705,72.537659   C14.155993,72.365135 13.093246,72.332123 11.696671,72.198654   C10.901591,72.128548 10.440343,72.158890 9.682838,72.118271   C8.907455,72.306641 8.428328,72.565956 7.662477,72.783081   C7.088621,72.487961 6.801486,72.235046 6.514353,71.982124   C7.607685,70.926529 8.551073,69.623413 9.818690,68.855522   C18.043623,63.873028 24.759575,57.473549 29.563110,48.274117   C31.792555,41.527565 33.647552,35.345116 35.502548,29.162666   C35.240116,25.412329 38.200626,25.642237 40.474770,25.316309   C51.634689,23.716894 61.681190,19.476646 70.928635,12.558636  z"
   id="path3" />
















</svg>
