<?xml version="1.0" encoding="UTF-8" standalone="no"?>
<svg
   version="1.1"
   viewBox="-23 0 1180 1000"
   id="svg1"
   sodipodi:docname="lessPassivegreater.svg"
   xmlns:inkscape="http://www.inkscape.org/namespaces/inkscape"
   xmlns:sodipodi="http://sodipodi.sourceforge.net/DTD/sodipodi-0.dtd"
   xmlns="http://www.w3.org/2000/svg"
   xmlns:svg="http://www.w3.org/2000/svg">
  <defs
     id="defs1" />
  <sodipodi:namedview
     id="namedview1"
     pagecolor="#ffffff"
     bordercolor="#000000"
     borderopacity="0.25"
     inkscape:showpageshadow="2"
     inkscape:pageopacity="0.0"
     inkscape:pagecheckerboard="0"
     inkscape:deskcolor="#d1d1d1" />
  <path
     fill="currentColor"
     d="M1147 -6l-41 71l-478 -276l41 -71zM506 1104l-41 71l-478 -276l41 -71zM514 416q-2 -28 -17 -75.5t-31.5 -90.5t-24.5 -98t-1 -104t46 -103t110 -100l477 276q-3 64 -19.5 114.5t-41 82t-58.5 55.5t-68.5 36t-74 21.5t-72.5 14.5t-66 13.5t-53 19.5q1 28 16 75t32 90 t25 98.5t1 104t-46 103t-110 99.5l-478 -276q3 -64 19.5 -114t41.5 -82t58.5 -55.5t68.5 -36t74 -22t72.5 -14.5t66 -13.5t53.5 -18.5zM646 816q3 -32 -4 -70.5t-15 -63.5t-23 -67q-29 -81 -33 -117q-56 8 -100 24t-70.5 30.5t-88 30.5t-151.5 24q-38 52 -47 137l422 244 q102 -74 110 -172zM962 299h-261q-67 21 -101.5 52.5t-34.5 62.5q0 7 3.5 14t6.5 10l4 3l17 -9q38 -19 135 -37q45 -8 70 -14t62 -19t63 -31q20 -14 36 -32z"
     id="path1" />
</svg>
