<?xml version="1.0" encoding="UTF-8" standalone="no"?>
<svg
   version="1.1"
   viewBox="-10 0 1733 1000"
   id="svg1"
   sodipodi:docname="lessOActiongreater.svg"
   xmlns:inkscape="http://www.inkscape.org/namespaces/inkscape"
   xmlns:sodipodi="http://sodipodi.sourceforge.net/DTD/sodipodi-0.dtd"
   xmlns="http://www.w3.org/2000/svg"
   xmlns:svg="http://www.w3.org/2000/svg">
  <defs
     id="defs1" />
  <sodipodi:namedview
     id="namedview1"
     pagecolor="#ffffff"
     bordercolor="#000000"
     borderopacity="0.25"
     inkscape:showpageshadow="2"
     inkscape:pageopacity="0.0"
     inkscape:pagecheckerboard="0"
     inkscape:deskcolor="#d1d1d1" />
  <path
     fill="currentColor"
     d="M1658 511v1q0 -1 1 -5q0 98 -38 200.5t-95 184.5q-103 144 -260.5 226t-333.5 82q-150 0 -281.5 -60.5t-229.5 -173.5q-81 -101 -116.5 -224.5t-18.5 -246.5q15 -113 73 -208.5t152 -161.5q125 -82 271 -82q109 0 200.5 49t149.5 138q37 62 47 134.5t-9 137.5 q-32 109 -133 160q-41 18 -90 18q-16 0 -32 -2.5t-37.5 -10t-38 -25.5t-22.5 -44q-4 -19 3 -27q3 -4 11 -4q5 0 12 2q24 6 47 6q77 0 117 -65q24 -40 24 -91.5t-25 -97.5q-36 -62 -95.5 -95t-134.5 -33q-122 0 -222 78q-140 119 -146 303q-4 104 38.5 205t120.5 178 q170 156 407 156q24 0 46 -1q234 -22 405 -183.5t233 -417.5zM758 -121q-126 0 -248 49.5t-218 140.5q-92 89 -143.5 193t-83.5 230q0 -72 29 -173q62 -212 230 -355t387 -170q36 -3 73 -3q166 0 309 71t235.5 198t114.5 286q12 121 -23.5 235.5t-112.5 202.5 q-69 78 -162 121t-198 46q-91 -2 -175.5 -39.5t-141.5 -101.5q-102 -114 -87 -268q9 -58 39 -110.5t80.5 -87.5t109.5 -35q29 0 57 9q23 8 46 26.5t31 39.5q8 19 0 36q-3 5 -9 5q-5 0 -15 -2q-24 -7 -47 -7q-77 0 -117 66q-24 39 -24 90.5t24 98.5q37 62 96.5 95t134.5 33 q122 0 221 -78q140 -119 147 -304q3 -103 -39 -204.5t-120 -177.5q-169 -156 -400 -156z"
     id="path1" />
</svg>
