<?xml version="1.0" encoding="UTF-8" standalone="no"?>
<svg
   version="1.1"
   viewBox="-10 0 1728 1000"
   id="svg1"
   sodipodi:docname="Valuablegreater.svg"
   inkscape:version="1.3.2 (091e20e, 2023-11-25, custom)"
   xmlns:inkscape="http://www.inkscape.org/namespaces/inkscape"
   xmlns:sodipodi="http://sodipodi.sourceforge.net/DTD/sodipodi-0.dtd"
   xmlns="http://www.w3.org/2000/svg"
   xmlns:svg="http://www.w3.org/2000/svg">
  <defs
     id="defs1" />
  <sodipodi:namedview
     id="namedview1"
     pagecolor="#ffffff"
     bordercolor="#000000"
     borderopacity="0.25"
     inkscape:showpageshadow="2"
     inkscape:pageopacity="0.0"
     inkscape:pagecheckerboard="0"
     inkscape:deskcolor="#d1d1d1"
     inkscape:zoom="0.19560185"
     inkscape:cx="1405.9172"
     inkscape:cy="222.39053"
     inkscape:window-width="1920"
     inkscape:window-height="1017"
     inkscape:window-x="-8"
     inkscape:window-y="-8"
     inkscape:window-maximized="1"
     inkscape:current-layer="svg1" />
  <path
     fill="currentColor"
     d="m 1557.8,604 -164,-21 -58,-135 221,-144 z m -972,-31 -71,84 -267,57 -68,-366 z m 365,-701 226,470 -237,133 -277,-188 z m 19,652 214,-121 -108,796 -115,49 z m -192,680 -126,-855 257,173 -10,728 z m 388,-251 225,-321 150,20 -406,533 z m 184,-348 -169,242 28,-208 91,-149 z m -688,198 -102,-123 63,-75 12,14 z m -144,-96 158,190 39,263 -440,-401 z"
     id="path1"
     sodipodi:nodetypes="ccccccccccccccccccccccccccccccccccccccccccccc"
     style="fill:#e63323;fill-opacity:1" />
</svg>
