<?xml version="1.0" encoding="UTF-8" standalone="no"?>
<svg
   version="1.1"
   viewBox="-10 0 1031 1000"
   id="svg1"
   sodipodi:docname="lessAttackzerogreater.svg"
   xmlns:inkscape="http://www.inkscape.org/namespaces/inkscape"
   xmlns:sodipodi="http://sodipodi.sourceforge.net/DTD/sodipodi-0.dtd"
   xmlns="http://www.w3.org/2000/svg"
   xmlns:svg="http://www.w3.org/2000/svg">
  <defs
     id="defs1" />
  <sodipodi:namedview
     id="namedview1"
     pagecolor="#ffffff"
     bordercolor="#000000"
     borderopacity="0.25"
     inkscape:showpageshadow="2"
     inkscape:pageopacity="0.0"
     inkscape:pagecheckerboard="0"
     inkscape:deskcolor="#d1d1d1" />
  <path
     fill="currentColor"
     d="M879 107q67 158 67 346q0 171 -57 320q-34 92 -91 150q-58 59 -130 93q-73 34 -158 34q-97 0 -176 -42q-79 -43 -140 -121q-43 -58 -76 -153q-43 -130 -43 -268q0 -186 62 -343q50 -129 153.5 -198t219.5 -69q117 0 219 68t150 183zM635 815l4 -364q0 -300 -4 -351 q-10 -117 -47 -159q-25 -27 -81 -27q-43 0 -68 21q-37 29 -49.5 104t-12.5 522q0 244 19 327q15 60 43 80t74 20q49 0 74 -27q42 -47 48 -146z"
     id="path1" />
</svg>
