<?xml version="1.0" encoding="UTF-8" standalone="no"?>
<svg
   version="1.1"
   viewBox="-10 0 1653 1000"
   id="svg1"
   sodipodi:docname="lessoneValuablegreater.svg"
   xmlns:inkscape="http://www.inkscape.org/namespaces/inkscape"
   xmlns:sodipodi="http://sodipodi.sourceforge.net/DTD/sodipodi-0.dtd"
   xmlns="http://www.w3.org/2000/svg"
   xmlns:svg="http://www.w3.org/2000/svg">
  <defs
     id="defs1" />
  <sodipodi:namedview
     id="namedview1"
     pagecolor="#ffffff"
     bordercolor="#000000"
     borderopacity="0.25"
     inkscape:showpageshadow="2"
     inkscape:pageopacity="0.0"
     inkscape:pagecheckerboard="0"
     inkscape:deskcolor="#d1d1d1" />
  <path
     fill="currentColor"
     d="M201 147q9 -21 9 -98v-425q0 -58 -6.5 -72t-23.5 -24t-40 -10q-36 0 -88 20l-13 -22l355 -138h23v670q0 76 8 97t33 34t80 13h22v23h-508v-23h25q62 0 89 -12q26 -12 35 -33zM1571 604l-164 -21l-59 -135l221 -144zM598 573l-70 84l-267 57l-69 -366zM964 -128l225 470 l-236 133l-277 -188zM983 524l214 -121l-109 796l-114 49zM791 1204l-127 -855l257 173l-9 728zM1179 953l225 -321l150 20l-407 533zM1363 605l-170 242l29 -208l91 -149zM675 803l-102 -123l63 -75l11 14zM531 707l158 190l39 263l-440 -401z"
     id="path1" />
</svg>
