<?xml version="1.0" encoding="UTF-8" standalone="no"?>
<svg
   version="1.1"
   viewBox="-10 0 1746.4736 1837.1333"
   id="svg1"
   sodipodi:docname="2_building_materials.svg"
   width="1746.4736"
   height="1837.1333"
   inkscape:version="1.3.2 (091e20ef0f, 2023-11-25, custom)"
   xmlns:inkscape="http://www.inkscape.org/namespaces/inkscape"
   xmlns:sodipodi="http://sodipodi.sourceforge.net/DTD/sodipodi-0.dtd"
   xmlns="http://www.w3.org/2000/svg"
   xmlns:svg="http://www.w3.org/2000/svg">
  <defs
     id="defs1" />
  <sodipodi:namedview
     id="namedview1"
     pagecolor="#ffffff"
     bordercolor="#000000"
     borderopacity="0.25"
     inkscape:showpageshadow="2"
     inkscape:pageopacity="0.0"
     inkscape:pagecheckerboard="0"
     inkscape:deskcolor="#d1d1d1"
     inkscape:zoom="0.46955568"
     inkscape:cx="847.60981"
     inkscape:cy="1111.6893"
     inkscape:window-width="1440"
     inkscape:window-height="868"
     inkscape:window-x="0"
     inkscape:window-y="0"
     inkscape:window-maximized="1"
     inkscape:current-layer="svg1" />
  <path
     fill="currentColor"
     d="m 612,600 v 1 L 558,838 H -10 V 824 Q 251,560 307,469 363,377 363,290 363,227 317,185 270,143 203,143 94,143 33,236 L 7,228 Q 46,112 124,56 202,0 305,0 q 73,0 133,29 61,30 95,80 34,50 34,94 0,81 -53,164 -71,112 -313,312 h 208 q 77,0 100,-6 23,-5 38,-18 15,-13 39,-55 z m 433,699 h -1 q 15,12 31,48.5 16,36.5 25,65.5 l 9,30 q 2,5 6,18 77,223 63,257 -13,31 -60.5,70.5 -47.5,39.5 -86.5,46.5 -42,8 -108.5,-14 -66.5,-22 -100.5,-57 -22,-23 -28.5,-70.5 -6.5,-47.5 -1,-89 5.5,-41.5 16.5,-55.5 9,-12 15,-36.5 6,-24.5 10,-54 4,-29.5 6,-34.5 3,-17 49.5,-80.5 46.5,-63.5 67.5,-85.5 8,-8 16,-9 8,-1 17.5,4.5 9.5,5.5 16,11 6.5,5.5 19,17 12.5,11.5 19.5,17.5 z m 163,-320 q 45,-10 124,-44 52,-23 78,-39 34,23 87,85 18,21 23,86.5 5,65.5 -6,98.5 -2,10 -8,17 -6,7 -16.5,12 -10.5,5 -19.5,8 -9,3 -26.5,5 -17.5,2 -28,3 -10.5,1 -34,2.5 -23.5,1.5 -34.5,2.5 -30,2 -61,11.5 -31,9.5 -45.5,16 -14.5,6.5 -44,22.5 -29.5,16 -29.5,17 -7,3 -13.5,3.5 -6.5,0.5 -12.5,-2 -6,-2.5 -11.5,-6 -5.5,-3.5 -11,-10.5 -5.5,-7 -9,-12 -3.5,-5 -8.5,-13.5 -5,-8.5 -7,-12.5 l -6,-12 q -2,-3 -2,-4 -3,-5 -8,-17 28,-53 15,-105 -7,-28 -31,-55 14,-7 24,-16 10,-8 44.5,-20.5 Q 1165,988 1208,979 Z m -570,154 q -16,-7 -24.5,-15 -8.5,-8 -11,-19.5 -2.5,-11.5 -3,-19.5 -0.5,-8 2,-25.5 2.5,-17.5 3.5,-25.5 2,-38 15.5,-68 13.5,-30 46.5,-65 20,-21 52.5,-43 32.5,-22 55.5,-34 l 23,-11 q 8,-3 16,-3 0,16 4,30 5,20 23,81 12,39 18,59 10,37 42,59 32,22 77,23 41,37 45,54 15,60 -87,133 -20,15 -38.5,17.5 -18.5,2.5 -33,-6 Q 850,1246 838.5,1236 827,1226 814,1212.5 801,1199 792,1194 q -21,-11 -76,-31 -55,-20 -78,-30 z M 929,955 q -5,-17 -20,-67 -15,-50 -21,-72 -9,-35 12,-96.5 21,-61.5 70,-102.5 58,-49 96,-68.5 38,-19.5 87,-18.5 31,1 48.5,6.5 17.5,5.5 19.5,10.5 l 3,5 q 3,4 8.5,9.5 5.5,5.5 22.5,21.5 17,16 32,31.5 15,15.5 33,35 18,19.5 31.5,35.5 13.5,16 22,29.5 8.5,13.5 8.5,19.5 0,10 2,25.5 2,15.5 3.5,27 1.5,11.5 0.5,23.5 -1,12 -6,17 -11,12 -80.5,42 -69.5,30 -109.5,39 -112,24 -152,57 -14,11 -38,16 -24,5 -46,-1.5 Q 934,973 929,955 Z m -117,352 q 1,8 1,19 -38,55 -44,82 -2,8 -6,33 -7,53 -13,65 -28,39 -32,122 -77,-2 -170,-15.5 -93,-13.5 -115,-40.5 -84,-103 -74,-149 1,-1 4.5,-18 3.5,-17 6,-27.5 L 377,1346 q 0,0 10,-37 10,-37 12,-37 2,0 14.5,-37.5 12.5,-37.5 16.5,-32.5 4,5 19,-28 15,-33 21,-19 40,-27 63,-35 16,53 75,79 26,12 78,31 53,18 69,27 3,2 16,15 23,23 41,35 z m 924,160 q 3,11 -13,163 -1,13 -3.5,24.5 -2.5,11.5 -4.5,20 -2,8.5 -5.5,15 -3.5,6.5 -5.5,11 -2,4.5 -6.5,7.5 -4.5,3 -6.5,4.5 -2,1.5 -7.5,2 -5.5,0.5 -6.5,1 -1,0.5 -7,0.5 h -7 q -18,0 -193.5,-15.5 Q 1294,1685 1267,1680 q -8,-1 -16,-6 -7,-64 -67,-238 l -5,-15 q -11,-37 -21,-62 22,-2 42,-12 9,-4 23,-13 75,-42 129,-46 17,-1 33,-2 73,-5 103,-13 42,-11 67,-37 4,1 6,3 2,2 2,3 v 1 q 117,140 145,176 25,33 28,48 z"
     id="path1" />
</svg>
