<?xml version="1.0" encoding="UTF-8" standalone="no"?>
<svg
   version="1.1"
   viewBox="-10 0 1592 1872"
   id="svg1"
   sodipodi:docname="2_valuables.svg"
   width="1592"
   height="1872"
   inkscape:version="1.3.2 (091e20ef0f, 2023-11-25, custom)"
   xmlns:inkscape="http://www.inkscape.org/namespaces/inkscape"
   xmlns:sodipodi="http://sodipodi.sourceforge.net/DTD/sodipodi-0.dtd"
   xmlns="http://www.w3.org/2000/svg"
   xmlns:svg="http://www.w3.org/2000/svg">
  <defs
     id="defs1" />
  <sodipodi:namedview
     id="namedview1"
     pagecolor="#ffffff"
     bordercolor="#000000"
     borderopacity="0.25"
     inkscape:showpageshadow="2"
     inkscape:pageopacity="0.0"
     inkscape:pagecheckerboard="0"
     inkscape:deskcolor="#d1d1d1"
     inkscape:zoom="0.49537037"
     inkscape:cx="801.42056"
     inkscape:cy="1122.3925"
     inkscape:window-width="1440"
     inkscape:window-height="868"
     inkscape:window-x="0"
     inkscape:window-y="0"
     inkscape:window-maximized="1"
     inkscape:current-layer="svg1" />
  <path
     fill="currentColor"
     d="M 612,600 558,837 H -10 V 824 Q 251,560 307,468 363,377 363,290 363,226 316.5,184 270,142 203,142 94,142 33,235 L 7,227 Q 46,111 124,55 202,0 305,0 q 73,0 133,29 61,29 95,79.5 34,50.5 34,94.5 0,81 -53,163 -71,112 -313,312 h 208 q 76,0 100,-5 23,-6 38,-19 15,-12 39,-54 z m 970,626 -164,-21 -58,-135 221,-144 z m -972,-31 -71,84 -267,57 -68,-366 z M 975,494 1201,964 964,1097 687,909 Z m 19,652 214,-121 -108,796 -115,49 z m -192,680 -126,-855 257,173 -10,728 z m 388,-251 225,-321 150,20 -406,533 z m 184,-348 -169,242 28,-208 91,-149 z m -688,198 -102,-123 63,-75 12,14 z m -144,-96 158,190 39,263 -440,-401 z"
     id="path1" />
</svg>
