<?xml version="1.0" encoding="UTF-8" standalone="no"?>
<svg
   version="1.1"
   viewBox="-10 0 1823 1000"
   id="svg1"
   sodipodi:docname="lesstwoBuildMatgreater.svg"
   xmlns:inkscape="http://www.inkscape.org/namespaces/inkscape"
   xmlns:sodipodi="http://sodipodi.sourceforge.net/DTD/sodipodi-0.dtd"
   xmlns="http://www.w3.org/2000/svg"
   xmlns:svg="http://www.w3.org/2000/svg">
  <defs
     id="defs1" />
  <sodipodi:namedview
     id="namedview1"
     pagecolor="#ffffff"
     bordercolor="#000000"
     borderopacity="0.25"
     inkscape:showpageshadow="2"
     inkscape:pageopacity="0.0"
     inkscape:pagecheckerboard="0"
     inkscape:deskcolor="#d1d1d1" />
  <path
     fill="currentColor"
     d="M675 -12v1l-54 237h-568v-14q261 -264 317 -355q56 -92 56 -179q0 -63 -46 -105q-47 -42 -114 -42q-109 0 -170 93l-26 -8q39 -116 117 -172t181 -56q73 0 133 29q61 30 95 80t34 94q0 81 -53 164q-71 112 -313 312h208q77 0 100 -6q23 -5 38 -18t39 -55h26zM1108 687h-1 q15 12 31 48.5t25 65.5l9 30q2 5 6 18q77 223 63 257q-13 31 -60.5 70.5t-86.5 46.5q-42 8 -108.5 -14t-100.5 -57q-22 -23 -28.5 -70.5t-1 -89t16.5 -55.5q9 -12 15 -36.5t10 -54t6 -34.5q3 -17 49.5 -80.5t67.5 -85.5q8 -8 16 -9t17.5 4.5t16 11t19 17t19.5 17.5z M1271 367q45 -10 124 -44q52 -23 78 -39q34 23 87 85q18 21 23 86.5t-6 98.5q-2 10 -8 17t-16.5 12t-19.5 8t-26.5 5t-28 3t-34 2.5t-34.5 2.5q-30 2 -61 11.5t-45.5 16t-44 22.5t-29.5 17q-7 3 -13.5 3.5t-12.5 -2t-11.5 -6t-11 -10.5t-9 -12t-8.5 -13.5t-7 -12.5l-6 -12 q-2 -3 -2 -4q-3 -5 -8 -17q28 -53 15 -105q-7 -28 -31 -55q14 -7 24 -16q10 -8 44.5 -20.5t77.5 -21.5zM701 521q-16 -7 -24.5 -15t-11 -19.5t-3 -19.5t2 -25.5t3.5 -25.5q2 -38 15.5 -68t46.5 -65q20 -21 52.5 -43t55.5 -34l23 -11q8 -3 16 -3q0 16 4 30q5 20 23 81 q12 39 18 59q10 37 42 59t77 23q41 37 45 54q15 60 -87 133q-20 15 -38.5 17.5t-33 -6t-26 -18.5t-24.5 -23.5t-22 -18.5q-21 -11 -76 -31t-78 -30zM992 343q-5 -17 -20 -67t-21 -72q-9 -35 12 -96.5t70 -102.5q58 -49 96 -68.5t87 -18.5q31 1 48.5 6.5t19.5 10.5l3 5 q3 4 8.5 9.5t22.5 21.5t32 31.5t33 35t31.5 35.5t22 29.5t8.5 19.5q0 10 2 25.5t3.5 27t0.5 23.5t-6 17q-11 12 -80.5 42t-109.5 39q-112 24 -152 57q-14 11 -38 16t-46 -1.5t-27 -24.5zM875 695q1 8 1 19q-38 55 -44 82q-2 8 -6 33q-7 53 -13 65q-28 39 -32 122 q-77 -2 -170 -15.5t-115 -40.5q-84 -103 -74 -149q1 -1 4.5 -18t6 -27.5l7.5 -31.5t10 -37t12 -37t14.5 -37.5t16.5 -32.5t19 -28t21 -19q40 -27 63 -35q16 53 75 79q26 12 78 31q53 18 69 27q3 2 16 15q23 23 41 35zM1799 855q3 11 -13 163q-1 13 -3.5 24.5t-4.5 20 t-5.5 15t-5.5 11t-6.5 7.5t-6.5 4.5t-7.5 2t-6.5 1t-7 0.5h-7q-18 0 -193.5 -15.5t-202.5 -20.5q-8 -1 -16 -6q-7 -64 -67 -238l-5 -15q-11 -37 -21 -62q22 -2 42 -12q9 -4 23 -13q75 -42 129 -46q17 -1 33 -2q73 -5 103 -13q42 -11 67 -37q4 1 6 3t2 3v1q117 140 145 176 q25 33 28 48z"
     id="path1" />
</svg>
