<?xml version="1.0" encoding="UTF-8" standalone="no"?>
<svg
   version="1.1"
   viewBox="-10 0 1711 1678"
   id="svg1"
   sodipodi:docname="3_gold.svg"
   width="1711"
   height="1678"
   inkscape:version="1.3.2 (091e20ef0f, 2023-11-25, custom)"
   xmlns:inkscape="http://www.inkscape.org/namespaces/inkscape"
   xmlns:sodipodi="http://sodipodi.sourceforge.net/DTD/sodipodi-0.dtd"
   xmlns="http://www.w3.org/2000/svg"
   xmlns:svg="http://www.w3.org/2000/svg">
  <defs
     id="defs1" />
  <sodipodi:namedview
     id="namedview1"
     pagecolor="#ffffff"
     bordercolor="#000000"
     borderopacity="0.25"
     inkscape:showpageshadow="2"
     inkscape:pageopacity="0.0"
     inkscape:pagecheckerboard="0"
     inkscape:deskcolor="#d1d1d1"
     inkscape:zoom="0.46195359"
     inkscape:cx="861.55841"
     inkscape:cy="1104.007"
     inkscape:window-width="1440"
     inkscape:window-height="868"
     inkscape:window-x="0"
     inkscape:window-y="0"
     inkscape:window-maximized="1"
     inkscape:current-layer="svg1" />
  <path
     fill="currentColor"
     d="M 611,547 Q 611,675 502,765 393,855 209,855 87,855 31,820 -10,796 -10,758 -10,730 13.5,710.5 37,691 68,691 q 23,0 44,8 12,6 80,53 70,48 130,48 53,0 91,-35 37,-36 37,-90 0,-83 -68,-153 -68,-69 -200,-96 v -21 q 81,-20 112,-37 31,-17 54,-53 23,-36 23,-72 0,-50 -43,-86 -43,-36 -107,-36 -100,0 -169,90 L 25,203 Q 77,102 157,51 236,0 335,0 q 100,0 165,52 65,52 65,122 0,45 -30,87 -30,42 -95,74 84,35 127,85 44,51 44,127 z m 697,312 Q 1145,859 1029.5,834 914,809 914,773.5 914,738 1029.5,713 1145,688 1308,688 q 163,0 278,25 115,25 115,60.5 0,35.5 -115,60.5 -115,25 -278,25 z m -547,513 q -52,61 -115,103.5 -63,42.5 -123.5,60 -60.5,17.5 -117.5,10 -57,-7.5 -98,-42.5 -54,-46 -66,-125 -12,-79 20,-171 32,-92 101,-173 52,-61 114.5,-103.5 62.5,-42.5 123.5,-60 61,-17.5 118,-10 57,7.5 98,42.5 54,46 66,125 12,79 -20,171 -32,92 -101,173 z m 547,-419 q 167,0 287,-26 71,-16 106,-38 v 158 q 0,35 -115,60 -115,25 -278,25 -100,0 -185,-10 -22,-99 -93,-160 l -56,-47 q 20,6 46,12 120,26 288,26 z m -338,80 q 54,46 66,125 12,79 -20,171 -32,92 -101,173 -52,62 -115,104 -63,42 -123.5,59.5 -60.5,17.5 -118,10 Q 501,1668 461,1633 l -83,-70 q 41,35 98,42.5 57,7.5 118,-10 61,-17.5 123.5,-59.5 62.5,-42 114.5,-104 69,-81 101,-173 32,-92 20,-171 -12,-79 -66,-125 z m 338,192 q 167,0 287,-26 71,-15 106,-37 v 157 q 0,36 -115,61 -115,25 -278,25 -118,0 -216,-14 29,-70 37,-139 2,-16 2,-35 84,8 177,8 z m 0,273 q 167,0 287,-26 71,-15 106,-37 v 157 q 0,36 -115,61 -115,25 -278,25 -130,0 -233,-17 -103,-17 -142,-43 29,-27 53,-55 34,-41 61,-86 113,21 261,21 z"
     id="path1" />
</svg>
