<?xml version="1.0" encoding="UTF-8" standalone="no"?>
<svg
   version="1.1"
   viewBox="-10 0 1853 1000"
   id="svg1"
   sodipodi:docname="lessthreeGoldgreater.svg"
   xmlns:inkscape="http://www.inkscape.org/namespaces/inkscape"
   xmlns:sodipodi="http://sodipodi.sourceforge.net/DTD/sodipodi-0.dtd"
   xmlns="http://www.w3.org/2000/svg"
   xmlns:svg="http://www.w3.org/2000/svg">
  <defs
     id="defs1" />
  <sodipodi:namedview
     id="namedview1"
     pagecolor="#ffffff"
     bordercolor="#000000"
     borderopacity="0.25"
     inkscape:showpageshadow="2"
     inkscape:pageopacity="0.0"
     inkscape:pagecheckerboard="0"
     inkscape:deskcolor="#d1d1d1" />
  <path
     fill="currentColor"
     d="M675 -56q0 128 -109 218t-293 90q-122 0 -178 -35q-41 -24 -41 -62q0 -28 23.5 -47.5t54.5 -19.5q23 0 44 8q12 6 80 53q70 48 130 48q53 0 91 -35q37 -36 37 -90q0 -83 -68 -153q-68 -69 -200 -96v-21q81 -20 112 -37t54 -53t23 -72q0 -50 -43 -86t-107 -36 q-100 0 -169 90l-27 -8q52 -101 132 -152q79 -51 178 -51q100 0 165 52t65 122q0 45 -30 87t-95 74q84 35 127 85q44 51 44 127zM1372 256q-163 0 -278.5 -25t-115.5 -60.5t115.5 -60.5t278.5 -25t278 25t115 60.5t-115 60.5t-278 25zM825 769q-52 61 -115 103.5t-123.5 60 t-117.5 10t-98 -42.5q-54 -46 -66 -125t20 -171t101 -173q52 -61 114.5 -103.5t123.5 -60t118 -10t98 42.5q54 46 66 125t-20 171t-101 173zM1372 350q167 0 287 -26q71 -16 106 -38v158q0 35 -115 60t-278 25q-100 0 -185 -10q-22 -99 -93 -160l-56 -47q20 6 46 12 q120 26 288 26zM1034 430q54 46 66 125t-20 171t-101 173q-52 62 -115 104t-123.5 59.5t-118 10t-97.5 -42.5l-83 -70q41 35 98 42.5t118 -10t123.5 -59.5t114.5 -104q69 -81 101 -173t20 -171t-66 -125zM1372 622q167 0 287 -26q71 -15 106 -37v157q0 36 -115 61t-278 25 q-118 0 -216 -14q29 -70 37 -139q2 -16 2 -35q84 8 177 8zM1372 895q167 0 287 -26q71 -15 106 -37v157q0 36 -115 61t-278 25q-130 0 -233 -17t-142 -43q29 -27 53 -55q34 -41 61 -86q113 21 261 21z"
     id="path1" />
</svg>
