<?xml version="1.0" encoding="UTF-8" standalone="no"?>
<svg
   version="1.1"
   viewBox="-294 0 1769 1000"
   id="svg1"
   sodipodi:docname="lessfourBuildMatgreater.svg"
   xmlns:inkscape="http://www.inkscape.org/namespaces/inkscape"
   xmlns:sodipodi="http://sodipodi.sourceforge.net/DTD/sodipodi-0.dtd"
   xmlns="http://www.w3.org/2000/svg"
   xmlns:svg="http://www.w3.org/2000/svg">
  <defs
     id="defs1" />
  <sodipodi:namedview
     id="namedview1"
     pagecolor="#ffffff"
     bordercolor="#000000"
     borderopacity="0.25"
     inkscape:showpageshadow="2"
     inkscape:pageopacity="0.0"
     inkscape:pagecheckerboard="0"
     inkscape:deskcolor="#d1d1d1" />
  <path
     fill="currentColor"
     d="M261 225h-196v-183h-349v-126l458 -527h87v527h88v126h-88v183zM-215 -84h280v-323zM770 687q14 12 30.5 48.5t25.5 65.5l9 30q1 5 6 18q76 223 62 257q-13 31 -60.5 70.5t-86.5 46.5q-42 8 -108.5 -14t-100.5 -57q-21 -23 -28 -70.5t-1.5 -89t16.5 -55.5q9 -12 15 -36.5 t10 -53.5t6 -35q4 -17 50 -80.5t68 -85.5q7 -8 15 -9t17.5 4.5t16 11t19 17t19.5 17.5zM933 367q46 -10 124 -44q52 -23 78 -39q34 23 87 85q18 21 23 86.5t-5 98.5q-3 10 -8.5 17t-16.5 12t-19.5 8t-26.5 5t-28.5 3t-34 2.5t-34.5 2.5q-30 2 -61 11.5t-45 16t-43.5 22.5 t-30.5 17q-7 3 -13.5 3.5t-12.5 -2t-11 -6t-10.5 -10.5t-9.5 -12t-9 -13.5t-7 -12.5l-6 -12q-2 -3 -2 -4q-3 -5 -8 -17q29 -53 15 -105q-7 -28 -31 -55q14 -7 24 -16q10 -8 44.5 -20.5t77.5 -21.5zM363 521q-16 -7 -24.5 -15t-11 -19.5t-3 -19t2 -25.5t3.5 -26q3 -38 16 -68 t46 -65q20 -21 52.5 -43t55.5 -34l23 -11q8 -3 16 -3q0 16 4 30q5 20 23 81q12 39 18 59q10 37 42 59t77 23q41 37 45 54q15 60 -87 133q-20 15 -38.5 17.5t-33 -6t-26 -18.5t-24.5 -23.5t-22 -18.5q-21 -11 -76 -31t-78 -30zM654 343q-5 -17 -20 -67t-21 -72 q-9 -35 12.5 -96.5t69.5 -102.5q58 -49 96 -68.5t87 -18.5q31 1 48.5 6.5t19.5 10.5l3 5q3 4 9 9.5t22.5 21.5t31.5 31.5t33 35t31.5 35.5t22.5 29.5t8 19.5q0 10 2 25.5t3.5 27t0.5 23.5t-6 17q-11 11 -80 41.5t-110 39.5q-112 24 -152 57q-14 11 -38 16t-46 -1.5 t-27 -24.5zM537 695q1 8 1 19q-38 55 -44 82q-2 8 -6 33q-7 53 -13 65q-28 39 -32 122q-77 -2 -170 -15.5t-115 -40.5q-84 -103 -73 -149q0 -1 3.5 -18t6 -27.5l7.5 -31.5t10 -37t12 -37t14.5 -37.5t16.5 -32.5t19 -28t21 -19q40 -27 63 -35q16 53 75 79q26 12 79 31 q52 18 68 27q4 2 16 15q23 23 41 35zM1461 855q3 11 -13 163q-1 13 -3.5 24.5t-4.5 20t-5.5 15t-5.5 11t-6.5 7.5t-6 4.5t-7 2t-7 1t-7.5 0.5h-6q-19 0 -194.5 -15.5t-202.5 -20.5q-8 -1 -16 -6q-7 -64 -67 -238l-5 -15q-11 -37 -21 -62q22 -2 42 -12q11 -5 23 -13 q75 -42 130 -46l32 -2q73 -5 103 -13q42 -11 67 -37q4 1 6 3t2 3v1q117 140 145 176q25 33 28 48z"
     id="path1" />
</svg>
