<?xml version="1.0" encoding="UTF-8" standalone="no"?>
<svg
   version="1.1"
   viewBox="-294 0 1745.4736 1836.1333"
   id="svg1"
   sodipodi:docname="4_building_materials.svg"
   width="1745.4736"
   height="1836.1333"
   inkscape:version="1.3.2 (091e20ef0f, 2023-11-25, custom)"
   xmlns:inkscape="http://www.inkscape.org/namespaces/inkscape"
   xmlns:sodipodi="http://sodipodi.sourceforge.net/DTD/sodipodi-0.dtd"
   xmlns="http://www.w3.org/2000/svg"
   xmlns:svg="http://www.w3.org/2000/svg">
  <defs
     id="defs1" />
  <sodipodi:namedview
     id="namedview1"
     pagecolor="#ffffff"
     bordercolor="#000000"
     borderopacity="0.25"
     inkscape:showpageshadow="2"
     inkscape:pageopacity="0.0"
     inkscape:pagecheckerboard="0"
     inkscape:deskcolor="#d1d1d1"
     inkscape:zoom="0.4838892"
     inkscape:cx="874.16706"
     inkscape:cy="1111.8248"
     inkscape:window-width="1440"
     inkscape:window-height="868"
     inkscape:window-x="0"
     inkscape:window-y="0"
     inkscape:window-maximized="1"
     inkscape:current-layer="svg1" />
  <path
     fill="currentColor"
     d="M 251,836 H 55 V 653 H -294 V 527 L 164,0 h 87 v 527 h 88 V 653 H 251 Z M -225,527 H 55 V 204 Z m 985,771 q 14,12 30.5,48.5 16.5,36.5 25.5,65.5 l 9,30 q 1,5 6,18 76,223 62,257 -13,31 -60.5,70.5 -47.5,39.5 -86.5,46.5 -42,8 -108.5,-14 -66.5,-22 -100.5,-57 -21,-23 -28,-70.5 -7,-47.5 -1.5,-89 5.5,-41.5 16.5,-55.5 9,-12 15,-36.5 6,-24.5 10,-53.5 4,-29 6,-35 4,-17 50,-80.5 46,-63.5 68,-85.5 7,-8 15,-9 8,-1 17.5,4.5 9.5,5.5 16,11 6.5,5.5 19,17 Q 753,1292 760,1298 Z M 923,978 q 46,-10 124,-44 52,-23 78,-39 34,23 87,85 18,21 23,86.5 5,65.5 -5,98.5 -3,10 -8.5,17 -5.5,7 -16.5,12 -11,5 -19.5,8 -8.5,3 -26.5,5 -18,2 -28.5,3 -10.5,1 -34,2.5 -23.5,1.5 -34.5,2.5 -30,2 -61,11.5 -31,9.5 -45,16 -14,6.5 -43.5,22.5 -29.5,16 -30.5,17 -7,3 -13.5,3.5 -6.5,0.5 -12.5,-2 -6,-2.5 -11,-6 -5,-3.5 -10.5,-10.5 -5.5,-7 -9.5,-12 -4,-5 -9,-13.5 -5,-8.5 -7,-12.5 l -6,-12 q -2,-3 -2,-4 -3,-5 -8,-17 29,-53 15,-105 -7,-28 -31,-55 14,-7 24,-16 10,-8 44.5,-20.5 Q 880,987 923,978 Z m -570,154 q -16,-7 -24.5,-15 -8.5,-8 -11,-19.5 -2.5,-11.5 -3,-19 -0.5,-7.5 2,-25.5 2.5,-18 3.5,-26 3,-38 16,-68 13,-30 46,-65 20,-21 52.5,-43 32.5,-22 55.5,-34 l 23,-11 q 8,-3 16,-3 0,16 4,30 5,20 23,81 12,39 18,59 10,37 42,59 32,22 77,23 41,37 45,54 15,60 -87,133 -20,15 -38.5,17.5 -18.5,2.5 -33,-6 Q 565,1245 553.5,1235 542,1225 529,1211.5 516,1198 507,1193 q -21,-11 -76,-31 -55,-20 -78,-30 z M 644,954 q -5,-17 -20,-67 -15,-50 -21,-72 -9,-35 12.5,-96.5 Q 637,657 685,616 q 58,-49 96,-68.5 38,-19.5 87,-18.5 31,1 48.5,6.5 Q 934,541 936,546 l 3,5 q 3,4 9,9.5 6,5.5 22.5,21.5 16.5,16 31.5,31.5 15,15.5 33,35 18,19.5 31.5,35.5 13.5,16 22.5,29.5 9,13.5 8,19.5 0,10 2,25.5 2,15.5 3.5,27 1.5,11.5 0.5,23.5 -1,12 -6,17 -11,11 -80,41.5 -69,30.5 -110,39.5 -112,24 -152,57 -14,11 -38,16 -24,5 -46,-1.5 Q 649,972 644,954 Z m -117,352 q 1,8 1,19 -38,55 -44,82 -2,8 -6,33 -7,53 -13,65 -28,39 -32,122 -77,-2 -170,-15.5 Q 170,1598 148,1571 64,1468 75,1422 q 0,-1 3.5,-18 3.5,-17 6,-27.5 L 92,1345 q 0,0 10,-37 10,-37 12,-37 2,0 14.5,-37.5 12.5,-37.5 16.5,-32.5 4,5 19,-28 15,-33 21,-19 40,-27 63,-35 16,53 75,79 26,12 79,31 52,18 68,27 4,2 16,15 23,23 41,35 z m 924,160 q 3,11 -13,163 -1,13 -3.5,24.5 -2.5,11.5 -4.5,20 -2,8.5 -5.5,15 -3.5,6.5 -5.5,11 -2,4.5 -6.5,7.5 -4.5,3 -6,4.5 -1.5,1.5 -7,2 -5.5,0.5 -7,1 -1.5,0.5 -7.5,0.5 h -6 q -19,0 -194.5,-15.5 Q 1009,1684 982,1679 q -8,-1 -16,-6 -7,-64 -67,-238 l -5,-15 q -11,-37 -21,-62 22,-2 42,-12 11,-5 23,-13 75,-42 130,-46 l 32,-2 q 73,-5 103,-13 42,-11 67,-37 4,1 6,3 2,2 2,3 v 1 q 117,140 145,176 25,33 28,48 z"
     id="path1" />
</svg>
