<?xml version="1.0" encoding="UTF-8" standalone="no"?>
<svg
   version="1.1"
   viewBox="-14 0 1681 1678"
   id="svg1"
   sodipodi:docname="6_gold.svg"
   width="1681"
   height="1678"
   inkscape:version="1.3.2 (091e20ef0f, 2023-11-25, custom)"
   xmlns:inkscape="http://www.inkscape.org/namespaces/inkscape"
   xmlns:sodipodi="http://sodipodi.sourceforge.net/DTD/sodipodi-0.dtd"
   xmlns="http://www.w3.org/2000/svg"
   xmlns:svg="http://www.w3.org/2000/svg">
  <defs
     id="defs1" />
  <sodipodi:namedview
     id="namedview1"
     pagecolor="#ffffff"
     bordercolor="#000000"
     borderopacity="0.25"
     inkscape:showpageshadow="2"
     inkscape:pageopacity="0.0"
     inkscape:pagecheckerboard="0"
     inkscape:deskcolor="#d1d1d1"
     inkscape:zoom="0.4841629"
     inkscape:cx="873.6729"
     inkscape:cy="1102.9346"
     inkscape:window-width="1440"
     inkscape:window-height="868"
     inkscape:window-x="0"
     inkscape:window-y="0"
     inkscape:window-maximized="1"
     inkscape:current-layer="svg1" />
  <path
     fill="currentColor"
     d="M 464,817 Q 392,854 310,854 221,854 146,812.5 71,771 28,691 -14,611 -14,517 -14,380 64,261 142,142 285,72 428,1 616,0 v 17 q -128,28 -206,71 -78,44 -123,107 -46,63 -70,155 31,-18 51,-24 46,-12 93,-12 109,0 181,67 72,67 72,183 0,81 -39,148 -39,68 -111,105 z M 220,683 q 19,78 52,109 23,23 55,23 33,0 59,-33 25,-32 25,-131 0,-167 -47,-231 -31,-41 -83,-41 -29,0 -74,20 -6,86 -6,122 0,84 19,162 z M 1273,860 Q 1110,860 995,834.5 880,809 880,773.5 880,738 995,713 q 115,-25 278,-25 163,0 278.5,25 115.5,25 115.5,60.5 0,35.5 -115.5,61 Q 1436,860 1273,860 Z m -547,512 q -51,61 -114,103.5 -63,42.5 -124,60 -61,17.5 -118,10 -57,-7.5 -98,-42.5 -54,-46 -66,-125 -12,-79 20,-171 32,-92 101,-173 52,-61 115,-103.5 63,-42.5 123.5,-60 60.5,-17.5 118,-9.5 57.5,8 97.5,42 55,46 66.5,125 11.5,79 -20,171 -31.5,92 -101.5,173 z m 547,-419 q 167,0 288,-26 70,-16 106,-37 v 157 q 0,35 -115.5,60.5 -115.5,25.5 -278.5,25.5 -99,0 -184,-10 -23,-100 -94,-161 l -56,-47 q 20,6 47,12 119,26 287,26 z m -338,80 q 54,46 66,125 12,79 -20,171 -32,92 -101,174 -52,61 -115,103 -63,42 -123.5,59.5 -60.5,17.5 -117.5,10 -57,-7.5 -98,-41.5 l -83,-70 q 41,34 98,41.5 57,7.5 118,-10 61,-17.5 124,-59.5 63,-42 115,-103 69,-82 100.5,-174 31.5,-92 20,-171 Q 907,1009 852,963 Z m 338,192 q 167,0 288,-26 70,-15 106,-37 v 157 q 0,36 -115.5,61 -115.5,25 -278.5,25 -118,0 -216,-14 29,-70 37,-139 2,-16 3,-35 84,8 176,8 z m 0,273 q 167,0 288,-26 70,-15 106,-37 v 157 q 0,36 -115.5,61 -115.5,25 -278.5,25 -130,0 -233,-17 -103,-17 -141,-43 27,-26 52,-55 34,-41 62,-85 112,20 260,20 z"
     id="path1" />
</svg>
