<?xml version="1.0" encoding="UTF-8" standalone="no"?>
<svg
   version="1.1"
   viewBox="-14 0 1768 1000"
   id="svg1"
   sodipodi:docname="lesssixGoldgreater.svg"
   xmlns:inkscape="http://www.inkscape.org/namespaces/inkscape"
   xmlns:sodipodi="http://sodipodi.sourceforge.net/DTD/sodipodi-0.dtd"
   xmlns="http://www.w3.org/2000/svg"
   xmlns:svg="http://www.w3.org/2000/svg">
  <defs
     id="defs1" />
  <sodipodi:namedview
     id="namedview1"
     pagecolor="#ffffff"
     bordercolor="#000000"
     borderopacity="0.25"
     inkscape:showpageshadow="2"
     inkscape:pageopacity="0.0"
     inkscape:pagecheckerboard="0"
     inkscape:deskcolor="#d1d1d1" />
  <path
     fill="currentColor"
     d="M474 214q-72 37 -154 37q-89 0 -164 -41.5t-118 -121.5q-42 -80 -42 -174q0 -137 78 -256t221 -189q143 -71 331 -72v17q-128 28 -206 71q-78 44 -123 107q-46 63 -70 155q31 -18 51 -24q46 -12 93 -12q109 0 181 67t72 183q0 81 -39 148q-39 68 -111 105zM230 80 q19 78 52 109q23 23 55 23q33 0 59 -33q25 -32 25 -131q0 -167 -47 -231q-31 -41 -83 -41q-29 0 -74 20q-6 86 -6 122q0 84 19 162zM1283 257q-163 0 -278 -25.5t-115 -61t115 -60.5t278 -25t278.5 25t115.5 60.5t-115.5 61t-278.5 25.5zM736 769q-51 61 -114 103.5t-124 60 t-118 10t-98 -42.5q-54 -46 -66 -125t20 -171t101 -173q52 -61 115 -103.5t123.5 -60t118 -9.5t97.5 42q55 46 66.5 125t-20 171t-101.5 173zM1283 350q167 0 288 -26q70 -16 106 -37v157q0 35 -115.5 60.5t-278.5 25.5q-99 0 -184 -10q-23 -100 -94 -161l-56 -47 q20 6 47 12q119 26 287 26zM945 430q54 46 66 125t-20 171t-101 174q-52 61 -115 103t-123.5 59.5t-117.5 10t-98 -41.5l-83 -70q41 34 98 41.5t118 -10t124 -59.5t115 -103q69 -82 100.5 -174t20 -171t-66.5 -125zM1283 622q167 0 288 -26q70 -15 106 -37v157 q0 36 -115.5 61t-278.5 25q-118 0 -216 -14q29 -70 37 -139q2 -16 3 -35q84 8 176 8zM1283 895q167 0 288 -26q70 -15 106 -37v157q0 36 -115.5 61t-278.5 25q-130 0 -233 -17t-141 -43q27 -26 52 -55q34 -41 62 -85q112 20 260 20z"
     id="path1" />
</svg>
