<?xml version="1.0" encoding="UTF-8" standalone="no"?>
<svg
   version="1.1"
   viewBox="-112 0 1510 1000"
   id="svg1"
   sodipodi:docname="lessAttackgreater.svg"
   xmlns:inkscape="http://www.inkscape.org/namespaces/inkscape"
   xmlns:sodipodi="http://sodipodi.sourceforge.net/DTD/sodipodi-0.dtd"
   xmlns="http://www.w3.org/2000/svg"
   xmlns:svg="http://www.w3.org/2000/svg">
  <defs
     id="defs1" />
  <sodipodi:namedview
     id="namedview1"
     pagecolor="#ffffff"
     bordercolor="#000000"
     borderopacity="0.25"
     inkscape:showpageshadow="2"
     inkscape:pageopacity="0.0"
     inkscape:pagecheckerboard="0"
     inkscape:deskcolor="#d1d1d1" />
  <path
     fill="currentColor"
     d="M1364 -184h1q17 16 21 39.5t-2.5 43t-18.5 32.5q-8 9 -21 15q-21 11 -45 9q-49 63 -102 119q-22 23 -46 48q-14 13 -21 20q-5 5 -18 17q31 29 56 60q31 40 45 74q14 37 9 67q-8 41 -34 56q-16 10 -37 8t-35 -15q-23 -20 -19 -47q3 -24 23 -35q10 -5 21 -5 q-19 -33 -46 -59q-17 -17 -36 -29q-65 63 -127 126q-77 78 -180 178q393 407 447 461q35 34 57 74q24 45 32 99v1v2l-1 -1h-1q-54 -8 -99 -32q-41 -22 -74 -56q-55 -55 -464 -449q-79 77 -191.5 184t-180.5 172t-92 90q-34 34 -74 56q-46 24 -99 32h-1h-2l1 -1v-1 q8 -54 32 -99q22 -40 56 -74q24 -24 89 -92t171 -179.5t183 -191.5q-113 -108 -197 -189l15 -15q-36 -35 -60 -56.5t-61 -57.5q-22 15 -48 40q-27 26 -46 59q12 1 21 6q20 11 24 34q4 27 -19 47q-15 14 -36 15.5t-37 -7.5q-26 -15 -33 -56q-5 -30 9 -67q13 -34 45 -75 q26 -32 56 -59q-6 -6 -18 -17q-7 -7 -21 -20q-25 -25 -46 -48q-54 -58 -102 -120q-24 3 -46 -9q-12 -6 -20 -14q-20 -22 -22.5 -54.5t21.5 -61.5q17 -17 40 -21t43 2.5t33 19.5q9 9 15 20q11 22 9 46q63 49 120 102q22 21 47 46q14 13 20 20q7 7 18 19q27 -31 59 -56 q40 -32 74 -45q37 -14 67 -9q42 7 56 33q10 16 8 37t-15 36q-20 23 -47 19q-23 -4 -34 -24q-6 -10 -6 -21q-33 19 -59 46q-31 32 -41 48q36 36 57.5 60t57.5 61l14 -15q30 31 94 97.5t94 97.5q102 -105 176 -178q58 -57 126 -127q-12 -19 -28 -36q-26 -27 -60 -47 q0 12 -6 21q-11 20 -34 24q-27 4 -47 -19q-14 -15 -15.5 -36t7.5 -37q15 -26 57 -33q29 -6 67 9q33 13 74 45q31 25 59 56q6 -7 18 -18q6 -7 20 -21q21 -22 47 -46q57 -53 120 -102q-2 -24 9 -46q6 -12 15 -20q21 -20 53.5 -22.5t61.5 22.5z"
     id="path1" />
</svg>
