<?xml version="1.0" encoding="UTF-8" standalone="no"?>
<svg
   version="1.1"
   viewBox="-112 0 1489.2596 1389.5238"
   id="svg1"
   sodipodi:docname="attack.svg"
   width="1489.2596"
   height="1389.5238"
   inkscape:version="1.3.2 (091e20ef0f, 2023-11-25, custom)"
   xmlns:inkscape="http://www.inkscape.org/namespaces/inkscape"
   xmlns:sodipodi="http://sodipodi.sourceforge.net/DTD/sodipodi-0.dtd"
   xmlns="http://www.w3.org/2000/svg"
   xmlns:svg="http://www.w3.org/2000/svg">
  <defs
     id="defs1" />
  <sodipodi:namedview
     id="namedview1"
     pagecolor="#ffffff"
     bordercolor="#000000"
     borderopacity="0.25"
     inkscape:showpageshadow="2"
     inkscape:pageopacity="0.0"
     inkscape:pagecheckerboard="0"
     inkscape:deskcolor="#d1d1d1"
     inkscape:zoom="0.56688742"
     inkscape:cx="744.41589"
     inkscape:cy="714.42757"
     inkscape:window-width="1440"
     inkscape:window-height="868"
     inkscape:window-x="0"
     inkscape:window-y="0"
     inkscape:window-maximized="1"
     inkscape:current-layer="svg1" />
  <path
     fill="currentColor"
     d="m 1353.7358,30.52381 h 1 q 17,16 21,39.5 4,23.5 -2.5,43 -6.5,19.5 -18.5,32.5 -8,9 -21,15 -21,11 -45,9 -49,63 -102,119 -22,23 -46,48 -14,13 -21,20 -5,5 -18,17 31,29 56,60 31,40 45,74 14,37 9,67 -8,41 -34,56 -16,10 -37,8 -21,-2 -35,-15 -23,-20 -19,-47 3,-24 23,-35 10,-5 21,-5 -19,-33 -46,-59 -17,-17 -36,-29 -64.99995,63 -126.99995,126 -77,78 -180,178 392.99995,406.99999 446.99995,460.99999 35,34 57,74 24,45 32,99 v 1 2 l -1,-1 h -1 q -54,-8 -99,-32 -41,-22 -74,-56 -55,-55 -463.99995,-448.99999 -79,77 -191.5,183.99999 -112.5,107 -180.5,172 -68,65 -92,90 -34,34 -74,56 -46.000001,24 -99.0000009,32 H 0.73584906 -1.2641509 l 0.99999996,-1 v -1 q 8.00000004,-54 31.99999994,-99 22,-40 56,-74 24.000001,-24 89.000001,-92 65,-68 171,-179.49999 106,-111.5 183,-191.5 -113,-108 -197,-189 l 15,-15 q -36,-35 -60,-56.5 -24,-21.5 -61,-57.5 -22,15 -48,40 -27,26 -46,59 12,1 21,6 20,11 24,34 4,27 -19,47 -15,14 -36,15.5 -21,1.5 -37.000001,-7.5 -26,-15 -33,-56 -5,-30 9,-67 13,-34 45.000001,-75 26,-32 56,-59 -6,-6 -18,-17 -7,-7 -21,-20 -25.000001,-25 -46.000001,-48 -54,-58 -102,-120 -24,3 -46,-9 -12,-6 -20,-14 -19.999999,-22 -22.499999,-54.5 -2.5,-32.5 21.499999,-61.5 17,-17.0000005 40,-21.0000005 23,-4 43.0000001,2.5 Q 12.735849,10.52381 25.735849,23.52381 q 9,9 15,20 11,22 9,46 63.000001,49 120.000001,102 22,21 47,46 14,13 20,20 7,7 18,19 27,-31 59,-56 40,-32 74,-45 37,-14 67,-9 42,7 56,33 10,16 8,37 -2,21 -15,36 -20,23 -47,19 -23,-4 -34,-24 -6,-10 -6,-21 -33,19 -59,46 -31,32 -41,48 36,36 57.5,60 21.5,24 57.5,61 l 14,-15 q 30,31 94,97.5 64,66.5 94,97.5 102,-105 176,-178 58,-57 126,-127 -12,-19 -28,-36 -26,-27 -60,-47 0,12 -6,21 -11,20 -34,24 -27,4 -47,-19 -14,-15 -15.5,-36 -1.5,-21 7.5,-37 15,-26 57,-33 29,-6 67,9 33,13 74,45 31,25 58.99995,56 6,-7 18,-18 6,-7 20,-21 21,-22 47,-46 57,-53 120,-102 -2,-24 9,-46 6,-12 15,-20 21,-20 53.5,-22.5000005 32.5,-2.5 61.5,22.5000005 z"
     id="path1" />
</svg>
