<?xml version="1.0" encoding="UTF-8" standalone="no"?>
<svg
   version="1.1"
   viewBox="-10 0 618.86719 589.62695"
   id="svg1"
   sodipodi:docname="building_mages_guild.svg"
   width="618.86719"
   height="589.62695"
   inkscape:version="1.4.2 (f4327f4, 2025-05-13)"
   xml:space="preserve"
   xmlns:inkscape="http://www.inkscape.org/namespaces/inkscape"
   xmlns:sodipodi="http://sodipodi.sourceforge.net/DTD/sodipodi-0.dtd"
   xmlns="http://www.w3.org/2000/svg"
   xmlns:svg="http://www.w3.org/2000/svg"><sodipodi:namedview
     id="namedview1"
     pagecolor="#ffffff"
     bordercolor="#000000"
     borderopacity="0.25"
     inkscape:showpageshadow="2"
     inkscape:pageopacity="0.0"
     inkscape:pagecheckerboard="0"
     inkscape:deskcolor="#d1d1d1"
     inkscape:zoom="0.27106288"
     inkscape:cx="-612.40403"
     inkscape:cy="658.51879"
     inkscape:window-width="2560"
     inkscape:window-height="1377"
     inkscape:window-x="2552"
     inkscape:window-y="-8"
     inkscape:window-maximized="1"
     inkscape:current-layer="svg1" /><defs
     id="defs1"><rect
       x="269.31021"
       y="210.28331"
       width="596.64355"
       height="870.12231"
       id="rect2" /></defs><path
     id="path80"
     style="display:inline;fill:#000000;fill-opacity:1;stroke-width:2.32409;stroke-linecap:round;stroke-dashoffset:5.6693"
     d="M 298.19922,0 213.27734,207.38086 -10,226.51562 160.99023,371.36523 110.1914,589.62695 300.79101,471.76758 492.67187,587.52539 439.48047,369.83398 608.86718,223.11523 385.39257,206.43555 Z m 74.5332,85.72461 32.78906,92.68554 98.30274,1.4629 A 250.42992,250.42992 0 0 0 372.73242,85.72461 Z M 224.61133,86.539063 A 250.42992,250.42992 0 0 0 94.562503,182.12109 l 98.281247,-2.54297 z m 74.24414,33.146487 50.32031,137.17773 146.06445,3.86328 -114.91406,90.24805 41.46484,140.10937 L 300.44922,409.68164 180.00976,492.41211 219.93164,351.85547 104.0332,262.875 250.04687,257.4082 Z m 251.51367,200.80664 -78.01563,59.82421 28.98438,93.94141 a 250.42992,250.42992 0 0 0 49.07812,-148.90039 250.42992,250.42992 0 0 0 -0.0469,-4.86523 z m -500.804687,2.75 a 250.42992,250.42992 0 0 0 -0.008,2.11523 250.42992,250.42992 0 0 0 50.726557,151.10742 l 27.95117,-94.25781 z m 251.416017,183.02929 -80.38672,56.59571 a 250.42992,250.42992 0 0 0 79.39258,12.91992 250.42992,250.42992 0 0 0 81.99804,-13.80664 z" /></svg>
