<?xml version="1.0" encoding="UTF-8"?>
<!DOCTYPE svg PUBLIC "-//W3C//DTD SVG 1.1//EN" "http://www.w3.org/Graphics/SVG/1.1/DTD/svg11.dtd">
<svg xmlns="http://www.w3.org/2000/svg" version="1.1" width="31px" height="37px" style="shape-rendering:geometricPrecision; text-rendering:geometricPrecision; image-rendering:optimizeQuality; fill-rule:evenodd; clip-rule:evenodd" xmlns:xlink="http://www.w3.org/1999/xlink">
<g><path style="opacity:1" fill="#000000" d="M 14.5,-0.5 C 14.8333,-0.5 15.1667,-0.5 15.5,-0.5C 17.8355,2.17574 20.1689,4.84241 22.5,7.5C 23.6808,9.19803 23.6808,10.8647 22.5,12.5C 18.1086,11.4428 13.7753,11.4428 9.5,12.5C 8.95338,6.46925 7.62005,6.13592 5.5,11.5C 4.38615,10.277 4.21948,8.94371 5,7.5C 7.7749,4.22032 10.9416,1.55366 14.5,-0.5 Z"/></g>
<g><path style="opacity:1" fill="#000000" d="M -0.5,30.5 C -0.5,29.5 -0.5,28.5 -0.5,27.5C 0.789915,26.9423 1.62325,25.9423 2,24.5C 3,21.1667 4,17.8333 5,14.5C 6.34247,13.0977 7.1758,13.4311 7.5,15.5C 6.31604,21.2544 4.81604,26.921 3,32.5C 2.58605,32.9574 2.08605,33.2907 1.5,33.5C 0.824341,32.3984 0.157674,31.3984 -0.5,30.5 Z"/></g>
<g><path style="opacity:1" fill="#000000" d="M 15.5,36.5 C 11.8333,36.5 8.16667,36.5 4.5,36.5C 4.27918,33.1577 5.11251,29.8243 7,26.5C 7.55884,22.8136 8.2255,19.147 9,15.5C 10.7889,13.771 12.9556,13.1043 15.5,13.5C 15.5,21.1667 15.5,28.8333 15.5,36.5 Z"/></g>
<g><path style="opacity:1" fill="#000000" d="M 30.5,34.5 C 30.5,35.1667 30.5,35.8333 30.5,36.5C 27.8333,36.5 25.1667,36.5 22.5,36.5C 18.7053,29.348 17.0387,21.848 17.5,14C 19.1341,13.5065 20.8008,13.3398 22.5,13.5C 22.8293,21.5012 25.4959,28.5012 30.5,34.5 Z"/></g>
</svg>
