<?xml version="1.0" encoding="UTF-8" standalone="no"?>
<svg
   version="1.1"
   viewBox="-10 0 820.80768 738.47827"
   id="svg1"
   sodipodi:docname="building_town_hall.svg"
   width="820.80768"
   height="738.47827"
   inkscape:version="1.4.2 (f4327f4, 2025-05-13)"
   xml:space="preserve"
   xmlns:inkscape="http://www.inkscape.org/namespaces/inkscape"
   xmlns:sodipodi="http://sodipodi.sourceforge.net/DTD/sodipodi-0.dtd"
   xmlns="http://www.w3.org/2000/svg"
   xmlns:svg="http://www.w3.org/2000/svg"><defs
     id="defs1"><rect
       x="269.31021"
       y="210.28331"
       width="596.64355"
       height="870.12231"
       id="rect2" /></defs><sodipodi:namedview
     id="namedview1"
     pagecolor="#ffffff"
     bordercolor="#000000"
     borderopacity="0.25"
     inkscape:showpageshadow="2"
     inkscape:pageopacity="0.0"
     inkscape:pagecheckerboard="0"
     inkscape:deskcolor="#d1d1d1"
     inkscape:zoom="0.27106288"
     inkscape:cx="-1114.1326"
     inkscape:cy="-197.37118"
     inkscape:window-width="2560"
     inkscape:window-height="1377"
     inkscape:window-x="2552"
     inkscape:window-y="-8"
     inkscape:window-maximized="1"
     inkscape:current-layer="svg1" /><path
     d="m 578.38194,329.78562 c -85.93677,27.80392 -160.01917,54.22295 -237.95312,102.02859 l -0.92188,306.66406 123.12696,-57.18359 112.05859,51.64844 z M 462.6339,481.73804 c 26.16677,-3e-4 47.3792,21.21213 47.3789,47.3789 3e-4,26.16677 -21.21213,47.37921 -47.3789,47.37891 -26.16678,3e-4 -47.37921,-21.21213 -47.37891,-47.37891 -3e-4,-26.16677 21.21214,-47.3792 47.37891,-47.3789 z"
     style="display:inline;fill:#000000;fill-opacity:1;stroke:#000000;stroke-width:0;stroke-linecap:round;stroke-dashoffset:5.6693;stroke-opacity:1"
     id="path5"
     sodipodi:nodetypes="ccccccccccc" /><path
     style="display:inline;fill:#000000;fill-opacity:1;stroke:#000000;stroke-width:0;stroke-linecap:round;stroke-dasharray:none;stroke-dashoffset:5.6693;stroke-opacity:0.221527"
     d="M 809.63921,299.53916 C 654.68158,237.43575 348.60228,399.97715 126.73624,516.84852 L 80.30049,432.82637 C 305.15394,316.37813 615.92242,162.60387 654.75832,0 743.65743,47.56493 821.32181,202.78689 809.63921,299.53916 Z"
     id="path1-5"
     sodipodi:nodetypes="ccccc" /><path
     style="display:inline;fill:#000000;fill-opacity:1;stroke:#000000;stroke-width:0;stroke-linecap:round;stroke-dasharray:none;stroke-dashoffset:5.6693;stroke-opacity:0.221527"
     d="M 114.6544,523.52568 68.21865,439.50353 -10,453.02546 61.58845,582.5596 Z"
     id="path6"
     sodipodi:nodetypes="ccccc" /></svg>
