<?xml version="1.0" encoding="UTF-8"?>
<!DOCTYPE svg PUBLIC "-//W3C//DTD SVG 1.1//EN" "http://www.w3.org/Graphics/SVG/1.1/DTD/svg11.dtd">
<svg xmlns="http://www.w3.org/2000/svg" version="1.1" width="50px" height="35px" style="shape-rendering:geometricPrecision; text-rendering:geometricPrecision; image-rendering:optimizeQuality; fill-rule:evenodd; clip-rule:evenodd" xmlns:xlink="http://www.w3.org/1999/xlink">
<g><path style="opacity:1" fill="#000000" d="M 40.5,-0.5 C 41.1667,-0.5 41.8333,-0.5 42.5,-0.5C 43.2341,0.707917 43.5674,2.04125 43.5,3.5C 48.2442,3.03837 49.2442,4.53837 46.5,8C 47.1634,9.51845 48.1634,10.6851 49.5,11.5C 49.5,11.8333 49.5,12.1667 49.5,12.5C 47.6954,13.2371 46.0287,14.2371 44.5,15.5C 45.6405,16.4255 45.6405,17.2588 44.5,18C 43.0039,18.5074 41.8373,18.0074 41,16.5C 38.1622,20.6667 35.9955,20.3334 34.5,15.5C 33.5,14.1667 32.5,14.1667 31.5,15.5C 30.554,13.9245 30.554,12.2578 31.5,10.5C 28.5439,7.41087 29.2105,5.7442 33.5,5.5C 33.5,3.83333 33.5,2.16667 33.5,0.5C 35.0603,0.519088 36.5603,0.852422 38,1.5C 39.301,1.36126 40.1344,0.694594 40.5,-0.5 Z M 36.5,4.5 C 43.6206,3.44919 45.954,6.28252 43.5,13C 34.8987,15.559 32.5654,12.7257 36.5,4.5 Z M 38.5,7.5 C 41.8606,8.20318 42.1939,9.53651 39.5,11.5C 37.3576,10.5629 37.0243,9.22955 38.5,7.5 Z"/></g>
<g><path style="opacity:1" fill="#000000" d="M 15.5,34.5 C 14.5,34.5 13.5,34.5 12.5,34.5C 11.336,31.4215 9.83601,31.0882 8,33.5C 6.97997,32.1095 6.14664,30.6095 5.5,29C 4.20677,28.51 2.87344,28.3433 1.5,28.5C 1.28649,26.8561 1.61983,25.3561 2.5,24C 1.92206,22.583 0.922058,21.7496 -0.5,21.5C -0.5,20.5 -0.5,19.5 -0.5,18.5C 2.8919,17.2619 3.22524,15.4286 0.5,13C 1.61744,11.1079 3.28411,10.2746 5.5,10.5C 5.88298,5.74242 7.88298,4.74242 11.5,7.5C 12.1476,5.85084 13.1476,4.51751 14.5,3.5C 15.8333,4.83333 17.1667,6.16667 18.5,7.5C 22.2309,4.53675 23.8976,5.53675 23.5,10.5C 28.17,10.676 29.17,12.5094 26.5,16C 27.5089,17.1681 28.5089,18.3348 29.5,19.5C 28.0098,20.8257 26.6765,22.3257 25.5,24C 28.1809,27.0536 27.3476,28.8869 23,29.5C 22.504,33.7047 20.8373,34.3714 18,31.5C 16.955,32.3734 16.1217,33.3734 15.5,34.5 Z M 11.5,10.5 C 19.9863,10.1514 23.8197,14.1514 23,22.5C 18.2283,30.9438 12.5616,31.6105 6,24.5C 4.02151,18.1301 5.85484,13.4635 11.5,10.5 Z M 12.5,17.5 C 17.5837,17.9658 18.2504,19.6325 14.5,22.5C 11.8068,21.4682 11.1402,19.8015 12.5,17.5 Z"/></g>
<g><path style="opacity:1" fill="#000000" d="M 37.5,6.5 C 42.1585,6.01463 43.4919,7.84796 41.5,12C 36.7282,12.8104 35.3948,10.9771 37.5,6.5 Z M 38.5,7.5 C 37.0243,9.22955 37.3576,10.5629 39.5,11.5C 42.1939,9.53651 41.8606,8.20318 38.5,7.5 Z"/></g>
<g><path style="opacity:1" fill="#010101" d="M 12.5,12.5 C 20.2393,13.2141 22.7393,17.2141 20,24.5C 11.8076,28.9342 7.80762,26.6008 8,17.5C 9.02496,15.313 10.525,13.6464 12.5,12.5 Z M 12.5,17.5 C 11.1402,19.8015 11.8068,21.4682 14.5,22.5C 18.2504,19.6325 17.5837,17.9658 12.5,17.5 Z"/></g>
</svg>
