<?xml version="1.0" encoding="UTF-8"?>
<!DOCTYPE svg PUBLIC "-//W3C//DTD SVG 1.1//EN" "http://www.w3.org/Graphics/SVG/1.1/DTD/svg11.dtd">
<svg xmlns="http://www.w3.org/2000/svg" version="1.1" width="41px" height="38px" style="shape-rendering:geometricPrecision; text-rendering:geometricPrecision; image-rendering:optimizeQuality; fill-rule:evenodd; clip-rule:evenodd" xmlns:xlink="http://www.w3.org/1999/xlink">
<g><path style="opacity:0.97" fill="#11120e" d="M 33.5,-0.5 C 33.8333,-0.5 34.1667,-0.5 34.5,-0.5C 36.7613,2.36486 38.7613,5.36486 40.5,8.5C 40.5,9.5 40.5,10.5 40.5,11.5C 36.8183,11.3347 33.1516,11.5014 29.5,12C 23.0031,15.4141 16.6697,19.0808 10.5,23C 9.07153,23.5791 7.7382,23.4124 6.5,22.5C 7.2899,21.2058 8.2899,20.0391 9.5,19C 15.5,15.6667 21.5,12.3333 27.5,9C 29.6358,5.88959 31.6358,2.72292 33.5,-0.5 Z"/></g>
<g><path style="opacity:0.979" fill="#0a0a09" d="M 28.5,37.5 C 28.1667,37.5 27.8333,37.5 27.5,37.5C 24.0261,33.936 20.6927,33.936 17.5,37.5C 16.8333,37.5 16.1667,37.5 15.5,37.5C 15.1725,32.456 15.5059,27.456 16.5,22.5C 19.9974,19.917 23.6641,17.5836 27.5,15.5C 28.4973,22.8032 28.8306,30.1365 28.5,37.5 Z M 21.5,23.5 C 22.64,24.8014 23.9733,25.9681 25.5,27C 24.6959,28.7713 23.5292,30.2713 22,31.5C 20.9542,29.9095 19.7875,28.4095 18.5,27C 19.7101,25.9609 20.7101,24.7942 21.5,23.5 Z"/></g>
<g><path style="opacity:0.886" fill="#131510" d="M 6.5,22.5 C 5.95526,26.9244 3.62193,28.5911 -0.5,27.5C -0.5,26.5 -0.5,25.5 -0.5,24.5C 1.58337,23.9711 3.41671,22.9711 5,21.5C 5.38258,22.056 5.88258,22.3893 6.5,22.5 Z"/></g>
</svg>
