<?xml version="1.0" encoding="UTF-8" standalone="no"?>
<svg
   version="1.1"
   viewBox="-10 0 802.06055 575.26172"
   id="svg1"
   sodipodi:docname="building_special_gearsl.svg"
   width="802.06055"
   height="575.26172"
   inkscape:version="1.4.2 (f4327f4, 2025-05-13)"
   xml:space="preserve"
   xmlns:inkscape="http://www.inkscape.org/namespaces/inkscape"
   xmlns:sodipodi="http://sodipodi.sourceforge.net/DTD/sodipodi-0.dtd"
   xmlns="http://www.w3.org/2000/svg"
   xmlns:svg="http://www.w3.org/2000/svg"><sodipodi:namedview
     id="namedview1"
     pagecolor="#ffffff"
     bordercolor="#000000"
     borderopacity="0.25"
     inkscape:showpageshadow="2"
     inkscape:pageopacity="0.0"
     inkscape:pagecheckerboard="0"
     inkscape:deskcolor="#d1d1d1"
     inkscape:zoom="0.0479176"
     inkscape:cx="3819.056"
     inkscape:cy="1304.3224"
     inkscape:window-width="2560"
     inkscape:window-height="1377"
     inkscape:window-x="2552"
     inkscape:window-y="-8"
     inkscape:window-maximized="1"
     inkscape:current-layer="svg1" /><defs
     id="defs1"><rect
       x="269.31021"
       y="210.28331"
       width="596.64355"
       height="870.12231"
       id="rect2" /></defs><path
     id="path46"
     style="display:inline;fill:#000000;fill-opacity:1;stroke-width:2;stroke-linecap:round;stroke-dashoffset:5.6693"
     d="m 220.58594,82.82617 -11.97071,36.5586 0.0488,3.23437 1.22461,9.17578 a 199,199 0 0 0 -49.49414,13.26172 l -3.52734,-8.55859 -1.57422,-2.82617 -28.64649,-25.67578 -27.076169,15.63281 7.914059,37.64648 1.65821,2.77539 5.64843,7.33399 a 199,199 0 0 0 -36.232419,36.23242 l -7.33398,-5.64844 -2.77539,-1.6582 -37.64649,-7.91406 -15.63281,27.07617 25.67578,28.64648 2.82617,1.57422 8.55664,3.52735 a 199,199 0 0 0 -13.26171,49.49414 l -9.17383,-1.22461 -3.23438,-0.0488 -36.558591,11.9707 v 31.26367 l 36.558591,11.97071 3.23438,-0.0488 9.17383,-1.22461 a 199,199 0 0 0 13.26171,49.49609 l -8.55664,3.52539 -2.82617,1.57422 -25.67578,28.64649 15.63281,27.07617 37.64649,-7.91406 2.77539,-1.65821 7.33203,-5.64843 a 199,199 0 0 0 36.234369,36.23437 l -5.64843,7.33203 -1.65821,2.77539 -7.914059,37.64649 27.076169,15.63281 28.64649,-25.67578 1.57422,-2.82617 3.52539,-8.55664 a 199,199 0 0 0 49.49609,13.26171 l -1.22461,9.17383 -0.0488,3.23438 11.97071,36.55859 h 31.26367 l 11.9707,-36.55859 -0.0488,-3.23438 -1.22461,-9.17383 a 199,199 0 0 0 49.49414,-13.26171 l 3.52735,8.55664 1.57422,2.82617 28.64648,25.67578 27.07617,-15.63281 -7.91406,-37.64649 -1.6582,-2.77539 -5.64844,-7.33398 a 199,199 0 0 0 36.23242,-36.23242 l 7.33399,5.64843 2.77539,1.65821 37.64648,7.91406 15.63281,-27.07617 -25.67578,-28.64649 -2.82617,-1.57422 -8.55859,-3.52734 a 199,199 0 0 0 13.26172,-49.49414 l 9.17578,1.22461 3.23437,0.0488 36.5586,-11.97071 v -31.26367 l -36.5586,-11.9707 -3.23437,0.0488 -9.17578,1.22461 a 199,199 0 0 0 -13.26172,-49.49414 l 8.55859,-3.52735 2.82617,-1.57422 25.67578,-28.64648 -15.63281,-27.07617 -37.64648,7.91406 -2.77539,1.6582 -7.33399,5.64844 a 199,199 0 0 0 -36.23245,-36.23242 l 5.64844,-7.33399 1.6582,-2.77539 7.91406,-37.64648 -27.07617,-15.63281 -28.64648,25.67578 -1.57422,2.82617 -3.52735,8.55859 a 199,199 0 0 0 -49.49414,-13.26172 l 1.22461,-9.17578 0.0488,-3.23437 -11.9707,-36.5586 z m 15.63086,98.65039 A 147.56741,147.56741 0 0 1 383.78515,329.04492 147.56741,147.56741 0 0 1 236.2168,476.61133 147.56741,147.56741 0 0 1 88.650391,329.04492 a 147.56702,147.56702 0 0 1 1.26172,-19.26171 147.56741,147.56741 0 0 1 9.9707,-37.21094 147.56702,147.56702 0 0 1 8.537109,-17.31055 147.56741,147.56741 0 0 1 127.79688,-73.78516 z m 0,27.39063 A 120.17625,120.17625 0 0 0 116.04101,329.04492 120.17625,120.17625 0 0 0 236.2168,449.22071 120.17625,120.17625 0 0 0 356.39453,329.04492 120.17625,120.17625 0 0 0 236.2168,208.86719 Z m 0,89.34766 a 30.830168,30.830168 0 0 1 30.83203,30.83007 30.830168,30.830168 0 0 1 -30.83203,30.83008 30.830168,30.830168 0 0 1 -30.83008,-30.83008 30.830168,30.830168 0 0 1 30.83008,-30.83007 z" /><path
     id="path54-1"
     style="display:inline;fill:#000000;fill-opacity:1;stroke:none;stroke-width:2;stroke-linecap:round;stroke-dasharray:none;stroke-dashoffset:5.6693;stroke-opacity:1"
     d="M 651.38672,0 631.25,31.56055 l -0.28906,2.01172 -0.23633,9.53515 a 121.28182,121.28182 0 0 0 -3.01758,-0.0371 121.28182,121.28182 0 0 0 -43.20508,7.95704 l -3.39844,-8.91407 -0.9414,-1.79883 -29.4961,-23.05664 -22.42968,14.13672 8.07617,36.55664 1.21875,1.625 6.57617,6.91016 a 121.28182,121.28182 0 0 0 -27.08398,38.28516 l -8.70508,-3.90039 -1.93945,-0.60743 -37.16016,4.55274 -5.86328,25.85742 31.55859,20.13672 2.01172,0.28906 9.53711,0.23633 a 121.28182,121.28182 0 0 0 -0.0371,3.01758 121.28182,121.28182 0 0 0 7.95703,43.20508 l -8.91406,3.39843 -1.80078,0.94141 -23.05664,29.49609 14.13672,22.42969 36.55664,-8.07617 1.62695,-1.21875 6.91211,-6.57617 a 121.28182,121.28182 0 0 0 38.28125,27.08398 l -3.90039,8.70508 -0.60742,1.93945 4.55468,37.16016 25.85547,5.86328 20.13867,-31.55859 0.28711,-2.01172 0.23829,-9.53711 a 121.28182,121.28182 0 0 0 3.01562,0.0371 121.28182,121.28182 0 0 0 43.20508,-7.95703 l 3.39844,8.91406 0.9414,1.80078 29.4961,23.05664 22.42968,-14.13672 -8.07617,-36.55664 -1.21875,-1.625 -6.57617,-6.91211 a 121.28182,121.28182 0 0 0 27.08594,-38.2832 l 8.70507,3.90039 1.93946,0.60742 37.1582,-4.55273 5.86524,-25.85742 -31.56055,-20.13868 -2.01172,-0.28711 -9.53516,-0.23828 a 121.28182,121.28182 0 0 0 0.0371,-3.01562 121.28182,121.28182 0 0 0 -7.95703,-43.20508 l 8.91406,-3.39844 1.80079,-0.9414 23.05468,-29.4961 -14.13672,-22.42969 -36.55468,8.07618 -1.62696,1.21875 -6.91015,6.57421 A 121.28182,121.28182 0 0 0 677.28906,53.66797 l 3.90039,-8.70508 0.60742,-1.93945 -4.55273,-37.1582 z m -23.67969,78.35156 a 86.000969,86.000969 0 0 1 11.22461,0.73633 86.000052,86.000244 0 0 1 0.002,0 86.000969,86.000969 0 0 1 74.77539,85.26563 86.000052,86.000244 0 0 1 -0.73633,11.22265 86.000969,86.000969 0 0 1 0,0.002 86.000052,86.000244 0 0 1 -0.43554,2.19336 86.000969,86.000969 0 0 1 -1.75977,8.83984 86.000969,86.000969 0 0 1 -2.38672,7.03516 86.000052,86.000244 0 0 1 -1.22851,3.61523 86.000969,86.000969 0 0 1 0,0.002 86.000052,86.000244 0 0 1 -4.97461,10.08789 86.000969,86.000969 0 0 1 0,0.002 86.000052,86.000244 0 0 1 -6.25,9.35156 86.000969,86.000969 0 0 1 0,0.002 86.000052,86.000244 0 0 1 -15.875,15.87305 86.000969,86.000969 0 0 1 -0.002,0.002 86.000052,86.000244 0 0 1 -9.35157,6.24805 86.000969,86.000969 0 0 1 -0.002,0.002 86.000052,86.000244 0 0 1 -20.74023,8.58985 86.000052,86.000244 0 0 1 -22.25782,2.92968 86.000052,86.000244 0 0 1 -86,-86 86.000052,86.000244 0 0 1 2.92969,-22.25781 86.000052,86.000244 0 0 1 8.58984,-20.74023 86.000969,86.000969 0 0 1 0.002,-0.002 86.000052,86.000244 0 0 1 6.24804,-9.35156 86.000969,86.000969 0 0 1 0.002,-0.002 86.000052,86.000244 0 0 1 15.87304,-15.875 86.000969,86.000969 0 0 1 52.35352,-17.77149 z m 0,22.32227 a 64.303802,63.679619 0 0 0 -64.30273,63.67969 64.303802,63.679619 0 0 0 64.30273,63.67969 64.303802,63.679619 0 0 0 64.30469,-63.67969 64.303802,63.679619 0 0 0 -64.30469,-63.67969 z m 0,43.00391 a 20.883066,20.676304 0 0 1 20.88281,20.67578 20.883066,20.676304 0 0 1 -20.88281,20.67578 20.883066,20.676304 0 0 1 -20.88281,-20.67578 20.883066,20.676304 0 0 1 20.88281,-20.67578 z" /></svg>
