<?xml version="1.0" encoding="UTF-8" standalone="no"?>
<svg
   version="1.1"
   viewBox="-294 0 1377.7473 1307.1821"
   id="svg1"
   sodipodi:docname="building_materials.svg"
   inkscape:version="1.3.2 (091e20ef0f, 2023-11-25, custom)"
   width="1377.7473"
   height="1307.1821"
   xmlns:inkscape="http://www.inkscape.org/namespaces/inkscape"
   xmlns:sodipodi="http://sodipodi.sourceforge.net/DTD/sodipodi-0.dtd"
   xmlns="http://www.w3.org/2000/svg"
   xmlns:svg="http://www.w3.org/2000/svg">
  <defs
     id="defs1" />
  <sodipodi:namedview
     id="namedview1"
     pagecolor="#ffffff"
     bordercolor="#000000"
     borderopacity="0.25"
     inkscape:showpageshadow="2"
     inkscape:pageopacity="0.0"
     inkscape:pagecheckerboard="0"
     inkscape:deskcolor="#d1d1d1"
     inkscape:zoom="0.54042305"
     inkscape:cx="603.23112"
     inkscape:cy="643.93997"
     inkscape:window-width="1440"
     inkscape:window-height="868"
     inkscape:window-x="0"
     inkscape:window-y="0"
     inkscape:window-maximized="1"
     inkscape:current-layer="svg1" />
  <path
     fill="currentColor"
     d="m 392.27368,769.04878 c 9.33333,8 19.5,24.16667 30.5,48.5 11,24.33333 19.5,46.16667 25.5,65.5 l 9,30 c 0.66667,3.33333 2.66667,9.33333 6,18 50.66667,148.66662 71.33333,234.33322 62,256.99992 -8.66667,20.6667 -28.83333,44.1667 -60.5,70.5 -31.66667,26.3333 -60.5,41.8333 -86.5,46.5 -28,5.3333 -64.16667,0.6667 -108.5,-14 -44.33333,-14.6667 -77.83333,-33.6667 -100.5,-57 -14,-15.3333 -23.33333,-38.8333 -28,-70.5 -4.66667,-31.6667 -5.16667,-61.3333 -1.5,-89 3.66667,-27.6666 9.16667,-46.1666 16.5,-55.4999 6,-8 11,-20.16669 15,-36.50002 4,-16.33333 7.33333,-34.16667 10,-53.5 2.66667,-19.33333 4.66667,-31 6,-35 2.66667,-11.33333 19.33333,-38.16667 50,-80.5 30.66667,-42.33333 53.33333,-70.83333 68,-85.5 4.66667,-5.33333 9.66667,-8.33333 15,-9 5.33333,-0.66667 11.16667,0.83333 17.5,4.5 6.33333,3.66667 11.66667,7.33333 16,11 4.33333,3.66667 10.66667,9.33333 19,17 8.33333,7.66667 14.83333,13.5 19.5,17.5 z m 163,-320 c 30.66667,-6.66667 72,-21.33333 124,-44 34.6667,-15.33333 60.6667,-28.33333 78,-39 22.6667,15.33333 51.6667,43.66667 86.99994,85 12,14 19.6667,42.83333 23,86.5 3.3333,43.66667 1.6667,76.5 -5,98.5 -2,6.66667 -4.8333,12.33333 -8.5,17 -3.6667,4.66667 -9.1667,8.66667 -16.5,12 -7.3332,3.33333 -13.8332,6 -19.49994,8 -5.6667,2 -14.5,3.66667 -26.5,5 -12,1.33333 -21.5,2.33333 -28.5,3 -7,0.66667 -18.3333,1.5 -34,2.5 -15.6667,1 -27.1667,1.83333 -34.5,2.5 -20,1.33333 -40.3333,5.16667 -61,11.5 -20.66667,6.33333 -35.66667,11.66667 -45,16 -9.33333,4.33333 -23.83333,11.83333 -43.5,22.5 -19.66667,10.66667 -29.83333,16.33333 -30.5,17 -4.66667,2 -9.16667,3.16667 -13.5,3.5 -4.33333,0.33333 -8.5,-0.33333 -12.5,-2 -4,-1.66667 -7.66667,-3.66667 -11,-6 -3.33333,-2.33333 -6.83333,-5.83333 -10.5,-10.5 -3.66667,-4.66667 -6.83333,-8.66667 -9.5,-12 -2.66667,-3.33333 -5.66667,-7.83333 -9,-13.5 -3.33333,-5.66667 -5.66667,-9.83333 -7,-12.5 l -6,-12 c -1.33333,-2 -2,-3.33333 -2,-4 -2,-3.33333 -4.66667,-9 -8,-17 19.33333,-35.33333 24.33333,-70.33333 15,-105 -4.66667,-18.66667 -15,-37 -31,-55 9.33333,-4.66667 17.33333,-10 24,-16 6.66667,-5.33333 21.5,-12.16667 44.5,-20.5 23,-8.33333 48.83333,-15.5 77.5,-21.5 z m -569.999997,154 c -10.66667,-4.66667 -18.83333,-9.66667 -24.5,-15 -5.66667,-5.33333 -9.33333,-11.83333 -11,-19.5 -1.66667,-7.66667 -2.66667,-14 -3,-19 -0.33333,-5 0.33333,-13.5 2,-25.5 1.66667,-12 2.83333,-20.66667 3.5,-26 2,-25.33333 7.33333,-48 16,-68 8.66667,-20 24.0000002,-41.66667 46,-65 13.33333,-14 30.83333,-28.33333 52.5,-43 21.66667,-14.66667 40.166667,-26 55.499997,-34 l 23,-11 c 5.33333,-2 10.66667,-3 16,-3 0,10.66667 1.33333,20.66667 4,30 3.33333,13.33333 11,40.33333 23,81 8,26 14,45.66667 18,59 6.66667,24.66667 20.66667,44.33333 42,59 21.33333,14.66667 47,22.33333 77,23 27.33333,24.66667 42.33333,42.66667 45,54 10,40 -19,84.33333 -87,133 -13.33333,10 -26.16667,15.83333 -38.5,17.5 -12.33333,1.66667 -23.33333,-0.33333 -33,-6 -9.66667,-5.66667 -18.33333,-11.83333 -26,-18.5 -7.66667,-6.66667 -15.83333,-14.5 -24.5,-23.5 -8.66667,-9 -16,-15.16667 -22,-18.5 -14,-7.33333 -39.333327,-17.66667 -75.999997,-31 -36.66667,-13.33333 -62.6666698,-23.33333 -78,-30 z m 290.999997,-178 c -3.33333,-11.33333 -10,-33.66667 -20,-67 -10,-33.33333 -17,-57.33333 -21,-72 -6,-23.33333 -1.83333,-55.5 12.5,-96.5 14.33333,-41 37.5,-75.16667 69.5,-102.499999 38.66667,-32.666667 70.66667,-55.5 96,-68.5 25.33333,-13.0000005 54.33333,-19.16666747 87,-18.50000047 20.66667,0.666667 36.83333,2.83333297 48.5,6.49999997 11.66667,3.6666675 18.16667,7.1666675 19.5,10.5000005 l 3,5 c 2,2.666667 5,5.833333 9,9.5 4,3.666667 11.5,10.833333 22.5,21.5 11,10.666667 21.5,21.166667 31.5,31.5 10,10.333333 21,21.999999 33,34.999999 12,13 22.5,24.83333 31.5,35.5 9,10.66667 16.5,20.5 22.5,29.5 6,9 8.6667,15.5 8,19.5 0,6.66667 0.6667,15.16667 2,25.5 1.3333,10.33333 2.5,19.33333 3.5,27 1,7.66667 1.1667,15.5 0.5,23.5 -0.6667,8 -2.6667,13.66667 -6,17 -7.3333,7.33333 -34,21.16667 -80,41.5 -46,20.33333 -82.66667,33.5 -110,39.5 -74.66667,16 -125.33333,35 -152,57 -9.33333,7.33333 -22,12.66667 -38,16 -16,3.33333 -31.33333,2.83333 -46,-1.5 -14.66667,-4.33333 -23.66667,-12.5 -27,-24.5 z m -117,352 c 0.66667,5.33333 1,11.66667 1,19 -25.33333,36.66667 -40,64 -44,82 -1.33333,5.33333 -3.33333,16.33333 -6,33 -4.66667,35.33333 -9,57 -12.999997,65 -18.66667,26.00002 -29.33333,66.66662 -32,121.99992 -51.33333,-1.3333 -108,-6.5 -169.999993,-15.5 -62,-9 -100.33333,-22.5 -115,-40.4999 -56,-68.66669 -80.33334,-118.33335 -73.00001,-149.00002 0,-0.66667 1.16667,-6.66667 3.5,-18 2.33333,-11.33333 4.33333,-20.5 6,-27.5 l 7.50001,-31.5 10,-37 c 6.66667,-24.66667 10.66667,-37 12,-37 1.33333,0 6.16667,-12.5 14.5,-37.5 8.33333,-25 13.83333,-35.83333 16.5,-32.5 2.66667,3.33333 9,-6 19,-28 10,-22 17,-28.33333 21,-19 26.66667,-18 47.66667,-29.66667 63,-35 10.66667,35.33333 35.666665,61.66667 74.999993,79 17.33333,8 43.6666702,18.33333 79,31 34.66667,12 57.33333,21 67.999997,27 2.66667,1.33333 8,6.33333 16,15 15.33333,15.33333 29,27 41,35 z m 923.99992,160 c 2,7.33333 -2.3333,61.66667 -13,162.99992 -0.6667,8.6667 -1.8333,16.8333 -3.5,24.5 -1.6667,7.6667 -3.1667,14.3333 -4.5,20 -1.3333,5.6667 -3.1667,10.6667 -5.5,15 -2.3333,4.3333 -4.1667,8 -5.5,11 -1.3333,3 -3.5,5.5 -6.5,7.5 -3,2 -5,3.5 -6,4.5 -1,1 -3.3333,1.6667 -7,2 -3.6667,0.3333 -6,0.6667 -7,1 -1,0.3333 -3.5,0.5 -7.5,0.5 h -6 c -12.66668,0 -77.49998,-5.1667 -194.49992,-15.5 -117,-10.3333 -184.5,-17.1667 -202.5,-20.5 -5.33333,-0.6667 -10.66667,-2.6667 -16,-6 -4.66667,-42.6667 -27,-121.9999 -67,-237.99992 l -5,-15 c -7.33333,-24.66667 -14.33333,-45.33333 -21,-62 14.66667,-1.33333 28.66667,-5.33333 42,-12 7.33333,-3.33333 15,-7.66667 23,-13 50,-28 93.3333,-43.33333 130,-46 l 32,-2 c 48.6667,-3.33333 83,-7.66667 102.99994,-13 28,-7.33333 50.3333,-19.66667 67,-37 2.6667,0.66667 4.6667,1.66667 6,3 1.3333,1.33333 2,2.33333 2,3 v 1 c 78,93.33333 126.33328,152 144.99998,176 16.6667,22 26,38 28,48 z"
     id="path1"
     sodipodi:nodetypes="ssccccscscsscsscscsssssccccscsssssscssscsssssssccccccsccsssscscsccccccscccsssscsccscscscsccsssssscsssssccsscccccccsccsscssssscccccccccssssssssssscccccccccccssccc"
     style="fill:#a8a8a7;fill-opacity:1" />
</svg>
