<?xml version="1.0" encoding="UTF-8"?>
<!DOCTYPE svg PUBLIC "-//W3C//DTD SVG 1.1//EN" "http://www.w3.org/Graphics/SVG/1.1/DTD/svg11.dtd">
<svg xmlns="http://www.w3.org/2000/svg" version="1.1" width="45px" height="35px" style="shape-rendering:geometricPrecision; text-rendering:geometricPrecision; image-rendering:optimizeQuality; fill-rule:evenodd; clip-rule:evenodd" xmlns:xlink="http://www.w3.org/1999/xlink">
<g><path style="opacity:1" fill="#000000" d="M 11.5,-0.5 C 12.5,-0.5 13.5,-0.5 14.5,-0.5C 14.5,0.5 14.5,1.5 14.5,2.5C 15.5,2.5 16.5,2.5 17.5,2.5C 17.5,1.5 17.5,0.5 17.5,-0.5C 18.5,-0.5 19.5,-0.5 20.5,-0.5C 20.5,0.5 20.5,1.5 20.5,2.5C 21.5,2.5 22.5,2.5 23.5,2.5C 23.5,1.5 23.5,0.5 23.5,-0.5C 24.5,-0.5 25.5,-0.5 26.5,-0.5C 26.5,0.5 26.5,1.5 26.5,2.5C 27.5,2.5 28.5,2.5 29.5,2.5C 29.5,1.5 29.5,0.5 29.5,-0.5C 30.5,-0.5 31.5,-0.5 32.5,-0.5C 31.8605,6.14769 31.5272,12.8144 31.5,19.5C 32.8333,19.5 34.1667,19.5 35.5,19.5C 35.5,16.8333 35.5,14.1667 35.5,11.5C 36.5,11.5 37.5,11.5 38.5,11.5C 38.5,12.5 38.5,13.5 38.5,14.5C 39.5,14.5 40.5,14.5 41.5,14.5C 41.5,13.5 41.5,12.5 41.5,11.5C 42.5,11.5 43.5,11.5 44.5,11.5C 44.5,19.1667 44.5,26.8333 44.5,34.5C 38.1667,34.5 31.8333,34.5 25.5,34.5C 25.8226,30.774 25.4892,27.1073 24.5,23.5C 22.6293,22.233 20.7959,22.233 19,23.5C 18.5014,27.1516 18.3347,30.8183 18.5,34.5C 12.1667,34.5 5.83333,34.5 -0.5,34.5C -0.5,26.8333 -0.5,19.1667 -0.5,11.5C 0.5,11.5 1.5,11.5 2.5,11.5C 2.5,12.5 2.5,13.5 2.5,14.5C 3.5,14.5 4.5,14.5 5.5,14.5C 5.5,13.5 5.5,12.5 5.5,11.5C 6.5,11.5 7.5,11.5 8.5,11.5C 8.5,14.1667 8.5,16.8333 8.5,19.5C 9.83333,19.5 11.1667,19.5 12.5,19.5C 12.4728,12.8144 12.1395,6.14769 11.5,-0.5 Z M 16.5,9.5 C 17.5,9.5 18.5,9.5 19.5,9.5C 19.5,11.1667 19.5,12.8333 19.5,14.5C 18.5,14.5 17.5,14.5 16.5,14.5C 16.5,12.8333 16.5,11.1667 16.5,9.5 Z M 24.5,9.5 C 25.5,9.5 26.5,9.5 27.5,9.5C 27.5,11.1667 27.5,12.8333 27.5,14.5C 26.5,14.5 25.5,14.5 24.5,14.5C 24.5,12.8333 24.5,11.1667 24.5,9.5 Z M 2.5,19.5 C 3.5,19.5 4.5,19.5 5.5,19.5C 5.5,21.1667 5.5,22.8333 5.5,24.5C 4.5,24.5 3.5,24.5 2.5,24.5C 2.5,22.8333 2.5,21.1667 2.5,19.5 Z M 38.5,19.5 C 39.5,19.5 40.5,19.5 41.5,19.5C 41.5,21.1667 41.5,22.8333 41.5,24.5C 40.5,24.5 39.5,24.5 38.5,24.5C 38.5,22.8333 38.5,21.1667 38.5,19.5 Z"/></g>
</svg>
