<?xml version="1.0" encoding="UTF-8"?>
<!DOCTYPE svg PUBLIC "-//W3C//DTD SVG 1.1//EN" "http://www.w3.org/Graphics/SVG/1.1/DTD/svg11.dtd">
<svg xmlns="http://www.w3.org/2000/svg" version="1.1" width="40px" height="38px" style="shape-rendering:geometricPrecision; text-rendering:geometricPrecision; image-rendering:optimizeQuality; fill-rule:evenodd; clip-rule:evenodd" xmlns:xlink="http://www.w3.org/1999/xlink">
<g><path style="opacity:1" fill="#000000" d="M 18.5,-0.5 C 18.8333,-0.5 19.1667,-0.5 19.5,-0.5C 21.0665,3.36252 22.7332,7.19585 24.5,11C 29.3722,12.3885 34.3722,12.8885 39.5,12.5C 39.5,12.8333 39.5,13.1667 39.5,13.5C 35.0102,16.1569 31.3436,19.6569 28.5,24C 29.679,28.0482 31.0123,32.0482 32.5,36C 31.5,36.6667 30.5,36.6667 29.5,36C 26.2641,33.1319 22.7641,30.6319 19,28.5C 15.3081,31.3648 11.8081,34.3648 8.5,37.5C 7.83333,37.5 7.16667,37.5 6.5,37.5C 7.99149,33.0616 9.32482,28.5616 10.5,24C 7.65645,19.6569 3.98978,16.1569 -0.5,13.5C -0.5,13.1667 -0.5,12.8333 -0.5,12.5C 4.5,12.5 9.5,12.5 14.5,12.5C 15.8292,8.17825 17.1625,3.84492 18.5,-0.5 Z M 18.5,7.5 C 20.0591,9.60761 21.3924,11.9409 22.5,14.5C 25.1071,15.3184 27.7737,15.8184 30.5,16C 25.2147,19.3888 24.2147,23.7221 27.5,29C 27.1667,29.1667 26.8333,29.3333 26.5,29.5C 24.1433,28.1287 21.81,26.7954 19.5,25.5C 17.0939,27.442 14.4272,28.6087 11.5,29C 15.0306,23.1957 13.6973,18.8623 7.5,16C 14.5648,17.1789 18.2315,14.3455 18.5,7.5 Z"/></g>
<g><path style="opacity:1" fill="#000000" d="M 11.5,4.5 C 12.675,4.28099 13.675,4.61432 14.5,5.5C 13.4688,6.70034 12.6355,8.03368 12,9.5C 10.1862,10.7596 8.35289,10.7596 6.5,9.5C 8.52122,8.14548 10.1879,6.47881 11.5,4.5 Z"/></g>
<g><path style="opacity:1" fill="#000000" d="M 24.5,4.5 C 27.663,5.32148 30.3297,6.98815 32.5,9.5C 27.3111,11.8584 24.6444,10.1917 24.5,4.5 Z"/></g>
<g><path style="opacity:1" fill="#000000" d="M 2.5,19.5 C 7.45631,20.9791 8.62298,23.9791 6,28.5C 2.95527,26.2807 1.78861,23.2807 2.5,19.5 Z"/></g>
<g><path style="opacity:1" fill="#000000" d="M 33.5,20.5 C 34.552,20.3505 35.552,20.5172 36.5,21C 35.856,23.74 34.6893,26.24 33,28.5C 30.942,25.5875 31.1086,22.9209 33.5,20.5 Z"/></g>
<g><path style="opacity:1" fill="#000000" d="M 18.5,31.5 C 20.0541,32.693 21.7208,33.8596 23.5,35C 20.5,37 17.5,37 14.5,35C 16.3237,34.34 17.657,33.1733 18.5,31.5 Z"/></g>
</svg>
