<?xml version="1.0" encoding="UTF-8" standalone="no"?>
<svg
   version="1.1"
   viewBox="-118 0 1622 1436"
   id="svg1"
   sodipodi:docname="damage.svg"
   width="1622"
   height="1436"
   inkscape:version="1.3.2 (091e20ef0f, 2023-11-25, custom)"
   xmlns:inkscape="http://www.inkscape.org/namespaces/inkscape"
   xmlns:sodipodi="http://sodipodi.sourceforge.net/DTD/sodipodi-0.dtd"
   xmlns="http://www.w3.org/2000/svg"
   xmlns:svg="http://www.w3.org/2000/svg">
  <defs
     id="defs1" />
  <sodipodi:namedview
     id="namedview1"
     pagecolor="#ffffff"
     bordercolor="#000000"
     borderopacity="0.25"
     inkscape:showpageshadow="2"
     inkscape:pageopacity="0.0"
     inkscape:pagecheckerboard="0"
     inkscape:deskcolor="#d1d1d1"
     inkscape:zoom="0.50441956"
     inkscape:cx="838.58762"
     inkscape:cy="810.83294"
     inkscape:window-width="1440"
     inkscape:window-height="868"
     inkscape:window-x="0"
     inkscape:window-y="0"
     inkscape:window-maximized="1"
     inkscape:current-layer="svg1" />
  <path
     fill="currentColor"
     d="m 1193,212 q 17,35 41.5,86.5 24.5,51.5 76,168.5 51.5,117 91,217.5 39.5,100.5 71,207 31.5,106.5 31.5,162.5 0,104 -42,192 -42,88 -114,139 -72,51 -157.5,51 -85.5,0 -157.5,-51 -72,-51 -114,-139 -42,-88 -42,-192 0,-67 39.5,-193.5 Q 956,734 1017.5,591 1079,448 1116,366 q 37,-82 68,-146 -41,42 -178.5,187 Q 868,552 722,703 576,854 471,958 q -64,63 -131,132 13,19 30,37 27,28 62,48 0,-12 6,-22 11,-20 35,-24 28,-4 50,20 13,15 15,37 2,22 -8,38 -14,27 -58,34 -31,6 -70,-9 -36,-14 -77,-47 -34,-27 -62,-58 -6,6 -18,19 -9,10 -21,21 -20,21 -49,48 -58,54 -124,106 4,40 -25,68 -25,25 -60,25.5 -35,0.5 -60,-24.5 -24,-25 -24,-60 0,-35 25,-60 29,-28 68,-25 51,-64 106,-124 27,-29 48,-49 l 21,-21 q 6,-6 19,-18 -31,-29 -58,-62 -33,-41 -47,-77 -15,-38 -9,-69 8,-43 34,-59 17,-9 38.5,-7.5 21.5,1.5 37.5,15.5 24,22 19,49 -3,24 -24,36 -9,5 -22,5 20,35 48,62 17,16 38,30 Q 282,916 356,842 506,691 805,405.5 1104,120 1131,93 q 35,-36 77,-58 46,-25 102,-34 l 1,-1 v 1 h 2 v 1 h 1 l -2,1 q -8,56 -33,103 -22,42 -58,77 -10,10 -28,29 z"
     id="path1" />
</svg>
