<?xml version="1.0" encoding="UTF-8" standalone="no"?>
<svg
   version="1.1"
   viewBox="-118 0 1622 1436"
   id="svg1"
   sodipodi:docname="damage-table.svg"
   inkscape:export-filename="../../../../damage-note.svg"
   inkscape:export-xdpi="96"
   inkscape:export-ydpi="96"
   inkscape:version="1.3.2 (091e20ef0f, 2023-11-25, custom)"
   width="1622"
   height="1436"
   xmlns:inkscape="http://www.inkscape.org/namespaces/inkscape"
   xmlns:sodipodi="http://sodipodi.sourceforge.net/DTD/sodipodi-0.dtd"
   xmlns="http://www.w3.org/2000/svg"
   xmlns:svg="http://www.w3.org/2000/svg">
  <defs
     id="defs1" />
  <sodipodi:namedview
     id="namedview1"
     pagecolor="#ffffff"
     bordercolor="#000000"
     borderopacity="0.25"
     inkscape:showpageshadow="2"
     inkscape:pageopacity="0.0"
     inkscape:pagecheckerboard="0"
     inkscape:deskcolor="#d1d1d1"
     inkscape:zoom="0.37337199"
     inkscape:cx="1023.1083"
     inkscape:cy="693.67817"
     inkscape:window-width="1440"
     inkscape:window-height="868"
     inkscape:window-x="0"
     inkscape:window-y="0"
     inkscape:window-maximized="1"
     inkscape:current-layer="svg1" />
  <path
     id="path1"
     style="fill:#ff0000;fill-opacity:1"
     d="m 1193.043,212.08789 -9.5254,8.94922 C 1162.9695,263.48534 1140.4915,311.72162 1116,366 c -24.6666,54.66661 -57.5,129.66676 -98.5,225 -40.99996,95.33324 -74.66669,185.16675 -101,269.5 -26.33331,84.33325 -39.5,148.8334 -39.5,193.5 0,69.3333 14.00003,133.3334 42,192 27.99997,58.6666 66.00005,105 114,139 48,34 100.5001,51 157.5,51 56.9999,0 109.5,-17 157.5,-51 48,-34 86,-80.3334 114,-139 28,-58.6666 42,-122.6667 42,-192 0,-37.3333 -10.5,-91.50007 -31.5,-162.5 -21,-70.99993 -44.6667,-140.00007 -71,-207 -26.3333,-66.99993 -56.6667,-139.50008 -91,-217.5 -34.3333,-77.99992 -59.6667,-134.1667 -76,-168.5 -16.3167,-34.29829 -30.1302,-63.09139 -41.457,-86.41211 z" />
  <path
     id="path3"
     style="fill:#e8d66b;fill-opacity:1"
     d="m 1311,0 -1,1 c -37.3333,5.99999 -71.3334,17.33335 -102,34 -28,14.66665 -53.6667,34.00002 -77,58 -18,17.99998 -126.6669,122.16686 -326,312.5 C 605.66687,595.83314 455.9999,741.33343 356,842 c -49.33328,49.33328 -93.33337,93.00004 -132,131 -13.99999,-9.33332 -26.66668,-19.33334 -38,-30 -18.66665,-17.99998 -34.66668,-38.66669 -48,-62 8.66666,0 16.00001,-1.66667 22,-5 13.99999,-7.99999 22,-20.00002 24,-36 3.33333,-17.99998 -3.00002,-34.33335 -19,-49 -10.66666,-9.33332 -23.16668,-14.5 -37.5,-15.5 -14.33332,-1 -27.16668,1.50001 -38.5,7.5 -17.333316,10.66666 -28.666672,30.33336 -34,59 -3.999996,20.66665 -0.99999,43.66669 9,69 9.333324,23.99998 25.000022,49.66669 47,77 17.99998,22 37.33335,42.6667 58,62 -8.66666,8 -15,14 -19,18 l -21,21 c -13.99999,13.3333 -30.00002,29.6667 -48,49 -36.66663,40 -72.000034,81.3334 -106,124 -25.999974,-2 -48.666686,6.3333 -68,25 -16.66665,16.6667 -25,36.6667 -25,60 0,23.3333 8.00002,43.3333 24,60 16.66665,16.6666 36.66669,24.8333 60,24.5 23.33331,-0.3333 43.33335,-8.8333 60,-25.5 19.333314,-18.6666 27.666664,-41.3334 25,-68 43.99996,-34.6666 85.33337,-70 124,-106 19.33331,-18 35.66668,-34 49,-48 7.99999,-7.3333 15.00001,-14.3333 21,-21 7.99999,-8.6667 14,-15 18,-19 18.66665,20.6667 39.33336,40 62,58 27.33331,22 53.00002,37.6667 77,47 25.99997,10 49.33335,13 70,9 29.3333,-4.6667 48.66668,-16 58,-34 6.66666,-10.6667 9.33333,-23.3333 8,-38 -1.33333,-14.6667 -6.33334,-27 -15,-37 -14.66665,-16 -31.33335,-22.6667 -50,-20 -15.99998,2.6667 -27.66667,10.6667 -35,24 -4,6.6667 -6,14 -6,22 -23.33331,-13.3333 -44.00002,-29.3333 -62,-48 -11.33332,-12 -21.33334,-24.3333 -30,-37 44.66662,-45.9999 88.33338,-90.00004 131,-132 69.99993,-69.33326 153.66676,-154.33343 251,-255 97.33324,-100.66657 191.83342,-199.33343 283.5,-296 91.6666,-96.66657 151.1667,-159.00003 178.5,-187 -0.1468,0.30301 -0.3354,0.73349 -0.4824,1.03711 l 9.5254,-8.94922 c -0.012,-0.0238 -0.031,-0.0641 -0.043,-0.0879 12,-12.66665 21.3333,-22.33334 28,-29 24,-23.33331 43.3333,-49.00003 58,-77 16.6666,-31.333299 27.6667,-65.666699 33,-102.999999 l 2,-1 h -1 v -1 h -2 z" />
</svg>
