<?xml version="1.0" encoding="UTF-8" standalone="no"?>
<svg
   version="1.1"
   viewBox="-118 0 1697 1000"
   id="svg1"
   sodipodi:docname="damage-table.svg"
   inkscape:export-filename="../../../../damage-note.svg"
   inkscape:export-xdpi="96"
   inkscape:export-ydpi="96"
   inkscape:version="1.3.2 (091e20ef0f, 2023-11-25, custom)"
   xmlns:inkscape="http://www.inkscape.org/namespaces/inkscape"
   xmlns:sodipodi="http://sodipodi.sourceforge.net/DTD/sodipodi-0.dtd"
   xmlns="http://www.w3.org/2000/svg"
   xmlns:svg="http://www.w3.org/2000/svg">
  <defs
     id="defs1" />
  <sodipodi:namedview
     id="namedview1"
     pagecolor="#ffffff"
     bordercolor="#000000"
     borderopacity="0.25"
     inkscape:showpageshadow="2"
     inkscape:pageopacity="0.0"
     inkscape:pagecheckerboard="0"
     inkscape:deskcolor="#d1d1d1"
     inkscape:zoom="0.37337199"
     inkscape:cx="1032.4824"
     inkscape:cy="382.99606"
     inkscape:window-width="1440"
     inkscape:window-height="868"
     inkscape:window-x="0"
     inkscape:window-y="0"
     inkscape:window-maximized="1"
     inkscape:current-layer="svg1" />
  <path
     id="path1"
     style="fill:#ff0000;fill-opacity:1"
     d="M 1203.043 -98.912109 L 1193.5176 -89.962891 C 1172.9695 -47.514663 1150.4915 0.72162348 1126 55 C 1101.3334 109.66661 1068.5 184.66676 1027.5 280 C 986.50004 375.33324 952.83331 465.16675 926.5 549.5 C 900.16669 633.83325 887 698.33338 887 743 C 887 812.33326 901.00003 876.33339 929 935 C 956.99997 993.66661 995.00005 1040 1043 1074 C 1091 1108 1143.5001 1125 1200.5 1125 C 1257.4999 1125 1310 1108 1358 1074 C 1406 1040 1444 993.66661 1472 935 C 1500 876.33339 1514 812.33326 1514 743 C 1514 705.6667 1503.5 651.49993 1482.5 580.5 C 1461.5 509.50007 1437.8333 440.49993 1411.5 373.5 C 1385.1667 306.50007 1354.8333 233.99992 1320.5 156 C 1286.1667 78.000078 1260.8333 21.833299 1244.5 -12.5 C 1228.1833 -46.79829 1214.3698 -75.591387 1203.043 -98.912109 z " />
  <path
     id="path3"
     style="fill:#e8d66b;fill-opacity:1"
     d="M 1321 -311 L 1320 -310 C 1282.6667 -304.00001 1248.6666 -292.66665 1218 -276 C 1190 -261.33335 1164.3333 -241.99998 1141 -218 C 1123 -200.00002 1014.3331 -95.833143 815 94.5 C 615.66687 284.83314 465.9999 430.33343 366 531 C 316.66672 580.33328 272.66663 624.00004 234 662 C 220.00001 652.66668 207.33332 642.66666 196 632 C 177.33335 614.00002 161.33332 593.33331 148 570 C 156.66666 570 164.00001 568.33333 170 565 C 183.99999 557.00001 192 544.99998 194 529 C 197.33333 511.00002 190.99998 494.66665 175 480 C 164.33334 470.66668 151.83332 465.5 137.5 464.5 C 123.16668 463.5 110.33332 466.00001 99 472 C 81.666684 482.66666 70.333328 502.33336 65 531 C 61.000004 551.66665 64.00001 574.66669 74 600 C 83.333324 623.99998 99.000022 649.66669 121 677 C 138.99998 698.99998 158.33335 719.66669 179 739 C 170.33334 746.99999 164 753 160 757 L 139 778 C 125.00001 791.33332 108.99998 807.66669 91 827 C 54.33337 866.99996 18.999966 908.33338 -15 951 C -40.999974 949 -63.666686 957.33335 -83 976 C -99.66665 992.66665 -108 1012.6667 -108 1036 C -108 1059.3333 -99.999984 1079.3333 -84 1096 C -67.33335 1112.6666 -47.33331 1120.8333 -24 1120.5 C -0.66669 1120.1667 19.33335 1111.6667 36 1095 C 55.333314 1076.3334 63.666664 1053.6666 61 1027 C 104.99996 992.33337 146.33337 956.99996 185 921 C 204.33331 903.00002 220.66668 886.99999 234 873 C 241.99999 865.66667 249.00001 858.66666 255 852 C 262.99999 843.33334 269 837 273 833 C 291.66665 853.66665 312.33336 873.00002 335 891 C 362.33331 912.99998 388.00002 928.66668 412 938 C 437.99997 947.99999 461.33335 951 482 947 C 511.3333 942.33334 530.66668 930.99998 540 913 C 546.66666 902.33334 549.33333 889.66665 548 875 C 546.66667 860.33335 541.66666 847.99999 533 838 C 518.33335 822.00002 501.66665 815.33334 483 818 C 467.00002 820.66666 455.33333 828.66668 448 842 C 444 848.66666 442 856.00001 442 864 C 418.66669 850.66668 397.99998 834.66665 380 816 C 368.66668 804.00001 358.66666 791.66665 350 779 C 394.66662 733.00005 438.33338 688.99996 481 647 C 550.99993 577.66674 634.66676 492.66657 732 392 C 829.33324 291.33343 923.83342 192.66657 1015.5 96 C 1107.1666 -0.66657 1166.6667 -63.000028 1194 -91 C 1193.8532 -90.696987 1193.6646 -90.266509 1193.5176 -89.962891 L 1203.043 -98.912109 C 1203.0314 -98.935914 1203.0116 -98.976207 1203 -99 C 1215 -111.66665 1224.3333 -121.33334 1231 -128 C 1255 -151.33331 1274.3333 -177.00003 1289 -205 C 1305.6666 -236.3333 1316.6667 -270.6667 1322 -308 L 1324 -309 L 1323 -309 L 1323 -310 L 1321 -310 L 1321 -311 z " />
</svg>
