<?xml version="1.0" encoding="UTF-8" standalone="no"?>
<svg
   version="1.1"
   width="249.99348"
   height="282.92319"
   style="clip-rule:evenodd;fill-rule:evenodd;image-rendering:optimizeQuality;shape-rendering:geometricPrecision;text-rendering:geometricPrecision"
   id="svg117"
   sodipodi:docname="defense_color.svg"
   inkscape:version="1.3.2 (091e20ef0f, 2023-11-25, custom)"
   xmlns:inkscape="http://www.inkscape.org/namespaces/inkscape"
   xmlns:sodipodi="http://sodipodi.sourceforge.net/DTD/sodipodi-0.dtd"
   xmlns="http://www.w3.org/2000/svg"
   xmlns:svg="http://www.w3.org/2000/svg">
  <defs
     id="defs117" />
  <sodipodi:namedview
     id="namedview117"
     pagecolor="#ffffff"
     bordercolor="#000000"
     borderopacity="0.25"
     inkscape:showpageshadow="2"
     inkscape:pageopacity="0.0"
     inkscape:pagecheckerboard="0"
     inkscape:deskcolor="#d1d1d1"
     inkscape:zoom="2.5030488"
     inkscape:cx="123.44945"
     inkscape:cy="158.60658"
     inkscape:window-width="1440"
     inkscape:window-height="868"
     inkscape:window-x="0"
     inkscape:window-y="0"
     inkscape:window-maximized="1"
     inkscape:current-layer="svg117" />
  <g
     id="g4"
     transform="translate(-24.506514,-5.5)">
    <path
       style="opacity:1"
       fill="#898c92"
       d="m 147.5,10.5 c 5.646,2.1566 10.98,4.8232 16,8 -1.006,0.4377 -1.006,1.1043 0,2 -6.955,-2.8107 -13.621,-6.144 -20,-10 -7.194,7.2101 -15.194,13.2101 -24,18 -5.662,3.1114 -11.662,5.4447 -18,7 -0.709,-0.904 -1.709,-1.2373 -3,-1 1.3333,-0.6667 2.667,-1.3333 4,-2 2.427,-0.023 4.76,-0.523 7,-1.5 9.85,-5.1806 19.183,-11.1806 28,-18 2.87,-2.0793 5.204,-4.57928 7,-7.5 0.791,0.56564 0.791,1.39898 0,2.5 0.63,1.31021 1.63,2.1435 3,2.5 z"
       id="path4" />
  </g>
  <g
     id="g5"
     transform="translate(-24.506514,-5.5)">
    <path
       style="opacity:1"
       fill="#cbced2"
       d="m 163.5,20.5 c 8.249,4.292 16.582,8.292 25,12 0.667,0.6667 1.333,1.3333 2,2 -1.699,0.1602 -3.366,-0.0065 -5,-0.5 -5.129,-2.9357 -10.296,-5.1024 -15.5,-6.5 -4.525,2.1793 -4.359,4.346 0.5,6.5 7.58,2.1292 14.913,4.7959 22,8 4.523,0.3202 9.023,0.8202 13.5,1.5 1.376,-0.1842 2.209,-0.8509 2.5,-2 0.333,0 0.667,0 1,0 0,1 0,2 0,3 -4.863,-0.3195 -9.53,0.0139 -14,1 -11.68,-3.3238 -23.346,-6.9905 -35,-11 -1.811,1.2357 -3.644,1.2357 -5.5,0 -1.684,0.1834 -1.85,0.8501 -0.5,2 -2.174,-0.2497 -3.841,-1.2497 -5,-3 -1.442,-1.3195 -2.108,-2.9862 -2,-5 -8.389,-0.047 -16.722,0.6196 -25,2 -1.53,-0.1399 -2.53,-0.8065 -3,-2 8.806,-4.7899 16.806,-10.7899 24,-18 6.379,3.856 13.045,7.1893 20,10 z"
       id="path5" />
  </g>
  <g
     id="g6"
     transform="translate(-24.506514,-5.5)">
    <path
       style="opacity:1"
       fill="#6c7282"
       d="m 163.5,18.5 c 9.513,3.5984 18.513,7.9317 27,13 -0.992,-0.1716 -1.658,0.1618 -2,1 -8.418,-3.708 -16.751,-7.708 -25,-12 -1.006,-0.8957 -1.006,-1.5623 0,-2 z"
       id="path6" />
  </g>
  <g
     id="g8"
     transform="translate(-24.506514,-5.5)">
    <path
       style="opacity:1"
       fill="#dddfe1"
       d="m 190.5,34.5 c 6.076,2.3545 12.076,4.6878 18,7 -0.291,1.1491 -1.124,1.8158 -2.5,2 -4.477,-0.6798 -8.977,-1.1798 -13.5,-1.5 -7.087,-3.2041 -14.42,-5.8708 -22,-8 -4.859,-2.154 -5.025,-4.3207 -0.5,-6.5 5.204,1.3976 10.371,3.5643 15.5,6.5 1.634,0.4935 3.301,0.6602 5,0.5 z"
       id="path8" />
  </g>
  <g
     id="g9"
     transform="translate(-24.506514,-5.5)">
    <path
       style="opacity:1"
       fill="#5d5e70"
       d="m 190.5,31.5 c 7.264,2.305 14.264,4.9717 21,8 -1.333,0 -2,0.6667 -2,2 -0.333,0 -0.667,0 -1,0 -5.924,-2.3122 -11.924,-4.6455 -18,-7 -0.667,-0.6667 -1.333,-1.3333 -2,-2 0.342,-0.8382 1.008,-1.1716 2,-1 z"
       id="path9" />
  </g>
  <g
     id="g10"
     transform="translate(-24.506514,-5.5)">
    <path
       style="opacity:1"
       fill="#676367"
       d="m 98.5,34.5 c 1.291,-0.2373 2.291,0.096 3,1 -8.1887,1.9123 -16.5221,3.2457 -25,4 -0.6667,0 -1,-0.3333 -1,-1 7.3521,-2.4122 15.0188,-3.7455 23,-4 z"
       id="path10" />
  </g>
  <g
     id="g11"
     transform="translate(-24.506514,-5.5)">
    <path
       style="opacity:1"
       fill="#afb3b7"
       d="m 146.5,35.5 c 0,0.6667 0,1.3333 0,2 -7.719,1.4504 -15.053,3.7838 -22,7 -3.713,0.5051 -7.213,0.8384 -10.5,1 -3.075,-0.9691 -4.075,-2.9691 -3,-6 0.718,0.9506 1.551,1.1172 2.5,0.5 1.333,-0.6667 1.333,-1.3333 0,-2 1.333,-0.6667 2.333,-1.6667 3,-3 9.651,-0.4469 19.317,-1.6135 29,-3.5 0.929,1.1888 1.262,2.5222 1,4 z"
       id="path11" />
  </g>
  <g
     id="g12"
     transform="translate(-24.506514,-5.5)">
    <path
       style="opacity:1"
       fill="#aaa2a1"
       d="m 272.5,35.5 c -2.804,3.145 -6.137,5.4783 -10,7 1.95,-4.2794 5.283,-6.6127 10,-7 z"
       id="path12" />
  </g>
  <g
     id="g13"
     transform="translate(-24.506514,-5.5)">
    <path
       style="opacity:1"
       fill="#6d6564"
       d="m 29.5,39.5 c -1.3333,0 -2.6667,0 -4,0 0,1.6667 0,3.3333 0,5 -1.1291,-2.1282 -1.2958,-4.4615 -0.5,-7 1.6225,0.5989 3.1225,1.2656 4.5,2 z"
       id="path13" />
  </g>
  <g
     id="g14"
     transform="translate(-24.506514,-5.5)">
    <path
       style="opacity:1"
       fill="#9fa2a6"
       d="m 119.5,28.5 c 0.47,1.1935 1.47,1.8601 3,2 8.278,-1.3804 16.611,-2.047 25,-2 -0.108,2.0138 0.558,3.6805 2,5 -1.278,0.2822 -2.278,0.9489 -3,2 0.262,-1.4778 -0.071,-2.8112 -1,-4 -9.683,1.8865 -19.349,3.0531 -29,3.5 -0.667,1.3333 -1.667,2.3333 -3,3 1.333,0.6667 1.333,1.3333 0,2 -0.949,0.6172 -1.782,0.4506 -2.5,-0.5 -1.075,3.0309 -0.075,5.0309 3,6 3.287,-0.1616 6.787,-0.4949 10.5,-1 -2,1 -4,2 -6,3 -5.56,-0.1353 -10.894,0.6981 -16,2.5 -5.9908,0.4995 -11.9908,0.6662 -18,0.5 -2.8953,-0.8999 -5.5619,-2.2333 -8,-4 0.17,-1.3221 -0.1634,-2.4887 -1,-3.5 3.6851,-0.9145 3.3518,-1.5811 -1,-2 0.9158,-0.2784 1.5825,-0.7784 2,-1.5 8.4779,-0.7543 16.8113,-2.0877 25,-4 6.338,-1.5553 12.338,-3.8886 18,-7 z"
       id="path14" />
  </g>
  <g
     id="g15"
     transform="translate(-24.506514,-5.5)">
    <path
       style="opacity:1"
       fill="#38363c"
       d="m 29.5,39.5 c 0.3333,1 1,1.6667 2,2 1.6152,3.2772 3.6152,6.2772 6,9 -0.2709,1.8797 0.3958,3.213 2,4 0.1984,2.0753 0.3651,4.0753 0.5,6 -1.0113,-0.8366 -2.1779,-1.17 -3.5,-1 -0.7501,-4.4206 -3.0835,-7.7539 -7,-10 -0.9519,-1.5453 -1.2852,-3.212 -1,-5 -1,0 -2,0 -3,0 0,-1.6667 0,-3.3333 0,-5 1.3333,0 2.6667,0 4,0 z"
       id="path15" />
  </g>
  <g
     id="g16"
     transform="translate(-24.506514,-5.5)">
    <path
       style="opacity:1"
       fill="#77797f"
       d="m 45.5,41.5 c 7.6682,0.4048 15.3348,0.9048 23,1.5 -0.007,1.5827 0.3263,3.2494 1,5 4.9313,1.3171 9.9313,2.1504 15,2.5 6.0092,0.1662 12.0092,-5e-4 18,-0.5 5.106,-1.8019 10.44,-2.6353 16,-2.5 -0.437,1.5744 -1.437,2.7411 -3,3.5 -4.989,0.4993 -9.989,0.6659 -15,0.5 -9,0 -18,0 -27,0 -10.5135,-0.3276 -20.8468,0.0058 -31,1 -2.166,-2.5401 -3.166,-1.8734 -3,2 -1.6042,-0.787 -2.2709,-2.1203 -2,-4 5.0553,-0.7284 7.722,-3.7284 8,-9 z"
       id="path16" />
  </g>
  <g
     id="g17"
     transform="translate(-24.506514,-5.5)">
    <path
       style="opacity:1"
       fill="#fefefe"
       d="m 146.5,44.5 c 0,35.3333 0,70.667 0,106 -7,0 -14,0 -21,0 -11,0 -22,0 -33,0 -6.6531,-0.554 -13.3198,-0.888 -20,-1 -1,0 -2,0 -3,0 -0.9231,-2.267 -1.7564,-4.6 -2.5,-7 -0.1728,-5.848 -0.6728,-11.515 -1.5,-17 -0.4754,-13.352 -1.642,-26.6854 -3.5,-40 -0.5158,-3.0469 -2.0158,-5.3802 -4.5,-7 0.31,-3.2131 -0.0233,-6.2131 -1,-9 0,-1 0,-2 0,-3 1.6238,-0.1399 2.7904,0.5267 3.5,2 1.016,-1.1341 1.6827,-0.8008 2,1 0.4652,-1.4308 1.2986,-2.5975 2.5,-3.5 5.1835,-0.1739 10.1835,-0.6739 15,-1.5 9.0376,-0.9827 18.0376,-2.4827 27,-4.5 9.458,-4.3203 19.125,-8.1536 29,-11.5 3.338,-2.1659 7.005,-3.4993 11,-4 z"
       id="path17" />
  </g>
  <g
     id="g18"
     transform="translate(-24.506514,-5.5)">
    <path
       style="opacity:1"
       fill="#8f8f94"
       d="m 75.5,38.5 c 0,0.6667 0.3333,1 1,1 -0.4175,0.7216 -1.0842,1.2216 -2,1.5 4.3518,0.4189 4.6851,1.0855 1,2 0.8366,1.0113 1.17,2.1779 1,3.5 2.4381,1.7667 5.1047,3.1001 8,4 -5.0687,-0.3496 -10.0687,-1.1829 -15,-2.5 -0.6737,-1.7506 -1.007,-3.4173 -1,-5 -7.6652,-0.5952 -15.3318,-1.0952 -23,-1.5 -4.6667,0 -9.3333,0 -14,0 -1,-0.3333 -1.6667,-1 -2,-2 2.2638,0.7186 4.5971,1.052 7,1 13.0071,-0.5421 26.0071,-1.2088 39,-2 z"
       id="path18" />
  </g>
  <g
     id="g19"
     transform="translate(-24.506514,-5.5)">
    <path
       style="opacity:1"
       fill="#262338"
       d="m 149.5,33.5 c 1.159,1.7503 2.826,2.7503 5,3 3.96,1.6377 7.626,3.6377 11,6 0.219,1.175 -0.114,2.175 -1,3 -2.286,-0.9196 -4.619,-0.9196 -7,0 -0.354,2.0412 -0.354,3.8745 0,5.5 -2.063,0.7179 -4.396,1.5512 -7,2.5 -1,-0.6667 -2,-1.3333 -3,-2 0.302,-2.5593 -0.032,-4.8926 -1,-7 0,-2.3333 0,-4.6667 0,-7 0,-0.6667 0,-1.3333 0,-2 0.722,-1.0511 1.722,-1.7178 3,-2 z"
       id="path19" />
  </g>
  <g
     id="g20"
     transform="translate(-24.506514,-5.5)">
    <path
       style="opacity:1"
       fill="#e1e3e3"
       d="m 195.5,45.5 c 4.269,1.1992 8.603,2.1992 13,3 -0.079,1.4305 0.254,2.7638 1,4 -1.896,0.9656 -3.896,1.2989 -6,1 -3.488,-0.0399 -6.821,-0.7066 -10,-2 -3.005,-1.7766 -6.338,-2.7766 -10,-3 -6.062,-1.7985 -12.062,-3.7985 -18,-6 -3.374,-2.3623 -7.04,-4.3623 -11,-6 -1.35,-1.1499 -1.184,-1.8166 0.5,-2 1.856,1.2357 3.689,1.2357 5.5,0 11.654,4.0095 23.32,7.6762 35,11 z"
       id="path20" />
  </g>
  <g
     id="g21"
     transform="translate(-24.506514,-5.5)">
    <path
       style="opacity:1"
       fill="#b3b4b8"
       d="m 195.5,45.5 c 4.47,-0.9861 9.137,-1.3195 14,-1 0.982,3.2635 1.649,6.5968 2,10 -1.667,0 -3.333,0 -5,0 -1.291,0.2373 -2.291,-0.096 -3,-1 2.104,0.2989 4.104,-0.0344 6,-1 -0.746,-1.2362 -1.079,-2.5695 -1,-4 -4.397,-0.8008 -8.731,-1.8008 -13,-3 z"
       id="path21" />
  </g>
  <g
     id="g22"
     transform="translate(-24.506514,-5.5)">
    <path
       style="opacity:1"
       fill="#292630"
       d="m 258.5,44.5 c 1.333,0 2.667,0 4,0 0.219,1.175 -0.114,2.175 -1,3 -2.4,0.5183 -4.4,1.685 -6,3.5 -2.73,0.7284 -5.397,0.5617 -8,-0.5 -1.35,1.4501 -3.016,2.1168 -5,2 -0.463,2.721 -1.129,5.3877 -2,8 -1.699,0.1602 -3.366,-0.0065 -5,-0.5 -1.689,-3.964 -4.689,-5.464 -9,-4.5 -2.104,0.2989 -4.104,-0.0344 -6,-1 0.124,-0.6067 0.457,-0.94 1,-1 2.66,-1.6444 5.327,-3.3111 8,-5 4.084,1.7734 7.751,1.2734 11,-1.5 6.173,-0.645 12.173,-1.4783 18,-2.5 z"
       id="path22" />
  </g>
  <g
     id="g23"
     transform="translate(-24.506514,-5.5)">
    <path
       style="opacity:1"
       fill="#57575f"
       d="m 31.5,41.5 c 4.6667,0 9.3333,0 14,0 -0.278,5.2716 -2.9447,8.2716 -8,9 -2.3848,-2.7228 -4.3848,-5.7228 -6,-9 z"
       id="path23" />
  </g>
  <g
     id="g24"
     transform="translate(-24.506514,-5.5)">
    <path
       style="opacity:1"
       fill="#45424c"
       d="m 211.5,39.5 c 15.289,4.5391 30.956,6.2058 47,5 -5.827,1.0217 -11.827,1.855 -18,2.5 -3.249,2.7734 -6.916,3.2734 -11,1.5 -2.673,1.6889 -5.34,3.3556 -8,5 3.168,-4.0033 2.168,-6.3366 -3,-7 -0.333,0 -0.667,0 -1,0 0,-0.6667 -0.333,-1 -1,-1 -2.291,-1.265 -4.625,-2.5983 -7,-4 0,-1.3333 0.667,-2 2,-2 z"
       id="path24" />
  </g>
  <g
     id="g25"
     transform="translate(-24.506514,-5.5)">
    <path
       style="opacity:1"
       fill="#a4a3aa"
       d="m 183.5,48.5 c 3.662,0.2234 6.995,1.2234 10,3 -3.662,-0.2234 -6.995,-1.2234 -10,-3 z"
       id="path25" />
  </g>
  <g
     id="g26"
     transform="translate(-24.506514,-5.5)">
    <path
       style="opacity:1"
       fill="#3b363d"
       d="m 272.5,35.5 c 1.333,0 2,0.6667 2,2 -2.341,7.3438 -4.674,14.6771 -7,22 -0.59,-2.4905 -0.757,-5.1571 -0.5,-8 -4.16,2.337 -8.66,3.5036 -13.5,3.5 -1.702,1.5916 -3.368,3.0916 -5,4.5 -2.252,2.5953 -4.585,5.262 -7,8 0.333,0.6667 0.667,1.3333 1,2 -1.031,1.2003 -1.865,2.5337 -2.5,4 -1.008,0.4817 -2.175,0.6484 -3.5,0.5 -0.899,1.6516 -1.899,3.1516 -3,4.5 0,-1.6667 0,-3.3333 0,-5 0.814,-2.131 1.314,-4.4644 1.5,-7 1.441,-1.37 3.108,-2.37 5,-3 0.483,-0.948 0.649,-1.948 0.5,-3 0.871,-2.6123 1.537,-5.279 2,-8 1.984,0.1168 3.65,-0.5499 5,-2 2.603,1.0617 5.27,1.2284 8,0.5 1.6,-1.815 3.6,-2.9817 6,-3.5 0.886,-0.825 1.219,-1.825 1,-3 -1.333,0 -2.667,0 -4,0 1.333,-0.6667 2.667,-1.3333 4,-2 3.863,-1.5217 7.196,-3.855 10,-7 z"
       id="path26" />
  </g>
  <g
     id="g27"
     transform="translate(-24.506514,-5.5)">
    <path
       style="opacity:1"
       fill="#68686e"
       d="m 146.5,37.5 c 0,2.3333 0,4.6667 0,7 -3.995,0.5007 -7.662,1.8341 -11,4 -1.272,-0.9343 -2.772,-1.601 -4.5,-2 -3.001,1.4179 -6.168,2.2512 -9.5,2.5 -2.272,0.9411 -4.272,2.2745 -6,4 -13.721,4.0489 -27.7209,5.3822 -42,4 6.9486,-1.122 13.9486,-1.7887 21,-2 2.3791,-0.7162 4.3791,-1.8828 6,-3.5 5.011,0.1659 10.011,-7e-4 15,-0.5 1.563,-0.7589 2.563,-1.9256 3,-3.5 2,-1 4,-2 6,-3 6.947,-3.2162 14.281,-5.5496 22,-7 z"
       id="path27" />
  </g>
  <g
     id="g28"
     transform="translate(-24.506514,-5.5)">
    <path
       style="opacity:1"
       fill="#9ca0a2"
       d="m 42.5,52.5 c 0.7485,1.8325 1.7485,3.4991 3,5 1.629,1.6959 1.2957,2.6959 -1,3 -1.677,-2.0398 -3.3437,-4.0398 -5,-6 -0.166,-3.8734 0.834,-4.5401 3,-2 z"
       id="path28" />
  </g>
  <g
     id="g29"
     transform="translate(-24.506514,-5.5)">
    <path
       style="opacity:1"
       fill="#4a4b50"
       d="m 73.5,51.5 c 6.8213,0.8285 13.8213,1.3285 21,1.5 -15.9672,1.3453 -31.9672,1.8453 -48,1.5 0.2373,1.291 -0.096,2.291 -1,3 -1.2515,-1.5009 -2.2515,-3.1675 -3,-5 10.1532,-0.9942 20.4865,-1.3276 31,-1 z"
       id="path29" />
  </g>
  <g
     id="g30"
     transform="translate(-24.506514,-5.5)">
    <path
       style="opacity:1"
       fill="#a7a8aa"
       d="m 216.5,45.5 c 0.667,0 1,0.3333 1,1 -1,0 -2,0 -3,0 0,1.3333 0,2.6667 0,4 2.091,-0.1816 4.091,0.1518 6,1 0.333,-0.3333 0.667,-0.6667 1,-1 -1.41,-1.0695 -2.41,-2.4028 -3,-4 5.168,0.6634 6.168,2.9967 3,7 -0.543,0.06 -0.876,0.3933 -1,1 1.896,0.9656 3.896,1.2989 6,1 1.452,0.8019 3.118,1.3019 5,1.5 -6.112,0.4848 -12.112,-0.0152 -18,-1.5 0,-3.3333 0,-6.6667 0,-10 1,0 2,0 3,0 z"
       id="path30" />
  </g>
  <g
     id="g31"
     transform="translate(-24.506514,-5.5)">
    <path
       style="opacity:1"
       fill="#f0f1f1"
       d="m 217.5,46.5 c 0.333,0 0.667,0 1,0 0.59,1.5972 1.59,2.9305 3,4 -0.333,0.3333 -0.667,0.6667 -1,1 -1.909,-0.8482 -3.909,-1.1816 -6,-1 0,-1.3333 0,-2.6667 0,-4 1,0 2,0 3,0 z"
       id="path31" />
  </g>
  <g
     id="g32"
     transform="translate(-24.506514,-5.5)">
    <path
       style="opacity:1"
       fill="#29263f"
       d="m 165.5,42.5 c 5.938,2.2015 11.938,4.2015 18,6 3.005,1.7766 6.338,2.7766 10,3 3.179,1.2934 6.512,1.9601 10,2 0.709,0.904 1.709,1.2373 3,1 2.107,0.9682 4.441,1.3016 7,1 5.888,1.4848 11.888,1.9848 18,1.5 -1.882,-0.1981 -3.548,-0.6981 -5,-1.5 4.311,-0.964 7.311,0.536 9,4.5 1.634,0.4935 3.301,0.6602 5,0.5 0.149,1.052 -0.017,2.052 -0.5,3 -1.892,0.63 -3.559,1.63 -5,3 -0.186,2.5356 -0.686,4.869 -1.5,7 -0.333,0 -0.667,0 -1,0 -0.923,0.8029 -1.923,0.9696 -3,0.5 -0.59,-1.5095 -1.256,-3.0095 -2,-4.5 -0.667,1 -1.333,2 -2,3 -0.989,-4.4095 -3.489,-5.7429 -7.5,-4 -1,-2 -2,-4 -3,-6 -0.49,1.2932 -0.657,2.6266 -0.5,4 -3.102,-1.5548 -7.102,-2.5548 -12,-3 -0.308,-0.8081 -0.808,-1.4747 -1.5,-2 -1.333,1.3333 -2.667,1.3333 -4,0 -0.333,0.6667 -0.667,1.3333 -1,2 -3.893,-2.2375 -7.226,-1.9042 -10,1 -0.333,-1.5468 0.167,-2.8801 1.5,-4 -1.236,-0.8567 -2.569,-1.5234 -4,-2 -1.932,1.0202 -3.932,1.1869 -6,0.5 0.78,-1.073 0.613,-2.2396 -0.5,-3.5 -2.518,-1.2914 -4.851,-0.9581 -7,1 -5.005,-2.2788 -9.671,-1.6121 -14,2 -1.371,-1.0812 -2.871,-1.9145 -4.5,-2.5 -0.752,-0.6708 -1.086,-1.5041 -1,-2.5 2.604,-0.9488 4.937,-1.7821 7,-2.5 -0.354,-1.6255 -0.354,-3.4588 0,-5.5 2.381,-0.9196 4.714,-0.9196 7,0 0.886,-0.825 1.219,-1.825 1,-3 z"
       id="path32" />
  </g>
  <g
     id="g33"
     transform="translate(-24.506514,-5.5)">
    <path
       style="opacity:1"
       fill="#6b6b76"
       d="m 209.5,41.5 c 2.375,1.4017 4.709,2.735 7,4 -1,0 -2,0 -3,0 0,3.3333 0,6.6667 0,10 -2.559,0.3016 -4.893,-0.0318 -7,-1 1.667,0 3.333,0 5,0 -0.351,-3.4032 -1.018,-6.7365 -2,-10 0,-1 0,-2 0,-3 z"
       id="path33" />
  </g>
  <g
     id="g34"
     transform="translate(-24.506514,-5.5)">
    <path
       style="opacity:1"
       fill="#59585c"
       d="m 135.5,48.5 c -9.875,3.3464 -19.542,7.1797 -29,11.5 -8.9624,2.0173 -17.9624,3.5173 -27,4.5 -8.0208,-0.0575 -16.0208,0.2758 -24,1 1.0676,-0.9345 2.401,-1.2678 4,-1 0,-1 0,-2 0,-3 -1.8904,0.2035 -3.3904,-0.4632 -4.5,-2 -1.6579,1.8229 -3.4912,3.4895 -5.5,5 -1.207,-2.0411 -2.8737,-3.3745 -5,-4 2.2957,-0.3041 2.629,-1.3041 1,-3 0.904,-0.709 1.2373,-1.709 1,-3 16.0328,0.3453 32.0328,-0.1547 48,-1.5 -7.1787,-0.1715 -14.1787,-0.6715 -21,-1.5 9,0 18,0 27,0 -1.6209,1.6172 -3.6209,2.7838 -6,3.5 -7.0514,0.2113 -14.0514,0.878 -21,2 14.2791,1.3822 28.279,0.0489 42,-4 1.728,-1.7255 3.728,-3.0589 6,-4 3.332,-0.2488 6.499,-1.0821 9.5,-2.5 1.728,0.399 3.228,1.0657 4.5,2 z"
       id="path34" />
  </g>
  <g
     id="g35"
     transform="translate(-24.506514,-5.5)">
    <path
       style="opacity:1"
       fill="#514d52"
       d="m 267.5,59.5 c -0.017,2.0648 -0.35,4.0648 -1,6 -1.446,2.7542 -2.446,5.7542 -3,9 -0.617,0.1107 -1.117,0.444 -1.5,1 -3.979,-4.1145 -5.479,-9.1145 -4.5,-15 -2,0.3333 -4,0.6667 -6,1 -0.616,9.3376 -1.282,18.6709 -2,28 -4.744,-0.4616 -5.744,1.0384 -3,4.5 -0.671,0.9862 -0.671,2.1529 0,3.5 -3.775,1.607 -6.108,0.2737 -7,-4 -1.506,-1.2472 -3.006,-1.2472 -4.5,0 0.379,-1.575 0.212,-3.075 -0.5,-4.5 0.626,-0.7504 1.126,-1.5838 1.5,-2.5 0.249,1.124 0.749,2.124 1.5,3 0.333,-0.1667 0.667,-0.3333 1,-0.5 0.603,-1.8254 1.27,-3.6587 2,-5.5 0.978,0.4767 1.811,1.1433 2.5,2 1.458,-2.5319 2.458,-4.8652 3,-7 0.853,1.6247 1.853,1.9581 3,1 -0.053,-6.6497 -0.22,-13.3164 -0.5,-20 1.632,-1.4084 3.298,-2.9084 5,-4.5 4.84,0.0036 9.34,-1.163 13.5,-3.5 -0.257,2.8429 -0.09,5.5095 0.5,8 z"
       id="path35" />
  </g>
  <g
     id="g36"
     transform="translate(-24.506514,-5.5)">
    <path
       style="opacity:1"
       fill="#a19a95"
       d="m 26.5,54.5 c 1.5719,2.7154 2.5719,5.7154 3,9 0,0.6667 0,1.3333 0,2 -1,-2 -2,-4 -3,-6 0,-1.6667 0,-3.3333 0,-5 z"
       id="path36" />
  </g>
  <g
     id="g37"
     transform="translate(-24.506514,-5.5)">
    <path
       style="opacity:1"
       fill="#332f4b"
       d="m 147.5,51.5 c 1,0.6667 2,1.3333 3,2 -0.086,0.9959 0.248,1.8292 1,2.5 1.629,0.5855 3.129,1.4188 4.5,2.5 4.329,-3.6121 8.995,-4.2788 14,-2 2.149,-1.9581 4.482,-2.2914 7,-1 1.113,1.2604 1.28,2.427 0.5,3.5 2.068,0.6869 4.068,0.5202 6,-0.5 1.431,0.4766 2.764,1.1433 4,2 -1.333,1.1199 -1.833,2.4532 -1.5,4 2.774,-2.9042 6.107,-3.2375 10,-1 0.333,-0.6667 0.667,-1.3333 1,-2 1.333,1.3333 2.667,1.3333 4,0 0.692,0.5253 1.192,1.1919 1.5,2 4.898,0.4452 8.898,1.4452 12,3 -0.157,-1.3734 0.01,-2.7068 0.5,-4 1,2 2,4 3,6 4.011,-1.7429 6.511,-0.4095 7.5,4 0.667,-1 1.333,-2 2,-3 0.744,1.4905 1.41,2.9905 2,4.5 1.077,0.4696 2.077,0.3029 3,-0.5 0.324,4.0546 -0.009,8.0546 -1,12 -1.667,-0.6667 -3.333,-1.3333 -5,-2 -1.181,1.6353 -1.181,3.302 0,5 -0.5,0.3333 -1,0.6667 -1.5,1 -1.543,-2.3637 -3.543,-5.0304 -6,-8 -3.18,1.231 -6.347,1.231 -9.5,0 -0.882,-1.2598 -1.882,-2.4264 -3,-3.5 -1.244,-0.4561 -2.077,0.0439 -2.5,1.5 -0.722,-3.3815 -2.555,-4.3815 -5.5,-3 -1.196,-0.3457 -1.196,-0.8457 0,-1.5 -2.262,-0.6419 -4.429,-1.4752 -6.5,-2.5 -1.418,1.8632 -3.251,2.3632 -5.5,1.5 1.456,-0.4226 1.956,-1.2559 1.5,-2.5 -0.971,0.6984 -2.137,0.6984 -3.5,0 -1.172,0.4186 -2.172,1.0853 -3,2 -0.781,-1.2287 -1.281,-2.562 -1.5,-4 -1.067,0.6905 -2.234,1.1905 -3.5,1.5 1.172,0.4186 2.172,1.0853 3,2 -1.435,-0.3112 -2.768,-0.1445 -4,0.5 -1.09,-0.8914 -1.09,-1.8914 0,-3 -1.693,-0.7283 -3.193,-1.7283 -4.5,-3 -0.419,1.1721 -1.085,2.1721 -2,3 -0.741,-1.1405 -1.575,-1.1405 -2.5,0 -0.667,-1.3333 -1.333,-2.6667 -2,-4 -0.98,1.4814 -2.147,2.8147 -3.5,4 -0.667,-0.6667 -1.333,-1.3333 -2,-2 -2.051,3.855 -0.885,6.6883 3.5,8.5 -0.69,2.696 -2.19,4.8626 -4.5,6.5 0.077,-1.2376 -0.089,-2.2376 -0.5,-3 -1.22,0.3869 -1.887,1.2202 -2,2.5 1.195,1.5325 1.195,3.0325 0,4.5 0.525,0.6924 1.192,1.1924 2,1.5 -0.808,0.3076 -1.475,0.8076 -2,1.5 1.112,0.7652 1.779,1.7652 2,3 -1.517,2.4358 -1.184,4.6024 1,6.5 -0.399,2.602 -0.399,5.102 0,7.5 -2.448,2.426 -2.448,4.926 0,7.5 -2.667,1 -2.667,2 0,3 -1.333,1.637 -2.666,2.471 -4,2.5 1.516,1.891 2.85,3.891 4,6 -0.881,1.471 -2.214,2.304 -4,2.5 4,0.667 4,1.333 0,2 0.638,1.707 0.638,3.54 0,5.5 -0.996,0.086 -1.829,-0.248 -2.5,-1 -0.985,1.675 -1.819,3.342 -2.5,5 0.166,-9.339 0,-18.673 -0.5,-28 -0.169,12.84 -0.669,25.507 -1.5,38 0,-33 0,-66 0,-99 z"
       id="path37" />
  </g>
  <g
     id="g38"
     transform="translate(-24.506514,-5.5)">
    <path
       style="opacity:1"
       fill="#dcdcdd"
       d="m 79.5,64.5 c -4.8165,0.8261 -9.8165,1.3261 -15,1.5 -1.2014,0.9025 -2.0348,2.0692 -2.5,3.5 -0.3173,-1.8008 -0.984,-2.1341 -2,-1 -0.7096,-1.4733 -1.8762,-2.1399 -3.5,-2 0,1 0,2 0,3 -0.9345,-1.0676 -1.2678,-2.401 -1,-4 7.9792,-0.7242 15.9792,-1.0575 24,-1 z"
       id="path38" />
  </g>
  <g
     id="g39"
     transform="translate(-24.506514,-5.5)">
    <path
       style="opacity:1"
       fill="#35354f"
       d="m 232.5,73.5 c 0.333,0 0.667,0 1,0 0,1.6667 0,3.3333 0,5 -1.857,17.6289 -3.857,35.296 -6,53 -0.603,1.69 -1.603,3.19 -3,4.5 0.503,3.817 0.837,7.65 1,11.5 -1.507,3.855 -2.174,3.521 -2,-1 -4.084,0.555 -4.751,-0.445 -2,-3 -1.506,-1.247 -3.006,-1.247 -4.5,0 -0.5,-1.167 -1.333,-2 -2.5,-2.5 0.667,-0.333 1.333,-0.667 2,-1 -3.373,-0.548 -6.373,-1.882 -9,-4 1.176,-1.914 2.176,-1.748 3,0.5 1.131,-1.574 1.298,-3.241 0.5,-5 -2.897,1.554 -5.397,1.054 -7.5,-1.5 1.667,-1 3.333,-2 5,-3 -1.736,-1.939 -2.736,-4.272 -3,-7 0.145,-0.772 0.478,-1.439 1,-2 -3.232,-2.937 -3.232,-5.437 0,-7.5 2.237,-2.802 2.237,-5.469 0,-8 -3.549,2.905 -5.049,2.239 -4.5,-2 -0.718,0.951 -1.551,1.117 -2.5,0.5 1.38,-1.9252 2.88,-3.7585 4.5,-5.5 0.617,-0.9491 0.451,-1.7825 -0.5,-2.5 -2.558,-0.2753 -4.892,0.2247 -7,1.5 -1.574,-1.6016 -2.241,-3.6016 -2,-6 3.919,0.7536 5.253,-0.5797 4,-4 -1.333,1 -2.667,2 -4,3 -2.446,-2.6415 -4.446,-4.9748 -6,-7 -1.873,-0.0177 -2.206,0.4823 -1,1.5 -1.318,0.6942 -2.151,1.5275 -2.5,2.5 -1.826,-0.5104 -1.993,-1.3438 -0.5,-2.5 -1.431,-0.4652 -2.597,-1.2986 -3.5,-2.5 -0.333,1.3333 -0.667,2.6667 -1,4 -0.249,-1.124 -0.749,-2.124 -1.5,-3 -1.206,2.529 -1.873,4.8623 -2,7 -1.345,-0.8467 -2.345,-2.0134 -3,-3.5 -1,-0.3333 -2,-0.6667 -3,-1 1.658,-0.7253 2.158,-1.892 1.5,-3.5 -0.667,1.3333 -1.333,1.3333 -2,0 -0.925,0.5465 -1.758,1.2132 -2.5,2 0.667,0.3333 1.333,0.6667 2,1 -1.151,1.231 -2.317,1.231 -3.5,0 -0.617,0.9491 -0.451,1.7825 0.5,2.5 -1.284,0.6838 -2.451,0.5171 -3.5,-0.5 -1.324,1.3802 -2.657,1.7135 -4,1 -0.183,2.8647 -0.683,5.5314 -1.5,8 -0.221,-1.2348 -0.888,-2.2348 -2,-3 0.525,-0.6924 1.192,-1.1924 2,-1.5 -0.808,-0.3076 -1.475,-0.8076 -2,-1.5 1.195,-1.4675 1.195,-2.9675 0,-4.5 0.113,-1.2798 0.78,-2.1131 2,-2.5 0.411,0.7624 0.577,1.7624 0.5,3 2.31,-1.6374 3.81,-3.804 4.5,-6.5 -4.385,-1.8117 -5.551,-4.645 -3.5,-8.5 0.667,0.6667 1.333,1.3333 2,2 1.353,-1.1853 2.52,-2.5186 3.5,-4 0.667,1.3333 1.333,2.6667 2,4 0.925,-1.1405 1.759,-1.1405 2.5,0 0.915,-0.8279 1.581,-1.8279 2,-3 1.307,1.2717 2.807,2.2717 4.5,3 -1.09,1.1086 -1.09,2.1086 0,3 1.232,-0.6445 2.565,-0.8112 4,-0.5 -0.828,-0.9147 -1.828,-1.5814 -3,-2 1.266,-0.3095 2.433,-0.8095 3.5,-1.5 0.219,1.438 0.719,2.7713 1.5,4 0.828,-0.9147 1.828,-1.5814 3,-2 1.363,0.6984 2.529,0.6984 3.5,0 0.456,1.2441 -0.044,2.0774 -1.5,2.5 2.249,0.8632 4.082,0.3632 5.5,-1.5 2.071,1.0248 4.238,1.8581 6.5,2.5 -1.196,0.6543 -1.196,1.1543 0,1.5 2.945,-1.3815 4.778,-0.3815 5.5,3 0.423,-1.4561 1.256,-1.9561 2.5,-1.5 1.118,1.0736 2.118,2.2402 3,3.5 3.153,1.231 6.32,1.231 9.5,0 2.457,2.9696 4.457,5.6363 6,8 0.5,-0.3333 1,-0.6667 1.5,-1 -1.181,-1.698 -1.181,-3.3647 0,-5 1.667,0.6667 3.333,1.3333 5,2 0.991,-3.9454 1.324,-7.9454 1,-12 z"
       id="path39" />
  </g>
  <g
     id="g41"
     transform="translate(-24.506514,-5.5)">
    <path
       style="opacity:1"
       fill="#666364"
       d="m 38.5,93.5 c -1.929,-9.3938 -4.929,-18.3938 -9,-27 0,-0.3333 0,-0.6667 0,-1 0,-0.6667 0,-1.3333 0,-2 0.897,1.0981 1.7303,1.0981 2.5,0 0.4541,-2.2706 1.1207,-4.6039 2,-7 1.6078,3.272 3.6078,6.272 6,9 0.5984,3.2095 -0.235,6.0428 -2.5,8.5 -0.2818,6.4653 0.0516,12.9653 1,19.5 z"
       id="path41" />
  </g>
  <g
     id="g42"
     transform="translate(-24.506514,-5.5)">
    <path
       style="opacity:1"
       fill="#cac2ba"
       d="m 266.5,65.5 c 0.107,6.6647 -1.559,12.6647 -5,18 0.256,-3.0979 0.922,-6.0979 2,-9 0.554,-3.2458 1.554,-6.2458 3,-9 z"
       id="path42" />
  </g>
  <g
     id="g43"
     transform="translate(-24.506514,-5.5)">
    <path
       style="opacity:1"
       fill="#383755"
       d="m 196.5,94.5 c 1.372,1.8495 0.872,3.1828 -1.5,4 -0.5,-0.5 -1,-1 -1.5,-1.5 -2.157,-0.0781 -4.157,-0.2448 -6,-0.5 -1,1 -2,2 -3,3 0.209,0.586 0.543,1.086 1,1.5 -1.431,0.465 -2.597,1.299 -3.5,2.5 -0.333,-0.333 -0.667,-0.667 -1,-1 -0.591,0.983 -0.257,1.65 1,2 2.441,0.144 4.941,0.144 7.5,0 2.648,1.757 2.314,3.09 -1,4 -0.951,-0.826 -1.951,-0.992 -3,-0.5 3.811,2.753 3.145,3.753 -2,3 0.333,-0.333 0.667,-0.667 1,-1 -2.805,-3.502 -5.305,-3.335 -7.5,0.5 -0.333,-0.333 -0.667,-0.667 -1,-1 -0.667,1.333 -0.667,2.667 0,4 1.814,-1.26 3.647,-1.26 5.5,0 -0.535,1.771 -1.369,2.104 -2.5,1 -0.333,1.333 -0.667,2.667 -1,4 -2.313,-1.537 -4.813,-2.037 -7.5,-1.5 0.828,0.915 1.828,1.581 3,2 -0.928,0.388 -1.595,1.055 -2,2 0.392,1.011 1.059,1.511 2,1.5 -0.535,1.771 -1.369,2.104 -2.5,1 -0.617,0.949 -0.451,1.782 0.5,2.5 -1.201,0.903 -2.035,2.069 -2.5,3.5 -0.547,-5.234 -1.38,-5.234 -2.5,0 5.058,2.005 9.058,5.172 12,9.5 -1.658,0.725 -2.158,1.892 -1.5,3.5 2.316,-3.626 4.983,-6.959 8,-10 2.683,1.175 5.017,2.842 7,5 1.073,-0.78 2.24,-0.613 3.5,0.5 -2.658,0.886 -5.658,1.886 -9,3 2.426,-0.048 4.759,0.119 7,0.5 1.348,-1.961 2.681,-2.128 4,-0.5 -2.145,0.743 -2.311,1.576 -0.5,2.5 1.091,-1.846 2.424,-2.513 4,-2 2.507,3.81 5.84,5.476 10,5 0.945,0.405 1.612,1.072 2,2 3.385,-2.609 6.551,-2.275 9.5,1 -1.578,0.798 -3.244,1.298 -5,1.5 -0.561,1.566 0.106,2.899 2,4 -22.664,0.5 -45.331,0.667 -68,0.5 -0.333,0 -0.667,0 -1,0 -0.333,0 -0.667,0 -1,0 20.504,-0.667 41.171,-1.333 62,-2 -3.215,-0.948 -3.548,-2.281 -1,-4 -1.276,-1.145 -2.609,-1.145 -4,0 -1.771,-0.535 -2.104,-1.369 -1,-2.5 -3.509,0.021 -6.675,-0.812 -9.5,-2.5 -0.739,1.074 -1.739,1.741 -3,2 -2.526,-0.13 -5.193,-0.797 -8,-2 -2.169,-0.211 -4.503,0.122 -7,1 -2.584,-2.404 -5.251,-2.404 -8,0 -3.022,-1.505 -6.022,-2.172 -9,-2 -2.222,1.778 -4.388,1.945 -6.5,0.5 0.333,-0.333 0.667,-0.667 1,-1 -2.936,-2.187 -3.269,-4.353 -1,-6.5 0.638,-1.96 0.638,-3.793 0,-5.5 4,-0.667 4,-1.333 0,-2 1.786,-0.196 3.119,-1.029 4,-2.5 -1.15,-2.109 -2.484,-4.109 -4,-6 1.334,-0.029 2.667,-0.863 4,-2.5 -2.667,-1 -2.667,-2 0,-3 -2.448,-2.574 -2.448,-5.074 0,-7.5 -0.399,-2.398 -0.399,-4.898 0,-7.5 -2.184,-1.8976 -2.517,-4.0642 -1,-6.5 0.817,-2.4686 1.317,-5.1353 1.5,-8 1.343,0.7135 2.676,0.3802 4,-1 1.049,1.0171 2.216,1.1838 3.5,0.5 -0.951,-0.7175 -1.117,-1.5509 -0.5,-2.5 1.183,1.231 2.349,1.231 3.5,0 -0.667,-0.3333 -1.333,-0.6667 -2,-1 0.742,-0.7868 1.575,-1.4535 2.5,-2 0.667,1.3333 1.333,1.3333 2,0 0.658,1.608 0.158,2.7747 -1.5,3.5 1,0.3333 2,0.6667 3,1 0.655,1.4866 1.655,2.6533 3,3.5 0.127,-2.1377 0.794,-4.471 2,-7 0.751,0.876 1.251,1.876 1.5,3 0.333,-1.3333 0.667,-2.6667 1,-4 0.903,1.2014 2.069,2.0348 3.5,2.5 -1.493,1.1562 -1.326,1.9896 0.5,2.5 0.349,-0.9725 1.182,-1.8058 2.5,-2.5 -1.206,-1.0177 -0.873,-1.5177 1,-1.5 1.554,2.0252 3.554,4.3585 6,7 1.333,-1 2.667,-2 4,-3 1.253,3.4203 -0.081,4.7536 -4,4 -0.241,2.3984 0.426,4.3984 2,6 z"
       id="path43" />
  </g>
  <g
     id="g44"
     transform="translate(-24.506514,-5.5)">
    <path
       style="opacity:1"
       fill="#504f55"
       d="m 25.5,44.5 c 1,0 2,0 3,0 -0.2852,1.788 0.0481,3.4547 1,5 3.9165,2.2461 6.2499,5.5794 7,10 1.3221,-0.17 2.4887,0.1634 3.5,1 -0.1349,-1.9247 -0.3016,-3.9247 -0.5,-6 1.6563,1.9602 3.323,3.9602 5,6 2.1263,0.6255 3.793,1.9589 5,4 2.0088,-1.5105 3.8421,-3.1771 5.5,-5 1.1096,1.5368 2.6096,2.2035 4.5,2 0,1 0,2 0,3 -1.599,-0.2678 -2.9324,0.0655 -4,1 -0.2678,1.599 0.0655,2.9324 1,4 0.9767,2.7869 1.31,5.7869 1,9 1.4327,6.0811 1.0994,12.0811 -1,18 -1.2362,-0.7458 -2.5695,-1.0792 -4,-1 -0.7269,3.7243 0.6064,6.391 4,8 1.8648,10.303 2.1982,20.636 1,31 -0.8302,9.825 -1.3302,19.825 -1.5,30 -0.6667,-2.667 -1.3333,-5.333 -2,-8 -0.1204,-13.72 0.0463,-27.387 0.5,-41 -1,0 -2,0 -3,0 -0.179,-2.106 -1.179,-3.772 -3,-5 -1.2164,-0.502 -2.3831,-0.835 -3.5,-1 -0.1816,-2.726 -0.6816,-5.393 -1.5,-8 -1.6701,-2.6985 -3.3368,-5.3652 -5,-8 -0.9484,-6.5347 -1.2818,-13.0347 -1,-19.5 2.265,-2.4572 3.0984,-5.2905 2.5,-8.5 -2.3922,-2.728 -4.3922,-5.728 -6,-9 -0.8793,2.3961 -1.5459,4.7294 -2,7 -0.7697,1.0981 -1.603,1.0981 -2.5,0 -0.4281,-3.2846 -1.4281,-6.2846 -3,-9 -0.5508,-3.3067 -0.8841,-6.6401 -1,-10 z"
       id="path44" />
  </g>
  <g
     id="g46"
     transform="translate(-24.506514,-5.5)">
    <path
       style="opacity:1"
       fill="#b6afa5"
       d="m 29.5,66.5 c 4.071,8.6062 7.071,17.6062 9,27 1.3878,6.94 2.3878,13.94 3,21 0.6939,11.654 1.0272,23.32 1,35 -0.8382,-0.342 -1.1716,-1.008 -1,-2 -0.39,-14.694 -1.2233,-29.361 -2.5,-44 -1.5366,-7.3068 -3.7033,-14.3068 -6.5,-21 -1.231,-5.1623 -2.231,-10.4957 -3,-16 z"
       id="path46" />
  </g>
  <g
     id="g47"
     transform="translate(-24.506514,-5.5)">
    <path
       style="opacity:1"
       fill="#4a4a54"
       d="m 248.5,59.5 c 0.28,6.6836 0.447,13.3503 0.5,20 -1.147,0.9581 -2.147,0.6247 -3,-1 -0.542,2.1348 -1.542,4.4681 -3,7 -0.689,-0.8567 -1.522,-1.5233 -2.5,-2 -0.73,1.8413 -1.397,3.6746 -2,5.5 -0.333,0.1667 -0.667,0.3333 -1,0.5 -0.751,-0.876 -1.251,-1.876 -1.5,-3 -0.374,0.9162 -0.874,1.7496 -1.5,2.5 0.712,1.425 0.879,2.925 0.5,4.5 1.494,-1.2472 2.994,-1.2472 4.5,0 0.892,4.2737 3.225,5.607 7,4 -3.501,2.0057 -5.667,5.006 -6.5,9 -1.153,-3.211 -1.82,-6.5445 -2,-10 -1.016,1.1341 -1.683,0.8008 -2,-1 -1.54,2.1431 -1.706,4.3098 -0.5,6.5 -0.223,3.773 -1.223,7.273 -3,10.5 2.528,1.017 2.528,2.184 0,3.5 -0.012,4.031 -0.012,8.031 0,12 -0.463,2.389 -1.13,4.723 -2,7 0.235,0.873 0.569,1.707 1,2.5 -2.86,5.006 -2.194,9.506 2,13.5 -1.939,1.432 -3.272,3.265 -4,5.5 -1.528,0.809 -3.194,1.476 -5,2 0,-0.667 -0.333,-1 -1,-1 -0.992,0.172 -1.658,-0.162 -2,-1 1.333,0 2.667,0 4,0 0.708,-8.327 1.375,-16.66 2,-25 2.143,-17.704 4.143,-35.3711 6,-53 1.101,-1.3484 2.101,-2.8484 3,-4.5 1.325,0.1484 2.492,-0.0183 3.5,-0.5 0.635,-1.4663 1.469,-2.7997 2.5,-4 -0.333,-0.6667 -0.667,-1.3333 -1,-2 2.415,-2.738 4.748,-5.4047 7,-8 z"
       id="path47" />
  </g>
  <g
     id="g48"
     transform="translate(-24.506514,-5.5)">
    <path
       style="opacity:1"
       fill="#d2c7bd"
       d="m 261.5,84.5 c -0.125,6.5978 -1.125,12.9312 -3,19 -0.033,-4.3689 0.3,-8.7022 1,-13 0.375,-2.1976 1.042,-4.1976 2,-6 z"
       id="path48" />
  </g>
  <g
     id="g49"
     transform="translate(-24.506514,-5.5)">
    <path
       style="opacity:1"
       fill="#3a3b55"
       d="m 227.5,131.5 c -0.625,8.34 -1.292,16.673 -2,25 -1.333,0 -2.667,0 -4,0 -23.506,0.331 -46.839,-0.002 -70,-1 22.669,0.167 45.336,0 68,-0.5 -1.894,-1.101 -2.561,-2.434 -2,-4 1.756,-0.202 3.422,-0.702 5,-1.5 -2.949,-3.275 -6.115,-3.609 -9.5,-1 -0.388,-0.928 -1.055,-1.595 -2,-2 -4.16,0.476 -7.493,-1.19 -10,-5 -1.576,-0.513 -2.909,0.154 -4,2 -1.811,-0.924 -1.645,-1.757 0.5,-2.5 -1.319,-1.628 -2.652,-1.461 -4,0.5 -2.241,-0.381 -4.574,-0.548 -7,-0.5 3.342,-1.114 6.342,-2.114 9,-3 -1.26,-1.113 -2.427,-1.28 -3.5,-0.5 -1.983,-2.158 -4.317,-3.825 -7,-5 -3.017,3.041 -5.684,6.374 -8,10 -0.658,-1.608 -0.158,-2.775 1.5,-3.5 -2.942,-4.328 -6.942,-7.495 -12,-9.5 1.12,-5.234 1.953,-5.234 2.5,0 0.465,-1.431 1.299,-2.597 2.5,-3.5 -0.951,-0.718 -1.117,-1.551 -0.5,-2.5 1.131,1.104 1.965,0.771 2.5,-1 -0.941,0.011 -1.608,-0.489 -2,-1.5 0.405,-0.945 1.072,-1.612 2,-2 -1.172,-0.419 -2.172,-1.085 -3,-2 2.687,-0.537 5.187,-0.037 7.5,1.5 0.333,-1.333 0.667,-2.667 1,-4 1.131,1.104 1.965,0.771 2.5,-1 -1.853,-1.26 -3.686,-1.26 -5.5,0 -0.667,-1.333 -0.667,-2.667 0,-4 0.333,0.333 0.667,0.667 1,1 2.195,-3.835 4.695,-4.002 7.5,-0.5 -0.333,0.333 -0.667,0.667 -1,1 5.145,0.753 5.811,-0.247 2,-3 1.049,-0.492 2.049,-0.326 3,0.5 3.314,-0.91 3.648,-2.243 1,-4 -2.559,0.144 -5.059,0.144 -7.5,0 -1.257,-0.35 -1.591,-1.017 -1,-2 0.333,0.333 0.667,0.667 1,1 0.903,-1.201 2.069,-2.035 3.5,-2.5 -0.457,-0.414 -0.791,-0.914 -1,-1.5 1,-1 2,-2 3,-3 1.843,0.2552 3.843,0.4219 6,0.5 0.5,0.5 1,1 1.5,1.5 2.372,-0.8172 2.872,-2.1505 1.5,-4 2.108,-1.2753 4.442,-1.7753 7,-1.5 0.951,0.7175 1.117,1.5509 0.5,2.5 -1.62,1.7415 -3.12,3.5748 -4.5,5.5 0.949,0.617 1.782,0.451 2.5,-0.5 -0.549,4.239 0.951,4.905 4.5,2 2.237,2.531 2.237,5.198 0,8 -3.232,2.063 -3.232,4.563 0,7.5 -0.522,0.561 -0.855,1.228 -1,2 0.264,2.728 1.264,5.061 3,7 -1.667,1 -3.333,2 -5,3 2.103,2.554 4.603,3.054 7.5,1.5 0.798,1.759 0.631,3.426 -0.5,5 -0.824,-2.248 -1.824,-2.414 -3,-0.5 2.627,2.118 5.627,3.452 9,4 -0.667,0.333 -1.333,0.667 -2,1 1.167,0.5 2,1.333 2.5,2.5 1.494,-1.247 2.994,-1.247 4.5,0 -2.751,2.555 -2.084,3.555 2,3 -0.174,4.521 0.493,4.855 2,1 -0.163,-3.85 -0.497,-7.683 -1,-11.5 1.397,-1.31 2.397,-2.81 3,-4.5 z"
       id="path49" />
  </g>
  <g
     id="g50"
     transform="translate(-24.506514,-5.5)">
    <path
       style="opacity:1"
       fill="#56555e"
       d="m 263.5,74.5 c -1.078,2.9021 -1.744,5.9021 -2,9 0,0.3333 0,0.6667 0,1 -0.958,1.8024 -1.625,3.8024 -2,6 -0.845,1.1715 -1.511,2.5048 -2,4 -2.892,1.7319 -4.892,4.2319 -6,7.5 0.333,0.333 0.667,0.667 1,1 -1.803,1.262 -3.136,2.929 -4,5 0.333,0.333 0.667,0.667 1,1 -2.021,0.513 -3.521,1.68 -4.5,3.5 -1.963,4.851 -3.463,9.851 -4.5,15 -1.91,2.894 -3.91,5.728 -6,8.5 -0.982,6.136 -0.982,12.636 0,19.5 0,0.667 -0.333,1 -1,1 -1.333,0 -2.667,0 -4,0 0.728,-2.235 2.061,-4.068 4,-5.5 -4.194,-3.994 -4.86,-8.494 -2,-13.5 -0.431,-0.793 -0.765,-1.627 -1,-2.5 0.87,-2.277 1.537,-4.611 2,-7 -0.012,-3.969 -0.012,-7.969 0,-12 2.528,-1.316 2.528,-2.483 0,-3.5 1.777,-3.227 2.777,-6.727 3,-10.5 -1.206,-2.1902 -1.04,-4.3569 0.5,-6.5 0.317,1.8008 0.984,2.1341 2,1 0.18,3.4555 0.847,6.789 2,10 0.833,-3.994 2.999,-6.9943 6.5,-9 -0.671,-1.3471 -0.671,-2.5138 0,-3.5 -2.744,-3.4616 -1.744,-4.9616 3,-4.5 0.718,-9.3291 1.384,-18.6624 2,-28 2,-0.3333 4,-0.6667 6,-1 -0.979,5.8855 0.521,10.8855 4.5,15 0.383,-0.556 0.883,-0.8893 1.5,-1 z"
       id="path50" />
  </g>
  <g
     id="g51"
     transform="translate(-24.506514,-5.5)">
    <path
       style="opacity:1"
       fill="#67676d"
       d="m 57.5,78.5 c 2.4842,1.6198 3.9842,3.9531 4.5,7 1.858,13.3146 3.0246,26.648 3.5,40 0.2399,3.079 -0.0934,6.079 -1,9 -1.896,0.966 -3.896,1.299 -6,1 0.3016,2.559 -0.0318,4.893 -1,7 0,-2.667 0,-5.333 0,-8 1.1982,-10.364 0.8648,-20.697 -1,-31 -3.3936,-1.609 -4.7269,-4.2757 -4,-8 1.4305,-0.0792 2.7638,0.2542 4,1 2.0994,-5.9189 2.4327,-11.9189 1,-18 z"
       id="path51" />
  </g>
  <g
     id="g52"
     transform="translate(-24.506514,-5.5)">
    <path
       style="opacity:1"
       fill="#605f65"
       d="m 257.5,94.5 c -2.217,3.1621 -3.383,6.829 -3.5,11 -3.232,3.798 -5.399,8.131 -6.5,13 -2.959,4.865 -4.959,10.199 -6,16 -1.447,4.33 -3.114,8.663 -5,13 -0.667,2.667 -1.333,5.333 -2,8 -0.982,-6.864 -0.982,-13.364 0,-19.5 2.09,-2.772 4.09,-5.606 6,-8.5 1.037,-5.149 2.537,-10.149 4.5,-15 0.979,-1.82 2.479,-2.987 4.5,-3.5 -0.333,-0.333 -0.667,-0.667 -1,-1 0.864,-2.071 2.197,-3.738 4,-5 -0.333,-0.333 -0.667,-0.667 -1,-1 1.108,-3.2681 3.108,-5.7681 6,-7.5 z"
       id="path52" />
  </g>
  <g
     id="g54"
     transform="translate(-24.506514,-5.5)">
    <path
       style="opacity:1"
       fill="#362047"
       d="m 149.5,140.5 c 0.163,5.047 -0.171,10.047 -1,15 -2.132,-0.054 -3.465,-1.054 -4,-3 0.667,0 1,-0.333 1,-1 0.992,0.172 1.658,-0.162 2,-1 0.831,-12.493 1.331,-25.16 1.5,-38 0.5,9.327 0.666,18.661 0.5,28 z"
       id="path54" />
  </g>
  <g
     id="g57"
     transform="translate(-24.506514,-5.5)">
    <path
       style="opacity:1"
       fill="#e0dce4"
       d="m 146.5,44.5 c 0.968,2.1074 1.302,4.4407 1,7 0,33 0,66 0,99 -0.342,0.838 -1.008,1.172 -2,1 -6.854,0.324 -13.521,-0.009 -20,-1 7,0 14,0 21,0 0,-35.333 0,-70.6667 0,-106 z"
       id="path57" />
  </g>
  <g
     id="g58"
     transform="translate(-24.506514,-5.5)">
    <path
       style="opacity:1"
       fill="#9a9894"
       d="m 250.5,134.5 c 0.343,1.983 -0.324,3.317 -2,4 0.313,-2.747 -0.02,-5.414 -1,-8 -1.236,-0.746 -2.57,-1.079 -4,-1 0.098,2.053 -0.569,3.72 -2,5 1.041,-5.801 3.041,-11.135 6,-16 2.302,-1.36 3.968,-0.693 5,2 -1.316,4.566 -1.983,9.232 -2,14 z"
       id="path58" />
  </g>
  <g
     id="g59"
     transform="translate(-24.506514,-5.5)">
    <path
       style="opacity:1"
       fill="#77777c"
       d="m 65.5,125.5 c 0.8272,5.485 1.3272,11.152 1.5,17 0.7436,2.4 1.5769,4.733 2.5,7 -0.6174,0.111 -1.1174,0.444 -1.5,1 -0.4974,2.646 -0.6641,5.313 -0.5,8 0.0792,9.711 0.7458,19.378 2,29 0,1.667 0,3.333 0,5 -0.7216,-0.418 -1.2216,-1.084 -1.5,-2 -0.7355,-14.39 -1.9022,-28.723 -3.5,-43 -2.2224,0.322 -4.0557,-0.345 -5.5,-2 -0.4997,7.993 -0.6664,15.993 -0.5,24 -0.9933,-8.818 -1.3266,-17.818 -1,-27 0.9682,-2.107 1.3016,-4.441 1,-7 2.104,0.299 4.104,-0.034 6,-1 0.9066,-2.921 1.2399,-5.921 1,-9 z"
       id="path59" />
  </g>
  <g
     id="g60"
     transform="translate(-24.506514,-5.5)">
    <path
       style="opacity:1"
       fill="#716e6a"
       d="m 254.5,134.5 c -0.553,4.982 -0.887,9.982 -1,15 -0.734,7.137 -1.734,14.137 -3,21 -0.667,0.667 -1.333,1.333 -2,2 0.16,-1.699 -0.006,-3.366 -0.5,-5 -0.333,0.333 -0.667,0.667 -1,1 -0.232,-1.237 -0.732,-2.237 -1.5,-3 0.662,-3.966 0.995,-7.966 1,-12 0,-0.667 0,-1.333 0,-2 1.554,-4.067 2.22,-8.4 2,-13 1.676,-0.683 2.343,-2.017 2,-4 1.359,-0.507 2.359,-1.507 3,-3 0.886,0.825 1.219,1.825 1,3 z"
       id="path60" />
  </g>
  <g
     id="g61"
     transform="translate(-24.506514,-5.5)">
    <path
       style="opacity:1"
       fill="#b7b4ad"
       d="m 248.5,138.5 c 0.22,4.6 -0.446,8.933 -2,13 0.228,-1.855 -0.439,-2.688 -2,-2.5 -2.991,2.99 -5.157,6.49 -6.5,10.5 -1.011,0.837 -2.178,1.17 -3.5,1 0.017,2.065 0.35,4.065 1,6 -1.406,-0.473 -2.073,-1.473 -2,-3 -0.333,-1.333 -0.667,-2.667 -1,-4 1.644,0.214 3.144,-0.12 4.5,-1 0.279,-3.67 0.112,-7.337 -0.5,-11 1.886,-4.337 3.553,-8.67 5,-13 1.431,-1.28 2.098,-2.947 2,-5 1.43,-0.079 2.764,0.254 4,1 0.98,2.586 1.313,5.253 1,8 z"
       id="path61" />
  </g>
  <g
     id="g62"
     transform="translate(-24.506514,-5.5)">
    <path
       style="opacity:1"
       fill="#716f6f"
       d="m 43.5,131.5 c 0.9163,2.315 2.2496,4.482 4,6.5 -1.6397,2.776 -0.973,4.776 2,6 -1.3333,1 -1.3333,2 0,3 -1.1872,1.019 -2.1872,2.186 -3,3.5 0.5253,0.692 1.1919,1.192 2,1.5 -0.7598,1.441 -1.4264,2.941 -2,4.5 1.2946,2.866 1.2946,5.699 0,8.5 1.8203,0.979 2.987,2.479 3.5,4.5 0.6667,-0.667 1.3333,-1.333 2,-2 3.5727,9.425 3.0727,18.592 -1.5,27.5 0.4054,0.945 1.072,1.612 2,2 -0.8366,1.011 -1.17,2.178 -1,3.5 -0.3333,0 -0.6667,0 -1,0 -0.6667,-3 -1.3333,-6 -2,-9 0,-3 0,-6 0,-9 1.4305,-0.079 2.7638,0.254 4,1 1.4887,-4.556 -0.178,-7.556 -5,-9 -2.1433,-7.117 -2.4766,-14.283 -1,-21.5 -1.3644,-7.077 -2.3644,-14.244 -3,-21.5 z"
       id="path62" />
  </g>
  <g
     id="g63"
     transform="translate(-24.506514,-5.5)">
    <path
       style="opacity:1"
       fill="#3e3d60"
       d="m 154.5,136.5 c -2.269,2.147 -1.936,4.313 1,6.5 -0.333,0.333 -0.667,0.667 -1,1 2.112,1.445 4.278,1.278 6.5,-0.5 2.978,-0.172 5.978,0.495 9,2 2.749,-2.404 5.416,-2.404 8,0 2.497,-0.878 4.831,-1.211 7,-1 2.807,1.203 5.474,1.87 8,2 1.261,-0.259 2.261,-0.926 3,-2 2.825,1.688 5.991,2.521 9.5,2.5 -1.104,1.131 -0.771,1.965 1,2.5 1.391,-1.145 2.724,-1.145 4,0 -2.548,1.719 -2.215,3.052 1,4 -20.829,0.667 -41.496,1.333 -62,2 -0.333,0 -0.667,0 -1,0 0.829,-4.953 1.163,-9.953 1,-15 0.681,-1.658 1.515,-3.325 2.5,-5 0.671,0.752 1.504,1.086 2.5,1 z"
       id="path63" />
  </g>
  <g
     id="g64"
     transform="translate(-24.506514,-5.5)">
    <path
       style="opacity:1"
       fill="#434070"
       d="m 92.5,150.5 c 11,0 22,0 33,0 6.479,0.991 13.146,1.324 20,1 0,0.667 -0.333,1 -1,1 -3.018,-0.165 -6.018,0.002 -9,0.5 1.333,0.333 2.667,0.667 4,1 -0.667,0.333 -1.333,0.667 -2,1 0.837,1.011 1.17,2.178 1,3.5 -2.824,1.263 -5.657,1.263 -8.5,0 -2.478,0.745 -4.978,1.411 -7.5,2 -5.947,-2.113 -11.781,-2.113 -17.5,0 -3.654,-1.705 -7.4872,-2.705 -11.5,-3 0,-1 0,-2 0,-3 -3.0983,0.087 -3.4316,-0.413 -1,-1.5 -2.3333,-0.333 -4.6667,-0.667 -7,-1 2.5356,-0.186 4.869,-0.686 7,-1.5 z"
       id="path64" />
  </g>
  <g
     id="g65"
     transform="translate(-24.506514,-5.5)">
    <path
       style="opacity:1"
       fill="#3c3862"
       d="m 72.5,149.5 c 6.6802,0.112 13.3469,0.446 20,1 -2.131,0.814 -4.4644,1.314 -7,1.5 2.3333,0.333 4.6667,0.667 7,1 -2.4316,1.087 -2.0983,1.587 1,1.5 0,1 0,2 0,3 4.0128,0.295 7.846,1.295 11.5,3 5.719,-2.113 11.553,-2.113 17.5,0 2.522,-0.589 5.022,-1.255 7.5,-2 2.843,1.263 5.676,1.263 8.5,0 1.322,-0.17 2.489,0.163 3.5,1 0.43,2.883 0.93,5.883 1.5,9 -3.686,-6.401 -8.853,-7.734 -15.5,-4 -2.195,-1.3 -4.528,-2.3 -7,-3 -6.83,0.798 -13.663,1.131 -20.5,1 -4.8372,-2.564 -9.8372,-3.064 -15,-1.5 1.0266,0.513 2.0266,1.013 3,1.5 -2.135,-0.195 -4.4684,0.139 -7,1 -2.4757,-2.03 -5.309,-3.697 -8.5,-5 -0.498,-2.982 -0.6646,-5.982 -0.5,-9 z"
       id="path65" />
  </g>
  <g
     id="g66"
     transform="translate(-24.506514,-5.5)">
    <path
       style="opacity:1"
       fill="#a5a19e"
       d="m 236.5,147.5 c 0.612,3.663 0.779,7.33 0.5,11 -1.356,0.88 -2.856,1.214 -4.5,1 0.057,-1.109 0.39,-2.109 1,-3 0.667,0 1,-0.333 1,-1 0.667,-2.667 1.333,-5.333 2,-8 z"
       id="path66" />
  </g>
  <g
     id="g67"
     transform="translate(-24.506514,-5.5)">
    <path
       style="opacity:1"
       fill="#626164"
       d="m 38.5,93.5 c 1.6632,2.6348 3.3299,5.3015 5,8 0.8184,2.607 1.3184,5.274 1.5,8 1.1169,0.165 2.2836,0.498 3.5,1 1.821,1.228 2.821,2.894 3,5 1,0 2,0 3,0 -0.4537,13.613 -0.6204,27.28 -0.5,41 0.6667,2.667 1.3333,5.333 2,8 0.1698,-10.175 0.6698,-20.175 1.5,-30 0,2.667 0,5.333 0,8 -0.3266,9.182 0.0067,18.182 1,27 -0.2845,1.915 0.0489,3.581 1,5 0.6587,2.955 0.9921,5.955 1,9 -0.8586,-2.712 -2.0252,-5.378 -3.5,-8 -0.4996,6.992 -0.6663,13.992 -0.5,21 -1.5271,1.431 -3.1938,2.765 -5,4 -0.17,-1.322 0.1634,-2.489 1,-3.5 -0.928,-0.388 -1.5946,-1.055 -2,-2 4.5727,-8.908 5.0727,-18.075 1.5,-27.5 -0.6667,0.667 -1.3333,1.333 -2,2 -0.513,-2.021 -1.6797,-3.521 -3.5,-4.5 1.2946,-2.801 1.2946,-5.634 0,-8.5 0.5736,-1.559 1.2402,-3.059 2,-4.5 -0.8081,-0.308 -1.4747,-0.808 -2,-1.5 0.8128,-1.314 1.8128,-2.481 3,-3.5 -1.3333,-1 -1.3333,-2 0,-3 -2.973,-1.224 -3.6397,-3.224 -2,-6 -1.7504,-2.018 -3.0837,-4.185 -4,-6.5 0.0503,-5.889 -0.6164,-11.556 -2,-17 -0.6122,-7.06 -1.6122,-14.06 -3,-21 z"
       id="path67" />
  </g>
  <g
     id="g68"
     transform="translate(-24.506514,-5.5)">
    <path
       style="opacity:1"
       fill="#fdfdfd"
       d="m 150.5,155.5 c 0.333,0 0.667,0 1,0 23.161,0.998 46.494,1.331 70,1 0.342,0.838 1.008,1.172 2,1 -1.365,6.131 -3.032,12.131 -5,18 -1.758,3.354 -2.758,7.021 -3,11 -1.301,3.291 -2.301,6.791 -3,10.5 -4.364,6.554 -8.364,13.387 -12,20.5 -6.341,9.004 -13.674,17.004 -22,24 -8.726,1.459 -16.726,4.459 -24,9 -0.247,-3.354 -1.247,-6.354 -3,-9 -0.95,-28.648 -1.283,-57.315 -1,-86 z"
       id="path68" />
  </g>
  <g
     id="g69"
     transform="translate(-24.506514,-5.5)">
    <path
       style="opacity:1"
       fill="#302d4d"
       d="m 69.5,149.5 c 1,0 2,0 3,0 -0.1646,3.018 0.002,6.018 0.5,9 3.191,1.303 6.0243,2.97 8.5,5 -0.0743,1.911 -1.0743,3.078 -3,3.5 1.6124,0.72 3.1124,0.554 4.5,-0.5 0.1667,0.5 0.3333,1 0.5,1.5 -1.5533,-0.061 -2.8866,0.939 -4,3 0.7135,1.343 0.3802,2.676 -1,4 1.5368,1.11 2.2035,2.61 2,4.5 -1.291,-0.237 -2.291,0.096 -3,1 -0.8094,-0.969 -1.8094,-1.802 -3,-2.5 1.1023,-2.401 1.269,-4.901 0.5,-7.5 -1.1628,1.785 -1.8295,3.785 -2,6 -0.3742,-0.916 -0.8742,-1.75 -1.5,-2.5 0.6667,-2 1.3333,-4 2,-6 -1,-0.5 -2,-1 -3,-1.5 -0.4976,1.103 -0.8309,2.103 -1,3 -0.6671,-3.813 -1.3337,-7.479 -2,-11 -0.1641,-2.687 0.0026,-5.354 0.5,-8 0.3826,-0.556 0.8826,-0.889 1.5,-1 z"
       id="path69" />
  </g>
  <g
     id="g70"
     transform="translate(-24.506514,-5.5)">
    <path
       style="opacity:1"
       fill="#e1ddd6"
       d="m 246.5,151.5 c 0,0.667 0,1.333 0,2 -1.081,3.127 -1.747,6.46 -2,10 -3.795,-0.541 -5.795,1.125 -6,5 -0.917,-0.627 -1.917,-0.961 -3,-1 0,-0.333 0,-0.667 0,-1 -0.65,-1.935 -0.983,-3.935 -1,-6 1.322,0.17 2.489,-0.163 3.5,-1 1.343,-4.01 3.509,-7.51 6.5,-10.5 1.561,-0.188 2.228,0.645 2,2.5 z"
       id="path70" />
  </g>
  <g
     id="g71"
     transform="translate(-24.506514,-5.5)">
    <path
       style="opacity:1"
       fill="#999996"
       d="m 69.5,192.5 c 1.5739,1.602 2.2406,3.602 2,6 -3.2789,-5.45 -4.2789,-4.95 -3,1.5 -0.5735,1.607 -1.2402,3.107 -2,4.5 -1.8826,-1.45 -2.8826,-3.45 -3,-6 -1.4827,-4.525 -2.1494,-9.191 -2,-14 0.9959,-0.086 1.8292,0.248 2.5,1 -0.2626,1.451 -0.0959,2.784 0.5,4 0.3333,-0.833 0.6667,-1.667 1,-2.5 -1.3767,-7.772 -2.21,-15.606 -2.5,-23.5 -0.4419,-2.179 -1.4419,-2.845 -3,-2 -0.499,4.321 -0.6657,8.654 -0.5,13 -0.9511,-1.419 -1.2845,-3.085 -1,-5 -0.1664,-8.007 3e-4,-16.007 0.5,-24 1.4443,1.655 3.2776,2.322 5.5,2 1.5978,14.277 2.7645,28.61 3.5,43 0.2784,0.916 0.7784,1.582 1.5,2 z"
       id="path71" />
  </g>
  <g
     id="g72"
     transform="translate(-24.506514,-5.5)">
    <path
       style="opacity:1"
       fill="#bbbab5"
       d="m 61.5,184.5 c 0,-0.667 -0.3333,-1 -1,-1 -0.0079,-3.045 -0.3413,-6.045 -1,-9 -0.1657,-4.346 10e-4,-8.679 0.5,-13 1.5581,-0.845 2.5581,-0.179 3,2 0.29,7.894 1.1233,15.728 2.5,23.5 -0.3333,0.833 -0.6667,1.667 -1,2.5 -0.5959,-1.216 -0.7626,-2.549 -0.5,-4 -0.6708,-0.752 -1.5041,-1.086 -2.5,-1 z"
       id="path72" />
  </g>
  <g
     id="g73"
     transform="translate(-24.506514,-5.5)">
    <path
       style="opacity:1"
       fill="#989692"
       d="m 246.5,153.5 c -0.005,4.034 -0.338,8.034 -1,12 -4.376,-1.631 -6.043,0.036 -5,5 -2.433,0.227 -4.099,-0.773 -5,-3 1.083,0.039 2.083,0.373 3,1 0.205,-3.875 2.205,-5.541 6,-5 0.253,-3.54 0.919,-6.873 2,-10 z"
       id="path73" />
  </g>
  <g
     id="g74"
     transform="translate(-24.506514,-5.5)">
    <path
       style="opacity:1"
       fill="#393759"
       d="m 143.5,168.5 c -1.849,2.474 -1.849,4.64 0,6.5 0.096,5.222 -0.237,10.556 -1,16 1.534,4.97 2.534,10.137 3,15.5 0.586,0.209 1.086,0.543 1.5,1 0.333,5.667 0.667,11.333 1,17 0.232,1.237 0.732,2.237 1.5,3 0.002,7.02 0.335,14.02 1,21 -0.547,-2.018 -1.547,-3.851 -3,-5.5 0.457,-0.414 0.791,-0.914 1,-1.5 -0.798,-5.229 -1.798,-10.396 -3,-15.5 0.333,-0.333 0.667,-0.667 1,-1 -1.132,-2.434 -2.132,-4.934 -3,-7.5 0.996,-3.297 1.163,-6.631 0.5,-10 -0.333,1 -0.667,2 -1,3 0.003,-4.242 -0.83,-8.242 -2.5,-12 0.847,-1.561 0.514,-3.061 -1,-4.5 0.857,-0.689 1.523,-1.522 2,-2.5 -2.634,-0.971 -2.634,-2.805 0,-5.5 -2.777,-2.035 -3.944,-4.535 -3.5,-7.5 -0.414,0.457 -0.914,0.791 -1.5,1 -1,-1.333 -2,-2.667 -3,-4 -0.925,-1.141 -1.759,-1.141 -2.5,0 -1.113,-1.26 -1.28,-2.427 -0.5,-3.5 -0.753,-1.487 -1.586,-1.654 -2.5,-0.5 -0.333,-1 -0.667,-2 -1,-3 -3.945,1.869 -7.778,1.869 -11.5,0 -0.667,0.333 -1.333,0.667 -2,1 0.516,-1.258 -0.15,-2.258 -2,-3 -0.411,0.762 -0.577,1.762 -0.5,3 -2.167,-1.5 -4.333,-3 -6.5,-4.5 -1.399,-0.595 -2.732,-0.428 -4,0.5 -0.6924,-0.525 -1.1924,-1.192 -1.5,-2 -0.3333,1.333 -0.6667,2.667 -1,4 -2.4494,-0.437 -4.7827,-0.437 -7,0 -0.7494,-1.135 -0.5827,-2.135 0.5,-3 1.1753,1.355 2.1753,1.188 3,-0.5 -0.5,-0.5 -1,-1 -1.5,-1.5 -1.4902,1.228 -2.9902,1.228 -4.5,0 -0.9734,-0.487 -1.9734,-0.987 -3,-1.5 5.1628,-1.564 10.1628,-1.064 15,1.5 6.837,0.131 13.67,-0.202 20.5,-1 2.472,0.7 4.805,1.7 7,3 6.647,-3.734 11.814,-2.401 15.5,4 z"
       id="path74" />
  </g>
  <g
     id="g75"
     transform="translate(-24.506514,-5.5)">
    <path
       style="opacity:1"
       fill="#757575"
       d="m 229.5,156.5 c 1.333,0 2.667,0 4,0 -0.61,0.891 -0.943,1.891 -1,3 0.333,1.333 0.667,2.667 1,4 -0.982,-0.641 -1.982,-1.307 -3,-2 -0.685,2.659 -0.351,5.325 1,8 5.895,3.79 8.562,9.123 8,16 -0.734,6.733 -3.234,12.733 -7.5,18 -0.576,4.815 -2.076,9.149 -4.5,13 1.323,-4.922 2.656,-9.922 4,-15 -0.502,-1.021 -1.168,-1.188 -2,-0.5 -3.43,4.694 -5.93,9.861 -7.5,15.5 -3.279,5.579 -6.779,10.912 -10.5,16 -1.086,-0.12 -1.753,-0.787 -2,-2 0.387,-1.774 1.053,-3.441 2,-5 -0.525,-0.692 -1.192,-1.192 -2,-1.5 2.476,-3.452 3.976,-7.285 4.5,-11.5 1.512,-0.757 2.846,-1.757 4,-3 0.606,-2.93 1.44,-5.763 2.5,-8.5 -1.36,-1.938 -1.027,-3.604 1,-5 -0.933,-2.848 -2.433,-3.014 -4.5,-0.5 -0.379,-2.07 0.455,-3.57 2.5,-4.5 0.579,-1.425 0.579,-3.092 0,-5 0.667,-0.333 1.333,-0.667 2,-1 -0.857,-0.689 -1.523,-1.522 -2,-2.5 3.447,-7.486 5.114,-15.486 5,-24 1.806,-0.524 3.472,-1.191 5,-2 z"
       id="path75" />
  </g>
  <g
     id="g76"
     transform="translate(-24.506514,-5.5)">
    <path
       style="opacity:1"
       fill="#383653"
       d="m 88.5,162.5 c 1.5098,1.228 3.0098,1.228 4.5,0 0.5,0.5 1,1 1.5,1.5 -0.8247,1.688 -1.8247,1.855 -3,0.5 -1.0827,0.865 -1.2494,1.865 -0.5,3 2.2173,-0.437 4.5506,-0.437 7,0 0.3333,-1.333 0.6667,-2.667 1,-4 0.3076,0.808 0.8076,1.475 1.5,2 1.268,-0.928 2.601,-1.095 4,-0.5 2.167,1.5 4.333,3 6.5,4.5 -0.077,-1.238 0.089,-2.238 0.5,-3 1.85,0.742 2.516,1.742 2,3 0.667,-0.333 1.333,-0.667 2,-1 3.722,1.869 7.555,1.869 11.5,0 0.333,1 0.667,2 1,3 0.914,-1.154 1.747,-0.987 2.5,0.5 -0.78,1.073 -0.613,2.24 0.5,3.5 0.741,-1.141 1.575,-1.141 2.5,0 1,1.333 2,2.667 3,4 0.586,-0.209 1.086,-0.543 1.5,-1 -0.444,2.965 0.723,5.465 3.5,7.5 -2.634,2.695 -2.634,4.529 0,5.5 -0.477,0.978 -1.143,1.811 -2,2.5 1.514,1.439 1.847,2.939 1,4.5 1.67,3.758 2.503,7.758 2.5,12 0.333,-1 0.667,-2 1,-3 0.663,3.369 0.496,6.703 -0.5,10 0.868,2.566 1.868,5.066 3,7.5 -0.333,0.333 -0.667,0.667 -1,1 1.202,5.104 2.202,10.271 3,15.5 -0.209,0.586 -0.543,1.086 -1,1.5 1.453,1.649 2.453,3.482 3,5.5 -0.172,0.992 0.162,1.658 1,2 0,0.667 0,1.333 0,2 -2.987,-0.448 -3.987,-1.948 -3,-4.5 -1.216,-2.931 -2.55,-5.764 -4,-8.5 0,-1.333 0,-2.667 0,-4 -1.951,0.273 -3.451,-0.393 -4.5,-2 -0.669,2.528 -1.502,2.528 -2.5,0 0.442,-1.239 1.109,-2.239 2,-3 0.508,1.733 1.341,2.066 2.5,1 0.58,-3.986 0.08,-7.486 -1.5,-10.5 2.564,-2.276 2.23,-4.276 -1,-6 0.077,-2.111 0.411,-4.111 1,-6 -0.5,-0.5 -1,-1 -1.5,-1.5 -0.419,1.172 -1.085,2.172 -2,3 -2.229,-0.57 -4.062,-2.237 -5.5,-5 -1.032,1.54 -2.365,2.04 -4,1.5 -2.119,-1.964 -3.619,-4.131 -4.5,-6.5 -0.741,1.141 -1.575,1.141 -2.5,0 -0.692,0.525 -1.192,1.192 -1.5,2 -1.113,-1.26 -1.28,-2.427 -0.5,-3.5 -3.929,-1.688 -4.762,-0.521 -2.5,3.5 1.205,0.571 2.372,1.238 3.5,2 -0.667,0.333 -1.333,0.667 -2,1 0.209,0.586 0.543,1.086 1,1.5 -1.634,0.494 -3.301,0.66 -5,0.5 -0.791,-2.917 -0.791,-5.75 0,-8.5 -1.333,-0.333 -2.667,-0.667 -4,-1 0.333,-0.333 0.667,-0.667 1,-1 -2.244,-2.303 -3.91,-1.97 -5,1 -1.333,0.667 -2.667,0.667 -4,0 0.333,-0.333 0.667,-0.667 1,-1 -3.3089,-2.406 -3.3089,-4.406 0,-6 -1.26,-1.113 -2.427,-1.28 -3.5,-0.5 -1.113,-1.26 -1.2797,-2.427 -0.5,-3.5 -1,-0.667 -2,-0.667 -3,0 1.5499,2.095 1.8832,4.262 1,6.5 -1.1956,-0.346 -1.1956,-0.846 0,-1.5 -2.8123,0.829 -4.6456,-0.338 -5.5,-3.5 -0.2492,1.124 -0.7492,2.124 -1.5,3 -1.2202,-1.211 -2.3869,-1.211 -3.5,0 -1.6036,-0.568 -2.2703,-1.568 -2,-3 0.414,0.457 0.914,0.791 1.5,1 1.5461,-1.184 3.2127,-2.184 5,-3 -1,-2.667 -2,-2.667 -3,0 -2.1048,-1.399 -3.9381,-3.066 -5.5,-5 -0.7412,1.141 -1.5745,1.141 -2.5,0 -2.7747,5.296 -3.4414,4.962 -2,-1 0.709,-0.904 1.709,-1.237 3,-1 0.2035,-1.89 -0.4632,-3.39 -2,-4.5 1.3802,-1.324 1.7135,-2.657 1,-4 1.1134,-2.061 2.4467,-3.061 4,-3 -0.1667,-0.5 -0.3333,-1 -0.5,-1.5 -1.3876,1.054 -2.8876,1.22 -4.5,0.5 1.9257,-0.422 2.9257,-1.589 3,-3.5 2.5316,-0.861 4.865,-1.195 7,-1 z"
       id="path76" />
  </g>
  <g
     id="g77"
     transform="translate(-24.506514,-5.5)">
    <path
       style="opacity:1"
       fill="#626062"
       d="m 233.5,163.5 c -0.073,1.527 0.594,2.527 2,3 0,0.333 0,0.667 0,1 0.901,2.227 2.567,3.227 5,3 -1.043,-4.964 0.624,-6.631 5,-5 0.768,0.763 1.268,1.763 1.5,3 0.333,-0.333 0.667,-0.667 1,-1 0.494,1.634 0.66,3.301 0.5,5 -0.116,3.36 -0.449,6.693 -1,10 0,0.333 0,0.667 0,1 -1.126,2.965 -2.126,5.965 -3,9 0,-6 0,-12 0,-18 -1.624,-0.14 -2.79,0.527 -3.5,2 -0.181,3.195 -0.681,6.195 -1.5,9 0.562,-6.877 -2.105,-12.21 -8,-16 -1.351,-2.675 -1.685,-5.341 -1,-8 1.018,0.693 2.018,1.359 3,2 z"
       id="path77" />
  </g>
  <g
     id="g78"
     transform="translate(-24.506514,-5.5)">
    <path
       style="opacity:1"
       fill="#8e8a84"
       d="m 41.5,114.5 c 1.3836,5.444 2.0503,11.111 2,17 0.6356,7.256 1.6356,14.423 3,21.5 -1.4766,7.217 -1.1433,14.383 1,21.5 4.822,1.444 6.4887,4.444 5,9 -1.2362,-0.746 -2.5695,-1.079 -4,-1 0,3 0,6 0,9 -1.3411,-10.358 -3.1744,-20.691 -5.5,-31 -0.4986,-3.652 -0.6653,-7.318 -0.5,-11 0.0272,-11.68 -0.3061,-23.346 -1,-35 z"
       id="path78" />
  </g>
  <g
     id="g79"
     transform="translate(-24.506514,-5.5)">
    <path
       style="opacity:1"
       fill="#b2aba4"
       d="m 250.5,170.5 c -0.158,4.341 -1.158,8.341 -3,12 0.551,-3.307 0.884,-6.64 1,-10 0.667,-0.667 1.333,-1.333 2,-2 z"
       id="path79" />
  </g>
  <g
     id="g80"
     transform="translate(-24.506514,-5.5)">
    <path
       style="opacity:1"
       fill="#35344e"
       d="m 67.5,158.5 c 0.6663,3.521 1.3329,7.187 2,11 0.1691,-0.897 0.5024,-1.897 1,-3 1,0.5 2,1 3,1.5 -0.6667,2 -1.3333,4 -2,6 0.6258,0.75 1.1258,1.584 1.5,2.5 0.1705,-2.215 0.8372,-4.215 2,-6 0.769,2.599 0.6023,5.099 -0.5,7.5 1.1906,0.698 2.1906,1.531 3,2.5 -1.4414,5.962 -0.7747,6.296 2,1 0.9255,1.141 1.7588,1.141 2.5,0 1.5619,1.934 3.3952,3.601 5.5,5 1,-2.667 2,-2.667 3,0 -1.7873,0.816 -3.4539,1.816 -5,3 -0.586,-0.209 -1.086,-0.543 -1.5,-1 -0.2703,1.432 0.3964,2.432 2,3 1.1131,-1.211 2.2798,-1.211 3.5,0 0.7508,-0.876 1.2508,-1.876 1.5,-3 0.8544,3.162 2.6877,4.329 5.5,3.5 -1.1956,0.654 -1.1956,1.154 0,1.5 0.8832,-2.238 0.5499,-4.405 -1,-6.5 1,-0.667 2,-0.667 3,0 -0.7797,1.073 -0.613,2.24 0.5,3.5 1.073,-0.78 2.24,-0.613 3.5,0.5 -3.3089,1.594 -3.3089,3.594 0,6 -0.333,0.333 -0.667,0.667 -1,1 1.333,0.667 2.667,0.667 4,0 1.09,-2.97 2.756,-3.303 5,-1 -0.333,0.333 -0.667,0.667 -1,1 1.333,0.333 2.667,0.667 4,1 -0.791,2.75 -0.791,5.583 0,8.5 1.699,0.16 3.366,-0.006 5,-0.5 -0.457,-0.414 -0.791,-0.914 -1,-1.5 0.667,-0.333 1.333,-0.667 2,-1 -1.128,-0.762 -2.295,-1.429 -3.5,-2 -2.262,-4.021 -1.429,-5.188 2.5,-3.5 -0.78,1.073 -0.613,2.24 0.5,3.5 0.308,-0.808 0.808,-1.475 1.5,-2 0.925,1.141 1.759,1.141 2.5,0 0.881,2.369 2.381,4.536 4.5,6.5 1.635,0.54 2.968,0.04 4,-1.5 1.438,2.763 3.271,4.43 5.5,5 0.915,-0.828 1.581,-1.828 2,-3 0.5,0.5 1,1 1.5,1.5 -0.589,1.889 -0.923,3.889 -1,6 3.23,1.724 3.564,3.724 1,6 1.58,3.014 2.08,6.514 1.5,10.5 -1.159,1.066 -1.992,0.733 -2.5,-1 -0.65,-1.935 -0.983,-3.935 -1,-6 -2.091,0.182 -4.091,-0.152 -6,-1 -0.333,1.333 -0.667,2.667 -1,4 -2.615,-1.711 -5.282,-3.378 -8,-5 -0.793,0.855 -0.46,1.689 1,2.5 -1.325,-0.148 -2.492,0.018 -3.5,0.5 -0.617,-0.949 -0.451,-1.782 0.5,-2.5 -2.417,-1.3 -4.917,-1.134 -7.5,0.5 0.933,-4.501 0.266,-4.834 -2,-1 -1.617,-1.036 -1.784,-2.203 -0.5,-3.5 -0.916,-0.374 -1.75,-0.874 -2.5,-1.5 -0.865,1.725 -1.531,3.392 -2,5 -1.694,-1.3 -3.694,-2.967 -6,-5 -0.75,0.626 -1.5838,1.126 -2.5,1.5 3.129,0.117 4.295,1.617 3.5,4.5 -2.7385,-2.004 -5.4052,-4.004 -8,-6 -0.3333,0.333 -0.6667,0.667 -1,1 -2.0338,-1.243 -2.8671,-2.743 -2.5,-4.5 -2.2254,-0.561 -4.2254,-1.561 -6,-3 0.3333,-0.333 0.6667,-0.667 1,-1 -1.2441,-0.456 -2.0774,0.044 -2.5,1.5 -1.8969,-2.627 -3.3969,-5.461 -4.5,-8.5 1,-0.333 2,-0.667 3,-1 -1.8636,-3.558 -3.8636,-7.058 -6,-10.5 -0.3333,0.167 -0.6667,0.333 -1,0.5 0.4963,1.996 1.4963,3.663 3,5 -1,0.667 -2,0.667 -3,0 -1.1864,-2.907 -1.6864,-5.74 -1.5,-8.5 -0.3333,0.333 -0.6667,0.667 -1,1 -0.7083,-0.881 -1.5416,-1.547 -2.5,-2 -1.2542,-9.622 -1.9208,-19.289 -2,-29 z"
       id="path80" />
  </g>
  <g
     id="g81"
     transform="translate(-24.506514,-5.5)">
    <path
       style="opacity:1"
       fill="#b8bab9"
       d="m 218.5,175.5 c -0.017,4.034 -1.017,7.701 -3,11 0.242,-3.979 1.242,-7.646 3,-11 z"
       id="path81" />
  </g>
  <g
     id="g82"
     transform="translate(-24.506514,-5.5)">
    <path
       style="opacity:1"
       fill="#403669"
       d="m 144.5,152.5 c 0.535,1.946 1.868,2.946 4,3 0.333,0 0.667,0 1,0 0,24 0,48 0,72 -0.768,-0.763 -1.268,-1.763 -1.5,-3 -0.333,-5.667 -0.667,-11.333 -1,-17 -0.414,-0.457 -0.914,-0.791 -1.5,-1 -0.466,-5.363 -1.466,-10.53 -3,-15.5 0.763,-5.444 1.096,-10.778 1,-16 -1.849,-1.86 -1.849,-4.026 0,-6.5 -0.57,-3.117 -1.07,-6.117 -1.5,-9 -1.011,-0.837 -2.178,-1.17 -3.5,-1 0.17,-1.322 -0.163,-2.489 -1,-3.5 0.667,-0.333 1.333,-0.667 2,-1 -1.333,-0.333 -2.667,-0.667 -4,-1 2.982,-0.498 5.982,-0.665 9,-0.5 z"
       id="path82" />
  </g>
  <g
     id="g83"
     transform="translate(-24.506514,-5.5)">
    <path
       style="opacity:1"
       fill="#bab3a8"
       d="m 247.5,183.5 c -0.429,6.439 -1.429,12.773 -3,19 -0.667,1 -1.333,2 -2,3 0.827,-4.307 1.493,-8.64 2,-13 0.874,-3.035 1.874,-6.035 3,-9 z"
       id="path83" />
  </g>
  <g
     id="g84"
     transform="translate(-24.506514,-5.5)">
    <path
       style="opacity:1"
       fill="#868787"
       d="m 223.5,157.5 c 0.667,0 1,0.333 1,1 0.114,8.514 -1.553,16.514 -5,24 0.477,0.978 1.143,1.811 2,2.5 -0.667,0.333 -1.333,0.667 -2,1 0.579,1.908 0.579,3.575 0,5 -2.045,0.93 -2.879,2.43 -2.5,4.5 2.067,-2.514 3.567,-2.348 4.5,0.5 -2.027,1.396 -2.36,3.062 -1,5 -1.06,2.737 -1.894,5.57 -2.5,8.5 -1.154,1.243 -2.488,2.243 -4,3 -0.524,4.215 -2.024,8.048 -4.5,11.5 0.808,0.308 1.475,0.808 2,1.5 -0.947,1.559 -1.613,3.226 -2,5 0.247,1.213 0.914,1.88 2,2 -2.178,3.234 -4.678,3.567 -7.5,1 -1.583,2.493 -3.083,2.326 -4.5,-0.5 0.949,-0.617 1.782,-0.451 2.5,0.5 1.02,-1.391 1.853,-2.891 2.5,-4.5 -1.729,-1.789 -2.396,-3.956 -2,-6.5 1.052,0.149 2.052,-0.017 3,-0.5 -3.401,0.266 -5.067,-1.234 -5,-4.5 3.636,-7.113 7.636,-13.946 12,-20.5 0.699,-3.709 1.699,-7.209 3,-10.5 1.983,-3.299 2.983,-6.966 3,-11 1.968,-5.869 3.635,-11.869 5,-18 z"
       id="path84" />
  </g>
  <g
     id="g85"
     transform="translate(-24.506514,-5.5)">
    <path
       style="opacity:1"
       fill="#a7a9a4"
       d="m 71.5,198.5 c 0.6174,0.111 1.1174,0.444 1.5,1 0.4396,2.366 0.9396,4.699 1.5,7 -0.6174,-0.111 -1.1174,-0.444 -1.5,-1 -0.1667,1.167 -0.3333,2.333 -0.5,3.5 1.286,5.137 2.6193,10.304 4,15.5 -5.4079,-5.512 -8.7412,-12.179 -10,-20 0.7598,-1.393 1.4265,-2.893 2,-4.5 -1.2789,-6.45 -0.2789,-6.95 3,-1.5 z"
       id="path85" />
  </g>
  <g
     id="g87"
     transform="translate(-24.506514,-5.5)">
    <path
       style="opacity:1"
       fill="#707072"
       d="m 56.5,196.5 c 2.67,5.026 4.67,10.36 6,16 0.6346,2.993 0.8013,5.993 0.5,9 -1.9644,-3.833 -3.631,-7.833 -5,-12 -1.8402,-1.99 -3.0069,-1.99 -3.5,0 -1.617,-2.689 -2.617,-5.689 -3,-9 1.8062,-1.235 3.4729,-2.569 5,-4 z"
       id="path87" />
  </g>
  <g
     id="g88"
     transform="translate(-24.506514,-5.5)">
    <path
       style="opacity:1"
       fill="#c0c3bd"
       d="m 74.5,206.5 c 2.0365,3.689 4.0365,7.355 6,11 0.8007,1.542 1.134,3.208 1,5 0.6465,1.656 1.3131,3.323 2,5 -0.2472,1.213 -0.9138,1.88 -2,2 -2,-1.333 -3.6667,-3 -5,-5 -1.3807,-5.196 -2.714,-10.363 -4,-15.5 0.1667,-1.167 0.3333,-2.333 0.5,-3.5 0.3826,0.556 0.8826,0.889 1.5,1 z"
       id="path88" />
  </g>
  <g
     id="g89"
     transform="translate(-24.506514,-5.5)">
    <path
       style="opacity:1"
       fill="#8b81aa"
       d="m 149.5,155.5 c 0.333,0 0.667,0 1,0 -0.283,28.685 0.05,57.352 1,86 0,3 0,6 0,9 -0.838,-0.342 -1.172,-1.008 -1,-2 -0.665,-6.98 -0.998,-13.98 -1,-21 0,-24 0,-48 0,-72 z"
       id="path89" />
  </g>
  <g
     id="g90"
     transform="translate(-24.506514,-5.5)">
    <path
       style="opacity:1"
       fill="#545255"
       d="m 244.5,192.5 c -0.507,4.36 -1.173,8.693 -2,13 -1.82,4.282 -3.486,8.615 -5,13 -1.316,2.216 -2.983,4.216 -5,6 -0.952,1.545 -1.285,3.212 -1,5 -1.89,-0.203 -3.39,0.463 -4.5,2 -0.561,2.225 -1.561,4.225 -3,6 0.221,-2.731 0.055,-5.398 -0.5,-8 2.326,-3.644 3.659,-7.644 4,-12 0,-0.333 0,-0.667 0,-1 2.424,-3.851 3.924,-8.185 4.5,-13 4.266,-5.267 6.766,-11.267 7.5,-18 0.819,-2.805 1.319,-5.805 1.5,-9 0.71,-1.473 1.876,-2.14 3.5,-2 0,6 0,12 0,18 z"
       id="path90" />
  </g>
  <g
     id="g91"
     transform="translate(-24.506514,-5.5)">
    <path
       style="opacity:1"
       fill="#606062"
       d="m 62.5,212.5 c 1.7691,3.796 3.2691,7.796 4.5,12 2.926,2.855 5.0927,6.189 6.5,10 -0.5016,1.021 -1.1683,1.188 -2,0.5 -3.7481,-3.56 -6.4148,-7.727 -8,-12.5 -1.291,-0.237 -2.291,0.096 -3,1 -3.3192,-3.913 -5.3192,-8.579 -6,-14 0.4931,-1.99 1.6598,-1.99 3.5,0 1.369,4.167 3.0356,8.167 5,12 0.3013,-3.007 0.1346,-6.007 -0.5,-9 z"
       id="path91" />
  </g>
  <g
     id="g92"
     transform="translate(-24.506514,-5.5)">
    <path
       style="opacity:1"
       fill="#323047"
       d="m 69.5,187.5 c 0.9584,0.453 1.7917,1.119 2.5,2 0.3333,-0.333 0.6667,-0.667 1,-1 -0.1864,2.76 0.3136,5.593 1.5,8.5 1,0.667 2,0.667 3,0 -1.5037,-1.337 -2.5037,-3.004 -3,-5 0.3333,-0.167 0.6667,-0.333 1,-0.5 2.1364,3.442 4.1364,6.942 6,10.5 -1,0.333 -2,0.667 -3,1 1.1031,3.039 2.6031,5.873 4.5,8.5 0.4226,-1.456 1.2559,-1.956 2.5,-1.5 -0.3333,0.333 -0.6667,0.667 -1,1 1.7746,1.439 3.7746,2.439 6,3 -0.3671,1.757 0.4662,3.257 2.5,4.5 0.3333,-0.333 0.6667,-0.667 1,-1 2.5948,1.996 5.2615,3.996 8,6 0.795,-2.883 -0.371,-4.383 -3.5,-4.5 0.9162,-0.374 1.75,-0.874 2.5,-1.5 2.306,2.033 4.306,3.7 6,5 0.469,-1.608 1.135,-3.275 2,-5 0.75,0.626 1.584,1.126 2.5,1.5 -1.284,1.297 -1.117,2.464 0.5,3.5 2.266,-3.834 2.933,-3.501 2,1 2.583,-1.634 5.083,-1.8 7.5,-0.5 -0.951,0.718 -1.117,1.551 -0.5,2.5 1.008,-0.482 2.175,-0.648 3.5,-0.5 -1.46,-0.811 -1.793,-1.645 -1,-2.5 2.718,1.622 5.385,3.289 8,5 0.333,-1.333 0.667,-2.667 1,-4 1.909,0.848 3.909,1.182 6,1 0.017,2.065 0.35,4.065 1,6 -0.891,0.761 -1.558,1.761 -2,3 0.998,2.528 1.831,2.528 2.5,0 1.049,1.607 2.549,2.273 4.5,2 0,1.333 0,2.667 0,4 -1.183,1.004 -2.516,1.838 -4,2.5 0.808,0.308 1.475,0.808 2,1.5 -1.151,1.231 -2.317,1.231 -3.5,0 -0.507,1.496 -0.007,2.663 1.5,3.5 -3.144,0.952 -5.644,0.119 -7.5,-2.5 -0.133,2.903 -0.466,5.903 -1,9 0.333,-0.333 0.667,-0.667 1,-1 0.976,2.387 2.809,3.554 5.5,3.5 4.321,0.499 8.654,0.666 13,0.5 -2.787,0.977 -5.787,1.31 -9,1 -2.667,0 -5.333,0 -8,0 -3.385,-1.106 -6.718,-2.273 -10,-3.5 0.333,-0.333 0.667,-0.667 1,-1 -1.333,-0.667 -2.333,-1.667 -3,-3 2.269,0.374 4.602,0.374 7,0 -3.741,-1.738 -6.908,-4.238 -9.5,-7.5 -3.295,1.031 -5.961,0.031 -8,-3 -0.718,0.951 -1.551,1.117 -2.5,0.5 -2.737,-1.614 -4.903,-3.781 -6.5,-6.5 -0.414,0.457 -0.914,0.791 -1.5,1 -0.667,-1.333 -1.333,-2.667 -2,-4 -0.4106,0.762 -0.5773,1.762 -0.5,3 -1.7433,-1.821 -3.2433,-3.821 -4.5,-6 -1.4647,1.109 -2.4647,0.609 -3,-1.5 0.4574,-0.414 0.7907,-0.914 1,-1.5 -2.0852,-1.041 -3.7519,-2.541 -5,-4.5 0.3333,-0.333 0.6667,-0.667 1,-1 -1.3989,-0.595 -2.7322,-0.428 -4,0.5 -1.1223,-1.13 -2.4557,-1.797 -4,-2 -1.9635,-3.645 -3.9635,-7.311 -6,-11 -0.5604,-2.301 -1.0604,-4.634 -1.5,-7 -0.3826,-0.556 -0.8826,-0.889 -1.5,-1 0.2406,-2.398 -0.4261,-4.398 -2,-6 0,-1.667 0,-3.333 0,-5 z"
       id="path92" />
  </g>
  <g
     id="g94"
     transform="translate(-24.506514,-5.5)">
    <path
       style="opacity:1"
       fill="#48494d"
       d="m 60.5,183.5 c 0.6667,0 1,0.333 1,1 -0.1494,4.809 0.5173,9.475 2,14 0.1174,2.55 1.1174,4.55 3,6 1.2588,7.821 4.5921,14.488 10,20 1.3333,2 3,3.667 5,5 1.6884,3.688 4.355,6.355 8,8 0.6667,1 1.3333,2 2,3 -1.4778,0.262 -2.8112,-0.071 -4,-1 -2.7524,-3.204 -6.0858,-5.037 -10,-5.5 0.3333,0.333 0.6667,0.667 1,1 -0.8081,0.308 -1.4747,0.808 -2,1.5 4.8424,7.519 10.509,14.352 17,20.5 1.2932,0.49 2.6266,0.657 4,0.5 0,1.333 0,2.667 0,4 5.401,-0.065 8.234,2.268 8.5,7 2.521,0.5 4.354,1.833 5.5,4 -2.554,-1.106 -5.221,-1.939 -8,-2.5 -2.85,-2.924 -6.1836,-5.091 -10,-6.5 -9.034,-8.033 -17.3674,-16.7 -25,-26 0,-0.667 -0.3333,-1 -1,-1 -2.7355,-4.081 -5.0688,-8.415 -7,-13 0.709,-0.904 1.709,-1.237 3,-1 1.5852,4.773 4.2519,8.94 8,12.5 0.8317,0.688 1.4984,0.521 2,-0.5 -1.4073,-3.811 -3.574,-7.145 -6.5,-10 -1.2309,-4.204 -2.7309,-8.204 -4.5,-12 -1.33,-5.64 -3.33,-10.974 -6,-16 -0.1663,-7.008 4e-4,-14.008 0.5,-21 1.4748,2.622 2.6414,5.288 3.5,8 z"
       id="path94" />
  </g>
  <g
     id="g95"
     transform="translate(-24.506514,-5.5)">
    <path
       style="opacity:1"
       fill="#323142"
       d="m 80.5,217.5 c 1.5443,0.203 2.8777,0.87 4,2 1.2678,-0.928 2.6011,-1.095 4,-0.5 -0.3333,0.333 -0.6667,0.667 -1,1 1.2481,1.959 2.9148,3.459 5,4.5 -0.2093,0.586 -0.5426,1.086 -1,1.5 0.5353,2.109 1.5353,2.609 3,1.5 1.2567,2.179 2.7567,4.179 4.5,6 -0.0773,-1.238 0.0894,-2.238 0.5,-3 0.667,1.333 1.333,2.667 2,4 0.586,-0.209 1.086,-0.543 1.5,-1 1.597,2.719 3.763,4.886 6.5,6.5 0.949,0.617 1.782,0.451 2.5,-0.5 2.039,3.031 4.705,4.031 8,3 2.592,3.262 5.759,5.762 9.5,7.5 -2.398,0.374 -4.731,0.374 -7,0 0.667,1.333 1.667,2.333 3,3 -0.333,0.333 -0.667,0.667 -1,1 3.282,1.227 6.615,2.394 10,3.5 0.418,0.722 1.084,1.222 2,1.5 -2.297,0.018 -4.631,-0.149 -7,-0.5 -6.495,-3.413 -13.162,-6.58 -20,-9.5 -6.72,-3.881 -12.7196,-8.714 -18,-14.5 -3.3437,-4.04 -6.677,-8.04 -10,-12 0.134,-1.792 -0.1993,-3.458 -1,-5 z"
       id="path95" />
  </g>
  <g
     id="g96"
     transform="translate(-24.506514,-5.5)">
    <path
       style="opacity:1"
       fill="#9a9b95"
       d="m 81.5,222.5 c 3.323,3.96 6.6563,7.96 10,12 0.2148,1.679 -0.4519,2.679 -2,3 -3.645,-1.645 -6.3116,-4.312 -8,-8 1.0862,-0.12 1.7528,-0.787 2,-2 -0.6869,-1.677 -1.3535,-3.344 -2,-5 z"
       id="path96" />
  </g>
  <g
     id="g97"
     transform="translate(-24.506514,-5.5)">
    <path
       style="opacity:1"
       fill="#6a6767"
       d="m 227.5,217.5 c -0.341,4.356 -1.674,8.356 -4,12 0.555,2.602 0.721,5.269 0.5,8 1.439,-1.775 2.439,-3.775 3,-6 1.11,-1.537 2.61,-2.203 4.5,-2 -0.285,-1.788 0.048,-3.455 1,-5 2.017,-1.784 3.684,-3.784 5,-6 -1.932,4.203 -3.599,8.536 -5,13 -3.595,3.063 -6.262,6.73 -8,11 -0.667,0.333 -1.333,0.667 -2,1 0.352,-2.573 -0.148,-4.906 -1.5,-7 -1.935,1.694 -3.769,3.361 -5.5,5 4.019,-8.039 8.019,-16.039 12,-24 z"
       id="path97" />
  </g>
  <g
     id="g98"
     transform="translate(-24.506514,-5.5)">
    <path
       style="opacity:1"
       fill="#929292"
       d="m 227.5,216.5 c 0,0.333 0,0.667 0,1 -3.981,7.961 -7.981,15.961 -12,24 -7.691,10.531 -16.691,20.031 -27,28.5 -7.123,3.867 -14.457,7.034 -22,9.5 -5.637,0.666 -11.304,1.333 -17,2 -1.686,-1.357 -3.352,-2.69 -5,-4 0,-0.333 0,-0.667 0,-1 6.072,2.218 12.406,3.051 19,2.5 3.304,-0.902 3.638,-2.236 1,-4 0.522,-0.95 1.189,-1.784 2,-2.5 -1.503,-0.552 -3.169,-0.552 -5,0 -0.219,-1.175 0.114,-2.175 1,-3 6.083,-3.379 11.416,-7.546 16,-12.5 -0.598,-1.301 -1.598,-2.135 -3,-2.5 -3.611,0.762 -7.278,1.262 -11,1.5 -0.544,0.717 -1.211,1.217 -2,1.5 0.03,-0.997 -0.47,-1.664 -1.5,-2 -2.724,1.187 -5.557,1.853 -8.5,2 0,-1.667 0,-3.333 0,-5 0.761,0.891 1.761,1.558 3,2 3.044,-0.678 6.044,-1.511 9,-2.5 5.223,-2.776 9.89,-6.276 14,-10.5 8.326,-6.996 15.659,-14.996 22,-24 -0.067,3.266 1.599,4.766 5,4.5 -0.948,0.483 -1.948,0.649 -3,0.5 -0.396,2.544 0.271,4.711 2,6.5 -0.647,1.609 -1.48,3.109 -2.5,4.5 -0.718,-0.951 -1.551,-1.117 -2.5,-0.5 1.417,2.826 2.917,2.993 4.5,0.5 2.822,2.567 5.322,2.234 7.5,-1 3.721,-5.088 7.221,-10.421 10.5,-16 1.57,-5.639 4.07,-10.806 7.5,-15.5 0.832,-0.688 1.498,-0.521 2,0.5 -1.344,5.078 -2.677,10.078 -4,15 z"
       id="path98" />
  </g>
  <g
     id="g101"
     transform="translate(-24.506514,-5.5)">
    <path
       style="opacity:1"
       fill="#8e8a84"
       d="m 123.5,280.5 c 4.112,0.443 7.779,1.943 11,4.5 10.496,1.716 20.829,1.549 31,-0.5 2.099,-1.112 4.433,-1.779 7,-2 1.935,-0.65 3.935,-0.983 6,-1 -0.806,1.228 -1.806,2.228 -3,3 -1.716,0.129 -3.383,0.462 -5,1 -14.565,4.346 -28.899,3.846 -43,-1.5 -1.824,-0.66 -3.157,-1.827 -4,-3.5 z"
       id="path101" />
  </g>
  <g
     id="g103"
     transform="translate(-24.506514,-5.5)">
    <path
       style="opacity:1"
       fill="#4c4d52"
       d="m 144.5,277.5 c 1.648,1.31 3.314,2.643 5,4 5.696,-0.667 11.363,-1.334 17,-2 2,0 4,0 6,0 0,1 0,2 0,3 -2.567,0.221 -4.901,0.888 -7,2 -10.852,0.643 -21.519,-0.357 -32,-3 -1.835,-0.928 -2.168,-2.094 -1,-3.5 -0.608,-0.87 -1.441,-1.37 -2.5,-1.5 -2.935,1.692 -6.102,2.358 -9.5,2 -2.95,-1.615 -5.616,-3.615 -8,-6 2.292,0.256 4.459,-0.077 6.5,-1 1,1 2,2 3,3 5.503,-1.986 10.003,-0.653 13.5,4 3.533,0.875 6.866,2.208 10,4 0.333,-0.333 0.667,-0.667 1,-1 -1.353,-1.024 -2.02,-2.357 -2,-4 z"
       id="path103" />
  </g>
  <g
     id="g104"
     transform="translate(-24.506514,-5.5)">
    <path
       style="opacity:1"
       fill="#807e7b"
       d="m 93.5,263.5 c 3.8164,1.409 7.15,3.576 10,6.5 2.779,0.561 5.446,1.394 8,2.5 0.333,0 0.667,0 1,0 2.384,2.385 5.05,4.385 8,6 1,0.667 2,1.333 3,2 -1.373,0.157 -2.707,-0.01 -4,-0.5 -8.015,-5.236 -16.349,-9.736 -25,-13.5 -0.6098,-0.891 -0.9431,-1.891 -1,-3 z"
       id="path104" />
  </g>
  <g
     id="g105"
     transform="translate(-24.506514,-5.5)">
    <path
       style="opacity:1"
       fill="#626264"
       d="m 165.5,284.5 c -10.171,2.049 -20.504,2.216 -31,0.5 -3.221,-2.557 -6.888,-4.057 -11,-4.5 -1,-0.667 -2,-1.333 -3,-2 3.398,0.358 6.565,-0.308 9.5,-2 1.059,0.13 1.892,0.63 2.5,1.5 -1.168,1.406 -0.835,2.572 1,3.5 10.481,2.643 21.148,3.643 32,3 z"
       id="path105" />
  </g>
  <g
     id="g107"
     transform="translate(-24.506514,-5.5)">
    <path
       style="opacity:1"
       fill="#a1a2a2"
       d="m 144.5,276.5 c 0,-0.667 -0.333,-1 -1,-1 0.427,-3.288 -0.24,-6.288 -2,-9 3.477,-0.667 6.811,-1.334 10,-2 1.667,-1 3,-2.333 4,-4 2.522,-0.511 4.855,-1.511 7,-3 0.789,-0.283 1.456,-0.783 2,-1.5 3.722,-0.238 7.389,-0.738 11,-1.5 1.402,0.365 2.402,1.199 3,2.5 -4.584,4.954 -9.917,9.121 -16,12.5 -0.886,0.825 -1.219,1.825 -1,3 1.831,-0.552 3.497,-0.552 5,0 -0.811,0.716 -1.478,1.55 -2,2.5 2.638,1.764 2.304,3.098 -1,4 -6.594,0.551 -12.928,-0.282 -19,-2.5 z"
       id="path107" />
  </g>
  <g
     id="g109"
     transform="translate(-24.506514,-5.5)">
    <path
       style="opacity:1"
       fill="#747573"
       d="m 91.5,234.5 c 5.2804,5.786 11.28,10.619 18,14.5 6.838,2.92 13.505,6.087 20,9.5 6.632,4.16 13.965,6.16 22,6 -3.189,0.666 -6.523,1.333 -10,2 1.76,2.712 2.427,5.712 2,9 -13.946,-5.055 -26.779,-12.055 -38.5,-21 0.229,-3.31 -1.271,-5.144 -4.5,-5.5 -2.843,-3.01 -5.843,-5.843 -9,-8.5 -0.6667,-1 -1.3333,-2 -2,-3 1.5481,-0.321 2.2148,-1.321 2,-3 z"
       id="path109" />
  </g>
  <g
     id="g110"
     transform="translate(-24.506514,-5.5)">
    <path
       style="opacity:1"
       fill="#3f3c47"
       d="m 134.5,257.5 c 2.667,0 5.333,0 8,0 -0.418,0.722 -1.084,1.222 -2,1.5 4.357,0.631 8.691,0.465 13,-0.5 2.476,-0.267 3.143,0.399 2,2 -1,1.667 -2.333,3 -4,4 -8.035,0.16 -15.368,-1.84 -22,-6 2.369,0.351 4.703,0.518 7,0.5 -0.916,-0.278 -1.582,-0.778 -2,-1.5 z"
       id="path110" />
  </g>
  <g
     id="g111"
     transform="translate(-24.506514,-5.5)">
    <path
       style="opacity:1"
       fill="#706c74"
       d="m 151.5,252.5 c 0.333,0 0.667,0 1,0 0,1.667 0,3.333 0,5 2.943,-0.147 5.776,-0.813 8.5,-2 1.03,0.336 1.53,1.003 1.5,2 -2.145,1.489 -4.478,2.489 -7,3 1.143,-1.601 0.476,-2.267 -2,-2 -4.309,0.965 -8.643,1.131 -13,0.5 0.916,-0.278 1.582,-0.778 2,-1.5 3.213,0.31 6.213,-0.023 9,-1 0,-1.333 0,-2.667 0,-4 z"
       id="path111" />
  </g>
  <g
     id="g112"
     transform="translate(-24.506514,-5.5)">
    <path
       style="opacity:1"
       fill="#89837b"
       d="m 222.5,243.5 c -1.235,2.801 -2.735,5.468 -4.5,8 -6.033,5.536 -12.2,10.87 -18.5,16 7.743,-8.074 15.41,-16.074 23,-24 z"
       id="path112" />
  </g>
  <g
     id="g113"
     transform="translate(-24.506514,-5.5)">
    <path
       style="opacity:1"
       fill="#3e4045"
       d="m 91.5,240.5 c 3.157,2.657 6.157,5.49 9,8.5 3.229,0.356 4.729,2.19 4.5,5.5 11.721,8.945 24.554,15.945 38.5,21 0.667,0 1,0.333 1,1 0,0.333 0,0.667 0,1 -0.02,1.643 0.647,2.976 2,4 -0.333,0.333 -0.667,0.667 -1,1 -3.134,-1.792 -6.467,-3.125 -10,-4 -3.497,-4.653 -7.997,-5.986 -13.5,-4 -1,-1 -2,-2 -3,-3 -2.041,0.923 -4.208,1.256 -6.5,1 -0.333,0 -0.667,0 -1,0 -1.146,-2.167 -2.979,-3.5 -5.5,-4 -0.266,-4.732 -3.099,-7.065 -8.5,-7 0,-1.333 0,-2.667 0,-4 -1.3734,0.157 -2.7068,-0.01 -4,-0.5 -6.491,-6.148 -12.1576,-12.981 -17,-20.5 0.5253,-0.692 1.1919,-1.192 2,-1.5 -0.3333,-0.333 -0.6667,-0.667 -1,-1 3.9142,0.463 7.2476,2.296 10,5.5 1.1888,0.929 2.5222,1.262 4,1 z"
       id="path113" />
  </g>
  <g
     id="g114"
     transform="translate(-24.506514,-5.5)">
    <path
       style="opacity:1"
       fill="#5a5759"
       d="m 222.5,243.5 c -7.59,7.926 -15.257,15.926 -23,24 -6.751,5.092 -13.751,9.759 -21,14 -2.065,0.017 -4.065,0.35 -6,1 0,-1 0,-2 0,-3 -2,0 -4,0 -6,0 7.543,-2.466 14.877,-5.633 22,-9.5 10.309,-8.469 19.309,-17.969 27,-28.5 1.731,-1.639 3.565,-3.306 5.5,-5 1.352,2.094 1.852,4.427 1.5,7 z"
       id="path114" />
  </g>
  <g
     id="g115"
     transform="translate(-24.506514,-5.5)">
    <path
       style="opacity:1"
       fill="#eeeef0"
       d="m 151.5,241.5 c 1.753,2.646 2.753,5.646 3,9 7.274,-4.541 15.274,-7.541 24,-9 -4.11,4.224 -8.777,7.724 -14,10.5 -2.956,0.989 -5.956,1.822 -9,2.5 -1.239,-0.442 -2.239,-1.109 -3,-2 -0.333,0 -0.667,0 -1,0 0,-0.667 0,-1.333 0,-2 0,-3 0,-6 0,-9 z"
       id="path115" />
  </g>
  <g
     id="g116"
     transform="translate(-24.506514,-5.5)">
    <path
       style="opacity:1"
       fill="#2b2741"
       d="m 144.5,239.5 c 1.45,2.736 2.784,5.569 4,8.5 -0.987,2.552 0.013,4.052 3,4.5 0,1.333 0,2.667 0,4 -4.346,0.166 -8.679,-10e-4 -13,-0.5 -2.691,0.054 -4.524,-1.113 -5.5,-3.5 -0.333,0.333 -0.667,0.667 -1,1 0.534,-3.097 0.867,-6.097 1,-9 1.856,2.619 4.356,3.452 7.5,2.5 -1.507,-0.837 -2.007,-2.004 -1.5,-3.5 1.183,1.231 2.349,1.231 3.5,0 -0.525,-0.692 -1.192,-1.192 -2,-1.5 1.484,-0.662 2.817,-1.496 4,-2.5 z"
       id="path116" />
  </g>
</svg>
