<?xml version="1.0" encoding="UTF-8" standalone="no"?>
<svg
   version="1.1"
   viewBox="-52 0 1360 1000"
   id="svg1"
   sodipodi:docname="lessDefensegreater.svg"
   xmlns:inkscape="http://www.inkscape.org/namespaces/inkscape"
   xmlns:sodipodi="http://sodipodi.sourceforge.net/DTD/sodipodi-0.dtd"
   xmlns="http://www.w3.org/2000/svg"
   xmlns:svg="http://www.w3.org/2000/svg">
  <defs
     id="defs1" />
  <sodipodi:namedview
     id="namedview1"
     pagecolor="#ffffff"
     bordercolor="#000000"
     borderopacity="0.25"
     inkscape:showpageshadow="2"
     inkscape:pageopacity="0.0"
     inkscape:pagecheckerboard="0"
     inkscape:deskcolor="#d1d1d1" />
  <path
     fill="currentColor"
     d="M1163 221q-7 48 -7 122.5t-2 123.5q-9 135 -48 254.5t-77 171.5q-70 96 -172.5 161t-227.5 96q-126 -30 -229.5 -95t-172.5 -162q-38 -52 -77.5 -171.5t-48.5 -254.5q-2 -34 -2 -116t-6 -130q-25 -198 -135 -381q181 42 362 0q175 -41 308 -150q133 110 308 150 q181 42 362 0q-111 183 -135 381z"
     id="path1" />
</svg>
