<?xml version="1.0" encoding="UTF-8" standalone="no"?>
<svg
   version="1.1"
   viewBox="-10 0 1280 1419"
   id="svg1"
   sodipodi:docname="experience.svg"
   width="1280"
   height="1419"
   inkscape:version="1.3.2 (091e20ef0f, 2023-11-25, custom)"
   xmlns:inkscape="http://www.inkscape.org/namespaces/inkscape"
   xmlns:sodipodi="http://sodipodi.sourceforge.net/DTD/sodipodi-0.dtd"
   xmlns="http://www.w3.org/2000/svg"
   xmlns:svg="http://www.w3.org/2000/svg">
  <defs
     id="defs1" />
  <sodipodi:namedview
     id="namedview1"
     pagecolor="#ffffff"
     bordercolor="#000000"
     borderopacity="0.25"
     inkscape:showpageshadow="2"
     inkscape:pageopacity="0.0"
     inkscape:pagecheckerboard="0"
     inkscape:deskcolor="#d1d1d1"
     inkscape:zoom="0.62"
     inkscape:cx="635.48387"
     inkscape:cy="719.35484"
     inkscape:window-width="1440"
     inkscape:window-height="868"
     inkscape:window-x="0"
     inkscape:window-y="0"
     inkscape:window-maximized="1"
     inkscape:current-layer="svg1" />
  <path
     fill="currentColor"
     d="m 1213,167 h -41 l 81,1252 Q 1149,1371 941.5,1275.5 734,1180 630,1132 526,1180 318.5,1275.5 111,1371 7,1419 L 88,167 H 47 Q 23,166 6.5,149 -10,132 -10,108.5 -10,85 6.5,68 23,51 47,50 H 96 L 99,0 h 1062 l 3,50 h 49 q 24,1 40.5,18 16.5,17 16.5,40.5 0,23.5 -16.5,40.5 -16.5,17 -40.5,18 z M 938,380 Q 874,302 780,264 l 44,112 q 18,1 56,2.5 38,1.5 58,1.5 z M 482,263 q -95,38 -161,117 l 117,-4 z M 231,660 q 6,103 61,188 l 34,-114 z m 399,375 q 48,0 95,-12 -16,-9 -48,-28 -32,-19 -49,-29 l -88,59 q 44,10 90,10 z M 965,852 q 59,-92 64,-201 l -99,80 q 7,22 18.5,63 11.5,41 16.5,58 z M 835,703 q 23,-18 304,-236 -61,-2 -185.5,-5 Q 829,459 767,457 754,423 705.5,296 657,169 631,100 608,159 563,278 518,397 495,456 L 120,467 Q 273,585 425,703 406,764 368.5,886.5 331,1009 312,1070 524,931 630,862 667,886 948,1070 910,948 834,703 Z M 681,537 h -1 l 138,4 Q 799,556 761.5,584.5 724,613 705,628 q 10,31 42,136 L 630,688 512,764 q 10,-32 42,-136 l -112,-87 137,-4 51,-132 z"
     id="path1" />
</svg>
