<?xml version="1.0" encoding="UTF-8" standalone="no"?>
<svg
   version="1.1"
   viewBox="-10 0 1354 1000"
   id="svg1"
   sodipodi:docname="lessExpgreater.svg"
   xmlns:inkscape="http://www.inkscape.org/namespaces/inkscape"
   xmlns:sodipodi="http://sodipodi.sourceforge.net/DTD/sodipodi-0.dtd"
   xmlns="http://www.w3.org/2000/svg"
   xmlns:svg="http://www.w3.org/2000/svg">
  <defs
     id="defs1" />
  <sodipodi:namedview
     id="namedview1"
     pagecolor="#ffffff"
     bordercolor="#000000"
     borderopacity="0.25"
     inkscape:showpageshadow="2"
     inkscape:pageopacity="0.0"
     inkscape:pagecheckerboard="0"
     inkscape:deskcolor="#d1d1d1" />
  <path
     fill="currentColor"
     d="M1255 -52h-41l81 1252q-104 -48 -311.5 -143.5t-311.5 -143.5q-104 48 -311.5 143.5t-311.5 143.5l81 -1252h-41q-24 -1 -40.5 -18t-16.5 -40.5t16.5 -40.5t40.5 -18h49l3 -50h1062l3 50h49q24 1 40.5 18t16.5 40.5t-16.5 40.5t-40.5 18zM980 161q-64 -78 -158 -116 l44 112q18 1 56 2.5t58 1.5zM524 44q-95 38 -161 117l117 -4zM273 441q6 103 61 188l34 -114zM672 816q48 0 95 -12q-16 -9 -48 -28t-49 -29l-88 59q44 10 90 10zM1007 633q59 -92 64 -201l-99 80q7 22 18.5 63t16.5 58zM877 484q23 -18 304 -236q-61 -2 -185.5 -5 t-186.5 -5q-13 -34 -61.5 -161t-74.5 -196q-23 59 -68 178t-68 178l-375 11q153 118 305 236q-19 61 -56.5 183.5t-56.5 183.5q212 -139 318 -208q37 24 318 208q-38 -122 -114 -367h1zM723 318h-1l138 4q-19 15 -56.5 43.5t-56.5 43.5q10 31 42 136l-117 -76l-118 76 q10 -32 42 -136l-112 -87l137 -4l51 -132z"
     id="path1" />
</svg>
