<?xml version="1.0" encoding="UTF-8" standalone="no"?>
<svg
   version="1.1"
   viewBox="-10 0 1622 1180"
   id="svg1"
   sodipodi:docname="expert.svg"
   width="1622"
   height="1180"
   inkscape:version="1.3.2 (091e20ef0f, 2023-11-25, custom)"
   xmlns:inkscape="http://www.inkscape.org/namespaces/inkscape"
   xmlns:sodipodi="http://sodipodi.sourceforge.net/DTD/sodipodi-0.dtd"
   xmlns="http://www.w3.org/2000/svg"
   xmlns:svg="http://www.w3.org/2000/svg">
  <defs
     id="defs1" />
  <sodipodi:namedview
     id="namedview1"
     pagecolor="#ffffff"
     bordercolor="#000000"
     borderopacity="0.25"
     inkscape:showpageshadow="2"
     inkscape:pageopacity="0.0"
     inkscape:pagecheckerboard="0"
     inkscape:deskcolor="#d1d1d1"
     inkscape:zoom="0.48914286"
     inkscape:cx="805.49065"
     inkscape:cy="705.31542"
     inkscape:window-width="1440"
     inkscape:window-height="868"
     inkscape:window-x="0"
     inkscape:window-y="0"
     inkscape:window-maximized="1"
     inkscape:current-layer="svg1" />
  <path
     fill="currentColor"
     d="m 1421,529 191,-224 q -32,97 -74.5,282.5 Q 1495,773 1467,911 q -28,138 -28,147 0,14 -1,20.5 -1,6.5 -10,19 -9,12.5 -27,20.5 -18,8 -54.5,17.5 -36.5,9.5 -90.5,17.5 -189,27 -455,27 -266,0 -455,-27 -54,-8 -91,-17.5 -37,-9.5 -55,-17.5 -18,-8 -27,-20.5 -9,-12.5 -9.5,-19 Q 163,1072 163,1058 163,1049 135,911 107,773 64,587.5 21,402 -10,305 l 191,224 q -12,22 -12,47 0,39 28,67.5 28,28.5 67.5,28.5 39.5,0 67.5,-28.5 28,-28.5 28,-67.5 0,-30 -17,-54.5 -17,-24.5 -44,-35.5 41,-167 47,-356 121,144 210,313 -41,28 -41,78 0,39 28,67 28,28 67.5,28 39.5,0 67.5,-28 28,-28 28,-67 0,-50 -41,-78 L 801,0 936,443 q -40,28 -40,78 0,39 28,67 28,28 67,28 39,0 67,-28 28,-28 28,-67 0,-50 -40,-78 89,-169 209,-313 7,189 48,356 -27,11 -44.5,35.5 -17.5,24.5 -17.5,54.5 0,39 28.5,67.5 28.5,28.5 68,28.5 39.5,0 67.5,-28.5 28,-28.5 28,-67.5 0,-25 -12,-47 z m -620,588 q 229,0 369,-18 140,-18 194,-41 -54,-23 -194,-41 -140,-18 -369,-18 -229,0 -369.5,18 -140.5,18 -193.5,41 53,23 193.5,41 140.5,18 369.5,18 z"
     id="path1" />
</svg>
