<?xml version="1.0" encoding="UTF-8" standalone="no"?>
<svg
   version="1.1"
   viewBox="-10 0 1463.2727 990"
   id="svg1"
   sodipodi:docname="gold.svg"
   inkscape:version="1.3.2 (091e20ef0f, 2023-11-25, custom)"
   width="1463.2727"
   height="990"
   xmlns:inkscape="http://www.inkscape.org/namespaces/inkscape"
   xmlns:sodipodi="http://sodipodi.sourceforge.net/DTD/sodipodi-0.dtd"
   xmlns="http://www.w3.org/2000/svg"
   xmlns:svg="http://www.w3.org/2000/svg">
  <defs
     id="defs1" />
  <sodipodi:namedview
     id="namedview1"
     pagecolor="#ffffff"
     bordercolor="#000000"
     borderopacity="0.25"
     inkscape:showpageshadow="2"
     inkscape:pageopacity="0.0"
     inkscape:pagecheckerboard="0"
     inkscape:deskcolor="#d1d1d1"
     inkscape:zoom="0.36481382"
     inkscape:cx="106.90384"
     inkscape:cy="0"
     inkscape:window-width="1440"
     inkscape:window-height="868"
     inkscape:window-x="0"
     inkscape:window-y="0"
     inkscape:window-maximized="1"
     inkscape:current-layer="svg1" />
  <path
     fill="currentColor"
     d="m 1060.2727,171 c -108.6667,0 -201.5,-8.33333 -278.5,-25 -77,-16.66667 -115.49997,-36.83333 -115.49997,-60.5 0,-23.66667 38.49997,-43.83333 115.49997,-60.5 77,-16.666667 169.8333,-25 278.5,-25 108.6667,0 201.3333,8.333333 278,25 76.6667,16.66667 115,36.83333 115,60.5 0,23.66667 -38.3333,43.83333 -115,60.5 -76.6667,16.66667 -169.3333,25 -278,25 z M 513.27273,684 c -34.66667,40.66667 -73,75.16667 -115,103.5 -42,28.33333 -83.16667,48.33333 -123.5,60 -40.33333,11.66667 -79.5,15 -117.5,10 -38,-5 -70.666673,-19.16667 -98.000003,-42.5 -36,-30.66667 -58.0000003,-72.33333 -66.0000003,-125 -7.9999997,-52.66667 -1.33333,-109.66667 20.0000003,-171 21.33333,-61.33333 55,-119 101.000003,-173 34.66667,-40.66667 72.83333,-75.16667 114.5,-103.5 41.66667,-28.33333 82.83333,-48.33333 123.5,-60 40.66667,-11.66667 80,-15 118,-10 38,5 70.66667,19.16667 98,42.5 36,30.66667 58,72.33333 66,125 8,52.66667 1.33333,109.66667 -20,171 -21.33333,61.33333 -55,119 -101,173 z M 1060.2727,265 c 111.3333,0 207,-8.66667 287,-26 47.3333,-10.66667 82.6667,-23.33333 106,-38 v 158 c 0,23.33333 -38.3333,43.33333 -115,60 -76.6667,16.66667 -169.3333,25 -278,25 -66.6667,0 -128.3333,-3.33333 -185,-10 -14.6667,-66 -45.6667,-119.33333 -93,-160 l -56,-47 c 13.3333,4 28.6667,8 46,12 80,17.33333 176,26 288,26 z m -338,80 c 36,30.66667 58,72.33333 66,125 8,52.66667 1.3333,109.66667 -20,171 -21.3333,61.33333 -55,119 -100.99997,173 -34.66667,41.33333 -73,76 -115,104 -42,28 -83.16667,47.8333 -123.5,59.5 -40.33333,11.6667 -79.66667,15 -118,10 -38.33333,-5 -70.83333,-19.1667 -97.5,-42.5 l -83,-70 c 27.33333,23.33333 60,37.5 98,42.5 38,5 77.33333,1.6667 118,-10 40.66667,-11.66667 81.83333,-31.5 123.5,-59.5 41.66667,-28 79.83333,-62.66667 114.5,-104 46,-54 79.66667,-111.66667 101,-173 21.33327,-61.33333 27.99997,-118.33333 19.99997,-171 -8,-52.66667 -29.99997,-94.33333 -65.99997,-125 z m 338,192 c 111.3333,0 207,-8.66667 287,-26 47.3333,-10 82.6667,-22.33333 106,-37 v 157 c 0,24 -38.3333,44.33333 -115,61 -76.6667,16.66667 -169.3333,25 -278,25 -78.6667,0 -150.6667,-4.66667 -216,-14 19.3333,-46.66667 31.6667,-93 37,-139 1.3333,-10.66667 2,-22.33333 2,-35 56,5.33333 115,8 177,8 z m 0,273 c 111.3333,0 207,-8.66667 287,-26 47.3333,-10 82.6667,-22.33333 106,-37 v 157 c 0,24 -38.3333,44.3333 -115,61 -76.6667,16.6667 -169.3333,25 -278,25 -86.6667,0 -164.3333,-5.6667 -233,-17 -68.6667,-11.3333 -116,-25.6667 -141.99997,-43 19.33327,-18 36.99997,-36.33333 52.99997,-55 22.6667,-27.33333 43,-56 61,-86 75.3333,14 162.3333,21 261,21 z"
     id="path1"
     sodipodi:nodetypes="ssssssssscssscsscssscsscsccsssccccscsscsssccssscssccsccssscccssccsssscccs"
     style="fill:#e1bb3a;fill-opacity:1" />
</svg>
