<?xml version="1.0" encoding="UTF-8" standalone="no"?>
<svg
   version="1.1"
   viewBox="-10 0 1437.5096 1478.1096"
   id="svg1"
   sodipodi:docname="hand.svg"
   width="1437.5096"
   height="1478.1096"
   inkscape:version="1.3.2 (091e20ef0f, 2023-11-25, custom)"
   xmlns:inkscape="http://www.inkscape.org/namespaces/inkscape"
   xmlns:sodipodi="http://sodipodi.sourceforge.net/DTD/sodipodi-0.dtd"
   xmlns="http://www.w3.org/2000/svg"
   xmlns:svg="http://www.w3.org/2000/svg">
  <defs
     id="defs1" />
  <sodipodi:namedview
     id="namedview1"
     pagecolor="#ffffff"
     bordercolor="#000000"
     borderopacity="0.25"
     inkscape:showpageshadow="2"
     inkscape:pageopacity="0.0"
     inkscape:pagecheckerboard="0"
     inkscape:deskcolor="#d1d1d1"
     inkscape:zoom="0.54040404"
     inkscape:cx="712.42991"
     inkscape:cy="712.42991"
     inkscape:window-width="1440"
     inkscape:window-height="868"
     inkscape:window-x="0"
     inkscape:window-y="0"
     inkscape:window-maximized="1"
     inkscape:current-layer="svg1" />
  <path
     fill="currentColor"
     d="m 688.10959,1082.1096 -537,21 q -51,2 -88.500001,-32.5 -37.5,-34.5 -39.5,-85.50001 l -33,-836 q -2,-51.000001 32.5,-88.500001 34.5,-37.5 85.500001,-39.5 l 538,-20.99999996 q 51,-2.00000004 88.5,32.49999996 37.5,34.5 39.5,85.500001 l 33,836 q 2,51.00001 -33,88.50001 -35,37.5 -86,39.5 z m 230,211 q -30,2 -57,-6 -47,-12 -480,-98 220,-14 272,-13 25,1 51,-3 28,-3 46,-9 52,-16 88,-53 28,-29 45,-70 13,-33 15,-71.00001 -11,-285 -28,-787 207.00001,43 228.00001,47 24,4 43,14 18,10 31,23 17,18 26,40 5,15 7,32 2,26 -5,50 -150,766.00001 -166,813.00001 -5,13 -11,24 -7,12 -15,23 -21.00001,25 -46.00001,35 -18,7 -44,9 z M 1412.1096,512.10959 q 13,23 15,52 2,27 -6,52 -276,728.00001 -301,784.00001 -8,18 -20,32 -15,19 -32,29 -19,12 -45,16 -12,1 -24.00001,1 -9,-1 -18,-3 -84,-31 -242.5,-90 -158.5,-59 -157.5,-61 0,-1 61,11.5 61,12.5 137,28 76,15.5 100,19.5 44,7 81,-1 42.00001,-9 76.00001,-33 21,-15 40,-37 23,-26 37,-56 10,-19 16,-40 22,-111 75,-375.00001 53,-264 82,-406 24,8 46,15 22,8 37,18 29,19 43,44 z"
     id="path1" />
</svg>
