<?xml version="1.0" encoding="UTF-8" standalone="no"?>
<svg
   version="1.1"
   viewBox="-10 0 1761 1445"
   id="svg1"
   sodipodi:docname="initiative.svg"
   width="1761"
   height="1445"
   inkscape:version="1.3.2 (091e20ef0f, 2023-11-25, custom)"
   xmlns:inkscape="http://www.inkscape.org/namespaces/inkscape"
   xmlns:sodipodi="http://sodipodi.sourceforge.net/DTD/sodipodi-0.dtd"
   xmlns="http://www.w3.org/2000/svg"
   xmlns:svg="http://www.w3.org/2000/svg">
  <defs
     id="defs1" />
  <sodipodi:namedview
     id="namedview1"
     pagecolor="#ffffff"
     bordercolor="#000000"
     borderopacity="0.25"
     inkscape:showpageshadow="2"
     inkscape:pageopacity="0.0"
     inkscape:pagecheckerboard="0"
     inkscape:deskcolor="#d1d1d1"
     inkscape:zoom="0.47955182"
     inkscape:cx="877.90304"
     inkscape:cy="769.46846"
     inkscape:window-width="1440"
     inkscape:window-height="868"
     inkscape:window-x="0"
     inkscape:window-y="0"
     inkscape:window-maximized="1"
     inkscape:current-layer="svg1" />
  <path
     fill="currentColor"
     d="M 206,640 323,361 q 98,-22 193,-36 66,-9 127,-15 l 23,-25 -79,-41 105,-71 5,-97 137,-76 q 60,31 89,84 30,54 21,125 -9,71 -57,134 l -73,-28 -31,56 q 21,15 43,33 82,69 133,170 l 233,-38 -48,-48 61,-61 74,68 383,-396 89,-30 -23,81 -378,406 66,69 -54,58 -48,-41 -81,63 -71,-55 -239,53 -130,-94 -114,176 165,279 66,236 196,145 H 849 L 712,1168 549,907 q -11,83 -20,157 -9,68 -18,150 l -130,71 Q 344,1253 268.5,1189.5 193,1126 155,1094 l -165,34 168,-216 q 37,31 112.5,94.5 Q 346,1070 384,1102 V 714 q 92,-143 168,-262 -33,1 -51,3 -50,3 -97,7 L 293,676 Z"
     id="path1" />
</svg>
