<?xml version="1.0" encoding="UTF-8" standalone="no"?>
<svg
   version="1.1"
   viewBox="-10 0 1785 1000"
   id="svg1"
   sodipodi:docname="lessInitiativegreater.svg"
   xmlns:inkscape="http://www.inkscape.org/namespaces/inkscape"
   xmlns:sodipodi="http://sodipodi.sourceforge.net/DTD/sodipodi-0.dtd"
   xmlns="http://www.w3.org/2000/svg"
   xmlns:svg="http://www.w3.org/2000/svg">
  <defs
     id="defs1" />
  <sodipodi:namedview
     id="namedview1"
     pagecolor="#ffffff"
     bordercolor="#000000"
     borderopacity="0.25"
     inkscape:showpageshadow="2"
     inkscape:pageopacity="0.0"
     inkscape:pagecheckerboard="0"
     inkscape:deskcolor="#d1d1d1" />
  <path
     fill="currentColor"
     d="M220 370l117 -279q98 -22 193 -36q66 -9 127 -15l23 -25l-79 -41l105 -71l5 -97l137 -76q60 31 89 84q30 54 21 125t-57 134l-73 -28l-31 56q21 15 43 33q82 69 133 170l233 -38l-48 -48l61 -61l74 68l383 -396l89 -30l-23 81l-378 406l66 69l-54 58l-48 -41l-81 63 l-71 -55l-239 53l-130 -94l-114 176l165 279l66 236l196 145h-257l-137 -277l-163 -261q-11 83 -20 157q-9 68 -18 150l-130 71q-37 -32 -112.5 -95.5t-113.5 -95.5l-165 34l168 -216q37 31 112.5 94.5t113.5 95.5v-388q92 -143 168 -262q-33 1 -51 3q-50 3 -97 7l-111 214z "
     id="path1" />
</svg>
