<?xml version="1.0" encoding="UTF-8" standalone="no"?>
<svg
   version="1.1"
   viewBox="-10 0 3604 1080"
   id="svg1"
   sodipodi:docname="level4.svg"
   width="3604"
   height="1080"
   inkscape:version="1.3.2 (091e20ef0f, 2023-11-25, custom)"
   xmlns:inkscape="http://www.inkscape.org/namespaces/inkscape"
   xmlns:sodipodi="http://sodipodi.sourceforge.net/DTD/sodipodi-0.dtd"
   xmlns="http://www.w3.org/2000/svg"
   xmlns:svg="http://www.w3.org/2000/svg">
  <defs
     id="defs1" />
  <sodipodi:namedview
     id="namedview1"
     pagecolor="#ffffff"
     bordercolor="#000000"
     borderopacity="0.25"
     inkscape:showpageshadow="2"
     inkscape:pageopacity="0.0"
     inkscape:pagecheckerboard="0"
     inkscape:deskcolor="#d1d1d1"
     inkscape:zoom="0.22681505"
     inkscape:cx="1798.8224"
     inkscape:cy="604.01636"
     inkscape:window-width="1440"
     inkscape:window-height="868"
     inkscape:window-x="0"
     inkscape:window-y="0"
     inkscape:window-maximized="1"
     inkscape:current-layer="svg1" />
  <path
     fill="currentColor"
     d="m 1112,142 v -26 h 493 v 26 h -32 q -41,0 -66,15 -18,9 -28,33 -8,16 -8,88 v 620 q 0,72 8,90 8,18 31,31 24,14 63,14 h 32 v 26 h -493 v -26 h 31 q 41,0 66,-15 18,-9 28,-33 8,-17 8,-88 V 278 q 0,-73 -8,-91 -7,-18 -30.5,-31.5 Q 1183,142 1143,142 Z m 1229,0 v -26 h 309 v 26 q -51,8 -91,55 -29,34 -87,163 l -325,720 h -23 L 1801,331 q -58,-136 -78,-159 -20,-24 -75,-30 v -26 h 452 v 26 h -15 q -61,0 -84,15 -16,11 -16,31 0,12 6,29 5,16 38,92 l 200,469 187,-418 q 33,-76 41,-101 7,-26 7,-44 0,-21 -11,-37 -11,-16 -32,-24 -31,-12 -80,-12 z M 626,680 Q 492,698 365,663 238,628 141,540 39,448 -10,313 q 116,50 233,68 24,3 78,9.5 54,6.5 79.5,11 25.5,4.5 62.5,19.5 37,15 66,39 89,72 117,220 z M 405,763 Q 530,714 658.5,723.5 787,733 907,795 833,924 726,962 691,975 651,976.5 611,978 586,974 561,970 507.5,957.5 454,945 431,940 314,918 189,926 280,816 405,763 Z m 391,-63 h -1 Q 684,623 613,511 542,399 528,269 514,132 567,0 q 53,114 128,207 15,19 51,60 36,41 52,61.5 16,20.5 33.5,56.5 17.5,36 23.5,74 18,114 -59,241 z M 3056,269 q -13,130 -84,242 -71,112 -183,189 -77,-127 -60,-241 6,-38 24,-74 18,-36 33.5,-56.5 15.5,-20.5 51.5,-61.5 36,-41 51,-60 75,-93 128,-207 53,133 39,269 z m 305,112 q 117,-18 233,-68 -49,135 -151,227 -96,88 -223.5,123 -127.5,35 -261.5,17 28,-147 117,-220 29,-24 66.5,-39 37.5,-15 62.5,-19.5 25,-4.5 79,-11 54,-6.5 78,-9.5 z m -684,414 q 120,-62 249,-71.5 129,-9.5 254,39.5 125,53 215,163 -125,-8 -241,14 -24,5 -77,17.5 -53,12.5 -78.5,16.5 -25.5,4 -65.5,2.5 -40,-1.5 -75,-14.5 -107,-38 -181,-167 z"
     id="path1" />
</svg>
