<?xml version="1.0" encoding="UTF-8" standalone="no"?>
<svg
   version="1.1"
   viewBox="-10 0 2737 1059"
   id="svg1"
   sodipodi:docname="level1.svg"
   width="2737"
   height="1059"
   inkscape:version="1.3.2 (091e20ef0f, 2023-11-25, custom)"
   xmlns:inkscape="http://www.inkscape.org/namespaces/inkscape"
   xmlns:sodipodi="http://sodipodi.sourceforge.net/DTD/sodipodi-0.dtd"
   xmlns="http://www.w3.org/2000/svg"
   xmlns:svg="http://www.w3.org/2000/svg">
  <defs
     id="defs1" />
  <sodipodi:namedview
     id="namedview1"
     pagecolor="#ffffff"
     bordercolor="#000000"
     borderopacity="0.25"
     inkscape:showpageshadow="2"
     inkscape:pageopacity="0.0"
     inkscape:pagecheckerboard="0"
     inkscape:deskcolor="#d1d1d1"
     inkscape:zoom="0.29446164"
     inkscape:cx="1361.8072"
     inkscape:cy="584.11682"
     inkscape:window-width="1440"
     inkscape:window-height="868"
     inkscape:window-x="0"
     inkscape:window-y="0"
     inkscape:window-maximized="1"
     inkscape:current-layer="svg1" />
  <path
     fill="currentColor"
     d="m 1112,143 v -26 h 493 v 25 h -32 q -41,0 -66,15 -18,10 -28,33 -8,17 -8,88 v 620 q 0,72 8,90 8,18 31,32 24,13 63,13 h 32 v 26 h -493 v -26 h 31 q 41,0 66,-14 18,-10 28,-34 8,-16 8,-87 V 278 q 0,-72 -8,-90 -7,-18 -30.5,-31.5 Q 1183,143 1143,143 Z M 626,680 Q 492,699 365,663.5 238,628 141,541 39,448 -10,313 q 116,50 233,68 24,4 78,10 54,6 79.5,11 25.5,5 62.5,19.5 37,14.5 66,38.5 89,73 117,220 z m 170,20 h -1 Q 684,623 613,511.5 542,400 528,269 514,133 567,0 q 53,115 128,207 15,19 51,60.5 36,41.5 52,62 16,20.5 33.5,56.5 17.5,36 23.5,73 18,114 -59,241 z M 405,764 Q 530,715 658.5,724.5 787,734 907,796 833,924 726,963 691,975 651,976.5 611,978 586,974 561,970 507.5,957.5 454,945 431,941 314,919 189,926 280,816 405,764 Z M 2189,269 q -14,131 -85,242.5 -71,111.5 -183,188.5 -77,-127 -59,-241 5,-37 23,-73 18,-36 33.5,-56.5 15.5,-20.5 51.5,-62 36,-41.5 52,-60.5 75,-92 128,-207 53,133 39,269 z m 305,112 q 117,-18 233,-68 -49,135 -151,228 -97,87 -224.5,122.5 Q 2224,699 2091,680 q 28,-147 117,-220 29,-24 66,-38.5 37,-14.5 62.5,-19.5 25.5,-5 79.5,-11 54,-6 78,-10 z m -685,415 h 1 q 120,-62 248.5,-71.5 128.5,-9.5 253.5,39.5 125,52 216,162 -125,-8 -242,15 -24,4 -77,16.5 -53,12.5 -78,16.5 -25,4 -65,2.5 -40,-1.5 -75,-13.5 -108,-39 -182,-167 z"
     id="path1" />
</svg>
