<?xml version="1.0" standalone="no"?>
<!DOCTYPE svg PUBLIC "-//W3C//DTD SVG 1.1//EN" "http://www.w3.org/Graphics/SVG/1.1/DTD/svg11.dtd" >
<svg xmlns="http://www.w3.org/2000/svg" xmlns:xlink="http://www.w3.org/1999/xlink" version="1.1" viewBox="-10 0 3774 1000">
   <path fill="currentColor"
d="M1202 37v-26h493v26h-32q-41 0 -66 15q-18 9 -28 33q-8 16 -8 88v620q0 72 8 90t31 31q24 14 63 14h32v26h-493v-26h31q41 0 66 -15q18 -9 28 -33q8 -17 8 -88v-619q0 -73 -8 -91q-7 -18 -30.5 -31.5t-63.5 -13.5h-31zM2431 37v-26h309v26q-51 8 -91 55q-29 34 -87 163
l-325 720h-23l-323 -749q-58 -136 -78 -159q-20 -24 -75 -30v-26h452v26h-15q-61 0 -84 15q-16 11 -16 31q0 12 6 29q5 16 38 92l200 469l187 -418q33 -76 41 -101q7 -26 7 -44q0 -21 -11 -37t-32 -24q-31 -12 -80 -12zM716 575q-134 18 -261 -17t-224 -123
q-102 -92 -151 -227q116 50 233 68q24 3 78 9.5t79.5 11t62.5 19.5t66 39q89 72 117 220zM495 658q125 -49 253.5 -39.5t248.5 71.5q-74 129 -181 167q-35 13 -75 14.5t-65 -2.5t-78.5 -16.5t-76.5 -17.5q-117 -22 -242 -14q91 -110 216 -163zM886 595h-1
q-111 -77 -182 -189t-85 -242q-14 -137 39 -269q53 114 128 207q15 19 51 60t52 61.5t33.5 56.5t23.5 74q18 114 -59 241zM3146 164q-13 130 -84 242t-183 189q-77 -127 -60 -241q6 -38 24 -74t33.5 -56.5t51.5 -61.5t51 -60q75 -93 128 -207q53 133 39 269zM3451 276
q117 -18 233 -68q-49 135 -151 227q-96 88 -223.5 123t-261.5 17q28 -147 117 -220q29 -24 66.5 -39t62.5 -19.5t79 -11t78 -9.5zM2767 690q120 -62 249 -71.5t254 39.5q125 53 215 163q-125 -8 -241 14q-24 5 -77 17.5t-78.5 16.5t-65.5 2.5t-75 -14.5q-107 -38 -181 -167z
" />
</svg>
