<?xml version="1.0" standalone="no"?>
<!DOCTYPE svg PUBLIC "-//W3C//DTD SVG 1.1//EN" "http://www.w3.org/Graphics/SVG/1.1/DTD/svg11.dtd" >
<svg xmlns="http://www.w3.org/2000/svg" xmlns:xlink="http://www.w3.org/1999/xlink" version="1.1" viewBox="-10 0 2907 1000">
   <path fill="currentColor"
d="M1202 59v-26h493v25h-32q-41 0 -66 15q-18 10 -28 33q-8 17 -8 88v620q0 72 8 90t31 32q24 13 63 13h32v26h-493v-26h31q41 0 66 -14q18 -10 28 -34q8 -16 8 -87v-620q0 -72 -8 -90q-7 -18 -30.5 -31.5t-63.5 -13.5h-31zM716 596q-134 19 -261 -16.5t-224 -122.5
q-102 -93 -151 -228q116 50 233 68q24 4 78 10t79.5 11t62.5 19.5t66 38.5q89 73 117 220zM886 616h-1q-111 -77 -182 -188.5t-85 -242.5q-14 -136 39 -269q53 115 128 207q15 19 51 60.5t52 62t33.5 56.5t23.5 73q18 114 -59 241zM495 680q125 -49 253.5 -39.5t248.5 71.5
q-74 128 -181 167q-35 12 -75 13.5t-65 -2.5t-78.5 -16.5t-76.5 -16.5q-117 -22 -242 -15q91 -110 216 -162zM2279 185q-14 131 -85 242.5t-183 188.5q-77 -127 -59 -241q5 -37 23 -73t33.5 -56.5t51.5 -62t52 -60.5q75 -92 128 -207q53 133 39 269zM2584 297
q117 -18 233 -68q-49 135 -151 228q-97 87 -224.5 122.5t-260.5 16.5q28 -147 117 -220q29 -24 66 -38.5t62.5 -19.5t79.5 -11t78 -10zM1899 712h1q120 -62 248.5 -71.5t253.5 39.5q125 52 216 162q-125 -8 -242 15q-24 4 -77 16.5t-78 16.5t-65 2.5t-75 -13.5
q-108 -39 -182 -167z" />
</svg>
