<?xml version="1.0" encoding="UTF-8" standalone="no"?>
<svg
   version="1.1"
   viewBox="-10 0 1621.1608 1272.5194"
   id="svg1"
   sodipodi:docname="magic.svg"
   width="1621.1608"
   height="1272.5194"
   inkscape:version="1.3.2 (091e20ef0f, 2023-11-25, custom)"
   xmlns:inkscape="http://www.inkscape.org/namespaces/inkscape"
   xmlns:sodipodi="http://sodipodi.sourceforge.net/DTD/sodipodi-0.dtd"
   xmlns="http://www.w3.org/2000/svg"
   xmlns:svg="http://www.w3.org/2000/svg">
  <defs
     id="defs1" />
  <sodipodi:namedview
     id="namedview1"
     pagecolor="#ffffff"
     bordercolor="#000000"
     borderopacity="0.25"
     inkscape:showpageshadow="2"
     inkscape:pageopacity="0.0"
     inkscape:pagecheckerboard="0"
     inkscape:deskcolor="#d1d1d1"
     inkscape:zoom="0.50352941"
     inkscape:cx="780.49065"
     inkscape:cy="671.26168"
     inkscape:window-width="1440"
     inkscape:window-height="868"
     inkscape:window-x="0"
     inkscape:window-y="0"
     inkscape:window-maximized="1"
     inkscape:current-layer="svg1" />
  <path
     fill="currentColor"
     d="m 1572.1607,995 q 26,16 32,37 11,43 -49.5,98.5 -60.5,55.5 -138.5,92.5 -213,101 -520.99999,-4 -30,-10 -81.5,-31.5 -51.5,-21.5 -78.5,-30.5 -75,-27 -153,-47 l 123,13 q 87,12 166,28 38,8 55.5,11.5 17.5,3.5 66.5,9.5 48.99999,6 82.49999,4.5 33.5,-1.5 77,-10.5 43.5,-9 76.5,-28 54,-32 52,-59 -1,-27 -53,-51 -45,-21 -112.5,-28.5 -67.5,-7.5 -124.99999,-5.5 -57.5,2 -124,10.5 -66.5,8.5 -92,13.5 -25.5,5 -45.5,9 -87,19 -147.5,28 -60.5,9 -119.5,8.5 -59,-0.5 -109,-13.5 -67,-18 -124.5,-48 -57.5,-30 -98,-65 -40.499996,-35 -67.999996,-68.5 -27.5,-33.5 -45.5,-66.5 -39,-72 -21.9999997,-89 3.99999999,-4 10.5,-5 6.4999997,-1 15.9999997,1.5 9.5,2.5 19,5.5 9.5,3 22.5,9.5 l 24,12 q 0,0 26.999996,13 27,13 27,13.5 78,36 269,75 251,52 424,59 612.99999,22 737.99999,98 z m -557,-174 q -33.99999,-2 -96.99999,-4.5 -63,-2.5 -113,-5.5 -50,-3 -97,-8 -141,-15 -278,-50 l 82,-129 q 84,-132 183,-242 99,-110 214,-197 114.99999,-87 247.49999,-136 132.5,-49 267.5,-49 95,0 187,24 -124,97 -216,225 -70,98 -112,193 -14,31 -25,63 -39,110 -48,196 -6,67 1,134 -104,-9 -196,-14 z"
     id="path1" />
</svg>
