<?xml version="1.0" encoding="UTF-8" standalone="no"?>
<svg
   version="1.1"
   viewBox="-10 0 1700 1000"
   id="svg1"
   sodipodi:docname="lessMagicgreater.svg"
   xmlns:inkscape="http://www.inkscape.org/namespaces/inkscape"
   xmlns:sodipodi="http://sodipodi.sourceforge.net/DTD/sodipodi-0.dtd"
   xmlns="http://www.w3.org/2000/svg"
   xmlns:svg="http://www.w3.org/2000/svg">
  <defs
     id="defs1" />
  <sodipodi:namedview
     id="namedview1"
     pagecolor="#ffffff"
     bordercolor="#000000"
     borderopacity="0.25"
     inkscape:showpageshadow="2"
     inkscape:pageopacity="0.0"
     inkscape:pagecheckerboard="0"
     inkscape:deskcolor="#d1d1d1" />
  <path
     fill="currentColor"
     d="M1641 824q26 16 32 37q11 43 -49.5 98.5t-138.5 92.5q-213 101 -521 -4q-30 -10 -81.5 -31.5t-78.5 -30.5q-75 -27 -153 -47l123 13q87 12 166 28q38 8 55.5 11.5t66.5 9.5t82.5 4.5t77 -10.5t76.5 -28q54 -32 52 -59q-1 -27 -53 -51q-45 -21 -112.5 -28.5t-125 -5.5 t-124 10.5t-92 13.5t-45.5 9q-87 19 -147.5 28t-119.5 8.5t-109 -13.5q-67 -18 -124.5 -48t-98 -65t-68 -68.5t-45.5 -66.5q-39 -72 -22 -89q4 -4 10.5 -5t16 1.5t19 5.5t22.5 9.5l24 12t27 13t27 13.5q78 36 269 75q251 52 424 59q613 22 738 98zM1084 650q-34 -2 -97 -4.5 t-113 -5.5t-97 -8q-141 -15 -278 -50l82 -129q84 -132 183 -242t214 -197t247.5 -136t267.5 -49q95 0 187 24q-124 97 -216 225q-70 98 -112 193q-14 31 -25 63q-39 110 -48 196q-6 67 1 134q-104 -9 -196 -14z"
     id="path1" />
</svg>
