<?xml version="1.0" encoding="UTF-8" standalone="no"?>
<svg
   version="1.1"
   viewBox="-10 0 1067.5656 1459"
   id="svg1"
   sodipodi:docname="map.svg"
   width="1067.5656"
   height="1459"
   inkscape:version="1.3.2 (091e20ef0f, 2023-11-25, custom)"
   xmlns:inkscape="http://www.inkscape.org/namespaces/inkscape"
   xmlns:sodipodi="http://sodipodi.sourceforge.net/DTD/sodipodi-0.dtd"
   xmlns="http://www.w3.org/2000/svg"
   xmlns:svg="http://www.w3.org/2000/svg">
  <defs
     id="defs1" />
  <sodipodi:namedview
     id="namedview1"
     pagecolor="#ffffff"
     bordercolor="#000000"
     borderopacity="0.25"
     inkscape:showpageshadow="2"
     inkscape:pageopacity="0.0"
     inkscape:pagecheckerboard="0"
     inkscape:deskcolor="#d1d1d1"
     inkscape:zoom="0.62"
     inkscape:cx="529.03226"
     inkscape:cy="759.67742"
     inkscape:window-width="1440"
     inkscape:window-height="868"
     inkscape:window-x="0"
     inkscape:window-y="0"
     inkscape:window-maximized="1"
     inkscape:current-layer="svg1" />
  <path
     fill="currentColor"
     d="m 213.89888,786 h 1 q -46,-79 -57,-169.5 -11,-90.5 11,-173 22,-82.5 76.5,-155.5 54.5,-73 134.5,-119 80,-46 170,-57 90,-11 173,11 83,22 155.5,77 72.5,55 118.5,134.5 46.00002,79.5 57.00002,170 11,90.5 -11,173 -22,82.5 -77.00002,155.5 -55,73 -134.5,119 -79.5,46 -170,56.5 -90.5,10.5 -173,-11.5 -82.5,-22 -155.5,-76.5 -73,-54.5 -119,-134.5 z m 347,448 v -60 q -150,-11 -280.5,-91 -130.5,-80 -208.500004,-215 -61,-107 -76.4999996,-228.5 -15.5000004,-121.5 13.5,-233 Q 37.898876,295 109.89888,196 q 72,-99 177,-163 l 11,-6 18,-10 30,-17 37,65 -29,17 21,37 -36,21 -21,-37 q -120,76 -187,199 -67.000004,123 -66.000004,264 1,141 73.000004,265 53,92 137.5,156.5 84.5,64.5 181,92 96.5,27.5 201.5,18 105,-9.5 200,-59.5 l -21,-36 36,-21 21,37 30,-17 37,65 -29,17 -18,11 -11,6 q -125,69 -267,75 v 59 z m -54,60 h 183 q 37,29 113,51.5 76,22.5 134,30.5 l 58,8 v 75 h -793 v -75 q 9,-1 24.5,-3 15.5,-2 58.5,-10 43,-8 80,-17 37,-9 78,-25.5 41,-16.5 64,-34.5 z"
     id="path1" />
</svg>
