<?xml version="1.0" encoding="UTF-8" standalone="no"?>
<svg
   version="1.1"
   viewBox="-10 0 1395.2604 1459"
   id="svg1"
   sodipodi:docname="might.svg"
   width="1395.2604"
   height="1459"
   inkscape:version="1.3.2 (091e20ef0f, 2023-11-25, custom)"
   xmlns:inkscape="http://www.inkscape.org/namespaces/inkscape"
   xmlns:sodipodi="http://sodipodi.sourceforge.net/DTD/sodipodi-0.dtd"
   xmlns="http://www.w3.org/2000/svg"
   xmlns:svg="http://www.w3.org/2000/svg">
  <defs
     id="defs1" />
  <sodipodi:namedview
     id="namedview1"
     pagecolor="#ffffff"
     bordercolor="#000000"
     borderopacity="0.25"
     inkscape:showpageshadow="2"
     inkscape:pageopacity="0.0"
     inkscape:pagecheckerboard="0"
     inkscape:deskcolor="#d1d1d1"
     inkscape:zoom="0.55838226"
     inkscape:cx="693.0736"
     inkscape:cy="809.48131"
     inkscape:window-width="1440"
     inkscape:window-height="868"
     inkscape:window-x="0"
     inkscape:window-y="0"
     inkscape:window-maximized="1"
     inkscape:current-layer="svg1" />
  <path
     fill="currentColor"
     d="m 1365.6302,636 q -14,34 -51.5,81.5 -37.5,47.5 -91.5,95.5 -58,52 -124,90 5,57 16.5,171 11.5,114 17.5,171 -52,69 -122,122 -80.00001,60 -175.00001,92 -9,-85 -27.5,-251 -18.5,-166 -27.5,-247 17,-9 78,-43 61,-34 94,-52 l -29,-95 q -56,19 -111,29 -63,11 -125,13 -64,-2 -124,-13 -57,-11 -112,-29 l -29,95 q 29,16 86.5,48 57.5,32 85.5,47 -9,83 -27.5,249 -18.5,166 -27.5,249 -96,-32 -175,-92 -69,-52 -122,-122 6,-55 17.5,-169 11.5,-114 16.5,-173 -67,-39 -124,-90 Q 98.630189,765 61.130189,717.5 23.630189,670 9.6301887,636 -41.369811,508 40.130189,334.5 121.63019,161 319.63019,0 q -25,140 -45,236 -8,39 -11.5,59 -3.5,20 -6,54.5 -2.5,34.5 5,63.5 7.5,29 23.5,56 33,57 100,90 67,-100 154,-185 69,-68 148,-125 79,56 149,125 86,85 153,185 68.00001,-34 101.00001,-90 16,-27 23,-56 7,-29 4.5,-63.5 -2.5,-34.5 -5.5,-54.5 -3,-20 -11,-59 -21,-96 -46,-236 198,161 279.5,334.5 81.5,173.5 30.5,301.5 z"
     id="path1" />
</svg>
