<?xml version="1.0" encoding="UTF-8" standalone="no"?>
<svg
   version="1.1"
   viewBox="-10 0 1533 1000"
   id="svg1"
   sodipodi:docname="lessMightgreater.svg"
   xmlns:inkscape="http://www.inkscape.org/namespaces/inkscape"
   xmlns:sodipodi="http://sodipodi.sourceforge.net/DTD/sodipodi-0.dtd"
   xmlns="http://www.w3.org/2000/svg"
   xmlns:svg="http://www.w3.org/2000/svg">
  <defs
     id="defs1" />
  <sodipodi:namedview
     id="namedview1"
     pagecolor="#ffffff"
     bordercolor="#000000"
     borderopacity="0.25"
     inkscape:showpageshadow="2"
     inkscape:pageopacity="0.0"
     inkscape:pagecheckerboard="0"
     inkscape:deskcolor="#d1d1d1" />
  <path
     fill="currentColor"
     d="M1439 327q-14 34 -51.5 81.5t-91.5 95.5q-58 52 -124 90q5 57 16.5 171t17.5 171q-52 69 -122 122q-80 60 -175 92q-9 -85 -27.5 -251t-27.5 -247q17 -9 78 -43t94 -52l-29 -95q-56 19 -111 29q-63 11 -125 13q-64 -2 -124 -13q-57 -11 -112 -29l-29 95q29 16 86.5 48 t85.5 47q-9 83 -27.5 249t-27.5 249q-96 -32 -175 -92q-69 -52 -122 -122q6 -55 17.5 -169t16.5 -173q-67 -39 -124 -90q-54 -48 -91.5 -95.5t-51.5 -81.5q-51 -128 30.5 -301.5t279.5 -334.5q-25 140 -45 236q-8 39 -11.5 59t-6 54.5t5 63.5t23.5 56q33 57 100 90 q67 -100 154 -185q69 -68 148 -125q79 56 149 125q86 85 153 185q68 -34 101 -90q16 -27 23 -56t4.5 -63.5t-5.5 -54.5t-11 -59q-21 -96 -46 -236q198 161 279.5 334.5t30.5 301.5z"
     id="path1" />
</svg>
