<?xml version="1.0" encoding="UTF-8" standalone="no"?>
<svg
   version="1.1"
   viewBox="-10 0 1655.6 1327.561"
   id="svg1"
   sodipodi:docname="morale_negative.svg"
   width="1655.6"
   height="1327.561"
   inkscape:version="1.3.2 (091e20ef0f, 2023-11-25, custom)"
   xmlns:inkscape="http://www.inkscape.org/namespaces/inkscape"
   xmlns:sodipodi="http://sodipodi.sourceforge.net/DTD/sodipodi-0.dtd"
   xmlns="http://www.w3.org/2000/svg"
   xmlns:svg="http://www.w3.org/2000/svg">
  <defs
     id="defs1" />
  <sodipodi:namedview
     id="namedview1"
     pagecolor="#ffffff"
     bordercolor="#000000"
     borderopacity="0.25"
     inkscape:showpageshadow="2"
     inkscape:pageopacity="0.0"
     inkscape:pagecheckerboard="0"
     inkscape:deskcolor="#d1d1d1"
     inkscape:zoom="0.47318961"
     inkscape:cx="824.19393"
     inkscape:cy="627.65537"
     inkscape:window-width="1440"
     inkscape:window-height="868"
     inkscape:window-x="0"
     inkscape:window-y="0"
     inkscape:window-maximized="1"
     inkscape:current-layer="svg1" />
  <path
     fill="currentColor"
     d="m 1551.8,327 q 10,79 26,150.5 16,71.5 29,111.5 13,40 25,100.5 12,60.5 13.5,116.5 1.5,56 -4.5,160 -5,56 -12,100 -7,44 -21,95 -14,51 -39,91 -25,40 -60,66 -18,14 -35.5,7.5 -17.5,-6.5 -7.5,-32.5 55,-146 51,-231 -2,-55 -16,-80 0,52 -21,120 -21,68 -53,98 -14,13 -29.5,10 -15.5,-3 -9.5,-27 l 8.5,-31.5 q 0,0 13,-52 13,-52 8.5,-57 -4.5,-5 2,-69.5 -3,-44 -7,-63 -25,123 -69,161 -12,12 -25,10 -13,-2 -10,-22 1,-2 8,-31 7,-29 10.5,-51 3.5,-22 0.5,-61 -3,-39 -16,-75 -19,95 -40,122 -10,14 -23.5,13.5 -13.5,-0.5 -11.5,-21.5 v -4 q 0,-17 0.5,-33.5 0.5,-16.5 -6,-35.5 -6.5,-19 -18,-37 -11.5,-18 -35,-37 -23.5,-19 -57.5,-37 -78,-39 -117,-85 -9,73 -9,102 2,58 54.5,135 52.5,77 117.5,124 10,7 -9,10 -41,7 -96,-20 23,60 61,123 7,11 -6,11 -33,-2 -87,-47 -25,-21 -47,-46 19,68 47,133 5,12 -5,11 -24,-2 -70,-49 -31,-31 -55,-69 1,41 20.5,90 19.5,49 20.5,55 2,8 -6,8 -22,-2 -57,-41 -14,-16 -25,-35 6,89 -35,124 -40,-35 -34,-124 -31,51 -70,71 -20,9 -19,-3 2,-6 21,-55 19,-49 20,-90 -45,73 -101,108 -31,19 -31,6 0,-3 2,-7 29,-65 47,-133 -57,68 -117,89 -26,9 -25,-2 0,-2 2,-5 39,-64 61,-123 -57,28 -98,20 -16,-3 -7,-10 65,-47 118,-124 53,-77 55,-135 0,-27 -10,-102 -38,46 -116,85 -34,18 -58,37 -24,19 -35,37 -11,18 -17.5,37 -6.5,19 -6,35.5 0.5,16.5 -0.5,33.5 0,1 0.5,2 0.5,1 0.5,2 1,21 -12.5,21.5 -13.5,0.5 -23.5,-13.5 -21,-27 -39,-122 -14,36 -17,75 -3,39 0.5,61 3.5,22 11,51 7.5,29 7.5,31 4,20 -9.5,22 -13.5,2 -25.5,-10 -43,-38 -68,-161 -5,19 -8,63 -1,33 3,69.5 4,36.5 8,57 4,20.5 12.5,52 l 8.5,31.5 q 6,24 -9,27 -15,3 -29,-10 -32,-30 -53.5,-98 -21.5,-68 -21.5,-120 -14,26 -16,80 -3,85 51,231 10,26 -7,32.5 -17,6.5 -35,-7.5 -35,-26 -60.5,-66 -25.5,-40 -39.5,-90.5 -14,-50.5 -21,-95 -7,-44.5 -12,-100.5 -6,-104 -4.5,-160 1.5,-56 14,-116.5 Q 16.8,629 29.3,589 41.8,549 57.8,477.5 73.8,406 83.8,327 q 7,-56 34,-101 27,-45 61.5,-70 34.5,-25 76,-41 41.5,-16 73,-21.5 31.5,-5.5 56.5,-5.5 25,0 42,4 17,4 25.5,11 8.5,7 13.5,16.5 5,9.5 5,20.5 0,11 1,22 1,11 1,22 0,6 0.5,19.5 0.5,13.5 1.5,18 1,4.5 3,15 2,10.5 5.5,17.5 3.5,7 10.5,18 7,11 17,23 19,23 41.5,34.5 22.5,11.5 40,10.5 17.5,-1 32.5,-8 24,-12 56,-41.5 32,-29.5 38,-42.5 7,-17 7,-41 0,-11 -2.5,-21 -2.5,-10 -5.5,-14 l -2,-5 q -7,0 -19.5,-7 -12.5,-7 -25.5,-4 -8,1 -16,8 -8,7 -14,15.5 -6,8.5 -11,16.5 -5,8 -8,14 l -2,5 q -38,-87 -39,-104 0,-25 97,-50 -4,-17 22.5,-33 26.5,-16 60.5,-23.5 34,-7.5 51,-2.5 23,8 42,34 16,24 30.5,62.5 14.5,38.5 19.5,65.5 1,7 3,25.5 2,18.5 4,34.5 2,16 6,24 6,13 38,42.5 32,29.5 56,41.5 15,7 32.5,8 17.5,1 40,-10.5 22.5,-11.5 41.5,-34.5 10,-12 17,-23 7,-11 10.5,-18 3.5,-7 5.5,-17.5 2,-10.5 3,-15 1,-4.5 1.5,-18 0.5,-13.5 0.5,-19.5 0,-11 1,-22 1,-11 1,-22 0,-11 5,-20.5 5,-9.5 13.5,-16.5 8.5,-7 25.5,-11 17,-4 42,-4 25,0 56.5,5.5 31.5,5.5 73,21.5 41.5,16 76,41 34.5,25 61.5,70 27,45 34,101 z"
     id="path1" />
</svg>
