<?xml version="1.0" encoding="UTF-8" standalone="no"?>
<svg
   version="1.1"
   viewBox="-10 0 2529.8303 1433.5385"
   id="svg1"
   sodipodi:docname="morale_positive.svg"
   width="2529.8303"
   height="1433.5385"
   inkscape:version="1.3.2 (091e20ef0f, 2023-11-25, custom)"
   xmlns:inkscape="http://www.inkscape.org/namespaces/inkscape"
   xmlns:sodipodi="http://sodipodi.sourceforge.net/DTD/sodipodi-0.dtd"
   xmlns="http://www.w3.org/2000/svg"
   xmlns:svg="http://www.w3.org/2000/svg">
  <defs
     id="defs1" />
  <sodipodi:namedview
     id="namedview1"
     pagecolor="#ffffff"
     bordercolor="#000000"
     borderopacity="0.25"
     inkscape:showpageshadow="2"
     inkscape:pageopacity="0.0"
     inkscape:pagecheckerboard="0"
     inkscape:deskcolor="#d1d1d1"
     inkscape:zoom="0.3311412"
     inkscape:cx="1259.2815"
     inkscape:cy="785.16355"
     inkscape:window-width="1440"
     inkscape:window-height="868"
     inkscape:window-x="0"
     inkscape:window-y="0"
     inkscape:window-maximized="1"
     inkscape:current-layer="svg1" />
  <path
     fill="currentColor"
     d="m 2132.725,428.53846 v -1 q 132,-10 302,-57 59,-17 63,-8 2,3 0,8 -35,123 -225,189 -94,32 -220,52 112,19 266,3 57,-6 62,3 2,5 -2,14 -11,22 -33.5,40 -22.5,18 -57.5,30 -35,12 -69.5,20.5 -34.5,8.5 -85,14 -50.5,5.5 -88,8.5 -37.5,3 -94.5,7 38,10 69.5,17 31.5,7 51,10.5 19.5,3.5 41,5.5 21.5,2 28.5,2 h 25 20 q 24,0 10,22 -26,40 -125,82 -182,78 -454,78 -46,0 -81,-14 -35,-14 -53,-35 -18,-21 -29,-41.5 -11,-20.5 -16,-36 -5,-15.5 -8,-15.5 -1,12 -4.5,39 -3.5,27 -4.5,40.5 -1,13.5 -2,34.5 -1,21 2,37.5 3,16.5 9,31.50004 19,51 66,81.5 47,30.5 126,49.5 13,3 -7,13 -40,19 -100,14 40,45 98,88 13,9 -10,13 -52,7 -130,-26 l -24,-12 q 38,53 87,101 12,13 -10,13 -48,0 -118,-41 -18,-10 -34,-21 19,43 48,89 7,10 -7,9 -34,-3 -90,-48 -18,-14 -35,-32 1,19 2,28 6,75 -37,105 -43,-30 -36,-105 1,-9 2,-28 -59,61 -113,77 -23,7 -21,-3 0,-1 2,-3 29,-47 47,-89 -72,52 -139,61 -28,3 -26,-6 0,-2 4,-6 49,-48 87,-101 -82,42 -147,38 -21,-1 -21,-8 0,-2 4,-5 58,-43 98,-88 -66,6 -104,-16 -14,-8 -4,-11 79,-19 126.5,-49.5 47.5,-30.5 66.5,-81.5 6,-15.00004 8.5,-31.50004 2.5,-16.5 2,-37.5 -0.5,-21 -2,-34.5 l -4.5,-40.5 q 0,0 -5,-39 -2,0 -7.5,15.5 -5.5,15.5 -16,36 -10.5,20.5 -29,41.5 -18.5,21 -53,35 -34.5,14 -80.5,14 -303,0 -489,-94 -79,-39 -93,-71 -7,-17 13,-17 h 19.5 25 q 0,0 29,-2 29,-2 40.5,-5.5 11.5,-3.5 51,-10.5 39.5,-7 69,-17 -56,-4 -93.5,-7 -37.5,-3 -88,-8.5 -50.5,-5.5 -85.5,-14 -35,-8.5 -69.5,-20.5 -34.5,-12 -57,-30 -22.5,-18 -33.5,-40 -9,-19 15,-20 12,0 50,4 148,15 261,-4 -126,-20 -221,-52 -189,-66 -225,-189 -3,-13 12,-12 7,0 100,25 130,35 254,45 -98,-33 -157,-59 -59,-26 -75.5,-38 -16.5,-12 -34.5,-31 l -5,-5 q -44,-44 -72,-91.5 -28,-47.5 -36.5,-85.5 -8.5,-37.999998 -7,-65.999998 1.5,-28 11.5,-41 13,-15.0000005 24,-10.5000005 11,4.5 56,41.5000005 79,64.999998 153,117.999998 30,22 65.5,41 35.5,19 68,32 32.5,13 72.5,24 40,11 70.5,17.5 30.5,6.5 72,11.5 41.5,5 66,7.5 24.5,2.5 63,3.5 38.5,1 53.5,1 h 47 34 q 23,0 39,4.5 16,4.5 23.5,10 7.5,5.5 11.5,16.5 4,11 4.5,18.5 0.5,7.5 0,22 -0.5,14.5 0.5,20.5 0,5 0.5,17.5 0.5,12.5 0.5,16.5 0,4 2,14 2,10 5.5,16.5 3.5,6.5 9.5,17 6,10.5 15,21.5 16,22 40,31.5 24,9.5 43.5,8 19.5,-1.5 34.5,-9.5 22,-11 51.5,-38.5 29.5,-27.5 34.5,-40.5 8,-16 8,-56 v -41 q -7,-2 -16.5,-11 -9.5,-9 -21.5,-9.5 -12,-0.5 -27,9.5 -15,10 -24,21 l -9,11 q -2,-10 -4,-25 -2,-15 -5,-43 -3,-28 -2,-34 5,-24 99,-24 0,-15 27.5,-23.5 27.5,-8.5 60,-7.5 32.5,1 46.5,10 19,12 29,40 6,16 10,47.5 4,31.5 5,55.5 l 1,23 q 0,41 7,58 5,12 35,39.5 30,27.5 52,38.5 15,8 34.5,9.5 19.5,1.5 43,-8 23.5,-9.5 40.5,-31.5 9,-11 15,-21 6,-10 9.5,-17 3.5,-7 5,-16.5 1.5,-9.5 2,-14 0.5,-4.5 1,-17 0.5,-12.5 0.5,-17.5 v -20.5 -22 q 0,0 4,-18.5 4,-18.5 12,-16.5 8,2 24,-10 16,-12 38,-4.5 h 34.5 46.5 q 0,0 54,-1 54,-1 63.5,-3.5 9.5,-2.5 66,-7.5 56.5,-5 71.5,-11.5 15,-6.5 71,-17.5 56,-11 72.5,-24 16.5,-13 68,-31.5 51.5,-18.5 65.5,-40.5 74,-55 153,-118.999998 45,-37.0000005 56,-41.5000005 11,-4.5 24,10.5000005 10,13 11,41 1,28 -7.5,65.999998 -8.5,38 -36,85.5 -27.5,47.5 -71.5,91.5 -2,1 -5,5 -18,19 -34.5,31 -16.5,12 -75,38 -58.5,26 -157.5,59 z"
     id="path1" />
</svg>
