<?xml version="1.0" encoding="UTF-8" standalone="no"?>
<svg
   version="1.1"
   viewBox="-10 0 1905 1554"
   id="svg1"
   sodipodi:docname="movement.svg"
   width="1905"
   height="1554"
   inkscape:version="1.3.2 (091e20ef0f, 2023-11-25, custom)"
   xmlns:inkscape="http://www.inkscape.org/namespaces/inkscape"
   xmlns:sodipodi="http://sodipodi.sourceforge.net/DTD/sodipodi-0.dtd"
   xmlns="http://www.w3.org/2000/svg"
   xmlns:svg="http://www.w3.org/2000/svg">
  <defs
     id="defs1" />
  <sodipodi:namedview
     id="namedview1"
     pagecolor="#ffffff"
     bordercolor="#000000"
     borderopacity="0.25"
     inkscape:showpageshadow="2"
     inkscape:pageopacity="0.0"
     inkscape:pagecheckerboard="0"
     inkscape:deskcolor="#d1d1d1"
     inkscape:zoom="0.43166919"
     inkscape:cx="924.31893"
     inkscape:cy="928.9521"
     inkscape:window-width="1440"
     inkscape:window-height="868"
     inkscape:window-x="0"
     inkscape:window-y="0"
     inkscape:window-maximized="1"
     inkscape:current-layer="svg1" />
  <path
     fill="currentColor"
     d="m 1723,470 q -50,-24 -105,-48 3,96 -7,192 -14,139 -47,230 l -2,4 q 49,31 88,63 41,34 76,70 -10,72 -13,147 -3,69 0,138 l -124,160 q -27,-35 -44,-74 -12,-26 -19,-51 l 92,-67 q -9,-50 -10,-99 0,-45 7,-86 -35,-5 -70,-13 -32,-8 -69,-22 -41,66 -122,179 -27,37 -41.5,59 -14.5,22 -32.5,56.5 -18,34.5 -24.5,69 -6.5,34.5 -4.5,71.5 4,54 29,105 h -175 q 22,-143 70,-278 45,-125 112,-240 -83,36 -172,25 -92,-11 -165,-70 -24,40 -51,77 -57,74 -131,131 44,88 96,176 53,92 111,179 H 771 q 20,-51 10,-99 -8,-39 -41,-80 -52,-63 -144,-144 74,-63 83,-134 4,-26 -2,-54 -24,16 -58.5,36 -34.5,20 -53.5,31.5 -19,11.5 -38,30 -19,18.5 -29,39.5 -41,90 10,205 40,90 120,155 H 448 q -15,-41 -41,-76 -25,-34 -60,-60 2,-15 11.5,-52 9.5,-37 8.5,-60 -1,-99 -22,-195 72,-69 137,-138 51,-54 101,-111 -10,-30 -13,-57 -5,-39 1,-81 -41,-20 -80,-16 -40,4 -86,31 -46,27 -89.5,73 Q 272,844 238,917.5 204,991 194,1076 141,1068 92,1050 38,1031 -10,1002 26,912 77,835.5 128,759 181.5,708 235,657 291,623 347,589 396.5,576.5 446,564 485,572 q 56,11 104,69 22,-56 65,-88 73,-54 200,-29 43,9 101,39.5 58,30.5 100,37.5 44,8 93,0 -14,-15 -23,-28 -19,-28 -29,-61 168,-142 223,-243 31,-57 72,-85 51,-36 124,-41 18,-70 23,-143 25,42 38,89 6,20 10,42 71,54 134,109 90,77 175,163 l -96,105 q -38,-20 -76,-38 z"
     id="path1" />
</svg>
