<?xml version="1.0" encoding="UTF-8" standalone="no"?>
<svg
   version="1.1"
   viewBox="-10 0 1376 1000"
   id="svg1"
   sodipodi:docname="necro.svg"
   inkscape:version="1.3.2 (091e20ef0f, 2023-11-25, custom)"
   xmlns:inkscape="http://www.inkscape.org/namespaces/inkscape"
   xmlns:sodipodi="http://sodipodi.sourceforge.net/DTD/sodipodi-0.dtd"
   xmlns="http://www.w3.org/2000/svg"
   xmlns:svg="http://www.w3.org/2000/svg">
  <defs
     id="defs1" />
  <sodipodi:namedview
     id="namedview1"
     pagecolor="#ffffff"
     bordercolor="#000000"
     borderopacity="0.25"
     inkscape:showpageshadow="2"
     inkscape:pageopacity="0.0"
     inkscape:pagecheckerboard="0"
     inkscape:deskcolor="#d1d1d1"
     inkscape:zoom="0.62"
     inkscape:cx="688.70968"
     inkscape:cy="500"
     inkscape:window-width="1440"
     inkscape:window-height="868"
     inkscape:window-x="0"
     inkscape:window-y="0"
     inkscape:window-maximized="1"
     inkscape:current-layer="svg1" />
  <path
     fill="currentColor"
     d="M1295 327l-1 -1q2 13 1 22q-2 11 -9 23q-4 7 -9 18t-8.5 15.5t-8.5 5.5q-10 2 -23 -11q-35 -34 -69 -89q-11 -16 -22 -18q-5 0 -10.5 18t-10.5 39t-7 24q-11 19 2 40q72 164 79 185q5 12 11 18t17.5 10.5t15.5 9.5q14 20 5 59q-5 24 -17.5 48t-20 35t-29.5 38t-25 31 q-11 14 -25 20q-36 17 -84 -9q-26 -13 -50 -39q-21 -23 -34 -23q-12 1 -25 18q-12 16 -12 36q0 2 7 21q21 53 11 61l-5 5q0 2 3 3q31 24 44 58q6 16 7 34q-13 34 -43 42q-18 5 -28 0q-13 -7 -20.5 -37t-14.5 -31q-2 -1 -4 -2.5t-2.5 -1.5t-3.5 2l-12 13q-16 -3 -31 0 q-2 0 -3 1q-3 2 -3 5q-3 74 -3 86q-1 28 -17 38q-10 5 -29 1q-9 -2 -25.5 -4.5t-26 -5t-18.5 -9.5q-17 -13 -22 -27q-7 -19 10 -56q0 -2 8 -18t11 -24q-5 -4 -7.5 -5t-6.5 -1t-7 -1q-11 -2 -19 -1q-15 2 -27 9q9 9 15 21q3 8 6 29q2 18 -2 23q-6 8 -29 8q-5 0 -13.5 0.5 t-12.5 0.5t-9 -0.5t-8 -2t-5 -3.5q-8 -8 -5 -35q1 -26 -2 -28q-9 -7 -20 4q-5 4 -6.5 11t-1.5 14t0.5 19.5t0.5 21.5l-5 29q-2 10 -8 15q-8 7 -20 6.5t-22 -6.5q-8 -5 -13 -13q-18 -31 -68 -102q-1 -2 -6 -8.5t-6 -8.5t-5.5 -8.5t-4.5 -8t-4 -8.5t-3 -9t-1 -9.5t0 -9.5 q1 -11 14 -38q13 -23 23 -66q4 -16 -2 -27q-8 -17 -25 -18q-13 -1 -34 22q-24 26 -50 40q-49 25 -84 9q-14 -7 -25 -21q-3 -5 -25 -31t-29.5 -37.5t-20 -35.5t-17.5 -47q-9 -40 5 -59q4 -6 15.5 -10.5t17.5 -10.5q7 -7 11 -18q7 -20 79 -185q19 -19 5 -41q-2 -3 -7.5 -24.5 t-11.5 -38.5t-11 -16q-12 2 -22 18q-8 12 -22.5 32t-21.5 31q-6 8 -25 26q-14 12 -23 11q-5 -1 -8 -5.5t-8.5 -16t-9.5 -18.5q-7 -11 -9 -22q-1 -12 2 -22q15 -63 20 -88q8 -41 27 -110t25 -97q13 -57 38 -96q6 -9 13 -17.5t12 -14t15.5 -14.5t15 -13t18 -15t18.5 -15 q8 -7 30 -26t36 -29.5t31 -19.5q33 -19 104 -43q82 -26 113 -31q36 -6 74 -7q59 -3 116 6q32 5 113 32q71 23 104 42q13 7 26 16.5t22.5 17.5t24.5 20.5t24 20.5q5 4 18.5 15t18 15t15 13t15.5 14.5t12 14t12 17.5q25 39 38 96q7 28 25.5 97t27.5 110q6 33 13 59t8 29z M507 627q3 -2 10 -8.5t9 -8.5t8 -7.5t8 -8t6 -7t5.5 -8t4 -8t3.5 -9t2 -8.5q1 -15 -5 -39q-20 -70 -45 -87q-18 -13 -46 -16q-7 -3 -26 -0.5t-24.5 3.5t-25 6t-28.5 7q-7 1 -23.5 4.5t-21.5 5t-14.5 4.5t-14.5 7.5t-9 11.5q-9 15 -5 41q2 15 12 36.5t12 37.5v23q-1 29 2 38 q10 39 46 55q45 20 114 -24q8 -5 15 -11.5t16.5 -15.5t14.5 -14zM799 856q13 -12 15 -24q0 -8 -4 -18q-4 -7 -18 -22t-16 -26q-1 -4 -0.5 -10t-0.5 -10q-1 -8 -5 -16q-4 -11 -41 -89q-2 -7 -9 -16.5t-25 -20.5q-5 -2 -7 -2q-3 -2 -9 2q-17 10 -25 20q-5 7 -9 16 q-36 78 -41 90q-4 9 -5 16q-1 4 -0.5 10t-0.5 9q-1 11 -15.5 26.5t-18.5 22.5q-4 9 -4 18q2 12 16 24q20 18 51 56q7 9 15 10q3 1 7 -0.5t7.5 -3t5.5 -2.5q7 -2 22 -2h6q14 0 23 2q1 1 5 2.5t7.5 3t6.5 0.5q8 -1 16 -10q31 -38 51 -56zM1059 577q2 -17 12 -38.5t12 -36.5 q3 -26 -6 -41q-3 -6 -8 -10.5t-14.5 -8t-15 -5t-22 -5t-22.5 -4.5q-9 -2 -29 -7t-25.5 -6t-24.5 -3.5t-26 1.5q-28 3 -46 15q-26 18 -45 87q-7 25 -5 39q1 5 2 9.5t3.5 9t4 7.5t5.5 8t6 7l8 8t8 7.5t9.5 8.5t9.5 9q5 4 14.5 13.5t16.5 15.5t15 11q69 45 115 25 q35 -16 46 -55q2 -9 2 -38v-23z"
     id="path1"
     style="fill:#e8d66b;fill-opacity:1" />
</svg>
