<?xml version="1.0" encoding="UTF-8" standalone="no"?>
<svg
   version="1.1"
   viewBox="-10 0 1225.5834 1458.5278"
   id="svg1"
   sodipodi:docname="necro.svg"
   width="1225.5834"
   height="1458.5278"
   inkscape:version="1.3.2 (091e20ef0f, 2023-11-25, custom)"
   xmlns:inkscape="http://www.inkscape.org/namespaces/inkscape"
   xmlns:sodipodi="http://sodipodi.sourceforge.net/DTD/sodipodi-0.dtd"
   xmlns="http://www.w3.org/2000/svg"
   xmlns:svg="http://www.w3.org/2000/svg">
  <defs
     id="defs1" />
  <sodipodi:namedview
     id="namedview1"
     pagecolor="#ffffff"
     bordercolor="#000000"
     borderopacity="0.25"
     inkscape:showpageshadow="2"
     inkscape:pageopacity="0.0"
     inkscape:pagecheckerboard="0"
     inkscape:deskcolor="#d1d1d1"
     inkscape:zoom="0.62"
     inkscape:cx="609.67742"
     inkscape:cy="808.06452"
     inkscape:window-width="1440"
     inkscape:window-height="868"
     inkscape:window-x="0"
     inkscape:window-y="0"
     inkscape:window-maximized="1"
     inkscape:current-layer="svg1" />
  <path
     fill="currentColor"
     d="m 1215.25,635.75 -1,-1 q 2,13 1,22 -2,11 -9,23 -4,7 -9,18 -5,11 -8.5,15.5 -3.5,4.5 -8.5,5.5 -10,2 -23,-11 -35,-34 -69,-89 -11,-16 -22,-18 -5,0 -10.5,18 -5.5,18 -10.5,39 -5,21 -7,24 -11,19 2,40 72,164 79,185 5,12 11,18 6,6 17.5,10.5 11.5,4.5 15.5,9.5 14,20 5,59 -5,24 -17.5,48 -12.5,24 -20,35 -7.5,11 -29.5,38 -22,27 -25,31 -11,14 -25,20 -36,17 -84,-9 -26,-13 -50,-39 -21,-23 -34,-23 -12,1 -25,18 -12,16 -12,36 0,2 7,21 21,53 11,61 l -5,5 q 0,2 3,3 31,24 44,58 6,16 7,34 -13,34 -43,42 -18,5 -28,0 -13,-7 -20.5,-37 -7.5,-30 -14.5,-31 -2,-1 -4,-2.5 -2,-1.5 -2.5,-1.5 -0.5,0 -3.5,2 l -12,13 q -16,-3 -31,0 -2,0 -3,1 -3,2 -3,5 -3,74 -3,86 -1,28 -17,38 -10,5 -29,1 -9,-2 -25.5,-4.5 -16.5,-2.5 -26,-5 -9.5,-2.5 -18.5,-9.5 -17,-13 -22,-27 -7,-19 10,-56 0,-2 8,-18 8,-16 11,-24 -5,-4 -7.5,-5 -2.5,-1 -6.5,-1 -4,0 -7,-1 -11,-2 -19,-1 -15,2 -27,9 9,9 15,21 3,8 6,29 2,18 -2,23 -6,8 -29,8 -5,0 -13.5,0.5 -8.5,0.5 -12.5,0.5 -4,0 -9,-0.5 -5,-0.5 -8,-2 -3,-1.5 -5,-3.5 -8,-8 -5,-35 1,-26 -2,-28 -9,-7 -20,4 -5,4 -6.5,11 -1.5,7 -1.5,14 0,7 0.5,19.5 0.5,12.5 0.5,21.5 l -5,29 q -2,10 -8,15 -8,7 -20,6.5 -12,-0.5 -22,-6.5 -8,-5 -13,-13 -18,-31 -68,-102 -1,-2 -6,-8.5 -5,-6.5 -6,-8.5 -1,-2 -5.5,-8.5 -4.5,-6.5 -4.5,-8 0,-1.5 -4,-8.5 -4,-7 -3,-9 1,-2 -1,-9.5 -2,-7.5 0,-9.5 1,-11 14,-38 13,-23 23,-66 4,-16 -2,-27 -8,-17 -25,-18 -13,-1 -34,22 -24,26 -50,40 -49,25 -84,9 -14,-7 -25,-21 -3,-5 -25,-31 -22,-26 -29.5,-37.5 -7.5,-11.5 -20,-35.5 -12.5,-24 -17.5,-47 -9,-40 5,-59 4,-6 15.5,-10.5 11.5,-4.5 17.5,-10.5 7,-7 11,-18 7,-20 79,-185 19,-19 5,-41 -2,-3 -7.5,-24.5 -5.5,-21.5 -11.5,-38.5 -6,-17 -11,-16 -12,2 -22,18 -8,12 -22.5,32 -14.5,20 -21.5,31 -6,8 -25,26 -14,12 -23,11 -5,-1 -8,-5.5 -3,-4.5 -8.5,-16 -5.5,-11.5 -9.5,-18.5 -7,-11 -9,-22 -1,-12 2,-22 15,-63 20,-88 8,-41 27,-110 19,-69 25,-97 13,-57 38,-96 6,-9 13,-17.5 7,-8.5 12,-14 5,-5.5 15.5,-14.5 10.5,-9 15,-13 4.5,-4 18,-15 13.5,-11 18.5,-15 8,-7 30,-26 22,-19 36,-29.5 14,-10.5 31,-19.5 33,-19 104,-43 82,-26 113,-31 36,-6 74,-7 59,-3 116,6 32,5 113,32 71,23 104,42 13,7 26,16.5 13,9.5 22.5,17.5 9.5,8 24.5,20.5 15,12.5 24,20.5 5,4 18.5,15 13.5,11 18,15 4.5,4 15,13 10.5,9 15.5,14.5 5,5.5 12,14 7,8.5 12,17.5 25,39 38,96 7,28 25.5,97 18.5,69 27.5,110 6,33 13,59 7,26 8,29 z m -788,300 q 3,-2 10,-8.5 7,-6.5 9,-8.5 2,-2 8,-7.5 6,-5.5 8,-8 2,-2.5 6,-7 4,-4.5 5.5,-8 1.5,-3.5 4,-8 2.5,-4.5 3.5,-9 1,-4.5 2,-8.5 1,-15 -5,-39 -20,-70 -45,-87 -18,-13 -46,-16 -7,-3 -26,-0.5 -19,2.5 -24.5,3.5 -5.5,1 -25,6 -19.5,5 -28.5,7 -7,1 -23.5,4.5 -16.5,3.5 -21.5,5 -5,1.5 -14.5,4.5 -9.5,3 -14.5,7.5 -5,4.5 -9,11.5 -9,15 -5,41 2,15 12,36.5 10,21.5 12,37.5 v 23 q -1,29 2,38 10,39 46,55 45,20 114,-24 8,-5 15,-11.5 7,-6.5 16.5,-15.5 9.5,-9 14.5,-14 z m 292,229 q 13,-12 15,-24 0,-8 -4,-18 -4,-7 -18,-22 -14,-15 -16,-26 -1,-4 -0.5,-10 0.5,-6 -0.5,-10 -1,-8 -5,-16 -4,-11 -41,-89 -2,-7 -9,-16.5 -7,-9.5 -25,-20.5 -5,-2 -7,-2 -3,-2 -9,2 -17,10 -25,20 -5,7 -9,16 -36,78 -41,90 -4,9 -5,16 -1,4 -0.5,10 0.5,6 -0.5,9 -1,11 -15.5,26.5 -14.5,15.5 -18.5,22.5 -4,9 -4,18 2,12 16,24 20,18 51,56 7,9 15,10 3,1 7,-0.5 4,-1.5 7.5,-3 3.5,-1.5 5.5,-2.5 7,-2 22,-2 h 6 q 14,0 23,2 1,1 5,2.5 4,1.5 7.5,3 3.5,1.5 6.5,0.5 8,-1 16,-10 31,-38 51,-56 z m 260,-279 q 2,-17 12,-38.5 10,-21.5 12,-36.5 3,-26 -6,-41 -3,-6 -8,-10.5 -5,-4.5 -14.5,-8 -9.5,-3.5 -15,-5 -5.5,-1.5 -22,-5 -16.5,-3.5 -22.5,-4.5 -9,-2 -29,-7 -20,-5 -25.5,-6 -5.5,-1 -24.5,-3.5 -19,-2.5 -26,1.5 -28,3 -46,15 -26,18 -45,87 -7,25 -5,39 1,5 2,9.5 1,4.5 3.5,9 2.5,4.5 4,7.5 1.5,3 5.5,8 4,5 6,7 l 8,8 q 0,0 8,7.5 8,7.5 9.5,8.5 1.5,1 9.5,9 5,4 14.5,13.5 9.5,9.5 16.5,15.5 7,6 15,11 69,45 115,25 35,-16 46,-55 2,-9 2,-38 z"
     id="path1" />
</svg>
