<?xml version="1.0" encoding="UTF-8" standalone="no"?>
<svg
   version="1.1"
   viewBox="-10 0 1378 1303"
   id="svg1"
   sodipodi:docname="ongoing.svg"
   width="1378"
   height="1303"
   inkscape:version="1.3.2 (091e20ef0f, 2023-11-25, custom)"
   xmlns:inkscape="http://www.inkscape.org/namespaces/inkscape"
   xmlns:sodipodi="http://sodipodi.sourceforge.net/DTD/sodipodi-0.dtd"
   xmlns="http://www.w3.org/2000/svg"
   xmlns:svg="http://www.w3.org/2000/svg">
  <defs
     id="defs1" />
  <sodipodi:namedview
     id="namedview1"
     pagecolor="#ffffff"
     bordercolor="#000000"
     borderopacity="0.25"
     inkscape:showpageshadow="2"
     inkscape:pageopacity="0.0"
     inkscape:pagecheckerboard="0"
     inkscape:deskcolor="#d1d1d1"
     inkscape:zoom="0.5807327"
     inkscape:cx="714.61449"
     inkscape:cy="687.06308"
     inkscape:window-width="1440"
     inkscape:window-height="868"
     inkscape:window-x="0"
     inkscape:window-y="0"
     inkscape:window-maximized="1"
     inkscape:current-layer="svg1" />
  <path
     fill="currentColor"
     d="M 710,1303 Q 576,1303 454,1251 332,1199 244,1111.5 156,1024 104,903 52,782 52,649 52,463 149,306 L -10,129 614,0 414,602 283,456 q -42,92 -42,193 0,95 37,181 37,86 100,148.5 63,62.5 149.5,99.5 86.5,37 182,37 95.5,0 182.5,-37 87,-37 149.5,-99.5 Q 1104,916 1141.5,830 1179,744 1179,649 1179,548 1138,458.5 1097,369 1025,304 l 96,-166 q 115,92 181,225 66,133 66,286 0,133 -52,254 -52,121 -140.5,208.5 Q 1087,1199 965.5,1251 844,1303 710,1303 Z"
     id="path1" />
</svg>
