<?xml version="1.0" encoding="UTF-8" standalone="no"?>
<svg
   version="1.1"
   viewBox="-10 0 1473.9608 1445.174"
   id="svg1"
   sodipodi:docname="paralysis.svg"
   width="1473.9608"
   height="1445.174"
   inkscape:version="1.3.2 (091e20ef0f, 2023-11-25, custom)"
   xmlns:inkscape="http://www.inkscape.org/namespaces/inkscape"
   xmlns:sodipodi="http://sodipodi.sourceforge.net/DTD/sodipodi-0.dtd"
   xmlns="http://www.w3.org/2000/svg"
   xmlns:svg="http://www.w3.org/2000/svg">
  <defs
     id="defs1" />
  <sodipodi:namedview
     id="namedview1"
     pagecolor="#ffffff"
     bordercolor="#000000"
     borderopacity="0.25"
     inkscape:showpageshadow="2"
     inkscape:pageopacity="0.0"
     inkscape:pagecheckerboard="0"
     inkscape:deskcolor="#d1d1d1"
     inkscape:zoom="0.52872143"
     inkscape:cx="731.95444"
     inkscape:cy="718.71495"
     inkscape:window-width="1440"
     inkscape:window-height="868"
     inkscape:window-x="0"
     inkscape:window-y="0"
     inkscape:window-maximized="1"
     inkscape:current-layer="svg1" />
  <path
     fill="currentColor"
     d="m 1443.9804,694.17391 h 1 q 22,55 18.5,125 -3.5,70 -37.5,130 -12,21 -28,41.5 -16,20.49999 -43,46.49999 -27,26 -65.5,42.5 -38.5,16.5 -81.5,17.5 -20,1 -41.5,-2 -21.5,-3 -51.5,-11.5 -30,-8.5 -57.5,-30.5 -27.5,-22 -44.5,-53.99999 -21.00001,-37 -24.00001,-81 -3,-44 14.00001,-86 17,-42 52,-68 61,-45 147,-25 12,30 5,61 -9,37 -39,61 -23,-5 -38,7 -15,13 -14,41 2,37 31,54 14,8 34,8 28,-1 61,-15.5 33,-14.5 58,-46.5 20,-25 28.5,-56 8.5,-31 7,-55 -1.5,-24 -7.5,-47 -21,-71 -82,-106 -52,-31 -123,-18.5 -71,12.5 -130.00001,66.5 l -6,7 q -30,27 -40,61 -6,20 -5,41 1,23 -3,62.5 -4,39.5 -2,63.5 1,13 -2,57 -2,20.99999 -8,37.99999 -7,17 -21,36 -26,34 -36,52 -3,7 -8.5,19.5 -5.5,12.5 -7.5,16.5 -14,30 -23,42 -9,13 -28,28.5 -19,15.5 -25,21.5 -19,20 -39,30 -4,2 -12,4 -7,-2 -12,-5 -20,-9 -39,-29 -6,-6 -25,-21.5 -19,-15.5 -28.5,-28.5 -9.5,-13 -22.5,-43 -2,-4 -7.5,-16 -5.5,-12 -8.5,-19 -9,-17 -36,-53 -14,-17 -21,-36 -6,-17 -8,-36.99999 -2,-44 -2,-57 2,-24 -2,-63.5 -4,-39.5 -3,-62.5 1,-23 -5,-41 -10,-34 -40,-61 l -6,-7 q -59,-54 -130,-66.5 -71,-12.5 -123,18.5 -61,34 -82,106 -7,23 -8,47 -1,24 7.5,54.5 8.5,30.5 28.5,56.5 25,32 58,46.5 33,14.5 61,15.5 19,0 34,-8 29,-17 31,-54 1,-29 -14,-41 -15,-12 -38,-7 -30,-24 -39,-61 -7,-31 5,-61 86,-20 147,25 35,26 51.5,67.5 16.5,41.5 13.5,86 -3,44.5 -23,81.5 -17,31.99999 -44.5,53.99999 -27.5,22 -57.5,30.5 -30,8.5 -51.5,11.5 -21.5,3 -41.5,2 -43,-1 -81.5,-17.5 -38.5,-16.5 -65.499998,-42.5 -27,-26 -43,-46.49999 -16,-20.5 -28,-41.5 -33.9999998,-60 -37.4999998,-130 -3.5000002,-70 18.5,-125 19.9999998,-55 59.4999998,-99.5 39.499998,-44.5 91.499998,-70.5 63,-27 131.5,-28.5 68.5,-1.5 142,30.5 73.5,32 133.5,92 4,1 13,4.5 9,3.5 14,5.5 14,4 28,6 -15,-19 -32,-38 -41,-47 -53,-68 -38,-64 -39,-130 0,-78 54,-157 66,-97 182,-130 53,-14.999997 97,-11 42,3 87.5,22 45.5,19 79.5,56 46.00001,49 65.00001,75 13,19 30,23 22,6 51,-12 18,-11 29,-29 -1,-6 -5,-26 -2,-9 -5,-22 -3,-13 -4.5,-20.5 -1.5,-7.5 -3,-16.5 -1.5,-9 -1,-16 0.5,-7 2.5,-12 5,-11 24,-23.499997 19,-12.5 38,-20.5 19,-8 36.5,-15 17.5,-7 18.5,-8 20,-11 29,-18 7,-5 16,-14 9,-9 16.5,-14 7.5,-5 15.5,-7 19,-5 39,1.5 20,6.5 32,20.5 6,7 9.5,15.5 3.5,8.5 5,15.5 1.5,7 0.5,20.5 -1,13.5 -2.5,21 -1.5,7.499997 -4.5,26.999997 -3,19.5 -5,29.5 -3,18 -6.5,50 -3.5,32 -6,44.5 -2.5,12.5 -10,28 -7.5,15.5 -19.5,23.5 -39,25 -103,2 -46,56 -103.5,85.5 -57.5,29.5 -110.5,16.5 -51,-12 -100.00001,-68 -3,-3 -12.5,-16 -9.5,-13 -20.5,-26 -11,-13 -21,-22 -29,-26 -54,-34 -56,-20 -124,12 -35,16 -65,48 -21,23 -30,43 -21,47 -5,98 9,28 44,65 7,7 21.5,20 14.5,13 21.5,21 20,23 35,51 l 2,-3 q 10,-14 16,-23 18,-24 22,-32 10,-25 6,-43.5 -4,-18.5 -20.5,-33 -16.5,-14.5 -41.5,-20.5 1,-40 17,-75 12,-24 29,-45 70,21 110,78 6,8 11.5,17.5 5.5,9.5 13,26 7.5,16.5 11,31 3.5,14.5 4.5,34 1,19.5 -6,34.5 0,2 -12,23 -12,21 -12,29 0,3 1,4 87,-78 194.50001,-97 107.5,-19 191.5,24 52,26 91.5,70.5 39.5,44.5 59.5,99.5 z m -804.00001,268 h 1 q 25,-2 50,-11 -34,-53 -81,-93 -28,-24 -61,-42 -5,32 -3,63 2,34 12,67 40,18 82,16 z m 253,-14 q 10,-33 12,-67 2,-32 -3,-64 -33,19 -61,42 -47,40 -81,93 25,9 50,11 43,2 83,-15 z m -768,-793 q 0,-7 0.5,-23 0.5,-16 0.5,-25 0,-5 -0.5,-18.999997 -0.5,-14 -0.5,-18.5 0,-4.5 1.5,-12.5 1.5,-8 5.5,-14 19,-29 78,-29 29,23 50,41 11,9 27,22 5,4 36,25.999997 56,40 64,63 15,44 -22,98 6,5 14,10 23,16 52,22 -7,27 -11,55 -4,36 -2,70 -76,-8 -133,-56 -25,-20 -45,-48 -72,15 -101,-18 -3,-4 -5,-7.5 -2,-3.5 -3.5,-9 -1.5,-5.5 -2,-10 -0.5,-4.5 -1,-12.5 -0.5,-8 -0.5,-12.5 0,-4.5 -0.5,-15.5 -0.5,-11 -0.5,-16 0,-1 -0.5,-26 -0.5,-25 -0.5,-35 z m 378,1147.99999 v -1 q 9,18 14,25 4,6 11,15 7,9 11,15.5 4,6.5 5,13.5 3,19 -8,39.5 -11,20.5 -29,26.5 -5,2 -11.5,2 -6.5,0 -10,-0.5 -3.5,-0.5 -14,-3.5 -10.5,-3 -15.5,-4 -7,-2 -22,-3.5 -15,-1.5 -20,-2.5 -86,-15 -103,-37 -28,-35 -14,-94 l 1,-2 q -46,-28 -78,-72 -22,-31 -35,-67 30,12 61,13 33,1 66,-10 7,18 19,33 11,13 26,23 75,-32 103,-8 7,5 13,20 6,15 10,30 l 4,15 q 5,13 16,34 z m 639.00001,-147 v 1 q 32,11 66,9 31,-1 61,-12 -13,36 -36,67 -25,36 -88,81 26,70 0,99 -4,5 -11.5,8 -7.5,3 -14,4.5 -6.5,1.5 -21.5,4 -15,2.5 -22.5,4 -7.5,1.5 -23,5 -15.5,3.5 -23.5,4.5 -6,1 -19,3 -13.00001,2 -20.00001,3 -6,1 -17,3.5 -11,2.5 -15.5,3.5 -4.5,1 -11,1 -6.5,0 -12.5,-3 -18,-7 -29.5,-27 -11.5,-20 -7.5,-39 2,-7 5.5,-12.5 3.5,-5.5 10.5,-13.5 7,-8 11,-13 4,-6 15,-28 8,-16 15,-31 3,-8 10,-24.5 7,-16.5 10.5,-23 3.5,-6.5 9,-14.5 5.5,-8 11.5,-12 33.00001,-18 91.00001,14 l 1,1 q 17,-12 31,-28 14,-16 24,-35 z"
     id="path1" />
</svg>
