<?xml version="1.0" encoding="UTF-8" standalone="no"?>
<!-- Created with Inkscape (http://www.inkscape.org/) -->

<svg
   width="7.0632529mm"
   height="3.8860681mm"
   viewBox="0 0 7.0632529 3.8860681"
   version="1.1"
   id="svg1"
   inkscape:version="1.3.2 (091e20ef0f, 2023-11-25, custom)"
   sodipodi:docname="pay.svg"
   xmlns:inkscape="http://www.inkscape.org/namespaces/inkscape"
   xmlns:sodipodi="http://sodipodi.sourceforge.net/DTD/sodipodi-0.dtd"
   xmlns="http://www.w3.org/2000/svg"
   xmlns:svg="http://www.w3.org/2000/svg">
  <sodipodi:namedview
     id="namedview1"
     pagecolor="#ffffff"
     bordercolor="#000000"
     borderopacity="0.25"
     inkscape:showpageshadow="2"
     inkscape:pageopacity="0.0"
     inkscape:pagecheckerboard="0"
     inkscape:deskcolor="#d1d1d1"
     inkscape:document-units="mm"
     inkscape:zoom="0.55232884"
     inkscape:cx="162.04115"
     inkscape:cy="277.00889"
     inkscape:window-width="1440"
     inkscape:window-height="868"
     inkscape:window-x="0"
     inkscape:window-y="0"
     inkscape:window-maximized="1"
     inkscape:current-layer="layer1" />
  <defs
     id="defs1" />
  <g
     inkscape:label="Layer 1"
     inkscape:groupmode="layer"
     id="layer1"
     transform="translate(-62.177086,-75.141665)">
    <path
       id="path124"
       d="m 68.306029,76.654751 c -0.28112,-0.206706 -0.58291,-0.363802 -0.913639,-0.479557 0.202571,-0.07441 0.417545,-0.09095 0.624251,-0.04961 0.272851,0.04961 0.516764,0.194304 0.694531,0.409278 l -0.07028,-0.599447 c -0.152962,-0.09922 -0.310058,-0.169499 -0.479557,-0.219108 -0.367936,-0.103353 -0.756543,-0.09508 -1.128613,0.0248 0.08682,-0.07028 0.186035,-0.124023 0.289388,-0.165364 0.165364,-0.07028 0.347265,-0.09095 0.525032,-0.07441 l -0.214974,-0.359668 c -0.194303,0.04961 -0.384472,0.103353 -0.574642,0.169499 -0.330729,0.111621 -0.649056,0.243913 -0.959114,0.405143 -0.334863,0.198437 -0.665593,0.388607 -1.008724,0.578776 -0.42168,0.23151 -0.839225,0.454753 -1.273307,0.669727 l -1.508952,0.314192 c -0.152962,0.330729 -0.173633,0.706934 -0.04961,1.054199 0.103352,0.285254 0.30179,0.529167 0.553971,0.694532 0.367936,-0.161231 0.735872,-0.318327 1.103808,-0.479558 0.310059,0.09508 0.636654,0.132292 0.959115,0.11989 0.293522,-0.0124 0.587044,-0.07028 0.86403,-0.165365 0.438216,0.02481 0.872298,0.09508 1.293978,0.214974 0.305924,0.07855 0.599446,0.186035 0.888834,0.310059 -0.03307,-0.214974 -0.06201,-0.429948 -0.09508,-0.644922 0.0083,0 0.01653,0 0.02067,0 0.347265,0 0.624251,-0.285254 0.624251,-0.624252 0,-0.115755 -0.02894,-0.219108 -0.07855,-0.310058 0.206706,0.157096 0.405143,0.330729 0.58291,0.525032 l 0.264583,-0.314192 C 68.992291,77.2666 68.678098,76.923468 68.301894,76.654751 Z m -0.458887,0.479557 c -0.343131,0 -0.620117,0.276986 -0.620117,0.624251 0,0.124024 0.03721,0.243913 0.107487,0.343132 -0.14056,-0.05788 -0.28112,-0.107487 -0.421679,-0.152962 -0.483692,-0.148828 -0.859896,-0.177767 -0.909506,-0.384473 -0.05374,-0.206706 0.231511,-0.479557 0.500228,-0.599446 0.190169,-0.08682 0.429948,-0.11989 0.768945,-0.04548 0.206706,0.04134 0.413412,0.115755 0.611849,0.214974 -0.0124,0 -0.02067,0 -0.03721,0 z m 0,0"
       style="fill:#1d1d1b icc-color(sRGB-IEC61966-2, 0.1, 0.11299133, 0.11199951, 0.10699463);fill-opacity:1;fill-rule:nonzero;stroke:none;stroke-width:0.352778"
       aria-label="&lt;" />
  </g>
</svg>
