<?xml version="1.0" encoding="UTF-8" standalone="no"?>
<svg
   version="1.1"
   viewBox="-10 0 1722 850"
   id="svg1"
   sodipodi:docname="permanent.svg"
   width="1722"
   height="850"
   inkscape:version="1.3.2 (091e20ef0f, 2023-11-25, custom)"
   xmlns:inkscape="http://www.inkscape.org/namespaces/inkscape"
   xmlns:sodipodi="http://sodipodi.sourceforge.net/DTD/sodipodi-0.dtd"
   xmlns="http://www.w3.org/2000/svg"
   xmlns:svg="http://www.w3.org/2000/svg">
  <defs
     id="defs1" />
  <sodipodi:namedview
     id="namedview1"
     pagecolor="#ffffff"
     bordercolor="#000000"
     borderopacity="0.25"
     inkscape:showpageshadow="2"
     inkscape:pageopacity="0.0"
     inkscape:pagecheckerboard="0"
     inkscape:deskcolor="#d1d1d1"
     inkscape:zoom="0.45604688"
     inkscape:cx="857.36799"
     inkscape:cy="475.82827"
     inkscape:window-width="1440"
     inkscape:window-height="868"
     inkscape:window-x="0"
     inkscape:window-y="0"
     inkscape:window-maximized="1"
     inkscape:current-layer="svg1" />
  <path
     fill="currentColor"
     d="m 1334,0 q 106,0 192.5,52 86.5,52 136,147 49.5,95 49.5,214 0,124 -51,223.5 -51,99.5 -145,156.5 -94,57 -214,57 -77,0 -147,-23 -70,-23 -130.5,-67.5 Q 964,715 916.5,668 869,621 816,556 621,850 369,850 262,850 175.5,797.5 89,745 39.5,650.5 -10,556 -10,437 -10,313 41,213.5 92,114 186.5,57 281,0 401,0 477,0 547,23 617,46 678,90.5 739,135 786,182 833,229 887,294 1081,0 1334,0 Z M 391,699 h -1 q 60,0 108.5,-13 Q 547,673 591,644 635,615 672.5,578 710,541 757,483 714,428 681.5,390 649,352 607,310.5 565,269 528.5,244 492,219 449,202.5 406,186 364,186 247,186 179.5,253 112,320 112,425 112,544 192.5,621.5 273,699 391,699 Z m 948,-35 q 116,0 183.5,-67 67.5,-67 67.5,-172 0,-119 -80.5,-196.5 Q 1429,151 1312,151 q -60,0 -108.5,13 -48.5,13 -92.5,42 -44,29 -81.5,66 -37.5,37 -84.5,95 43,54 75.5,92.5 32.5,38.5 74.5,80 42,41.5 78.5,66.5 36.5,25 79.5,41.5 43,16.5 86,16.5 z"
     id="path1" />
</svg>
