<?xml version="1.0" standalone="no"?>
<!DOCTYPE svg PUBLIC "-//W3C//DTD SVG 1.1//EN" "http://www.w3.org/Graphics/SVG/1.1/DTD/svg11.dtd" >
<svg xmlns="http://www.w3.org/2000/svg" xmlns:xlink="http://www.w3.org/1999/xlink" version="1.1" viewBox="-10 0 1877 1000">
   <path fill="currentColor"
d="M1416 25q106 0 192.5 52t136 147t49.5 214q0 124 -51 223.5t-145 156.5t-214 57q-77 0 -147 -23t-130.5 -67.5t-108 -91.5t-100.5 -112q-195 294 -447 294q-107 0 -193.5 -52.5t-136 -147t-49.5 -213.5q0 -124 51 -223.5t145.5 -156.5t214.5 -57q76 0 146 23t131 67.5
t108 91.5t101 112q194 -294 447 -294zM473 724h-1q60 0 108.5 -13t92.5 -42t81.5 -66t84.5 -95q-43 -55 -75.5 -93t-74.5 -79.5t-78.5 -66.5t-79.5 -41.5t-85 -16.5q-117 0 -184.5 67t-67.5 172q0 119 80.5 196.5t198.5 77.5zM1421 689q116 0 183.5 -67t67.5 -172
q0 -119 -80.5 -196.5t-197.5 -77.5q-60 0 -108.5 13t-92.5 42t-81.5 66t-84.5 95q43 54 75.5 92.5t74.5 80t78.5 66.5t79.5 41.5t86 16.5z" />
</svg>
