<?xml version="1.0" encoding="UTF-8" standalone="no"?>
<svg
   version="1.1"
   viewBox="-10 0 1658 1170"
   id="svg1"
   sodipodi:docname="plusone.svg"
   width="1658"
   height="1170"
   inkscape:version="1.3.2 (091e20ef0f, 2023-11-25, custom)"
   xmlns:inkscape="http://www.inkscape.org/namespaces/inkscape"
   xmlns:sodipodi="http://sodipodi.sourceforge.net/DTD/sodipodi-0.dtd"
   xmlns="http://www.w3.org/2000/svg"
   xmlns:svg="http://www.w3.org/2000/svg">
  <defs
     id="defs1" />
  <sodipodi:namedview
     id="namedview1"
     pagecolor="#ffffff"
     bordercolor="#000000"
     borderopacity="0.25"
     inkscape:showpageshadow="2"
     inkscape:pageopacity="0.0"
     inkscape:pagecheckerboard="0"
     inkscape:deskcolor="#d1d1d1"
     inkscape:zoom="0.49195402"
     inkscape:cx="798.85514"
     inkscape:cy="619.97664"
     inkscape:window-width="1440"
     inkscape:window-height="868"
     inkscape:window-x="0"
     inkscape:window-y="0"
     inkscape:window-maximized="1"
     inkscape:current-layer="svg1" />
  <path
     fill="currentColor"
     d="M 439,297 V 615 H 758 V 746 H 439 v 314 H 309 V 746 H -10 V 615 H 309 V 297 Z m 1178,842 h 31 v 31 H 938 v -31 h 35 q 87,0 124,-17 37,-17 49.5,-46.5 Q 1159,1046 1159,937 V 343 q 0,-80 -8,-99 -10,-21 -34,-34 -24,-14 -56,-14 -51,0 -123,27 L 920,192 1416,0 h 33 v 937 q 0,106 11,135 11,29 46,48 34,19 111,19 z"
     id="path1" />
</svg>
