<?xml version="1.0" encoding="UTF-8" standalone="no"?>
<svg
   version="1.1"
   viewBox="-10 0 2002.9701 1304"
   id="svg1"
   sodipodi:docname="pay.svg"
   width="2002.9701"
   height="1304"
   inkscape:version="1.3.2 (091e20ef0f, 2023-11-25, custom)"
   xmlns:inkscape="http://www.inkscape.org/namespaces/inkscape"
   xmlns:sodipodi="http://sodipodi.sourceforge.net/DTD/sodipodi-0.dtd"
   xmlns="http://www.w3.org/2000/svg"
   xmlns:svg="http://www.w3.org/2000/svg">
  <defs
     id="defs1" />
  <sodipodi:namedview
     id="namedview1"
     pagecolor="#ffffff"
     bordercolor="#000000"
     borderopacity="0.25"
     inkscape:showpageshadow="2"
     inkscape:pageopacity="0.0"
     inkscape:pagecheckerboard="0"
     inkscape:deskcolor="#d1d1d1"
     inkscape:zoom="0.400187"
     inkscape:cx="1002.0315"
     inkscape:cy="789.63084"
     inkscape:window-width="1440"
     inkscape:window-height="868"
     inkscape:window-x="0"
     inkscape:window-y="0"
     inkscape:window-maximized="1"
     inkscape:current-layer="svg1" />
  <path
     fill="currentColor"
     d="m 1986,645 h 1 q 20,113 -27,222 -290,73 -565,188 -254,107 -491,249 Q 797,1282 689,1250 585,1219 488,1178.5 391,1138 333,1102 130,977 -10,773 l 25.5,-25.5 30,-30 L 71,692 q 111,111 248,182 80,41 164,63.5 84,22.5 132,23.5 132,3 255,-53 -102,4 -201,-7 Q 511,883 359,827 V 719 q 135,4 269,-13 134,-17 262,-54 53,-23 108,-53.5 55,-30.5 108,-67.5 67,-8 127,-13 142,-14 283,-20 50,-18 151,-54 101,-36 151,-54 67,45 110.5,111.5 Q 1972,568 1986,645 Z M 387,625 q -18,-60 -26,-121 -7,-44 -7,-87 16,-3 46,-7.5 30,-4.5 41,-6.5 21,71 47,135 18,43 41,87 z m 202,-6 q -18,-39 -34,-74 -22,-54 -40,-108 12,-3 34,-10 22,-7 33,-10 33,45 61,94 26,46 47,94 -17,3 -51,7.5 -34,4.5 -50,6.5 z m 92,-142 h 67 q 6,7 74,100 l -81,14 Q 723,565 708,537 692,508 681,477 Z M 813,391 Q 732,391 674.5,333.5 617,276 617,195 617,114 674.5,57 732,0 813,0 q 81,0 138.5,57 57.5,57 57.5,138 0,81 -57.5,138.5 Q 894,391 813,391 Z"
     id="path1" />
</svg>
