<?xml version="1.0" encoding="UTF-8" standalone="no"?>
<svg
   version="1.1"
   id="Layer_1"
   x="0px"
   y="0px"
   width="350.23517"
   viewBox="0 0 350.23517 325.52435"
   enable-background="new 0 0 439 376"
   xml:space="preserve"
   sodipodi:docname="silver.svg"
   inkscape:version="1.3.2 (091e20ef0f, 2023-11-25, custom)"
   height="325.52435"
   xmlns:inkscape="http://www.inkscape.org/namespaces/inkscape"
   xmlns:sodipodi="http://sodipodi.sourceforge.net/DTD/sodipodi-0.dtd"
   xmlns="http://www.w3.org/2000/svg"
   xmlns:svg="http://www.w3.org/2000/svg"><defs
   id="defs366" /><sodipodi:namedview
   id="namedview366"
   pagecolor="#ffffff"
   bordercolor="#000000"
   borderopacity="0.25"
   inkscape:showpageshadow="2"
   inkscape:pageopacity="0.0"
   inkscape:pagecheckerboard="0"
   inkscape:deskcolor="#d1d1d1"
   inkscape:zoom="1.0917553"
   inkscape:cx="-28.394641"
   inkscape:cy="277.53472"
   inkscape:window-width="1440"
   inkscape:window-height="868"
   inkscape:window-x="0"
   inkscape:window-y="0"
   inkscape:window-maximized="1"
   inkscape:current-layer="Layer_1" />




















































































































































<path
   fill="#EC1C24"
   opacity="1"
   stroke="none"
   d="m 167.25706,12.688232 c 1.71097,-3.3053299 3.42193,-6.6106629 5.12399,-10.2632369 3.20526,-3.34298503 3.94978,-0.06972 5.46407,2.006166 1.06323,2.083866 1.93574,3.895249 3.07679,6.3230269 1.71654,3.392506 3.16452,6.168621 4.6211,9.285053 5.23227,9.891293 10.41984,19.462254 15.69288,28.985901 3.2582,5.884682 6.64647,11.697357 10.09151,17.890877 2.40692,4.803894 4.69873,9.259262 7.16766,14.016586 4.40366,8.101698 8.63022,15.901438 12.94272,24.041705 1.70929,3.89684 3.62128,6.60927 8.30817,6.72373 5.8186,0.14207 11.61532,1.17941 17.85605,1.88754 2.4765,0.0174 4.51846,-0.0227 7.02655,-10e-4 21.15408,1.44974 41.84204,2.83771 62.97739,4.31693 7.44274,0.80247 14.43814,1.51368 21.34719,2.43689 -0.14792,0.51332 -0.1651,0.8172 -0.39258,1.26466 -1.02932,0.99603 -1.80401,1.851 -2.57873,2.70595 -2.23218,2.11691 -4.46436,4.23382 -6.84778,6.62849 -1.35852,1.24385 -2.56579,2.20995 -4.11258,3.70519 -3.13949,3.37823 -5.93948,6.22732 -9.03067,9.24035 -2.46973,2.37708 -4.64825,4.59023 -7.14428,6.91175 -1.80216,1.66644 -3.26316,3.24789 -4.77533,4.77882 -10.93363,11.06931 -21.87763,22.12837 -33.12113,33.33182 -5.00021,4.80816 -9.3735,9.87277 -14.48114,14.03662 -5.74255,4.68144 -8.17114,9.70784 -4.81723,17.09398 0.83029,3.79977 1.73038,7.21329 2.66998,11.04838 1.09427,5.56604 2.10138,10.72081 3.21228,15.85314 4.23752,19.57779 8.50849,39.14837 12.76697,58.72165 0.37573,1.78503 0.75147,3.57003 1.26306,6.04254 0.78787,3.18832 1.43982,5.68918 2.0918,8.19003 -0.5806,1.20953 -1.16123,2.4191 -2.38525,3.44388 -3.41968,-1.35367 -6.1959,-2.52261 -9.15519,-3.9888 -5.10653,-3.0704 -10.03003,-5.84351 -15.15286,-8.90176 -4.98544,-2.78187 -9.74979,-5.32132 -14.56207,-7.76639 -9.73905,-4.94834 -19.50415,-9.84549 -29.61047,-14.8761 -9.40272,-5.0361 -18.90287,-9.30097 -27.37147,-15.07807 -7.71072,-5.2601 -13.57362,-4.71402 -21.53768,-0.0647 -17.05207,9.95474 -34.95507,18.44787 -52.46732,27.62021 -7.1255,3.73211 -14.141134,7.67398 -21.551834,11.59463 -3.11438,1.70593 -5.88367,3.33759 -8.99489,5.0491 -2.71826,1.33539 -5.09462,2.59095 -7.81666,3.96765 -2.54275,1.08872 -4.7398,2.05637 -6.93684,3.02399 0.25729,-2.48007 0.51458,-4.96014 1.0839,-8.14786 1.95352,-9.49917 3.595,-18.29074 5.46365,-27.40866 0.55685,-2.1214 0.88656,-3.91635 1.31812,-5.93624 0.10186,-0.22492 0.0641,-0.71726 0.11941,-1.10895 0.11061,-1.44422 0.16589,-2.49671 0.55685,-3.68198 2.15224,-9.06839 3.96878,-18.00397 6.0127,-27.25619 0.60205,-1.79725 0.97673,-3.27784 1.59059,-5.05417 1.24512,-5.75821 2.25102,-11.22069 3.39575,-17.06372 1.49778,-5.75983 2.94446,-11.11998 4.12503,-16.53812 0.18582,-0.85278 -0.60081,-2.20145 -1.32943,-2.92815 -20.40509,-20.35083 -40.86069,-40.65101 -61.467655,-61.25285 -2.092201,-2.12639 -4.024719,-3.95946 -6.10691,-6.08548 -4.938385,-4.91795 -9.727082,-9.54291 -14.6531682,-14.3382 -0.38765,-0.32905 -0.659187,-0.43133 -1.083912,-0.75796 -0.681087,-0.89458 -1.230255,-1.5083 -1.779423,-2.12204 -0.03119,-1.75726 -5.293655,-2.78529 -0.01563,-5.20694 6.082012,-0.42117 11.4570092,-0.81946 16.8320092,-1.21774 1.496086,-0.027 2.992164,-0.054 5.282264,-0.3745 11.452683,-1.06169 22.11135,-1.82986 32.77001,-2.59804 6.76459,-0.24106 13.53489,-0.37776 20.29237,-0.74846 9.39909,-0.51555 18.78995,-1.18699 28.180039,-1.85211 0.94554,-0.067 1.86163,-0.54953 3.50259,-0.98724 2.57645,-1.09307 5.3156,-1.55473 6.15285,-3.0684 3.29838,-5.96313 5.99901,-12.256897 8.92148,-18.427947 0.85177,-1.15701 1.70353,-2.31401 2.9044,-4.01247 2.26056,-4.028604 4.31686,-7.446641 6.02676,-11.029962 0.95905,-2.009826 1.00609,-4.478553 2.06415,-6.412117 1.82735,-3.339363 4.12224,-6.422882 6.42893,-9.916717 2.57277,-4.79332 4.93757,-9.283669 7.55862,-13.998837 4.55179,-8.3889 8.84732,-16.552986 13.36627,-25.020954 1.35936,-2.427292 2.49527,-4.550705 3.6312,-6.674114 z"
   id="path149"
   style="fill:#dadada;fill-opacity:1;stroke:#000000;stroke-width:2;stroke-dasharray:none;stroke-opacity:1" />

























































































































































































































</svg>
