<?xml version="1.0" encoding="UTF-8" standalone="no"?>
<svg
   version="1.1"
   viewBox="-10 0 1851 1245.2046"
   id="svg1"
   sodipodi:docname="skill.svg"
   width="1851"
   height="1245.2046"
   inkscape:version="1.3.2 (091e20ef0f, 2023-11-25, custom)"
   xmlns:inkscape="http://www.inkscape.org/namespaces/inkscape"
   xmlns:sodipodi="http://sodipodi.sourceforge.net/DTD/sodipodi-0.dtd"
   xmlns="http://www.w3.org/2000/svg"
   xmlns:svg="http://www.w3.org/2000/svg">
  <defs
     id="defs1" />
  <sodipodi:namedview
     id="namedview1"
     pagecolor="#ffffff"
     bordercolor="#000000"
     borderopacity="0.25"
     inkscape:showpageshadow="2"
     inkscape:pageopacity="0.0"
     inkscape:pagecheckerboard="0"
     inkscape:deskcolor="#d1d1d1"
     inkscape:zoom="0.43740419"
     inkscape:cx="921.34463"
     inkscape:cy="695.00935"
     inkscape:window-width="1440"
     inkscape:window-height="868"
     inkscape:window-x="0"
     inkscape:window-y="0"
     inkscape:window-maximized="1"
     inkscape:current-layer="svg1" />
  <path
     fill="currentColor"
     d="m 1767,774 q 22,123 74,417 -47,50 -117,54 -66,3 -118,-38 11,-55 31,-158.5 20,-103.5 35,-177 15,-73.5 20,-97.5 10,-44 -2,-78 -8,-25 -33,-52 -39,-41 -99,-63 Q 1446,546 1227,478 1008,410 902,377 l -55,51 q 83,26 249.5,78.5 Q 1263,559 1346,585 1273,622 1126,695.5 979,769 906,806 630,667 -10,346 302,228 906,0 q 148,55 455,170.5 307,115.5 465,175.5 -50,25 -148,74.5 -98,49.5 -147,74.5 49,9 94,31 40,20 75,48 37,41 55,94 17,52 12,106 z M 906,884 q 62,-29 248,-116.5 186,-87.5 286,-134.5 9,51 26,153 17,102 26,153 -104,136 -256,212.5 -152,76.5 -322,78.5 -176,3 -333.5,-74 Q 423,1079 316,939 L 371,629 Q 463,673 641.5,758 820,843 906,884 Z"
     id="path1" />
</svg>
