<?xml version="1.0" encoding="UTF-8" standalone="no"?>
<svg
   version="1.1"
   viewBox="-10 0 1474 1000"
   id="svg1"
   sodipodi:docname="lessSpellgreater.svg"
   xmlns:inkscape="http://www.inkscape.org/namespaces/inkscape"
   xmlns:sodipodi="http://sodipodi.sourceforge.net/DTD/sodipodi-0.dtd"
   xmlns="http://www.w3.org/2000/svg"
   xmlns:svg="http://www.w3.org/2000/svg">
  <defs
     id="defs1" />
  <sodipodi:namedview
     id="namedview1"
     pagecolor="#ffffff"
     bordercolor="#000000"
     borderopacity="0.25"
     inkscape:showpageshadow="2"
     inkscape:pageopacity="0.0"
     inkscape:pagecheckerboard="0"
     inkscape:deskcolor="#d1d1d1" />
  <path
     fill="currentColor"
     d="M1075 185h-1l332 194l-382 36l-83 376l-118 -272q-58 116 -180 353.5t-139 270.5q-6 14 -11.5 23t-17.5 25.5t-27.5 27.5t-34.5 14q-38 8 -81 -19q-45 -25 -57 -62q-17 -50 34 -124q21 -30 169.5 -251.5t221.5 -329.5l-294 29l288 -254l-154 -352l331 196l287 -256z M494 189q-81 10 -145 62q-63 49 -91 124q-22 -86 -86 -145q-53 -50 -125 -70q73 -10 132 -52q72 -51 105 -133q18 77 74 134q57 59 136 80zM1225 646q82 1 153 -41q-50 65 -58 147q-9 79 24 151q-76 -44 -163 -40q-73 3 -137 40q44 -59 55 -131q14 -86 -22 -167 q69 41 148 41zM835 -146q-8 -46 -38 -81q-28 -33 -71 -48q47 -14 80 -51q27 -31 36 -71q7 41 32 73q30 39 77 56q-43 12 -74 44q-32 33 -42 78z"
     id="path1" />
</svg>
