<?xml version="1.0" encoding="UTF-8" standalone="no"?>
<svg
   version="1.1"
   viewBox="-10 0 1359 1631.8286"
   id="svg1"
   sodipodi:docname="spellpower.svg"
   width="1359"
   height="1631.8286"
   inkscape:version="1.3.2 (091e20ef0f, 2023-11-25, custom)"
   xmlns:inkscape="http://www.inkscape.org/namespaces/inkscape"
   xmlns:sodipodi="http://sodipodi.sourceforge.net/DTD/sodipodi-0.dtd"
   xmlns="http://www.w3.org/2000/svg"
   xmlns:svg="http://www.w3.org/2000/svg">
  <defs
     id="defs1" />
  <sodipodi:namedview
     id="namedview1"
     pagecolor="#ffffff"
     bordercolor="#000000"
     borderopacity="0.25"
     inkscape:showpageshadow="2"
     inkscape:pageopacity="0.0"
     inkscape:pagecheckerboard="0"
     inkscape:deskcolor="#d1d1d1"
     inkscape:zoom="0.5807327"
     inkscape:cx="680.17523"
     inkscape:cy="897.14252"
     inkscape:window-width="1440"
     inkscape:window-height="868"
     inkscape:window-x="0"
     inkscape:window-y="0"
     inkscape:window-maximized="1"
     inkscape:current-layer="svg1" />
  <path
     fill="currentColor"
     d="m 1018,582 h -1 L 1349,776 967,812 884,1188 766,916 Q 708,1032 586,1269.5 464,1507 447,1540 q -6,14 -11.5,23 -5.5,9 -17.5,25.5 -12,16.5 -27.5,27.5 -15.5,11 -34.5,14 -38,8 -81,-19 -45,-25 -57,-62 -17,-50 34,-124 21,-30 169.5,-251.5 Q 570,952 643,844 L 349,873 637,619 483,267 814,463 1101,207 Z m -581,4 q -81,10 -145,62 -63,49 -91,124 -22,-86 -86,-145 -53,-50 -125,-70 73,-10 132,-52 72,-51 105,-133 18,77 74,134 57,59 136,80 z m 731,457 q 82,1 153,-41 -50,65 -58,147 -9,79 24,151 -76,-44 -163,-40 -73,3 -137,40 44,-59 55,-131 14,-86 -22,-167 69,41 148,41 z M 778,251 q -8,-46 -38,-81 -28,-33 -71,-48 47,-14 80,-51 27,-31 36,-71 7,41 32,73 30,39 77,56 -43,12 -74,44 -32,33 -42,78 z"
     id="path1" />
</svg>
