<?xml version="1.0" encoding="UTF-8" standalone="no"?>
<svg
   version="1.1"
   viewBox="-10 0 1541 1388"
   id="svg1"
   sodipodi:docname="trasuredie.svg"
   width="1541"
   height="1388"
   inkscape:version="1.3.2 (091e20ef0f, 2023-11-25, custom)"
   xmlns:inkscape="http://www.inkscape.org/namespaces/inkscape"
   xmlns:sodipodi="http://sodipodi.sourceforge.net/DTD/sodipodi-0.dtd"
   xmlns="http://www.w3.org/2000/svg"
   xmlns:svg="http://www.w3.org/2000/svg">
  <defs
     id="defs1" />
  <sodipodi:namedview
     id="namedview1"
     pagecolor="#ffffff"
     bordercolor="#000000"
     borderopacity="0.25"
     inkscape:showpageshadow="2"
     inkscape:pageopacity="0.0"
     inkscape:pagecheckerboard="0"
     inkscape:deskcolor="#d1d1d1"
     inkscape:zoom="0.50771056"
     inkscape:cx="770.12383"
     inkscape:cy="638.15888"
     inkscape:window-width="1440"
     inkscape:window-height="868"
     inkscape:window-x="0"
     inkscape:window-y="0"
     inkscape:window-maximized="1"
     inkscape:current-layer="svg1" />
  <path
     fill="currentColor"
     d="m 1426,276 q 105,156 105,346 0,44 -10,97 -10,53 -24,86 h -16 q -1,-10 -4,-26.5 -3,-16.5 -17.5,-65.5 -14.5,-49 -35,-95.5 Q 1404,571 1365,509.5 1326,448 1276,399 l -81,66 -18,-18 -324,324 500,501 -96,91 -498,-498 -326,326 -147,197 q -38,-16 -83,-61 -20,-20 -35,-40.5 -15,-20.5 -20,-31.5 l -6,-11 198,-147 743,-743 -17,-18 66,-81 Q 1083,205 1022.5,166 962,127 912,106 862,85 818.5,71.5 775,58 751,54 L 726,50 V 33 q 33,-13 86,-23 53,-10 96,-10 191,0 347,105 l 43,-53 181,181 z M 474,580 297,757 78,538 Q 52,512 40.5,498 29,484 15,456 1,428 -4.5,389 -10,350 -10,293 -10,223 2.5,163 15,103 28,77 L 40,52 Q 49,47 67.5,38.5 86,30 148,16 210,2 280,2 338,2 376.5,7.5 415,13 443,27.5 471,42 485.5,53.5 500,65 525,90 l 220,219 -177,177 153,154 -94,94 z"
     id="path1" />
</svg>
