<?xml version="1.0" encoding="UTF-8" standalone="no"?>
<!-- Created with Inkscape (http://www.inkscape.org/) -->

<svg
   width="816.00116"
   height="732.56989"
   viewBox="0 0 215.9003 193.82578"
   version="1.1"
   id="svg1"
   sodipodi:docname="unit_flying.svg"
   inkscape:version="1.4.2 (ebf0e940d0, 2025-05-08)"
   xmlns:inkscape="http://www.inkscape.org/namespaces/inkscape"
   xmlns:sodipodi="http://sodipodi.sourceforge.net/DTD/sodipodi-0.dtd"
   xmlns="http://www.w3.org/2000/svg"
   xmlns:svg="http://www.w3.org/2000/svg">
  <sodipodi:namedview
     id="namedview1"
     pagecolor="#ffffff"
     bordercolor="#000000"
     borderopacity="0.25"
     inkscape:showpageshadow="2"
     inkscape:pageopacity="0.0"
     inkscape:pagecheckerboard="0"
     inkscape:deskcolor="#d1d1d1"
     inkscape:document-units="mm"
     inkscape:zoom="0.58201399"
     inkscape:cx="446.72466"
     inkscape:cy="329.02989"
     inkscape:window-width="1440"
     inkscape:window-height="868"
     inkscape:window-x="0"
     inkscape:window-y="0"
     inkscape:window-maximized="1"
     inkscape:current-layer="layer1" />
  <defs
     id="defs1" />
  <g
     inkscape:label="Layer 1"
     inkscape:groupmode="layer"
     id="layer1"
     transform="translate(-10.781611,-32.58647)">
    <path
       d="m 10.781611,219.94551 c 19.34624,-8.7968 36.448972,-21.51392 50.173452,-37.52448 20.9296,-24.39232 32.80832,-55.01632 34.82336,-87.24032 19.303997,-1.6352 38.125437,-6.14688 55.981437,-13.47904 26.53472,-10.87968 50.15648,-27.66912 69.46048,-49.1152 4.97024,11.32864 6.69728,22.89408 4.56384,33.97696 -5.12256,26.62752 -32.56288,50.30048 -73.18592,54.93152 -0.3552,1.472 -0.7616,2.912 -1.2448,4.352 -0.6528,1.9136 -1.4048,3.776 -2.2848,5.59648 11.02336,0.032 21.97088,-1.0176 32.76576,-3.1072 14.29184,-2.7776 28.11776,-7.37472 41.25824,-13.68224 -3.75936,14.0208 -12.14112,26.38208 -24.2656,34.4 -17.64448,11.68416 -40.42816,12.41216 -59.9184,3.32736 -0.736,1.568 -1.5584,3.0816 -2.4896,4.54656 -0.9984,1.6096 -2.0992,3.1168 -3.3104,4.57216 6.60384,6.33312 14.24096,11.4384 22.59744,15.12992 9.60128,4.23328 19.96448,6.46848 30.48,6.6208 -8.4496,11.61632 -21.72544,18.7792 -36.0848,19.49024 -14.29184,0.6944 -28.16864,-5.09696 -37.71904,-15.75648 -1.728,1.6096 -3.4544,3.1936 -5.19008,4.77536 -1.9968,1.8048 -3.98784,3.5984 -6.01984,5.38464 1.5744,4.4368 3.73376,8.60224 6.42624,12.42912 4.08096,5.7744 9.29632,10.61728 15.35008,14.30016 -8.71232,3.1168 -18.14432,3.40384 -26.958077,0.6368 -6.5024,-2.0576 -12.38656,-5.69824 -17.20416,-10.58336 -8.6192,3.82688 -17.66144,6.4768 -26.94944,7.88256 -13.665292,2.064 -27.559052,1.424 -41.054732,-1.8624"
       fill="#f6e495"
       id="path513"
       style="fill:#000000;fill-opacity:1;stroke-width:0.846664" />
  </g>
</svg>
