<?xml version="1.0" encoding="UTF-8" standalone="no"?>
<svg
   version="1.1"
   viewBox="-23 0 1160 1457"
   id="svg1"
   sodipodi:docname="unit_passive.svg"
   width="1160"
   height="1457"
   inkscape:version="1.3.2 (091e20ef0f, 2023-11-25, custom)"
   xmlns:inkscape="http://www.inkscape.org/namespaces/inkscape"
   xmlns:sodipodi="http://sodipodi.sourceforge.net/DTD/sodipodi-0.dtd"
   xmlns="http://www.w3.org/2000/svg"
   xmlns:svg="http://www.w3.org/2000/svg">
  <defs
     id="defs1" />
  <sodipodi:namedview
     id="namedview1"
     pagecolor="#ffffff"
     bordercolor="#000000"
     borderopacity="0.25"
     inkscape:showpageshadow="2"
     inkscape:pageopacity="0.0"
     inkscape:pagecheckerboard="0"
     inkscape:deskcolor="#d1d1d1"
     inkscape:zoom="0.62"
     inkscape:cx="580.64516"
     inkscape:cy="782.25806"
     inkscape:window-width="1440"
     inkscape:window-height="868"
     inkscape:window-x="0"
     inkscape:window-y="0"
     inkscape:window-maximized="1"
     inkscape:current-layer="svg1" />
  <path
     fill="currentColor"
     d="M 1137,276 1096,347 618,71 659,0 Z m -641,1110 -41,71 -478,-276 41,-71 z m 8,-688 Q 502,670 487,622.5 472,575 455.5,532 439,489 431,434 q -8,-55 -1,-104 7,-49 46,-103 39,-54 110,-100 l 477,276 q -3,64 -19.5,114.5 -16.5,50.5 -41,82 Q 978,631 944,655 910,679 875.5,691 841,703 801.5,712.5 762,722 729,727 q -33,5 -66,13.5 -33,8.5 -53,19.5 1,28 16,75 15,47 32,90 17,43 25,98.5 8,55.5 1,104 -7,48.5 -46,103 -39,54.5 -110,99.5 L 50,1054 Q 53,990 69.5,940 86,890 111,858 136,826 169.5,802.5 203,779 238,766.5 273,754 312,744.5 351,735 384.5,730 418,725 450.5,716.5 483,708 504,698 Z m 132,400 q 3,-32 -4,-70.5 -7,-38.5 -15,-63.5 -8,-25 -23,-67 -29,-81 -33,-117 -56,8 -100,24 -44,16 -70.5,30.5 Q 364,849 302.5,865 241,881 151,889 q -38,52 -47,137 l 422,244 q 102,-74 110,-172 z M 952,581 H 691 Q 624,602 589.5,633.5 555,665 555,696 q 0,7 3.5,14 3.5,7 6.5,10 l 4,3 17,-9 q 38,-19 135,-37 45,-8 70,-14 25,-6 62,-19 37,-13 63,-31 20,-14 36,-32 z"
     id="path1" />
</svg>
