<?xml version="1.0" encoding="UTF-8" standalone="no"?>
<svg
   version="1.1"
   viewBox="-10 0 1594 1409"
   id="svg1"
   sodipodi:docname="unit_other.svg"
   width="1594"
   height="1409"
   inkscape:version="1.3.2 (091e20ef0f, 2023-11-25, custom)"
   xmlns:inkscape="http://www.inkscape.org/namespaces/inkscape"
   xmlns:sodipodi="http://sodipodi.sourceforge.net/DTD/sodipodi-0.dtd"
   xmlns="http://www.w3.org/2000/svg"
   xmlns:svg="http://www.w3.org/2000/svg">
  <defs
     id="defs1" />
  <sodipodi:namedview
     id="namedview1"
     pagecolor="#ffffff"
     bordercolor="#000000"
     borderopacity="0.25"
     inkscape:showpageshadow="2"
     inkscape:pageopacity="0.0"
     inkscape:pagecheckerboard="0"
     inkscape:deskcolor="#d1d1d1"
     inkscape:zoom="0.49394114"
     inkscape:cx="791.59229"
     inkscape:cy="708.58645"
     inkscape:window-width="1440"
     inkscape:window-height="868"
     inkscape:window-x="0"
     inkscape:window-y="0"
     inkscape:window-maximized="1"
     inkscape:current-layer="svg1" />
  <path
     fill="currentColor"
     d="m 1583,720 v 1 q 0,-1 1,-5 0,98 -38,200.5 -38,102.5 -95,184.5 -103,144 -260.5,226 -157.5,82 -333.5,82 -150,0 -281.5,-60.5 Q 444,1288 346,1175 265,1074 229.5,950.5 194,827 211,704 226,591 284,495.5 342,400 436,334 q 125,-82 271,-82 109,0 200.5,49 91.5,49 149.5,138 37,62 47,134.5 10,72.5 -9,137.5 -32,109 -133,160 -41,18 -90,18 -16,0 -32,-2.5 -16,-2.5 -37.5,-10 Q 781,869 764.5,851 748,833 742,807 q -4,-19 3,-27 3,-4 11,-4 5,0 12,2 24,6 47,6 77,0 117,-65 24,-40 24,-91.5 Q 956,576 931,530 895,468 835.5,435 776,402 701,402 579,402 479,480 339,599 333,783 q -4,104 38.5,205 42.5,101 120.5,178 170,156 407,156 24,0 46,-1 234,-22 405,-183.5 Q 1521,976 1583,720 Z M 683,88 Q 557,88 435,137.5 313,187 217,278 125,367 73.5,471 22,575 -10,701 -10,629 19,528 81,316 249,173 417,30 636,3 q 36,-3 73,-3 166,0 309,71 143,71 235.5,198 92.5,127 114.5,286 12,121 -23.5,235.5 Q 1309,905 1232,993 q -69,78 -162,121 -93,43 -198,46 -91,-2 -175.5,-39.5 Q 612,1083 555,1019 453,905 468,751 477,693 507,640.5 537,588 587.5,553 638,518 697,518 q 29,0 57,9 23,8 46,26.5 23,18.5 31,39.5 8,19 0,36 -3,5 -9,5 -5,0 -15,-2 -24,-7 -47,-7 -77,0 -117,66 -24,39 -24,90.5 0,51.5 24,98.5 37,62 96.5,95 59.5,33 134.5,33 122,0 221,-78 140,-119 147,-304 3,-103 -39,-204.5 Q 1161,320 1083,244 914,88 683,88 Z"
     id="path1" />
</svg>
