<?xml version="1.0" encoding="UTF-8" standalone="no"?>
<svg
   version="1.1"
   id="Layer_1"
   x="0px"
   y="0px"
   width="75.455315"
   viewBox="0 0 75.455315 75.832054"
   enable-background="new 0 0 96 92"
   xml:space="preserve"
   sodipodi:docname="unit_ground.svg"
   inkscape:version="1.3.2 (091e20ef0f, 2023-11-25, custom)"
   height="75.832054"
   xmlns:inkscape="http://www.inkscape.org/namespaces/inkscape"
   xmlns:sodipodi="http://sodipodi.sourceforge.net/DTD/sodipodi-0.dtd"
   xmlns="http://www.w3.org/2000/svg"
   xmlns:svg="http://www.w3.org/2000/svg"><defs
   id="defs28" /><sodipodi:namedview
   id="namedview28"
   pagecolor="#ffffff"
   bordercolor="#000000"
   borderopacity="0.25"
   inkscape:showpageshadow="2"
   inkscape:pageopacity="0.0"
   inkscape:pagecheckerboard="0"
   inkscape:deskcolor="#d1d1d1"
   inkscape:zoom="8.923913"
   inkscape:cx="37.427528"
   inkscape:cy="34.850183"
   inkscape:window-width="1440"
   inkscape:window-height="868"
   inkscape:window-x="0"
   inkscape:window-y="0"
   inkscape:window-maximized="1"
   inkscape:current-layer="Layer_1" />









<path
   fill="#20201e"
   opacity="1"
   stroke="none"
   d="M 3.297011,75.832057 C 2.840217,75.573619 2.383423,75.315181 1.568397,74.682788 0.806777,73.837443 0.403388,73.366054 0,72.894672 4.354931,68.399951 8.709862,63.905238 13.541952,58.97388 c 1.512247,-2.332756 3.670185,-4.41169 3.396181,-6.094689 -1.526825,-9.378047 -3.642904,-18.660167 -5.175239,-28.243904 3.028726,-0.06642 5.675216,0.135971 9.447517,0.424469 C 16.868795,21.391776 13.673948,18.56529 10.304727,15.964713 9.705172,15.501941 8.381565,15.977223 7.029797,15.927453 5.596579,14.201693 4.499329,12.584441 3.462586,10.92929 2.422905,9.269446 1.443582,7.571799 0.437806,5.890719 c 0,-1.650336 0,-3.300673 0,-5.685519 4.760229,1.612313 9.19975,3.114476 13.637332,4.622346 0.308144,0.104708 0.872499,0.341093 0.864067,0.366669 -1.87438,5.684707 5.534168,6.902382 5.628157,11.771919 0.04515,2.339293 9.289469,9.579023 11.812868,9.71599 1.991554,0.108093 4.047024,-0.221153 5.977127,0.149227 7.866562,1.509552 13.082226,-3.657795 15.558762,-9.058384 1.907753,-4.160257 8.108551,-6.1301 6.478538,-12.025743 C 60.333117,5.524646 61.585415,4.782258 62.31152,4.524338 66.482487,3.042754 70.679447,1.634346 75.455311,-4e-6 75.00333,1.758042 74.691929,2.969259 74.159382,4.769711 73.735027,6.195109 73.531818,7.031274 73.06921,8.11785 c -1.658096,3.870442 -1.690483,8.737986 -7.806488,7.914438 -0.736847,-0.09922 -1.751373,1.65956 -2.592125,2.597588 -0.736465,0.82168 -1.246376,1.988039 -2.143082,2.496279 -2.158027,1.223137 -4.484123,2.149753 -6.742424,3.19598 0.210183,0.424751 0.420365,0.849502 0.630539,1.274254 3.904618,-0.537865 7.809235,-1.07573 11.713852,-1.613598 -0.595123,1.022594 -1.190246,2.045189 -2.175667,3.469326 -2.051735,7.890358 -3.708427,15.380234 -5.376587,22.86755 -0.851669,3.822597 0.282853,6.769542 3.777337,8.698238 4.31356,4.418923 8.627128,8.837853 13.082695,13.567345 -0.21914,0.731285 -0.580285,1.151985 -1.038079,1.833534 -0.797981,0.528381 -1.499321,0.795906 -2.492248,1.0028 -5.355126,-4.732937 -10.418656,-9.405262 -14.773613,-13.423748 -3.213639,3.158158 -6.837803,6.719742 -10.986016,10.61628 -1.479072,0.912506 -2.434085,1.490074 -3.389099,2.067642 -0.764,0.192772 -1.527996,0.385544 -2.867656,0.807953 -5.216164,-1.684685 -9.856671,-3.599014 -14.610112,-5.767716 -0.698909,-0.665542 -1.284881,-1.076713 -1.881851,-1.51564 -0.011,-0.02776 -0.06896,-0.04212 -0.21471,-0.35865 -7.741589,-7.151947 -6.972988,-4.901451 -12.353548,0.232758 -2.604866,2.485603 -5.027937,5.161727 -7.533317,7.751594 z"
   id="path10" />












<path
   fill="#bdb9b4"
   opacity="1"
   stroke="none"
   d="m 43.159439,74.734225 c 0.55378,-0.630035 1.508793,-1.207603 2.795635,-1.840255 -0.576916,0.594177 -1.485657,1.243446 -2.795635,1.840255 z"
   id="path23" />





</svg>
