<?xml version="1.0" encoding="UTF-8" standalone="no"?>
<svg
   version="1.1"
   viewBox="-10 0 1461.5215 1479.8596"
   id="svg1"
   sodipodi:docname="unit_ranged.svg"
   width="1461.5215"
   height="1479.8596"
   inkscape:version="1.3.2 (091e20ef0f, 2023-11-25, custom)"
   xmlns:inkscape="http://www.inkscape.org/namespaces/inkscape"
   xmlns:sodipodi="http://sodipodi.sourceforge.net/DTD/sodipodi-0.dtd"
   xmlns="http://www.w3.org/2000/svg"
   xmlns:svg="http://www.w3.org/2000/svg">
  <defs
     id="defs1" />
  <sodipodi:namedview
     id="namedview1"
     pagecolor="#ffffff"
     bordercolor="#000000"
     borderopacity="0.25"
     inkscape:showpageshadow="2"
     inkscape:pageopacity="0.0"
     inkscape:pagecheckerboard="0"
     inkscape:deskcolor="#d1d1d1"
     inkscape:zoom="0.53566959"
     inkscape:cx="729.92757"
     inkscape:cy="756.06308"
     inkscape:window-width="1440"
     inkscape:window-height="868"
     inkscape:window-x="0"
     inkscape:window-y="0"
     inkscape:window-maximized="1"
     inkscape:current-layer="svg1" />
  <path
     fill="currentColor"
     d="m 1141.0625,428 q 69,62 126.5,130 57.5,68 103,141.5 45.5,73.5 66.5,150 21,76.5 11.5,143 -9.5,66.5 -37.5,117.5 -22,38 -57,76 -35,38 -82,60 l -10,5 q 0,0 -11.5,6 -11.5,6 -11,6 0.5,0 -12,7.5 -12.5,7.5 -10,9 2.5,1.5 -9.5,11.5 -12,10 -6,12 -15,36 5,73 22,38 81,47 45,7 87,-17 -16,43 -51,62 -48,26 -124,-5 -76,-32 -114,-117 -80,-12 -241,-36.5 -161,-24.5 -241,-36.5 -57,74 -75,97 -14,-25 -41.5,-73.5 -27.5,-48.5 -40.5,-71.5 -39,-11 -161,-43 13,-16 38,-48.5 25,-32.5 38,-48.5 -30,-68 -94,-218.5 -64,-150.5 -98,-229.5 -91,-15 -141,-81 -50,-66 -36,-118 10,-39 48,-66 -14,47 4,89 24,55 67,66 40,11 71,-12 7,-6 12.5,-13 5.5,-7 8.5,-12 3,-5 6.5,-16 3.5,-11 4.5,-14 1,-3 3,-15.5 l 2,-12.5 q 19,-93 98,-168 42,-40 104,-66 50,-21 112,-24 62,-3 125.5,10 63.5,13 131.5,38.5 68,25.5 130.5,58.5 62.5,33 123.5,73 l 46,-59 q -12,-22 -34.5,-66 -22.5,-44 -33.5,-66 124,-54 373,-163 l -65,402 q -24,-5 -72.5,-16 -48.5,-11 -72.5,-17 z m -562,546 v 1 q 82,-107 170,-221 80,-103 177,-228 -146,-114 -282,-157 -136,-43 -228,0 -54,28 -78,63 -16,23 -28,65 -12,42 -25,65 -15,24 -34,44 29,70 87,205.5 58,135.5 85,200.5 l 42,-50 57,6 z m 705,67 h -1 q 22,-96 -55.5,-219 -77.5,-123 -224.5,-236 -74,96 -176,228 -96,125 -171,220 l 40,108 -38,52 438,66 q 15,-24 34,-44 19,-19 56.5,-41 37.5,-22 55.5,-43 28,-32 42,-91 z"
     id="path1" />
</svg>
