<?xml version="1.0" encoding="UTF-8" standalone="no"?>
<svg
   version="1.1"
   viewBox="-10 0 1375 1000"
   id="svg1"
   sodipodi:docname="lessAActiongreater.svg"
   xmlns:inkscape="http://www.inkscape.org/namespaces/inkscape"
   xmlns:sodipodi="http://sodipodi.sourceforge.net/DTD/sodipodi-0.dtd"
   xmlns="http://www.w3.org/2000/svg"
   xmlns:svg="http://www.w3.org/2000/svg">
  <defs
     id="defs1" />
  <sodipodi:namedview
     id="namedview1"
     pagecolor="#ffffff"
     bordercolor="#000000"
     borderopacity="0.25"
     inkscape:showpageshadow="2"
     inkscape:pageopacity="0.0"
     inkscape:pagecheckerboard="0"
     inkscape:deskcolor="#d1d1d1" />
  <path
     fill="currentColor"
     d="M630 819q62 -86 105 -183q33 -72 53 -148q-8 -7 -26.5 -23t-27.5 -24q-10 2 -29 7t-29 8q-60 124 -181 371.5t-181 371.5q-35 37 -83 47.5t-89 -8.5q-51 -24 -71.5 -81.5t3.5 -116.5q331 -452 479 -655q-12 -44 -16 -58q-44 -15 -68 -23q-55 56 -102 120q-62 86 -106 183 q-95 -71 -146 -177t-48.5 -221.5t59.5 -215.5q54 -95 146.5 -156t199 -75t218.5 19q-72 43 -120.5 103t-64.5 132q-26 125 28 179q35 33 93 37q1 1 2 1q22 -31 67.5 -91.5t67.5 -90.5q-1 -12 -4 -35.5t-4 -34.5q40 -37 122.5 -114.5t125.5 -116.5q-51 220 -77 330 q-11 5 -32.5 14t-32.5 13q-14 34 -44 103.5t-45 105.5l1 1q33 49 79 61q73 21 169 -65q55 -50 82.5 -122t28.5 -155q84 75 126 178t35 212t-63 203q-43 75 -112 128.5t-148.5 79t-168.5 22t-171 -39.5z"
     id="path1" />
</svg>
