<?xml version="1.0" encoding="UTF-8" standalone="no"?>
<svg
   version="1.1"
   viewBox="-10 0 1566 1000"
   id="svg1"
   sodipodi:docname="lessRetaliategreater.svg"
   xmlns:inkscape="http://www.inkscape.org/namespaces/inkscape"
   xmlns:sodipodi="http://sodipodi.sourceforge.net/DTD/sodipodi-0.dtd"
   xmlns="http://www.w3.org/2000/svg"
   xmlns:svg="http://www.w3.org/2000/svg">
  <defs
     id="defs1" />
  <sodipodi:namedview
     id="namedview1"
     pagecolor="#ffffff"
     bordercolor="#000000"
     borderopacity="0.25"
     inkscape:showpageshadow="2"
     inkscape:pageopacity="0.0"
     inkscape:pagecheckerboard="0"
     inkscape:deskcolor="#d1d1d1" />
  <path
     fill="currentColor"
     d="M721 841q29 89 38 211q8 98 -2 198q-82 -58 -152 -128q-86 -86 -133 -167q-28 -46 -50 -100q-129 -316 -252 -622q-21 19 -38 40q-21 25 -36 55q-6 -4 -19 -11.5t-19 -11.5q16 -56 43 -107q29 -55 70 -102q-23 -51 -83 -183q-12 -6 -21 -11q-27 -16 -50 -35q6 -24 14 -48 q14 -44 33 -87q46 14 88 32q24 10 46 21q-1 31 -7 60q-2 12 -5 23q28 61 83 183q62 0 124 14q56 13 109 38q-4 17 -8 44q-32 -8 -65 -10q-27 0 -55 4q149 291 304 598q26 51 43 102zM631 118q254 -22 443.5 41.5t298.5 212t119 367.5q-49 -74 -122 -122t-164.5 -67.5 t-204.5 -0.5t-233 79l-7 -14t-8 -15q-16 -31 -45 -90q101 -44 198.5 -64.5t190.5 -16.5t175.5 42t143.5 110q-41 -85 -106 -144t-141.5 -88.5t-167.5 -37t-182.5 4.5t-188.5 40q-6 -11 -31 -60zM422 -62q-33 -7 -66 -12l-27 -60q62 -10 157 -22q87 -8 175.5 -6.5t180 21 t173 50.5t154.5 81.5t124 113.5l-10 -6q-274 -156 -701 -101l-25 -12q-66 -31 -135 -47z"
     id="path1" />
</svg>
