<?xml version="1.0" encoding="UTF-8" standalone="no"?>
<svg
   version="1.1"
   viewBox="-10 0 1232.9438 1500.2373"
   id="svg1"
   sodipodi:docname="unit_attack.svg"
   width="1232.9438"
   height="1500.2373"
   inkscape:version="1.3.2 (091e20ef0f, 2023-11-25, custom)"
   xmlns:inkscape="http://www.inkscape.org/namespaces/inkscape"
   xmlns:sodipodi="http://sodipodi.sourceforge.net/DTD/sodipodi-0.dtd"
   xmlns="http://www.w3.org/2000/svg"
   xmlns:svg="http://www.w3.org/2000/svg">
  <defs
     id="defs1" />
  <sodipodi:namedview
     id="namedview1"
     pagecolor="#ffffff"
     bordercolor="#000000"
     borderopacity="0.25"
     inkscape:showpageshadow="2"
     inkscape:pageopacity="0.0"
     inkscape:pagecheckerboard="0"
     inkscape:deskcolor="#d1d1d1"
     inkscape:zoom="0.62"
     inkscape:cx="616.12903"
     inkscape:cy="750"
     inkscape:window-width="1440"
     inkscape:window-height="868"
     inkscape:window-x="0"
     inkscape:window-y="0"
     inkscape:window-maximized="1"
     inkscape:current-layer="svg1" />
  <path
     fill="currentColor"
     d="m 558.94382,1069 q 62,-86 105,-183 33,-72 53,-148 -8,-7 -26.5,-23 -18.5,-16 -27.5,-24 -10,2 -29,7 -19,5 -29,8 -60,124 -181,371.5 -121,247.5 -181,371.5 -35,37 -83,47.5 -48,10.5 -89,-8.5 -51,-24 -71.49999978,-81.5 Q -21.05618,1349 2.9438202,1290 333.94382,838 481.94382,635 q -12,-44 -16,-58 -44,-15 -68,-23 -55,56 -102,120 -62,86 -106,183 -95,-71 -146,-177 Q -7.0561798,574 -4.5561798,458.5 -2.0561798,343 54.94382,243 q 54,-95 146.5,-156 92.5,-61 199,-75 106.5,-14 218.5,19 -72,43 -120.5,103 -48.5,60 -64.5,132 -26,125 28,179 35,33 93,37 1,1 2,1 22,-31 67.5,-91.5 45.5,-60.5 67.5,-90.5 -1,-12 -4,-35.5 -3,-23.5 -4,-34.5 40,-37 122.5,-114.5 82.5,-77.5 125.5,-116.5 -51,220 -77,330 -11,5 -32.5,14 -21.5,9 -32.5,13 -14,34 -44,103.5 -30,69.5 -45,105.5 l 1,1 q 33,49 79,61 73,21 169,-65 54.99998,-50 82.49998,-122 27.5,-72 28.5,-155 84,75 126,178 42,103 35,212 -7,109 -63,203 -43,75 -112,128.5 -68.99998,53.5 -148.49998,79 -79.5,25.5 -168.5,22 -89,-3.5 -171,-39.5 z"
     id="path1" />
</svg>
