<?xml version="1.0" encoding="UTF-8" standalone="no"?>
<!-- Created with Inkscape (http://www.inkscape.org/) -->

<svg
   width="1600"
   height="1600"
   viewBox="0 0 6.5390201 6.5385098"
   version="1.1"
   id="svg1"
   sodipodi:docname="unit_ground-yellow.svg"
   inkscape:version="1.4.2 (ebf0e940d0, 2025-05-08)"
   xmlns:inkscape="http://www.inkscape.org/namespaces/inkscape"
   xmlns:sodipodi="http://sodipodi.sourceforge.net/DTD/sodipodi-0.dtd"
   xmlns="http://www.w3.org/2000/svg"
   xmlns:svg="http://www.w3.org/2000/svg">
  <sodipodi:namedview
     id="namedview1"
     pagecolor="#ffffff"
     bordercolor="#000000"
     borderopacity="0.25"
     inkscape:showpageshadow="2"
     inkscape:pageopacity="0.0"
     inkscape:pagecheckerboard="0"
     inkscape:deskcolor="#d1d1d1"
     inkscape:document-units="mm"
     inkscape:zoom="0.22160563"
     inkscape:cx="1455.288"
     inkscape:cy="819.02252"
     inkscape:window-width="1440"
     inkscape:window-height="868"
     inkscape:window-x="0"
     inkscape:window-y="0"
     inkscape:window-maximized="1"
     inkscape:current-layer="layer1" />
  <defs
     id="defs1" />
  <g
     inkscape:label="Layer 1"
     inkscape:groupmode="layer"
     id="layer1"
     transform="translate(-110.33157,-111.65418)">
    <path
       d="m 116.40422,112.99773 0.003,0.003 -0.53022,0.0228 -0.2966,0.53101 -0.16616,-0.16589 -0.49451,0.49424 c 0.32571,-0.0392 0.64929,-0.0926 0.97103,-0.1606 -0.26829,0.72549 -0.43815,1.43801 -0.49001,2.14021 -0.0109,0.14685 -0.0201,0.32941 -0.0548,0.53155 l 1.52426,1.52321 -0.27543,0.27543 -1.36419,-1.3626 c -0.0595,0.1598 -0.14235,0.32411 -0.2585,0.48524 -0.322,0.44688 -0.80936,0.74084 -1.3671,0.87736 -0.58499,-0.16192 -1.06071,-0.44873 -1.37583,-0.87736 -0.11774,-0.16007 -0.20109,-0.32305 -0.26115,-0.48286 l -1.36075,1.36022 -0.27569,-0.27543 1.52082,-1.5203 c -0.0347,-0.20373 -0.0437,-0.38946 -0.055,-0.53816 -0.0526,-0.70115 -0.22093,-1.41182 -0.48684,-2.13651 0.32174,0.068 0.64585,0.12144 0.97155,0.1606 l -0.49477,-0.49424 -0.16589,0.16589 -0.29686,-0.53101 -0.53023,-0.0228 0.003,-0.003 -0.46566,-1.34276 5.2e-4,-7.9e-4 1.34832,0.4609 -0.002,0.002 0.0228,0.53102 0.53049,0.29607 -0.16854,0.1688 0.82656,0.82576 c 0.23415,0.0151 0.4691,0.0228 0.70432,0.0228 0.23997,5.3e-4 0.47942,-0.007 0.71834,-0.0228 l 0.82656,-0.82576 -0.1688,-0.1688 0.53049,-0.29607 0.023,-0.53102 -0.002,-0.002 1.34831,-0.4609 5.3e-4,7.9e-4"
       fill="#f6e495"
       id="path525"
       style="stroke-width:0.0264583;fill:#f6e495;fill-opacity:1" />
  </g>
</svg>
