<?xml version="1.0" encoding="UTF-8" standalone="no"?>
<svg
   version="1.1"
   viewBox="-10 0 1475 1518"
   id="svg1"
   sodipodi:docname="unit_retaliate.svg"
   width="1475"
   height="1518"
   inkscape:version="1.3.2 (091e20ef0f, 2023-11-25, custom)"
   xmlns:inkscape="http://www.inkscape.org/namespaces/inkscape"
   xmlns:sodipodi="http://sodipodi.sourceforge.net/DTD/sodipodi-0.dtd"
   xmlns="http://www.w3.org/2000/svg"
   xmlns:svg="http://www.w3.org/2000/svg">
  <defs
     id="defs1" />
  <sodipodi:namedview
     id="namedview1"
     pagecolor="#ffffff"
     bordercolor="#000000"
     borderopacity="0.25"
     inkscape:showpageshadow="2"
     inkscape:pageopacity="0.0"
     inkscape:pagecheckerboard="0"
     inkscape:deskcolor="#d1d1d1"
     inkscape:zoom="0.54661558"
     inkscape:cx="755.55841"
     inkscape:cy="766.53505"
     inkscape:window-width="1440"
     inkscape:window-height="868"
     inkscape:window-x="0"
     inkscape:window-y="0"
     inkscape:window-maximized="1"
     inkscape:current-layer="svg1" />
  <path
     fill="currentColor"
     d="m 694,1109 q 29,89 38,211 8,98 -2,198 -82,-58 -152,-128 -86,-86 -133,-167 -28,-46 -50,-100 Q 266,807 143,501 122,520 105,541 84,566 69,596 63,592 50,584.5 37,577 31,573 47,517 74,466 103,411 144,364 121,313 61,181 49,175 40,170 13,154 -10,135 -4,111 4,87 18,43 37,0 q 46,14 88,32 24,10 46,21 -1,31 -7,60 -2,12 -5,23 28,61 83,183 62,0 124,14 56,13 109,38 -4,17 -8,44 -32,-8 -65,-10 -27,0 -55,4 149,291 304,598 26,51 43,102 z M 604,386 Q 858,364 1047.5,427.5 1237,491 1346,639.5 1455,788 1465,1007 1416,933 1343,885 1270,837 1178.5,817.5 1087,798 974,817 861,836 741,896 l -7,-14 q 0,0 -8,-15 Q 710,836 681,777 782,733 879.5,712.5 977,692 1070,696 q 93,4 175.5,42 82.5,38 143.5,110 -41,-85 -106,-144 -65,-59 -141.5,-88.5 Q 1065,586 974,578.5 883,571 791.5,583 700,595 603,623 597,612 572,563 Z M 395,206 q -33,-7 -66,-12 l -27,-60 q 62,-10 157,-22 87,-8 175.5,-6.5 88.5,1.5 180,21 91.5,19.5 173,50.5 81.5,31 154.5,81.5 73,50.5 124,113.5 l -10,-6 Q 982,210 555,265 L 530,253 Q 464,222 395,206 Z"
     id="path1" />
</svg>
