<?xml version="1.0" encoding="UTF-8" standalone="no"?>
<svg
   version="1.1"
   id="Layer_1"
   x="0px"
   y="0px"
   width="76.755836"
   viewBox="0 0 76.755836 70.243073"
   enable-background="new 0 0 92 82"
   xml:space="preserve"
   sodipodi:docname="unit_flying.svg"
   inkscape:version="1.3.2 (091e20ef0f, 2023-11-25, custom)"
   height="70.243073"
   xmlns:inkscape="http://www.inkscape.org/namespaces/inkscape"
   xmlns:sodipodi="http://sodipodi.sourceforge.net/DTD/sodipodi-0.dtd"
   xmlns="http://www.w3.org/2000/svg"
   xmlns:svg="http://www.w3.org/2000/svg"><defs
   id="defs19" /><sodipodi:namedview
   id="namedview19"
   pagecolor="#ffffff"
   bordercolor="#000000"
   borderopacity="0.25"
   inkscape:showpageshadow="2"
   inkscape:pageopacity="0.0"
   inkscape:pagecheckerboard="0"
   inkscape:deskcolor="#d1d1d1"
   inkscape:zoom="10.012195"
   inkscape:cx="39.551767"
   inkscape:cy="37.454324"
   inkscape:window-width="1440"
   inkscape:window-height="868"
   inkscape:window-x="0"
   inkscape:window-y="0"
   inkscape:window-maximized="1"
   inkscape:current-layer="Layer_1" />


<path
   fill="#21211f"
   opacity="1"
   stroke="none"
   d="M 64.414282,9.017779 C 67.998731,6.004639 71.407842,3.273877 75.494985,0 c 0.385987,2.43649 0.717781,4.530884 1.260849,7.445687 -0.993248,4.804937 -2.197769,8.789465 -3.696655,12.942449 -5.304665,6.207506 -11.937836,9.33403 -19.423279,11.107552 -1.637634,0.388004 -3.059913,1.684952 -4.581371,2.563301 0.250805,0.487209 0.501614,0.974419 0.752422,1.461632 7.759178,-0.09023 15.367783,-0.747933 21.718804,-6.145008 1.211693,0.153884 2.423378,0.307766 3.98159,0.505661 -0.478889,1.444763 -0.862495,2.602073 -1.587135,4.348842 -1.07164,2.411415 -1.802262,4.233368 -2.904282,6.100449 -0.868004,0.0843 -1.50322,-0.06209 -1.840744,0.190044 -6.763428,5.052357 -14.093788,6.104321 -22.142059,3.623833 -1.031109,-0.317787 -2.568444,1.00695 -5.219502,2.154262 3.931118,2.314682 6.309483,3.715085 8.979855,5.33957 3.777241,1.083553 7.262481,1.943027 10.747719,2.802505 -0.888955,1.162724 -1.777909,2.325447 -3.219315,3.83358 -8.561623,5.337982 -15.936943,3.63102 -23.398937,-2.486923 -1.100254,1.834606 -2.507027,3.300472 -2.720394,4.923256 -0.100216,0.762199 2.097427,1.826523 3.253753,2.753937 1.019081,1.769676 2.038163,3.539352 2.688149,5.705291 -1.804222,0.671341 -3.239346,0.946427 -5.011978,1.073151 -2.92891,-1.136025 -5.501889,-2.176682 -8.120255,-3.086754 -1.139433,-0.396027 -2.443027,-0.908562 -3.54969,-0.704498 -4.030691,0.743217 -8.009712,1.76667 -12.383178,2.544983 C 7.64164,68.824278 6.578893,68.791266 5.182318,68.657797 4.387238,68.587687 3.92599,68.618037 3.168485,68.577417 2.393102,68.765787 1.913975,69.025102 1.148124,69.242227 0.574268,68.947107 0.287133,68.694192 0,68.44127 1.093332,67.385675 2.03672,66.082559 3.304337,65.314668 11.52927,60.332174 18.245222,53.932695 23.048757,44.733263 25.278202,37.986711 27.133199,31.804262 28.988195,25.621812 28.725763,21.871475 31.686273,22.101383 33.960417,21.775455 45.120336,20.17604 55.166837,15.935792 64.414282,9.017782 Z"
   id="path3" />
















</svg>
