<?xml version="1.0" encoding="UTF-8" standalone="no"?>
<svg
   version="1.1"
   id="Layer_1"
   x="0px"
   y="0px"
   width="100%"
   viewBox="0 0 96 92"
   enable-background="new 0 0 96 92"
   xml:space="preserve"
   sodipodi:docname="unit_ground.svg"
   inkscape:version="1.3.2 (091e20e, 2023-11-25, custom)"
   xmlns:inkscape="http://www.inkscape.org/namespaces/inkscape"
   xmlns:sodipodi="http://sodipodi.sourceforge.net/DTD/sodipodi-0.dtd"
   xmlns="http://www.w3.org/2000/svg"
   xmlns:svg="http://www.w3.org/2000/svg"><defs
   id="defs28" /><sodipodi:namedview
   id="namedview28"
   pagecolor="#ffffff"
   bordercolor="#000000"
   borderopacity="0.25"
   inkscape:showpageshadow="2"
   inkscape:pageopacity="0.0"
   inkscape:pagecheckerboard="0"
   inkscape:deskcolor="#d1d1d1"
   inkscape:zoom="8.923913"
   inkscape:cx="47.961023"
   inkscape:cy="46"
   inkscape:window-width="1920"
   inkscape:window-height="1017"
   inkscape:window-x="-8"
   inkscape:window-y="-8"
   inkscape:window-maximized="1"
   inkscape:current-layer="Layer_1" />









<path
   fill="#20201E"
   opacity="1.000000"
   stroke="none"
   d=" M13.882487,86.934410   C13.425693,86.675972 12.968899,86.417534 12.153873,85.785141   C11.392253,84.939796 10.988864,84.468407 10.585476,83.997025   C14.940407,79.502304 19.295338,75.007591 24.127428,70.076233   C25.639675,67.743477 27.797613,65.664543 27.523609,63.981544   C25.996784,54.603497 23.880705,45.321377 22.348370,35.737640   C25.377096,35.671219 28.023586,35.873611 31.795887,36.162109   C27.454271,32.494129 24.259424,29.667643 20.890203,27.067066   C20.290648,26.604294 18.967041,27.079575 17.615273,27.029810   C16.182055,25.304050 15.084805,23.686798 14.048062,22.031647   C13.008381,20.371803 12.029058,18.674156 11.023282,16.993076   C11.023282,15.342740 11.023282,13.692403 11.023282,11.307557   C15.783511,12.919870 20.223032,14.422033 24.660614,15.929903   C24.968758,16.034611 25.533113,16.270996 25.524681,16.296572   C23.650301,21.981279 31.058849,23.198954 31.152838,28.068491   C31.197990,30.407784 40.442307,37.647514 42.965706,37.784481   C44.957260,37.892574 47.012730,37.563328 48.942833,37.933708   C56.809395,39.443260 62.025059,34.275913 64.501595,28.875324   C66.409348,24.715067 72.610146,22.745224 70.980133,16.849581   C70.918594,16.627003 72.170891,15.884615 72.896996,15.626695   C77.067963,14.145111 81.264923,12.736703 86.040787,11.102353   C85.588806,12.860399 85.277405,14.071616 84.744858,15.872068   C84.320503,17.297466 84.117294,18.133631 83.654686,19.220207   C81.996590,23.090649 81.964203,27.958193 75.848198,27.134645   C75.111351,27.035427 74.096825,28.794205 73.256073,29.732233   C72.519608,30.553913 72.009697,31.720272 71.112991,32.228512   C68.954964,33.451649 66.628868,34.378265 64.370567,35.424492   C64.580750,35.849243 64.790932,36.273994 65.001106,36.698746   C68.905724,36.160881 72.810341,35.623016 76.714958,35.085148   C76.119835,36.107742 75.524712,37.130337 74.539291,38.554474   C72.487556,46.444832 70.830864,53.934708 69.162704,61.422024   C68.311035,65.244621 69.445557,68.191566 72.940041,70.120262   C77.253601,74.539185 81.567169,78.958115 86.022736,83.687607   C85.803596,84.418892 85.442451,84.839592 84.984657,85.521141   C84.186676,86.049522 83.485336,86.317047 82.492409,86.523941   C77.137283,81.791000 72.073753,77.118675 67.718796,73.100189   C64.505157,76.258347 60.880993,79.819931 56.732780,83.716469   C55.253708,84.628975 54.298695,85.206543 53.343681,85.784111   C52.579681,85.976883 51.815685,86.169655 50.476025,86.592064   C45.259861,84.907379 40.619354,82.993050 35.865913,80.824348   C35.167004,80.158806 34.581032,79.747635 33.984062,79.308708   C33.973064,79.280952 33.915100,79.266586 33.769352,78.950058   C26.027763,71.798111 26.796364,74.048607 21.415804,79.182816   C18.810938,81.668419 16.387867,84.344543 13.882487,86.934410  z"
   id="path10" />












<path
   fill="#BDB9B4"
   opacity="1.000000"
   stroke="none"
   d=" M53.744915,85.836578   C54.298695,85.206543 55.253708,84.628975 56.540550,83.996323   C55.963634,84.590500 55.054893,85.239769 53.744915,85.836578  z"
   id="path23" />





</svg>
