<?xml version="1.0" encoding="UTF-8" standalone="no"?>
<svg
   version="1.1"
   viewBox="-10 0 1378 1378"
   id="svg1"
   sodipodi:docname="valuablegreater.svg"
   inkscape:version="1.3.2 (091e20ef0f, 2023-11-25, custom)"
   width="1378"
   height="1378"
   xmlns:inkscape="http://www.inkscape.org/namespaces/inkscape"
   xmlns:sodipodi="http://sodipodi.sourceforge.net/DTD/sodipodi-0.dtd"
   xmlns="http://www.w3.org/2000/svg"
   xmlns:svg="http://www.w3.org/2000/svg">
  <defs
     id="defs1" />
  <sodipodi:namedview
     id="namedview1"
     pagecolor="#ffffff"
     bordercolor="#000000"
     borderopacity="0.25"
     inkscape:showpageshadow="2"
     inkscape:pageopacity="0.0"
     inkscape:pagecheckerboard="0"
     inkscape:deskcolor="#d1d1d1"
     inkscape:zoom="0.19560185"
     inkscape:cx="1216.7574"
     inkscape:cy="347.64497"
     inkscape:window-width="1440"
     inkscape:window-height="868"
     inkscape:window-x="0"
     inkscape:window-y="0"
     inkscape:window-maximized="1"
     inkscape:current-layer="svg1" />
  <path
     fill="currentColor"
     d="M 1368,732 1204,711 1146,576 1367,432 Z M 396,701 325,785 58,842 -10,476 Z M 761,0 987,470 750,603 473,415 Z m 19,652 214,-121 -108,796 -115,49 z M 588,1332 462,477 719,650 709,1378 Z m 388,-251 225,-321 150,20 -406,533 z m 184,-348 -169,242 28,-208 91,-149 z M 472,931 370,808 l 63,-75 12,14 z M 328,835 486,1025 525,1288 85,887 Z"
     id="path1"
     sodipodi:nodetypes="ccccccccccccccccccccccccccccccccccccccccccccc"
     style="fill:#e63323;fill-opacity:1" />
</svg>
