<?xml version="1.0" encoding="UTF-8" standalone="no"?>
<svg
   version="1.1"
   viewBox="-10 0 871 1194"
   id="svg1"
   sodipodi:docname="zero.svg"
   width="871"
   height="1194"
   inkscape:version="1.3.2 (091e20ef0f, 2023-11-25, custom)"
   xmlns:inkscape="http://www.inkscape.org/namespaces/inkscape"
   xmlns:sodipodi="http://sodipodi.sourceforge.net/DTD/sodipodi-0.dtd"
   xmlns="http://www.w3.org/2000/svg"
   xmlns:svg="http://www.w3.org/2000/svg">
  <defs
     id="defs1" />
  <sodipodi:namedview
     id="namedview1"
     pagecolor="#ffffff"
     bordercolor="#000000"
     borderopacity="0.25"
     inkscape:showpageshadow="2"
     inkscape:pageopacity="0.0"
     inkscape:pagecheckerboard="0"
     inkscape:deskcolor="#d1d1d1"
     inkscape:zoom="0.62"
     inkscape:cx="430.64516"
     inkscape:cy="643.54839"
     inkscape:window-width="1440"
     inkscape:window-height="868"
     inkscape:window-x="0"
     inkscape:window-y="0"
     inkscape:window-maximized="1"
     inkscape:current-layer="svg1" />
  <path
     fill="currentColor"
     d="m 794,251 q 67,158 67,346 0,171 -57,320 -34,92 -91,150 -58,59 -130,93 -73,34 -158,34 -97,0 -176,-42 Q 170,1109 109,1031 66,973 33,878 -10,748 -10,610 -10,424 52,267 102,138 205.5,69 309,0 425,0 542,0 644,68 746,136 794,251 Z M 550,959 554,595 Q 554,295 550,244 540,127 503,85 478,58 422,58 379,58 354,79 317,108 304.5,183 292,258 292,705 q 0,244 19,327 15,60 43,80 28,20 74,20 49,0 74,-27 42,-47 48,-146 z"
     id="path1" />
</svg>
