<?xml version="1.0" encoding="UTF-8" standalone="no"?>
<svg
   version="1.1"
   viewBox="-10 0 1983 1000"
   id="svg1"
   sodipodi:docname="movement.svg"
   inkscape:export-filename="for-notes/movement.png"
   inkscape:export-xdpi="96"
   inkscape:export-ydpi="96"
   inkscape:version="1.3.2 (091e20ef0f, 2023-11-25, custom)"
   xmlns:inkscape="http://www.inkscape.org/namespaces/inkscape"
   xmlns:sodipodi="http://sodipodi.sourceforge.net/DTD/sodipodi-0.dtd"
   xmlns="http://www.w3.org/2000/svg"
   xmlns:svg="http://www.w3.org/2000/svg">
  <defs
     id="defs1" />
  <sodipodi:namedview
     id="namedview1"
     pagecolor="#ffffff"
     bordercolor="#000000"
     borderopacity="0.25"
     inkscape:showpageshadow="2"
     inkscape:pageopacity="0.0"
     inkscape:pagecheckerboard="0"
     inkscape:deskcolor="#d1d1d1"
     inkscape:zoom="0.43166919"
     inkscape:cx="992.65829"
     inkscape:cy="500.38318"
     inkscape:window-width="1440"
     inkscape:window-height="868"
     inkscape:window-x="0"
     inkscape:window-y="0"
     inkscape:window-maximized="1"
     inkscape:current-layer="svg1" />
  <path
     fill="currentColor"
     d="M1791 41q-50 -24 -105 -48q3 96 -7 192q-14 139 -47 230l-2 4q49 31 88 63q41 34 76 70q-10 72 -13 147q-3 69 0 138l-124 160q-27 -35 -44 -74q-12 -26 -19 -51l92 -67q-9 -50 -10 -99q0 -45 7 -86q-35 -5 -70 -13q-32 -8 -69 -22q-41 66 -122 179q-27 37 -41.5 59 t-32.5 56.5t-24.5 69t-4.5 71.5q4 54 29 105h-175q22 -143 70 -278q45 -125 112 -240q-83 36 -172 25q-92 -11 -165 -70q-24 40 -51 77q-57 74 -131 131q44 88 96 176q53 92 111 179h-204q20 -51 10 -99q-8 -39 -41 -80q-52 -63 -144 -144q74 -63 83 -134q4 -26 -2 -54 q-24 16 -58.5 36t-53.5 31.5t-38 30t-29 39.5q-41 90 10 205q40 90 120 155h-180q-15 -41 -41 -76q-25 -34 -60 -60q2 -15 11.5 -52t8.5 -60q-1 -99 -22 -195q72 -69 137 -138q51 -54 101 -111q-10 -30 -13 -57q-5 -39 1 -81q-41 -20 -80 -16q-40 4 -86 31t-89.5 73 t-77.5 119.5t-44 158.5q-53 -8 -102 -26q-54 -19 -102 -48q36 -90 87 -166.5t104.5 -127.5t109.5 -85t105.5 -46.5t88.5 -4.5q56 11 104 69q22 -56 65 -88q73 -54 200 -29q43 9 101 39.5t100 37.5q44 8 93 0q-14 -15 -23 -28q-19 -28 -29 -61q168 -142 223 -243 q31 -57 72 -85q51 -36 124 -41q18 -70 23 -143q25 42 38 89q6 20 10 42q71 54 134 109q90 77 175 163l-96 105q-38 -20 -76 -38z"
     id="path1"
     style="fill:#e8d66b;fill-opacity:1" />
</svg>
