<?xml version="1.0" encoding="UTF-8" standalone="no"?>
<svg
   version="1.1"
   viewBox="-10 0 1890625 1000000"
   id="svg1"
   sodipodi:docname="unit_attack.svg"
   inkscape:export-filename="for-notes/unit_attack.png"
   inkscape:export-xdpi="96"
   inkscape:export-ydpi="96"
   width="1890625"
   height="1000000"
   xmlns:inkscape="http://www.inkscape.org/namespaces/inkscape"
   xmlns:sodipodi="http://sodipodi.sourceforge.net/DTD/sodipodi-0.dtd"
   xmlns="http://www.w3.org/2000/svg"
   xmlns:svg="http://www.w3.org/2000/svg">
  <defs
     id="defs1" />
  <sodipodi:namedview
     id="namedview1"
     pagecolor="#ffffff"
     bordercolor="#000000"
     borderopacity="0.25"
     inkscape:showpageshadow="2"
     inkscape:pageopacity="0.0"
     inkscape:pagecheckerboard="0"
     inkscape:deskcolor="#d1d1d1" />
  <path
     fill="currentColor"
     d="m 630,819 q 62,-86 105,-183 33,-72 53,-148 -8,-7 -26.5,-23 -18.5,-16 -27.5,-24 -10,2 -29,7 -19,5 -29,8 Q 616,580 495,827.5 374,1075 314,1199 279,1236 231,1246.5 183,1257 142,1238 91,1214 70.5,1156.5 50,1099 74,1040 405,588 553,385 541,341 537,327 493,312 469,304 414,360 367,424 305,510 261,607 166,536 115,430 64,324 66.5,208.5 69,93 126,-7 q 54,-95 146.5,-156 92.5,-61 199,-75 106.5,-14 218.5,19 -72,43 -120.5,103 -48.5,60 -64.5,132 -26,125 28,179 35,33 93,37 1,1 2,1 22,-31 67.5,-91.5 Q 741,81 763,51 762,39 759,15.5 756,-8 755,-19 795,-56 877.5,-133.5 960,-211 1003,-250 952,-30 926,80 915,85 893.5,94 872,103 861,107 847,141 817,210.5 787,280 772,316 l 1,1 q 33,49 79,61 73,21 169,-65 55,-50 82.5,-122 27.5,-72 28.5,-155 84,75 126,178 42,103 35,212 -7,109 -63,203 -43,75 -112,128.5 -69,53.5 -148.5,79 Q 890,862 801,858.5 712,855 630,819 Z"
     id="path1"
     style="fill:#e8d66b;fill-opacity:1" />
</svg>
